<?xml version="1.0" encoding="UTF-8"?>
<svg viewBox="0 0 640 480" xmlns="http://www.w3.org/2000/svg" xmlns:xlink="http://www.w3.org/1999/xlink">
 <defs>
  <symbol id="r">
   <g display="none">
    <path d="m-329.18-162.64l845.85-40.081c54.848-5.2202 119.26 0.71716 144.42 13.313l429.44 214.96c25.163 12.595 1.2642 26.938-53.584 32.158l-818.53 77.905c-54.848 5.2203-119.26-0.7171-144.42-13.313l-456.75-252.78c-25.163-12.595-1.2641-26.938 53.584-32.158h6.1e-5z" fill-rule="evenodd" filter="url(#q)" stroke-linecap="round" stroke-linejoin="round"/>
    <path d="m-329.18-164.64l845.85-40.081c54.848-5.2202 119.26 0.71716 144.42 13.313l429.44 214.96c25.163 12.595 1.2642 26.938-53.584 32.158l-818.53 77.905c-54.848 5.2203-119.26-0.7171-144.42-13.313l-456.75-252.78c-25.163-12.595-1.2641-26.938 53.584-32.158h6.1e-5z" fill="url(#p)" fill-rule="evenodd" stroke-linecap="round" stroke-linejoin="round"/>
   </g>
   <g display="none">
    <path d="m-111.43-121.59c4-6 42.719-13.513 58-4 68 42.333 162 86.667 230 129 0 0 45.512-30.294 102-32 75.5-2.25 113 16 113 16 44.676-39.283 68.667-26.667 108-7 0 0 38.5-30 92-34s99 7 133.5 29c-10.763-18.45-162.65-113.11-171.5-121-3.9017-3.4799-48.833-2.6667-50-12.5 5.8333-4.1667 46.989 0.28659 52 4 26.555 19.678 176.55 104.86 194 131-9.5514 22.137-71.667 28.167-109 23.5-46.667 0-74.333 3-121 3-25.333-6-57.878-28.497-80-27-22.167 1.5-55 28-69 38s-132 12-132 12c-26 0.66669-44 1.3333-70 2-74.333-48.333-156.67-96.667-231-145-12.824-8.3387-46 4-49-5z" fill-opacity=".072" fill-rule="evenodd" filter="url(#o)" stroke-width=".313"/>
   </g>
   <g display="none">
    <path d="m614.32-145.79c-1.8196-0.005524-3.644 0.005219-5.4623 0.031311-32.069 0.83429-64.115 3.7126-95.895 7.81-22.551 3.3346-45.419 6.6668-66.643 15.119-23.047 6.5652-47.498 6.9382-71.197 4.3197-18.111-4.9671-37.126-5.3557-55.828-6.0101-34.005-0.4838-68.039 1.0132-101.89 4.2415-25.093 2.774-50.156 7.8819-73.279 18.328-8.6735 4.0008-18.138 5.548-27.624 5.6814-1.5309 0.31464-4.9405-0.5462-4.1163 2.2068 0.17584 4.8895-0.31295 10.006 0.17217 14.79 0.30925 0.095703 0.62456 0.18066 0.93906 0.26611-0.37082-4.5727 0.057373-9.4131-0.10956-14.055-0.82423-2.7531 2.5854-1.8922 4.1163-2.2068 9.4863-0.13336 18.951-1.6806 27.624-5.6814 23.123-10.446 48.186-15.554 73.279-18.328 33.85-3.2283 67.885-4.7253 101.89-4.2415 18.702 0.65433 37.717 1.043 55.828 6.0101 23.7 2.6185 48.151 2.2455 71.197-4.3197 21.223-8.4523 44.092-11.784 66.643-15.119 31.78-4.0973 63.826-6.9756 95.895-7.8099 14.547-0.20865 29.148 0.56937 43.526 2.6294 12.292 1.3946 23.873 6.1938 35.998 8.2951 6.8712 1.3 14.017-0.17435 20.879-0.10956-0.013306-0.3273-0.015991-0.66083-0.031311-0.98602-7.1565-0.23071-14.654 1.4553-21.849 0.093903-12.125-2.1013-23.705-6.9005-35.998-8.2951-12.581-1.8025-25.326-2.6221-38.064-2.6607zm62.746 18.249c3.7993 4.1431 5.7102 10.117 6.73 15.51 2.9469 19.048-0.072083 38.528-4.6328 57.064-2.05 6.7466-3.418 13.951-7.1213 20.002-4.3898 5.8321-11.607 8.2413-18.578 9.1716-27.144 4.1255-54.734 4.73-82.153 5.6813-28.715 0.59168-57.482 1.2193-86.176-0.35992-4.675 0.09314-9.0797-1.8284-12.427-4.9615 3.4398 3.7231 8.2726 6.0659 13.429 5.9631 28.693 1.5793 57.46 0.95166 86.176 0.35998 27.42-0.95142 55.009-1.5558 82.153-5.6814 6.9715-0.93036 14.188-3.3395 18.578-9.1716 3.7032-6.0511 5.0713-13.256 7.1213-20.002 4.5607-18.536 7.5797-38.017 4.6328-57.064-1.106-5.8488-3.2557-12.374-7.7317-16.512zm-304.13 24.4c1.2607 1.3971 2.2535 3.0467 2.8485 5.0084 3.451 11.539 0.001404 23.775-3.3181 34.933-5.2695 15.501-11.996 30.664-21.098 44.309-3.5479 5.1423-9.6097 7.7393-15.667 8.4986-35.517 6.1848-71.36 10.085-107.24 13.476-21.078 1.6403-42.263 3.8323-63.419 2.5511-4.5314-0.18115-9.2876-1.856-12.693-4.8988 3.433 3.6674 8.6943 5.7006 13.695 5.9005 21.155 1.2812 42.341-0.91089 63.419-2.5511 35.882-3.3911 71.725-7.2909 107.24-13.476 6.0572-0.75928 12.119-3.3563 15.667-8.4987 9.102-13.645 15.828-28.808 21.098-44.309 3.3195-11.158 6.7691-23.395 3.3181-34.934-0.74509-2.4565-2.1089-4.4165-3.8502-6.01zm57.456 4.6484c1.4251 1.5475 2.5106 3.4029 3.0989 5.5875 5.0158 18.583 9.675 37.617 20.237 53.997 4.6118 7.032 9.1937 14.216 15.229 20.096-5.5484-5.6848-9.8732-12.456-14.227-19.094-10.562-16.38-15.221-35.413-20.237-53.997-0.72022-2.6745-2.1809-4.8615-4.1006-6.5892zm-299.38 24.823c0.9149 1.9929-0.36267 4.6178 0.015671 6.777-0.28439 21.946 4.2252 43.828 11.472 64.389 1.2523 3.6475 3.3815 7.2011 6.2448 9.8915-2.3612-2.5426-4.1415-5.6812-5.2431-8.8899-7.2471-20.561-11.757-42.443-11.472-64.389-0.42009-2.3975 1.218-5.3772-0.39127-7.4186-0.20686-0.12824-0.41487-0.24188-0.62605-0.35998z" fill="#fff" fill-rule="evenodd" filter="url(#n)" stroke-linecap="round" stroke-linejoin="round"/>
   </g>
   <path d="m279.68 4.1427l-78.795-37.094c-2.5222-1.1874-9.0662 0.10708-10.28 1.285l13.492 2.57s48.186 23.986 49.471 25.271 26.923 16.735 26.923 16.735l-0.38779-8.27c-0.012207-0.26075-0.18793-0.38606-0.4241-0.49724z" fill="#fff" fill-opacity=".978" fill-rule="evenodd" filter="url(#m)" opacity=".414" stroke-width=".313"/>
   <path d="m58.48 11.163c-9.5388 0.67773-19.66 1.777-31.163 4.9485-7.2688 2.0041-12.424 4.8389-15.985 5.8474-4.8079 1.3613-5.7738 0.85742-10.627 1.3716-0.46507 0.049255-0.70458 0.45612-0.70458 0.88287v7.0605c0 0.44708 0.19574 0.78503 0.58715 0.87158 2.7546 0.60931 8.3663 1.3938 8.2788 2.4813-0.93748 11.657 2.4503 25.06 4.8293 31.933 1.7794 5.1403 4.3234 8.1224 9.5852 8.3553 22.099 0.97809 48.218-2.3919 71.295-5.802 7.1481-1.0563 16.377-1.2463 20.389-6.6498 10.113-13.619 11.941-22.279 14.62-32.136 0.73312-2.6978 1.2882-5.1298 2.9357-6.9886 1.6476-1.8589 5.1949-3.0016 7.721-3.1335v0.014709c3.0426-0.36639 5.8294 0.39368 8.1173 2.0809 1.9083 1.4073 2.2026 4.0023 2.9357 6.6039 2.6786 9.5055 4.5071 17.926 14.62 30.22 4.0123 4.8776 13.241 3.8582 20.389 3.9777 23.077 0.38574 49.196 0.3327 71.295-3.5415 5.2618-0.92248 7.8058-4.238 9.5852-9.6115 2.379-7.1843 5.7668-21.031 4.8293-32.566-0.087433-1.0761 5.5242-2.5959 8.2788-3.5663 0.39142-0.13788 0.58716-0.50146 0.58716-0.94855v-7.0605c0-0.42676-0.2395-0.80218-0.70456-0.79053-4.8536 0.12189-5.8196 0.75244-10.627 0.021179-3.5615-0.54169-8.7164-2.701-15.985-3.7525-13.146-1.9016-24.481-1.3284-35.214-0.59882-34.759 2.3621-53.711 6.6274-60.99 9.868-10.038 3.212-23.639 3.4756-33.834 2.2171-7.2795-2.2867-26.232-4.0681-60.99-1.8749-1.3416 0.084595-2.6886 0.16864-4.0513 0.26544zm-0.24954 4.6842c26.162-1.8388 54.736-0.16016 60.917 2.8926 1.9466 0.96143 3.2164 1.7313 4.022 3.7584 3.5587 8.9544-5.5889 28.247-10.334 35.847-1.2168 1.9491-2.8104 3.6182-4.9614 4.3471-6.8141 2.309-78.559 11.188-85.959 7.5116-1.9441-0.966-3.2247-1.7369-4.022-3.7584-5.0116-12.707-6.9518-31.151-2.8183-38.743 1.0892-2.0007 1.9585-3.3035 4.022-4.2855 8.6018-4.0939 23.436-6.4666 39.133-7.5698zm164.42-10.774c15.697-0.95392 30.532-0.52545 39.133 2.4411 2.0635 0.71167 2.9327 1.9005 4.0219 3.7584 4.1335 7.0507 2.1933 25.749-2.8183 39.113-0.7973 2.126-2.0778 3.0648-4.022 4.2855-7.3992 4.6461-79.145 5.1697-85.959 3.7538-2.151-0.44696-3.7446-1.9072-4.9614-3.6968-4.7449-6.9788-13.892-25.072-10.334-34.493 0.80563-2.1328 2.0754-3.069 4.022-4.2855 6.1811-3.8629 34.755-9.2863 60.917-10.876z" fill-opacity=".98" fill-rule="evenodd" stroke-linecap="round" stroke-linejoin="round"/>
   <path d="m233.98 0.4787c-20.369 0.57522-40.746 2.3439-60.77 6.121-6.5202 1.0258-12.713 3.4486-19.009 5.3284-10.336 2.3077-21.219 2.6732-31.677 1.0569-14.807-3.2969-30.19-2.6597-45.284-2.3486-21.487 0.90042-43.655 1.799-63.412 10.994-4.0781 1.785-8.6055 1.7952-12.888 2.2018 0.61286 2.1083-1.2134 6.188 0.85137 7.1192 0.037794 0.013676 0.079049 0.030991 0.11743 0.044035-0.61138-1.59 0.46103-4.5368-0.029357-6.2238 4.2825-0.40656 8.8098-0.41679 12.888-2.2018 19.757-9.1953 41.925-10.094 63.412-10.994 15.094-0.31106 30.477-0.94833 45.284 2.3486 10.458 1.6163 21.341 1.2509 31.677-1.0569 6.2956-1.8798 12.489-4.3026 19.009-5.3284 20.023-3.7771 40.401-5.5458 60.77-6.121 8.9918 0.010493 18.1 0.5028 26.789 2.789 5.8402 1.8879 11.944 3.2576 18.099 2.2752 0.060211 0.003211 0.12128 0.020527 0.17615 0.029357-0.14792-0.55748-0.46628-0.93434-1.1156-0.9688-6.1553 0.98241-12.259-0.3873-18.099-2.2752-8.6885-2.2862-17.797-2.7785-26.789-2.789zm31.192 7.8384c3.7723 4.2492 3.8378 10.748 3.7871 16.205-0.46771 9.3176-2.1027 18.78-5.9008 27.332-3.9022 5.4061-11.328 4.866-17.218 5.8128-23.216 1.8932-46.565 2.3358-69.841 1.5413-2.6822 0.18687-5.1936-0.78887-7.1192-2.4954 2.004 2.2775 4.9153 3.6538 8.0586 3.4348 23.277 0.79457 46.625 0.35194 69.841-1.5413 5.8902-0.94678 13.316-0.40665 17.218-5.8128 3.7981-8.5516 5.4331-18.014 5.9008-27.332 0.054535-5.8775-0.024384-12.963-4.7266-17.145zm-142.41 11.391c1.2986 1.5076 2.0904 3.4403 2.0844 5.5339 0.33795 10.215-4.2657 19.827-8.7045 28.741-2.1153 4.1984-4.8755 9.1265-10.084 9.6733-22.81 3.9018-45.86 6.4252-68.975 7.7357-5.3882-0.12228-11.244 1.0527-16.323-1.189-0.5908-0.2784-1.1095-0.61289-1.5706-0.99815 0.66293 0.79019 1.4762 1.4504 2.5101 1.9376 5.0787 2.2417 10.935 1.0667 16.323 1.189 23.115-1.3104 46.165-3.8339 68.975-7.7357 5.2088-0.54681 7.969-5.4749 10.084-9.6733 4.4388-8.9142 9.0424-18.526 8.7045-28.741 0.007339-2.5574-1.1741-4.8837-3.0238-6.4733zm27.097 2.3486c0.4536 0.54549 0.83189 1.1664 1.1303 1.8642 2.8014 10.12 5.3566 20.537 11.802 29.093 1.2961 1.8571 2.6441 3.8897 4.3155 5.4605-1.2569-1.3938-2.3282-3.0196-3.3761-4.521-6.4451-8.5564-9.0003-18.973-11.802-29.093-0.4865-1.1378-1.1984-2.0625-2.0697-2.8036zm-140.21 11.64c0.041864 0.060089 0.093183 0.11221 0.13211 0.17614-0.59738 11.737 1.5565 23.588 5.8715 34.466 0.49556 1.3053 1.2772 2.352 2.2458 3.1559-0.53886-0.63388-0.98362-1.3663-1.3064-2.2165-4.315-10.877-6.4689-22.729-5.8715-34.466-0.28568-0.46917-0.64809-0.82809-1.0715-1.1156z" fill="#fff" fill-rule="evenodd" filter="url(#l)" stroke-linecap="round" stroke-linejoin="round"/>
   <path d="m119.25 18.87c-9.8898-4.8994-77.107-6.2891-100.04 4.6406-2.0635 0.98322-2.9369 2.2928-4.0262 4.2973-4.1334 7.6066-2.1933 26.085 2.8183 38.821 0.79732 2.0262 2.082 2.8033 4.0262 3.7722 7.3992 3.6876 79.139-5.1768 85.953-7.4875 2.151-0.72943 3.7488-2.4058 4.9656-4.3585 4.7449-7.6146 13.892-26.938 10.334-35.913-0.80563-2.0319-2.0796-2.8079-4.0262-3.7723z" fill="#f3efe6" fill-opacity=".069" fill-rule="evenodd" stroke="#fff" stroke-linecap="round" stroke-linejoin="round" stroke-width=".235"/>
   <g points="165,88 164,88 163,88 162,88 161,88 161,88 161,89 159,89 158,90 158,91 156,92 155,92 155,93 154,93 154,94 153,94 152,96 152,97 151,98 150,98 150,99 149,99 149,100 148,100 148,101 146,102 145,102 145,103 144,103 144,104 144,104 144,105 143,105 143,106 142,107 141,107 140,107 140,108 139,109 139,110 138,110 ">
    <path d="m161.73 16.099c9.8898-6.2132 77.107-16.532 100.04-8.6497 2.0635 0.70911 2.9369 1.9026 4.0262 3.7624 4.1335 7.0576 2.1933 25.794-2.8183 39.196-0.79733 2.1321-2.0821 3.0798-4.0262 4.3071-7.3992 4.6705-79.139 5.3363-85.953 3.9307-2.151-0.44366-3.7488-1.9078-4.9656-3.6989-4.7449-6.9843-13.892-25.092-10.334-34.54 0.80563-2.1389 2.0796-3.0841 4.0262-4.3071z" fill="#f3efe6" fill-opacity=".069" fill-rule="evenodd" stroke="#e5fff4" stroke-linecap="round" stroke-linejoin="round" stroke-width=".235"/>
    <path d="m263.76 8.5825c0.57694 0.59882 1.0491 1.3304 1.5706 2.2147 4.1335 7.0078 2.1933 25.712-2.8183 39.127-0.79733 2.1343-2.0779 3.101-4.022 4.3419-7.3992 4.7229-79.145 5.9915-85.959 4.6463-1.2222-0.24127-2.2593-0.82074-3.1559-1.5953 0.99472 0.99036 2.1883 1.7309 3.6257 2.0146 6.8141 1.3452 78.559 0.07666 85.959-4.6462 1.9441-1.2409 3.2246-2.193 4.0219-4.3273 5.0116-13.415 6.9518-32.134 2.8183-39.142-0.65564-1.1115-1.2345-1.9659-2.0403-2.634z" fill="#fff" fill-opacity=".48" fill-rule="evenodd" stroke-linecap="round" stroke-linejoin="round"/>
    <path d="m122.42 21.132c0.13819 0.24762 0.26404 0.51074 0.38164 0.80737 3.5587 8.9752-5.5889 28.304-10.334 35.919-1.2168 1.9527-2.8104 3.6155-4.9614 4.3449-6.8141 2.3107-78.559 11.188-85.959 7.5008-1.3746-0.68506-2.4092-1.2873-3.1853-2.2899 0.80594 1.4654 1.9834 2.1614 3.655 2.9944 7.3992 3.6876 79.145-5.1901 85.959-7.5008 2.151-0.72949 3.7446-2.3922 4.9614-4.3449 4.7449-7.6146 13.892-26.944 10.334-35.919-0.24018-0.60571-0.52251-1.0911-0.85136-1.5119z" fill="#fff" fill-opacity=".478" fill-rule="evenodd" stroke-linecap="round" stroke-linejoin="round" stroke-width=".501"/>
    <path d="m121.85 24.772c-5.9241 0.32382-5.4907 7.0832-6.9137 12.037-2.7289 6.2945-9.6763 12.854-15.457 16.264-11.511 5.8666-27.097 6.5565-39.672 7.1676-12.365 1.2275-23.934 2.2172-34.47 8.8762 11.381 0.96182 22.786-0.73973 34.128-1.5559 16.103-1.6376 32.274-3.1428 48.102-6.532 4.7722-2.4643 6.0805-8.2377 8.5814-12.593 3.2229-7.4237 6.9169-15.522 5.701-23.664z" fill="#ababae" fill-opacity=".224" fill-rule="evenodd" filter="url(#k)" stroke-linecap="round" stroke-linejoin="round" stroke-width=".501"/>
    <path d="m265.32 15.216c-2.7743 2.4664-1.7094 6.8243-3.4642 9.8935-2.0386 4.2546-3.2375 8.8318-4.8587 13.211-4.1855 7.8768-13.901 10.466-22.247 10.709-10.317 0.92906-20.692 1.6501-30.993 2.326-7.6745 0.89434-15.059 3.1112-22.282 5.7247 24.164 0.3891 48.502 0.10074 72.469-2.8917 3.579-0.4772 7.2708-2.5263 7.9118-6.3999 3.3813-9.8404 5.1133-20.565 3.9339-30.957-0.11505-0.54369-0.23535-1.1555-0.46973-1.6147z" fill="#ababae" fill-opacity=".224" fill-rule="evenodd" filter="url(#j)" stroke-width=".313"/>
   </g>
   <g display="none">
    <path d="m197.03-401.97c21.055-11.778 164.16-24.042 212.99-4 4.393 1.8029 6.2525 4.464 8.5714 8.5714 8.7998 15.587 4.6693 55.112-6 82.862-1.6974 4.4149-4.4325 6.2437-8.5714 8.5714-15.752 8.8589-168.48-0.034943-182.99-4-4.5794-1.2516-7.981-4.5917-10.571-8.5714-10.102-15.519-29.576-55.302-22-74.862 1.7151-4.428 4.4272-6.2531 8.5714-8.5714z" fill="#4a0" fill-rule="evenodd" stroke-linecap="round" stroke-linejoin="round"/>
    <path d="m576.86-422.99c-73.999 0.17987-114.35 6.6163-129.84 12.5-14.272 5.4182-21.146 2.5938-36.438 2.4688v15.719c5.3911-0.31656 13.682 1.7371 17.281 5.5625 3.5996 3.8254 4.6982 8.8143 6.2589 14.455 5.7025 20.61 9.5818 38.818 31.112 66.402 8.5418 10.944 28.193 10.048 43.411 11.299 49.129 4.0406 104.74 7.558 151.79 2.3929 11.202-1.2298 16.622-7.9156 20.411-19.107 5.0648-14.963 12.264-45.974 10.268-70.661-0.18622-2.3031 11.774-4.7426 17.638-6.4241 0.83331-0.23892 1.25-1.0069 1.25-1.9587l6.1e-5 -13.03c0-0.90848-0.52777-1.7346-1.5179-1.7745-10.333-0.41757-12.389 0.80341-22.625-1.4241-7.5822-1.6501-18.561-6.9796-34.036-10.232-27.986-5.8824-52.11-6.2433-74.96-6.1875zm9.1562 9.9375c33.418 0.15903 65 3.1407 83.312 10.656 4.393 1.8029 6.2436 4.455 8.5625 8.5625 8.7999 15.587 4.6693 55.125-6 82.875-1.6974 4.4149-4.4236 6.2349-8.5625 8.5625-15.752 8.859-168.49-0.034943-183-4-4.5794-1.2516-7.972-4.5827-10.562-8.5625-10.102-15.519-29.576-55.315-22-74.875 1.7151-4.428 4.4183-6.2442 8.5625-8.5625 13.159-7.3614 73.991-14.921 129.69-14.656z" fill-rule="evenodd" stroke-linecap="round" stroke-linejoin="round"/>
    <path d="m236.51-294.42c-20.308 0.11212-41.856 1.0404-66.344 6.1875-15.475 3.2526-26.449 8.5687-34.031 10.219-10.236 2.2275-12.292 1.0199-22.625 1.4375-0.9901 0.040009-1.5 0.8728-1.5 1.7812v13.031c0 0.95184 0.41672 1.6986 1.25 1.9375 5.8644 1.6815 17.811 4.1344 17.625 6.4375-1.9958 24.687 5.2165 55.693 10.281 70.656 3.7882 11.192 9.2043 17.895 20.406 19.125 47.047 5.1651 102.65 1.6343 151.78-2.4062 15.218-1.2516 34.864-0.36874 43.406-11.312 21.53-27.584 25.422-45.765 31.125-66.375 1.5608-5.641 2.7425-10.741 6.25-14.469s11.06-5.6655 16.438-5.5938v0.03125c6.4774-0.35556 12.41 1.6513 17.281 5.5625 4.0627 3.2623 4.6892 8.8277 6.25 14.469 5.7025 20.61 9.5952 38.791 31.125 66.375 8.5418 10.944 28.188 10.061 43.406 11.312 49.129 4.0406 104.73 7.5714 151.78 2.4062 11.202-1.2298 16.618-7.9335 20.406-19.125 5.0648-14.963 12.277-45.97 10.281-70.656-0.18622-2.3031 11.761-4.756 17.625-6.4375 0.83331-0.23889 1.25-0.98566 1.25-1.9375v-13.031c0-0.90845-0.50989-1.7412-1.5-1.7812-10.333-0.41757-12.389 0.79001-22.625-1.4375-7.5821-1.6501-18.557-6.9662-34.031-10.219-27.986-5.8824-52.119-6.2433-74.969-6.1875-73.999 0.1799-114.35 6.6164-129.84 12.5-21.37 5.4377-50.326 4.1017-72.031 0-15.498-5.8836-55.845-12.32-129.84-12.5-2.8562-0.006989-5.7239-0.016022-8.625 0zm-0.53125 9.9375c55.697-0.26502 116.53 7.2948 129.69 14.656 4.1442 2.3183 6.8474 4.1345 8.5625 8.5625 7.5761 19.56-11.898 59.356-22 74.875-2.5905 3.9798-5.9831 7.3109-10.562 8.5625-14.507 3.965-167.25 12.859-183 4-4.1389-2.3277-6.8651-4.1476-8.5625-8.5625-10.669-27.75-14.8-67.288-6-82.875 2.3189-4.1075 4.1695-6.7596 8.5625-8.5625 18.313-7.5156 49.894-10.497 83.312-10.656zm350.03 0c33.418 0.159 65 3.1407 83.312 10.656 4.393 1.8029 6.2436 4.455 8.5625 8.5625 8.7999 15.587 4.6693 55.125-6 82.875-1.6974 4.4149-4.4236 6.2348-8.5625 8.5625-15.752 8.8589-168.49-0.034973-183-4-4.5794-1.2516-7.972-4.5827-10.562-8.5625-10.102-15.519-29.576-55.315-22-74.875 1.7151-4.428 4.4183-6.2442 8.5625-8.5625 13.159-7.3614 73.991-14.921 129.69-14.656z" fill-rule="evenodd" stroke-linecap="round" stroke-linejoin="round"/>
    <path d="m144.51 7.3991v-149.95l563.58 15.19v110.35l-563.58 24.409z" fill="none" fill-opacity=".75" fill-rule="evenodd" stroke="#000" stroke-width=".304"/>
   </g>
  </symbol>
  <filter id="n">
   <feGaussianBlur stdDeviation="1.87796"/>
  </filter>
  <linearGradient id="p" x1=".537" x2=".923" gradientTransform="translate(-129.51 418.05)">
   <stop stop-color="#5a8128" offset="0"/>
   <stop stop-color="#3d4c1e" offset="1"/>
  </linearGradient>
  <filter id="q">
   <feGaussianBlur stdDeviation="13.76578"/>
  </filter>
  <filter id="l">
   <feGaussianBlur stdDeviation="1.49562"/>
  </filter>
  <filter id="m">
   <feGaussianBlur stdDeviation="0.725"/>
  </filter>
  <filter id="o" x="-.022" width="1.044" height="1.201">
   <feGaussianBlur stdDeviation="7.86884"/>
  </filter>
  <filter id="j" x="-.093" y="-.187" width="1.186" height="1.375">
   <feGaussianBlur stdDeviation="6.98339"/>
  </filter>
  <filter id="k" x="-.095" y="-.205" width="1.189" height="1.411">
   <feGaussianBlur stdDeviation="8.12673"/>
  </filter>
 </defs>
 <path d="m71.355 286c0 132.87 88.596 240.62 197.93 240.62 109.33 0 197.96-107.76 197.96-240.62 0-132.87-88.632-240.62-197.96-240.62-109.33 0-197.93 107.76-197.93 240.62z" fill-rule="evenodd" stroke="#000" stroke-miterlimit="10" stroke-width=".036"/>
 <path d="m75.531 286.39c0 130.69 87.12 236.66 194.58 236.66s194.58-105.97 194.58-236.66c0-130.65-87.119-236.63-194.58-236.63-107.46-9.92e-4 -194.58 105.97-194.58 236.63z" fill="#ffd4aa" fill-rule="evenodd" stroke="#000" stroke-miterlimit="10" stroke-width=".036"/>
 <path d="m190.95 497.73c-3.816-2.1401-12.96-9.0609-18.684-13.875-5.832-4.9233-13.824-12.307-15.624-14.839-1.836-2.5682 1.62-2.4601 5.112-0.10602 3.528 2.3185 10.044 9.3452 15.66 13.945 5.544 4.424 14.796 10.558 17.208 13.056 2.089 2.3898 0.071991 3.8166-3.672 1.8191z" fill-rule="evenodd" stroke="#000" stroke-miterlimit="10" stroke-width=".036"/>
 <path d="m198.4 501.47c0.89999 0.92841 5.148 3.8532 6.48 3.9592 1.188 0.07135 1.908-2.5325 1.044-3.4242-1.008-0.96301-5.256-2.5324-6.48-2.4968-1.296-0.1774-2.016 0.9274-1.044 1.9618z" fill-rule="evenodd" stroke="#000" stroke-miterlimit="10" stroke-width=".036"/>
 <path d="m148.54 460.74c0.64801 1.2127 3.96 4.9223 5.22 5.493 1.224 0.35571 2.376-1.8905 1.908-3.0328-0.68401-1.3197-4.392-3.6382-5.58-4.0663-1.225-0.39139-2.197 0.28632-1.548 1.6061z" fill-rule="evenodd" stroke="#000" stroke-miterlimit="10" stroke-width=".036"/>
 <path d="m205.92 231.1c0 8.1325 6.948 14.731 15.48 14.731 8.568 0 15.516-6.5987 15.516-14.731 0-8.1325-6.948-14.731-15.516-14.731-8.533 0-15.48 6.5987-15.48 14.731z" fill="#3f7f00" fill-rule="evenodd" stroke="#000" stroke-miterlimit="10" stroke-width=".036"/>
 <path d="m216.73 227.25c0 2.2115 1.872 3.9949 4.212 3.9949s4.212-1.7834 4.212-3.9949-1.872-3.9949-4.212-3.9949c-2.341 0-4.212 1.7834-4.212 3.9949z" fill="#fff" fill-rule="evenodd" stroke="#000" stroke-miterlimit="10" stroke-width=".036"/>
 <path d="m196.35 200.36c2.808-2.6038 8.748-6.5274 13.5-8.8815 4.68-2.4255 10.368-4.4586 14.292-5.1363 3.816-0.74904 7.488 0 8.244 1.1414 0.54001 1.0701-1.404 4.2089-4.428 5.707-3.132 1.3554-9.612 1.0701-13.896 2.8535-4.536 1.7121-8.928 5.5287-12.06 7.7401-3.132 2.2115-4.752 4.8866-6.228 5.4217-1.584 0.32103-2.736-1.3197-2.628-2.8535 0.14499-1.5338 0.28799-3.5312 3.204-5.9924z" fill-rule="evenodd" stroke="#000" stroke-miterlimit="10" stroke-width=".036"/>
 <path d="m300.59 231.67c0 8.1325-6.912 14.731-15.479 14.731-8.569 0-15.517-6.5987-15.517-14.731 0-8.1325 6.947-14.696 15.516-14.696 8.568 0 15.48 6.563 15.48 14.696z" fill="#3f7f00" fill-rule="evenodd" stroke="#000" stroke-miterlimit="10" stroke-width=".036"/>
 <path d="m288.28 227.54c0 2.2115-1.908 3.9949-4.213 3.9949-2.34 0-4.248-1.7834-4.248-3.9949s1.908-3.9949 4.248-3.9949c2.305 0 4.213 1.7834 4.213 3.9949z" fill="#fff" fill-rule="evenodd" stroke="#000" stroke-miterlimit="10" stroke-width=".036"/>
 <path d="m315.69 201.64c-2.447-2.6038-7.271-6.5274-11.124-8.8816-3.96-2.4255-8.676-4.4586-11.771-5.1363-3.096-0.74904-6.336 0-6.804 1.1414-0.57602 1.0701 1.115 4.2089 3.672 5.707 2.483 1.3554 7.775 1.0701 11.447 2.8535 3.564 1.7121 7.345 5.5287 9.937 7.7401 2.448 2.2115 3.888 4.8866 5.147 5.4217 1.225 0.32103 2.124-1.3197 2.16-2.8535-0.216-1.5338-0.32398-3.5312-2.664-5.9923z" fill-rule="evenodd" stroke="#000" stroke-miterlimit="10" stroke-width=".036"/>
 <path d="m259.42 447.29c-7.092-1.1057-9.936-0.7847-18.036-4.4943-8.136-3.7809-21.24-10.13-30.24-17.763-9-7.6331-16.128-16.015-23.256-27.68-7.164-11.699-14.616-27.679-19.26-41.803-4.608-14.125-7.272-27.893-8.208-42.126 0.82799-1.4981 1.944-3.2092 3.348-5.5287 1.44-2.3888 4.32-6.028 4.896-8.0255 0.39601-2.1401 0.216-5.8844-2.34-3.9236-2.592 1.9618-9.18 11.485-13.104 15.908-4.032 4.3526-9.144 7.7768-10.764 10.273-1.656 2.4978-0.612 4.0662 0.79199 4.1376 1.368-0.2497 4.644-3.0675 7.056-4.8866 2.304-1.7835 4.32-3.7096 6.444-5.7784 2.016 16.622 5.328 32.031 10.476 47.19 5.076 15.052 11.124 30.426 19.656 42.696 8.46 12.092 21.024 22.614 30.456 29.784 9.288 7.0267 18.036 9.4879 24.84 12.341 6.588 2.6752 9.72 3.5302 14.832 4.209 4.932 0.67767 10.188 0.67767 15.228 0 5.04-0.67871 8.137-1.5338 14.832-4.209 6.66-2.8535 15.553-5.3147 24.876-12.341 9.324-7.1694 21.889-17.692 30.456-29.784 8.244-12.376 14.688-28.391 19.62-42.696 5.004-14.267 8.172-28.036 10.044-42.125 4.212 5.5287 7.488 8.8459 9.828 10.094 2.376 1.1057 4.393-1.6398 4.104-2.9952-0.504-1.4634-3.816-2.8892-6.444-5.2433-2.736-2.4255-6.192-5.279-9.396-8.9886-3.313-3.8522-7.633-11.878-9.9-13.625-2.34-1.8191-3.996 1.3911-3.6 3.3172 0.43201 1.8548 4.067 5.7427 6.048 8.2395 1.836 2.4968 3.492 4.6369 5.111 6.563-0.936 14.196-2.592 23.399-7.199 37.524-4.608 14.125-12.097 30.104-19.225 41.803-7.164 11.664-14.256 20.046-23.256 27.68-9 7.6341-22.104 13.981-30.24 17.763-8.136 3.7096-10.943 3.3886-18.036 4.4943-7.127 1.1414-3.311 1.1414-10.439 0z" fill-rule="evenodd" stroke="#000" stroke-miterlimit="10" stroke-width=".036"/>
 <path d="m165.93 469.66c9.252 7.3835 18.36 13.84 27.468 19.654 9.144 5.814 20.916 10.522 26.964 14.945 5.904 4.3149 7.668 6.349 8.352 10.772 0.576 4.2793 3.024 12.52-4.896 14.945-8.208 2.2471-26.352-0.035645-43.164-0.92841-16.956-0.92737-39.816-4.3873-56.916-4.2089-17.1 0.071289-30.96 3.8878-44.64 5.1373-13.68 1.2841-28.296 4.9579-36.756 2.3542-8.496-2.8536-12.528-13.911-13.752-18.726-1.26-4.9579 0.864-8.2038 6.372-10.273-10.512-13.661-17.964-27.679-23.04-43.017-5.076-15.373-7.236-35.919-6.876-48.153 0.288-12.27 3.276-20.332 8.82-24.754-1.692-13.482-2.412-24.611-2.448-33.67 0-9.1313 3.276-13.198 2.448-20.581-0.972-7.4191-5.58-14.767-7.848-23.827-2.448-9.3452-6.804-21.829-5.868-30.854 1.044-8.9529 4.788-16.301 11.772-22.437-0.936-18.12 0.72-32.887 5.4-45.121 4.464-12.163 11.628-20.403 22.068-27.608 10.512-7.2764 23.94-12.52 40.716-15.873-5.004-7.9898-7.128-15.266-6.372-21.972 0.828-6.8484 4.608-12.876 10.764-18.227 6.012-5.279 14.22-9.8446 25.02-13.554-6.408-15.231-7.056-27.251-1.944-36.489 5.112-9.3452 15.768-15.302 32.364-18.69-3.024-9.0955-1.44-16.978 4.896-24.326 6.444-7.3834 20.448-15.373 32.868-19.154 12.24-3.7809 30.96-5.1006 40.212-3.2815 9 1.8191 11.52 9.6663 14.22 14.054 2.7 4.2446 3.312 7.8828 1.98 11.2 1.332-7.0624 3.78-12.734 7.344-17.299 3.492-4.5299 6.228-6.7057 13.752-9.8089 7.524-3.2459 20.232-8.0612 30.888-9.3452 10.548-1.2841 23.76 0 31.86 1.3911 7.92 1.2484 8.388 4.4229 15.695 6.0994 7.272 1.4268 18.253 0.071338 27.505 3.2459 9.144 3.2102 18.827 8.5605 26.964 15.908 7.992 7.3121 14.004 20.724 21.096 27.572 7.056 6.7057 14.04 8.3465 21.096 12.627 7.057 4.1732 16.236 7.4191 20.593 12.627 4.104 5.2076 5.111 12.02 4.392 18.227-0.79199 6.1707-3.636 12.02-8.82 18.227 13.032 11.664 23.544 23.862 32.364 37.417 8.64 13.447 16.344 28.107 19.62 43.017 3.24 14.838 2.952 29.676-0.46799 45.335 17.855 16.693 29.844 30.319 36.792 41.84 6.768 11.271 6.947 15.874 3.888 26.182-3.204 10.415-18.54 22.898-22.536 35.525-3.96 12.484-2.304 27.572-1.008 38.808 1.188 11.093 8.784 16.978 8.352 27.572-0.53998 10.558-4.248 21.972-11.268 35.062 5.868 11.95 10.152 22.899 13.248 33.671 3.0229 10.665 6.3719 20.83 4.896 29.926-1.691 8.9529 1.477 21.758-14.22 23.827-15.984 1.9261-58.536-11.129-79.488-11.664-20.844-0.56976-30.203 5.9577-44.604 8.4178-14.688 2.3898-28.26 6.3847-41.688 6.0637-13.536-0.46368-32.292-2.5325-37.8-8.4178-5.328-6.1707-3.168-17.085 5.904-27.107 9.18-10.094 34.596-21.223 48.06-32.28 13.141-11.129 21.456-20.51 30.925-33.636 9.432-13.197 17.783-27.964 25.487-44.871-7.487-15.052-11.196-27.536-11.268-37.879-0.036011-10.381 3.42-18.191 10.764-23.863-5.328-3.7799-7.632-10.094-7.344-19.618 0.396-9.5949 9.288-25.253 9.324-36.953-0.108-11.664-3.385-22.471-9.828-32.708-9.756 5.5643-17.784 7.3478-24.517 5.493-6.876-2.0331-13.031-8.4178-15.695-16.836-2.664-8.5248 2.844-25.361 0-33.172-2.988-7.9185-12.924-7.3478-17.172-13.554-4.248-6.2777-6.769-16.372-7.849-23.399-1.151-7.1694 3.853-12.948 1.008-18.69-3.096-5.8497-12.456-12.555-18.647-15.445-6.336-2.8892-13.212 1.4624-18.145-1.3911-4.968-2.9248-9.396-7.3121-10.8-15.908-1.368-8.8459 5.328-27.215 2.448-35.99-3.096-8.6675-12.6-12.948-20.592-15.873-8.208-2.8892-20.377-2.1401-27.469-1.8904-7.128 0-11.34 2.5682-14.724 2.3541-3.384-0.24968-5.184-1.4981-5.4-3.7452-0.035995 4.8866-1.944 8.8459-5.868 12.163-4.14 3.1745-10.872 4.8866-17.676 7.4548-6.84 2.5325-17.28 4.4943-22.572 7.9542-5.292 3.5302-7.956 7.7401-8.82 12.627-0.972 4.6726 3.42 10.308 3.456 15.409 0.071991 5.1006 0.504 9.8089-3.42 14.517-4.248 4.4943-17.064 7.0981-21.096 12.627-4.032 5.5643-2.052 13.411-2.952 20.082-0.936 6.4917 1.368 13.197-2.952 18.726-4.536 5.3147-17.568 8.2752-23.544 13.554-6.084 5.3147-10.62 10.201-12.24 18.227-1.656 8.0255 4.176 21.187 2.916 29.462-1.476 8.0255-7.812 10.701-10.8 19.154-3.06 8.4535-7.236 18.94-6.84 31.316 0.396 12.271 8.64 30.32 9.324 42.197 0.504 11.771-4.716 19.618-5.4 28.499-0.828 8.8459-0.936 17.691 1.476 24.326 2.448 6.4204 11.304 7.9898 13.248 14.482 1.908 6.4917 1.152 14.553-1.98 24.326 11.232 15.338 20.412 27.037 27.972 35.526 7.525 8.4525 12.889 13.303 16.669 14.944z" fill-rule="evenodd" stroke="#000" stroke-miterlimit="10" stroke-width=".036"/>
 <path d="m18.759 387.87c-3.816 1.5695-6.336 5.707-7.848 13.09-1.584 7.2765-2.736 18.369-0.972 30.39 1.836 12.02 6.264 28.749 11.772 41.126 5.436 12.341 12.204 22.864 20.592 32.245-3.384 0.6777-5.616 2.2471-6.84 4.7083-1.332 2.4612-1.872 6.563-0.504 9.809 1.296 3.0318 2.988 7.5974 8.82 8.8815 5.904 1.1771 15.264-0.107 25.992-1.3911 10.692-1.3911 24.048-5.7783 37.296-6.5631 13.068-0.85596 26.46 0.67871 40.716 1.8548 14.148 1.0701 31.932 4.0663 43.632 4.7083 11.556 0.53497 20.196 0.42902 25.524-1.4258 5.22-2.0698 7.128-6.457 5.868-10.273-1.404-3.8532-5.976-7.2775-13.716-12.627-7.956-5.4574-21.924-11.557-32.868-19.654-11.016-8.1682-23.004-19.154-32.364-28.963-9.432-9.8803-17.136-19.76-23.544-29.926-1.692 3.1745-2.628 6.7771-2.952 11.236-0.468 4.3159-0.468 10.808 0.972 14.946 1.512 4.1019 7.74 7.8114 7.848 9.3452 0 1.3197-5.904 1.2841-7.848-0.92841-2.088-2.4245-3.924-7.0981-4.392-12.626-0.396-5.6 0.144-13.768 1.476-20.118 1.224-6.4917 4.86-12.412 5.364-17.763 0.25201-5.386-0.936-9.9159-3.42-14.018-2.484-4.2436-9.108-5.5287-11.268-10.736-2.232-5.386-1.872-14.446-1.98-20.58-0.18-6.242-0.035995-10.772 0.972-15.909 0.864-5.0996 4.284-8.2751 4.428-14.481-0.071999-6.3847-2.16-15.766-3.924-22.899-1.872-7.2051-5.796-12.199-6.372-19.654-0.504-7.6331 1.404-17.585 2.952-24.754 1.332-7.1338 2.988-12.769 5.4-17.442 2.34-4.6726 7.092-6.9911 8.82-10.273 1.548-3.3529 1.224-4.744 0.972-9.8089-0.36-5.3147-2.34-15.445-2.448-21.045-0.252-5.6357 0.071999-8.5962 1.944-12.163 1.8-3.6739 4.212-5.4573 9.324-9.3452 5.184-4.0663 17.244-9.0599 21.6-14.018 4.14-4.9937 2.988-9.4523 3.924-15.445 0.828-6.135 0.36-16.015 1.944-20.545 1.62-4.5656 4.284-4.1376 7.848-6.5631 3.528-2.5682 9.936-5.7427 13.248-8.4178 3.204-2.7822 5.22-4.7796 5.904-7.9185 0.504-3.2815-2.124-6.7058-2.484-11.236-0.576-4.5656-1.368-11.842 0-15.908 1.404-4.0662 3.348-5.7784 8.352-8.4178 4.968-2.8178 14.04-5.1363 21.096-7.9185 6.912-2.8178 15.84-4.7796 20.124-8.9172 4.032-4.2803 4.644-10.986 4.896-16.122 0.216-5.279-1.08-10.308-3.456-14.945-2.412-4.7083-5.004-11.093-11.268-13.09-6.588-2.1045-17.712-0.64204-26.964 0.92739-9.252 1.4981-20.52 4.3516-27.972 8.4178-7.56 4.0662-13.572 9.1669-16.668 15.445-3.168 6.1717-3.78 13.233-1.98 21.473-12.456 3.1745-21.564 7.0268-27.468 11.699-5.94 4.7083-6.984 10.38-7.848 15.908-0.93601 5.386 1.548 11.806 2.448 16.372 0.792 4.4229 1.62 7.8471 2.484 10.273-7.704 3.6026-14.112 7.3834-19.62 11.2-5.616 3.7809-10.908 6.9911-13.248 11.699-2.34 4.7439-1.44 11.164-0.50399 16.372 0.936 5.1363 2.772 9.6306 5.904 14.018-11.412 1.7478-21.492 4.9223-30.924 9.8089-9.468 4.7796-19.044 10.808-24.984 19.19-5.94 8.3822-8.316 20.545-10.332 30.854-2.088 10.273-2.736 20.224-1.944 30.39-5.4 2.6752-9.072 6.6701-11.304 12.27-2.34 5.5634-3.636 11.021-1.944 21.044 1.764 10.023 10.26 29.462 12.276 38.772 1.8 9.1669-1.08 9.9873-1.008 16.372 0.108 6.2777 0.972 14.731 1.476 21.508 0.397 6.6691 0.72 12.732 0.972 18.475z" fill="#562a00" fill-rule="evenodd" stroke="#000" stroke-miterlimit="10" stroke-width=".036"/>
 <path d="m103.65 207.17c-3.492 0.78471-13.86 5.3147-21.096 10.273-7.38 4.9223-18.072 12.092-22.068 19.19-3.96 7.1338-3.06 16.693-1.476 22.899 1.512 6.0637 6.12 11.022 10.764 13.09 4.644 1.8191 15.264-0.74905 16.704-1.3911 1.224-0.74902-5.76-1.5338-8.856-2.3541-3.276-0.78473-7.236 0.46365-9.792-2.3185-2.556-3.0319-4.644-9.9516-4.896-14.981-0.288-5.1006-0.071999-10.13 3.42-14.945 3.492-4.8153 10.98-9.5236 17.172-13.554 5.976-4.1376 15.732-8.0968 19.116-10.772 3.348-2.8178 4.284-5.9567 1.008-5.1363z" fill-rule="evenodd" stroke="#000" stroke-miterlimit="10" stroke-width=".036"/>
 <path d="m49.684 188.48c-2.484 0.64206-7.056 2.3898-9.828 4.6726-2.808 2.0331-6.048 6.5631-6.372 7.9541-0.324 1.3197 1.944 1.1414 4.428 0 2.376-1.2841 6.984-5.707 9.792-7.4904 2.7-1.9618 5.94-2.8892 6.372-3.7452 0.287-0.96306-2.016-1.9261-4.392-1.3911z" fill-rule="evenodd" stroke="#000" stroke-miterlimit="10" stroke-width=".036"/>
 <path d="m151.71 479.14c1.836 2.4255 7.236 7.7411 11.772 10.737 4.32 2.9238 12.132 6.4193 14.688 7.0267 2.484 0.49939 2.7-1.5694 0.504-3.7452-2.34-2.2828-9.324-6.3134-13.716-9.3452-4.428-3.2102-10.044-8.0968-12.276-8.8816-2.305-0.82138-2.773 1.6754-0.972 4.2079z" fill-rule="evenodd" stroke="#000" stroke-miterlimit="10" stroke-width=".036"/>
 <path d="m183.57 496.44c-1.584 0.070343 1.368 4.8866 3.456 6.0627 2.052 0.9997 9.252 0.9997 8.82 0-0.648-1.1771-10.8-5.9924-12.276-6.0627z" fill-rule="evenodd" stroke="#000" stroke-miterlimit="10" stroke-width=".036"/>
 <path d="m168.38 88.428c-3.744 1.6764-16.236 10.522-22.068 15.409-5.94 4.7796-10.692 8.9172-12.744 13.09-2.016 3.9949-1.764 9.6663 0.468 11.236 2.124 1.4981 10.8-1.1414 12.276-1.8548 1.368-0.78471-2.16-2.6395-3.924-2.8178-1.872-0.24967-6.156 2.6038-6.876 1.3911-0.828-1.4258-0.28801-6.0994 2.448-9.3452 2.772-3.2815 8.604-6.7057 13.752-10.273 5.04-3.7096 13.248-8.4179 16.164-11.236 2.808-2.9605 3.996-7.1694 0.504-5.6z" fill-rule="evenodd" stroke="#000" stroke-miterlimit="10" stroke-width=".036"/>
 <path d="m213.99 25.794c0.108 1.3911 3.852 3.4242 5.4 6.5274 1.332 3.0319 2.772 7.9898 2.952 11.699 0.144 3.6382-0.468 7.4191-1.98 9.8089-1.728 2.2471-6.768 2.6752-7.344 3.7452-0.53999 0.96306 1.836 2.7465 3.924 2.3185 2.052-0.60637 6.012-2.4968 7.848-5.1363 1.548-2.7822 2.196-6.4917 1.944-10.736-0.28801-4.3159-2.124-11.129-3.42-14.517-1.404-3.3885-2.88-5.0293-4.428-5.6-1.692-0.60637-4.896 0.39236-4.896 1.8904z" fill-rule="evenodd" stroke="#000" stroke-miterlimit="10" stroke-width=".036"/>
 <path d="m442.05 115.07c3.852-3.1745 6.264-6.8484 7.38-11.699 1.116-4.9223 0.79199-12.413-0.97202-16.836-1.908-4.4586-4.752-5.7784-10.332-9.3452-5.76-3.6382-17.856-8.7389-23.508-12.127-5.688-3.3529-6.265-3.8166-10.332-8.4179-4.32-4.851-8.101-13.661-14.688-20.117-6.696-6.5274-17.892-14.731-24.552-18.69-6.66-3.9949-10.152-4.5656-15.192-5.1363-5.256-0.5707-10.584 2.2828-15.695 1.3911-5.148-1.0701-8.856-5.814-14.725-7.4905-6.012-1.7478-12.6-2.8535-20.592-2.7822-8.1-0.071338-18.576 0.53503-26.964 2.7822-8.425 2.1401-17.064 5.9924-22.573 10.308-5.436 4.3159-8.82 10.237-10.296 15.409-1.656 5.065-0.036011 11.699 0.972 14.945 0.864 3.0318 1.476 3.6382 4.896 3.7452 3.492 0.035667 9.468-3.1032 15.696-3.2459 6.048-0.42802 13.717 0.14267 20.629 1.8548 6.768 1.7478 15.407 5.9924 20.088 8.8815 4.571 2.7822 6.048 3.9592 7.344 7.9542 1.152 3.9949 0.18002 8.9529 0 15.409-0.396 6.242-1.8 16.087-1.44 21.972 0.43301 5.7427 0.72101 9.9516 3.925 12.627 3.096 2.4612 10.08 1.9261 14.688 2.8178 4.356 0.89172 7.524-0.42804 12.276 2.7822 4.896 3.2102 13.788 11.129 16.668 15.908 2.735 4.5656-0.612 6.6701-0.46799 11.699-0.14502 5.0293-1.152 12.841 0.46799 18.227 1.584 5.2076 5.436 9.3452 9.324 13.09 3.924 3.5669 11.195 5.2433 13.752 8.8815 2.304 3.6026 0.61099 7.1694 0.46799 12.627-0.28799 5.4573-2.448 14.018-1.477 19.618 0.97299 5.5287 4.213 9.9873 7.381 13.09 3.132 2.9248 7.02 4.3873 11.268 4.6726 4.068 0.14265 8.532-1.2128 13.248-3.2459 4.68-2.1758 9.54-6.9198 14.724-8.8815 5.221-1.9618 11.952-3.4955 16.164-2.8178 3.996 0.64203 6.588 3.1389 8.353 6.5274 1.764 3.2815 2.952 9.8089 2.447 13.126-0.61099 3.2459-4.787 5.9567-5.867 6.0637-1.152-0.10698-1.297-3.4599-1.009-6.0637 0.14502-2.6752 2.557-6.6344 1.98-9.3809-0.75601-2.8178-3.096-6.242-5.904-6.9911-2.952-0.78471-7.235 0.67769-10.764 2.3185-3.456 1.5338-6.732 3.9236-9.828 7.0268 3.456 3.6382 6.12 7.9541 7.848 13.09 1.729 4.9936 2.736 10.023 2.448 17.299-0.57599 7.2764-3.132 19.26-4.896 26.181-1.836 6.7771-4.933 9.9516-5.4 14.482-0.504 4.4229 0.86398 8.3465 2.448 12.162 1.439 3.7095 3.563 7.1338 6.372 10.273-4.788 4.6726-7.849 9.3809-9.324 14.517-1.584 5.065-0.216 10.308 0.504 15.873 0.75601 5.6 1.368 10.916 3.924 17.299 2.484 6.349 7.561 12.912 10.8 20.118 3.204 7.0981 6.192 15.016 7.849 21.972 1.368 6.8484 2.52 13.305 0.97198 18.69-1.728 5.2076-8.82 11.663-10.296 12.626-1.476 0.85608 0.79199-4.529 1.944-7.4904 1.188-3.1032 4.5-5.6714 4.932-10.736 0.28799-5.1363-0.79199-13.483-2.952-19.654-2.268-6.2064-5.651-11.878-10.296-17.299-4.428 10.166-9.612 19.795-15.696 29.462-6.084 9.5949-12.815 19.404-20.592 27.929-7.992 8.3822-16.776 15.409-26.496 22.437-9.899 7.0624-24.372 13.732-31.896 19.189-7.416 5.2433-10.188 7.8125-12.744 12.127-2.88 4.2446-4.896 9.2026-3.42 13.09 1.512 3.8523 3.996 7.9184 12.744 9.8456 8.676 1.7477 24.947 2.5682 39.239 0.92737 14.257-1.7834 32.652-9.2382 45.612-11.236 12.744-2.0331 18.36-2.0688 30.888-0.92841 12.528 1.1414 32.076 5.7081 43.668 7.4915 11.448 1.6765 18.145 3.2816 24.517 2.3185 6.336-1.1057 10.404-3.4242 12.744-8.8815 1.979-5.6714 1.332-15.694 0-24.29-1.513-8.7389-4.824-19.011-7.849-27.108-3.023-8.0968-6.155-15.017-9.792-21.045 6.265-12.697 9.721-23.363 10.801-32.28 0.86298-8.9875-3.24-13.055-4.933-21.009-1.692-7.9888-5.399-16.729-4.896-26.645 0.43201-10.13 3.168-24.041 7.38-33.208 4.067-9.2382 13.896-14.482 17.136-21.508 3.168-7.1338 5.4-12.021 1.98-20.581-3.673-8.6675-16.272-22.721-23.076-30.604-6.805-7.9541-12.637-13.233-17.641-16.372 2.16-9.6306 3.024-19.582 2.448-30.39-0.612-10.986-1.08-22.507-5.868-34.135-4.896-11.699-15.084-23.934-23.076-35.062-8.1-11.236-16.308-21.437-25.02-31.424z" fill="#5b2c00" fill-rule="evenodd" stroke="#000" stroke-miterlimit="10" stroke-width=".036"/>
 <path d="m362.13 157.73c-0.28799 1.9618 0.107 7.8115 1.476 11.2 1.296 3.2102 3.42 6.0637 6.372 8.4178 2.916 2.2828 9.721 5.6714 11.269 5.6357 1.439-0.24966-0.25198-3.8879-2.448-6.0994-2.232-2.1758-8.568-3.8165-10.8-6.9911-2.305-3.3886-2.088-10.629-2.952-12.627-1.009-1.9975-2.774-1.5694-2.917 0.4637z" fill-rule="evenodd" stroke="#000" stroke-miterlimit="10" stroke-width=".036"/>
 <path d="m383.69 188.12c-0.35901 1.1057 0.14499 3.6025 0.97299 4.2089 0.647 0.4637 3.096 0.10701 3.456-0.92738 0.35901-1.2127-0.828-5.065-1.477-5.6357-0.79102-0.57069-2.699 1.1771-2.952 2.3542z" fill-rule="evenodd" stroke="#000" stroke-miterlimit="10" stroke-width=".036"/>
 <path d="m246.35 42.273c2.268-1.2127 6.3-2.6752 10.296-3.2815 3.924-0.64204 9.108-1.2484 12.78-0.4637 3.565 0.74905 8.281 3.7809 8.317 4.6726-0.14499 0.78471-5.725-0.035675-8.821 0-3.132-0.17835-6.408-0.92839-9.828-0.4637-3.6 0.4637-8.064 2.6395-10.764 3.2459-2.736 0.46369-4.608 0.60637-4.932 0-0.39699-0.67771 0.71901-2.6038 2.952-3.7096z" fill-rule="evenodd" stroke="#000" stroke-miterlimit="10" stroke-width=".036"/>
 <path d="m281.85 44.983c0.79202 0.78471 3.313 1.6764 4.248 1.4268 0.75598-0.35669 1.836-2.4612 1.008-3.2815-0.86301-0.92739-4.968-2.0688-5.796-1.7834-0.86502 0.32102-0.36002 2.6752 0.53998 3.6382z" fill-rule="evenodd" stroke="#000" stroke-miterlimit="10" stroke-width=".036"/>
 <path d="m438.12 291.21c0.72 3.2825 5.147 8.5962 5.904 15.409 0.504 6.8127-0.108 17.834-1.98 24.791-1.872 6.7771-8.424 13.59-8.82 15.908-0.504 2.1401 3.889 1.3554 6.372-2.3541 2.448-3.8166 6.948-12.412 8.353-19.618 1.332-7.2408 0.79199-17.014-0.504-23.399-1.513-6.4918-6.265-13.126-7.849-14.945-1.656-1.7845-2.196 0.85507-1.476 4.2079z" fill-rule="evenodd" stroke="#000" stroke-miterlimit="10" stroke-width=".036"/>
 <path d="m431.54 281.25c0.17999 1.1057 1.872 3.1389 2.844 3.3529 0.86398 0.14368 2.808-1.2127 2.628-2.2828-0.28799-1.2127-3.024-4.2446-3.924-4.4229-1.08-0.17737-1.692 2.1768-1.548 3.3529z" fill-rule="evenodd" stroke="#000" stroke-miterlimit="10" stroke-width=".036"/>
 <path d="m428.33 351.16c-1.08 0.67871-1.98 3.0685-1.729 3.9949 0.28799 0.85608 2.341 1.7488 3.385 1.1414 0.97198-0.82037 2.304-4.6023 2.195-5.4216-0.324-0.8204-2.952-0.53506-3.851 0.28534z" fill-rule="evenodd" stroke="#000" stroke-miterlimit="10" stroke-width=".036"/>
 <path d="m329.26 510c4.248-1.1057 18.864-8.7032 23.04-11.236 4.032-2.6038 2.952-4.1029 1.476-4.2089-1.691-0.14371-6.264 1.4624-10.8 3.2815-4.536 1.7488-13.859 4.9223-16.164 7.0268-2.448 2.0698-1.728 6.028 2.448 5.1363z" fill-rule="evenodd" stroke="#000" stroke-miterlimit="10" stroke-width=".036"/>
 <path d="m134.86 308.72c2.52-0.96304 11.016-6.9554 14.94-10.701 3.996-3.8166 8.856-11.236 8.316-11.521-0.90001-0.32104-8.892 7.0981-12.888 9.8802-4.068 2.7465-9.108 4.424-10.8 6.5631-1.836 2.1045-2.159 6.4561 0.43199 5.7784z" fill-rule="evenodd" stroke="#000" stroke-miterlimit="10" stroke-width=".036"/>
 <path d="m369.04 295.52c1.512 2.5325 7.056 8.4882 9.972 10.701 2.736 2.0331 6.517 2.6752 6.624 1.6407-0.03598-1.2137-3.636-5.4226-6.228-8.2038-2.7-2.8892-7.416-7.5618-9.145-8.2395-1.835-0.64203-2.663 1.4991-1.223 4.1019z" fill-rule="evenodd" stroke="#000" stroke-miterlimit="10" stroke-width=".036"/>
 <use transform="matrix(.72662 .048474 -.058124 .85533 -35.08 -83.374)" x="259.39" y="323.47" xlink:href="#r"/>
 <path d="m177 168h12c1 0 2 0 4-1s4.31-1.3375 7-3c2.406-1.487 4-4 8-6s7.3869-3.9176 10-5c2.7716-1.1481 5-1 7-1h7c2 0 5.0535 0.4595 7 0 2.1763-0.51375 4-1 5-1h15c1 0 3.107-0.91901 7 0 2.1762 0.51375 4 2 6 2s2.7055 1.3462 5 3c1.814 1.3074 4 1 5 1s1.6935 0.4588 3 1c1.8477 0.76537 4 0 5 0h11c1 0 2 0 3 1h5" fill="none" stroke="#000" stroke-width="4"/>
 <path d="m199 134c0-1 1-1 3-2s4.0535-1.5405 6-2c2.1763-0.51375 3.9341-1.1443 6-2 2.9216-1.2102 6.066-2.8777 8-4 3.1185-1.8097 4.2929-2.2929 5-3s2.0258-0.67963 4-1c3.1214-0.50654 5.0535-1.5405 7-2 2.1763-0.51374 4-1 6-1h6c1 0 2 1 2 1 0 2 0.69344 3.4588 2 4 0.92387 0.38268 2.0761 0.61732 3 1 1.3065 0.5412 1.8238 1.4863 4 2 0.97324 0.22975 1.8238 1.4863 4 2 1.9465 0.4595 3 1 4 1s3 1 6 1h16c2 0 4 0 4-1h2" fill="none" stroke="#000" stroke-width="4"/>
 <path d="m214 20h-3c-2 0-3.0535-0.4595-5 0-2.1763 0.51374-3.8237 1.4863-6 2-1.9465 0.4595-3 0-4 0-2 0-4 1-5 1h-10c-1 0-1.6934 0.4588-3 1-0.92387 0.38268-3 0-3 0-1 1-2.0761 0.61732-3 1-1.3066 0.5412-2.2929 1.2929-3 2s-0.69344 1.4588-2 2c-0.92387 0.38268-1.2929 1.2929-2 2s-1.2929 0.29289-2 1-0.026749 1.7702-1 2c-2.1763 0.51374-5.2987 0.82108-7 4-0.47186 0.88168-0.29289 1.2929-1 2s-2 0-2 1-1 1-1 1c-1 0-2.4588 0.69344-3 2-0.38269 0.92388-1 1-1 2s-1 2-1 4l-1 1v2" fill="none" stroke="#7f7f7f" stroke-width="4"/>
 <polyline points="165 88" fill="none" opacity=".5" stroke="#7f7f7f" stroke-linecap="round" stroke-width="4"/>
 <path d="m129 139c-1-1-2-1-3-1s-2.0761-0.38269-3 0c-1.3066 0.5412-3.0761 2.6173-4 3-1.3066 0.5412-2 1-2 2s-1.0761 0.61731-2 1c-1.3066 0.5412-2.4863 1.8237-3 4-0.4595 1.9465-1.4588 1.6934-2 3-0.38268 0.92387-1 1-1 2s-1 2-1 3-1 1-1 2v3c0 1-1 2-1 3v14c-1 0-0.85273 2.1731-2 3-1.814 1.3074-1.6173 2.0761-2 3-0.5412 1.3066-1.2929 1.2929-2 2s-1.4588 0.69344-2 2c-0.38268 0.92387-0.29289 1.2929-1 2-1.4142 1.4142-3.0267 0.77025-4 1-2.1763 0.51375-3 3-5 4s-4.186 0.69255-6 2c-1.1473 0.8269-3.6934 1.4588-5 2-0.92388 0.38269-2.0761-0.38269-3 0-1.3066 0.5412-2.0267 1.7702-3 2-2.1763 0.51375-2.6934 1.4588-4 2-0.92388 0.38269-1.4189 0.41885-3 2s-1.0979 3.8244-3 5c-0.85065 0.52573-1.2929 0.29289-2 1s-0.69255 2.186-2 4c-0.8269 1.1473-2.4863 1.8237-3 4-0.45951 1.9465-1.4935 2.8786-2 6-0.16018 0.98709-1 2-2 3s-1.1731 2.8527-2 4c-1.3075 1.814-2 3-2 4 0 0-0.77025 1.0267-1 2-0.51374 2.1763-1 3-1 5v20c0 1 1.2929 2.2929 2 3s1.4588 1.6935 2 3c0.38268 0.92389 1 2 1 3 0 2 0.4588 2.6935 1 4 0.38268 0.92389 1.4588 1.6935 2 3 0.76537 1.8477 2.1731 2.8527 3 4 1.3075 1.814 2.4863 2.8238 3 5 0.22975 0.97324 0.47427 1.1494 1 2 1.1756 1.9021 2.2929 1.2929 3 2s0.29289 1.2929 1 2 1.2929 0.29291 2 1 0.29289 1.2929 1 2 0.61732 1.0761 1 2c0.5412 1.3065 1.4588 1.6935 2 3 0.38268 0.92389 0 2 0 3 0 0-0.22975 1.0268 0 2 0.51374 2.1762 1 3 1 4v15c0 1 0.66251 3.31-1 6-0.7435 1.203-0.29289 3.2929-1 4s-0.29289 1.2929-1 2-1 2-2 4-2 4-2 5-1 2-1 3-1 1-1 2 0.38268 2.0761 0 3c-0.5412 1.3065-0.23463 2.1523-1 4-0.5412 1.3065-0.61732 3.0761-1 4-0.5412 1.3065-1 3-1 4s0.70711 2.2929 0 3-1 2-1 3v20c0 1 0.29289 1.2929 1 2s-0.70711 2.2929 0 3 1.4588 0.69345 2 2c0.76537 1.8477 0.4588 2.6935 1 4 0.76537 1.8477 1 2 1 3s1.4588 0.69345 2 2c0.38268 0.92389 0.29289 1.2929 1 2s1 2 1 2c0 1 1 2 1 2 1 0 0.29289 1.2929 1 2s1.2929 1.2929 2 2 0 2 1 3c0 0-0.70711 1.2929 0 2s1 0 1 1 1 1 1 2 1 1 1 2 1 1 1 2" fill="none" stroke="#7f7f7f" stroke-width="4"/>
 <path d="m307 62c0 1 0.29291 1.2929 1 2s1 2 2 3 0.69345 2.4588 2 3c0.92389 0.38268 1 1 1 1 0 1 1 1 1 3v12s0.70709 1.2929 0 2-1 1-1 2-1 1-1 1v16c0 1-0.30655 2.4588 1 3 0.92389 0.38268 1.2929 1.2929 2 2s1.4588 0.69344 2 2c0.38269 0.92388 1.4588 0.69344 2 2 0.38269 0.92388 1.2929 0.29289 2 1s1 1 1 1h2c1 0 1 1 2 1s1.2929 0.29289 2 1 1.2929 0.29289 2 1c1.4142 1.4142 3 0 4 0h4c1 0 2 1 2 1 1 0 1.2929 0.29289 2 1s2.0761-0.38268 3 0c1.3065 0.5412 1.2929 1.2929 2 2s1.2929 0.29289 2 1 0.82376 0.48626 3 1c0.97324 0.22975 0.61731 1.0761 1 2 0.5412 1.3066 2 1 2 2s0.29291 1.2929 1 2 0 2 0 2c1 0 1 2 1 3v3h1v1" fill="none" stroke="#7f7f7f" stroke-width="4"/>
 <path d="m297 29h6c1 0 2 1 3 1h2c1 1 2 1 3 1s1 1 2 1c0 0 1.2929-0.70711 2 0s1 1 2 1 1 1 2 1h2c1 0 2.0761-0.38268 3 0 1.3065 0.5412 2.0761 0.61732 3 1 1.3065 0.5412 3 1 4 1s2.0268 0.77025 3 1c2.1762 0.51374 3.0268 0.77025 4 1 2.1762 0.51374 3.0761 1.6173 4 2 1.3065 0.5412 2.0761 1.6173 3 2 1.3065 0.5412 2.1494 0.47427 3 1 1.9021 1.1756 2 2 3 3s1.6935 2.4588 3 3c0.92389 0.38268 1 1 2 2 2 2 2.4588 2.6934 3 4 0.38269 0.92388 1 1 1 2v2c1 0 0.61731 1.0761 1 2 0.5412 1.3066 1 2 1 3s1 1 1 2-0.38269 1.0761 0 2c0.5412 1.3066 1.4588 0.69344 2 2 0.38269 0.92388 0.29291 1.2929 1 2s0 3 0 4 0 2 1 3c0 0 1 1 1 2s1.4863 2.8237 2 5c0.4595 1.9465 0.29291 3.2929 1 4s0 2 1 3c0 0-0.22977 2.0267 0 3 0.51373 2.1763 0.69345 2.4588 2 3 0.92389 0.38268 0.78986 2.0784 2 5 0.85571 2.0659 1 3 2 4 0 0 2 0 2 1s4.0761 1.6173 5 2c1.3065 0.5412 1.0761 1.6173 2 2 1.3065 0.5412 0.69345 3.4588 2 4 0.92389 0.38268 1.8244 0.097885 3 2 0.52573 0.85066 1.4588 0.69344 2 2 0.38269 0.92388 1 1 2 2s1.0761 1.6173 2 2c1.3065 0.5412 0.69345 1.4588 2 2 0.92389 0.38268 1 1 2 1s1.2929 0.29289 2 1 0.29291 3.2929 1 4 2 1 2 2 1 1 1 2 1 1 1 3c0 1 0.29291 0.29289 1 1 1.4142 1.4142 0 3 0 4 0 2 0.4588 2.6934 1 4 0.76538 1.8478 0 2 0 3v10c0 1 1 1 1 2v6c0 2 1 3 1 5v3c1 0 1 1 1 2 0 2 0.23462 3.1522 1 5 0.5412 1.3066 1.0761 1.6173 2 2 1.3065 0.5412 1.6925 4.186 3 6 1.6538 2.2945 3.0761 2.6173 4 3 1.3065 0.5412 2 1 2 1 1 0 2 1 3 1 0 0 0.69345 0.4588 2 1 1.8477 0.76537 2.6935 0.4588 4 1 1.8477 0.76537 2.6935 0.4588 4 1 0.92389 0.38269 1.2929 0.29289 2 1 1.4142 1.4142 2 1 3 1s1.6935 0.4588 3 1c1.8477 0.76537 3 2 4 2s1.6935 0.4588 3 1c0.92389 0.38269 2 1 2 1 0 1 2 2 2 3l1 2v3" fill="none" stroke="#7f7f7f" stroke-width="4"/>
 <path d="m479 297c1 0 2.0761-0.38269 3 0 1.3065 0.5412 2.4588 0.69345 3 2 0.38269 0.92389 0.23462 1.1523 1 3 0.5412 1.3065 2 1 2 2 0 0 1 0 1 1s-0.41422 1.5858 1 3c0.70709 0.70709 0.61731 1.0761 1 2 0.5412 1.3065 2 2 2 3s0.29291 0.29291 1 1 0 2 0 3v22l-2 2c-1.4142 1.4142-0.61731 2.0761-1 3-0.5412 1.3065-1.7702 2.0268-2 3-0.51373 2.1762-1.2929 2.2929-2 3s-1 2-2 2-0.61731 1.0761-1 2c-0.5412 1.3065-1 2-1 3v17c0 1 0.77023 2.0268 1 3 0.51373 2.1762 2 3 2 4s-0.14728 2.1731 1 3c1.814 1.3075 2.1494 1.4743 3 2 1.9021 1.1756-0.14804 2.2284 1 5 0.5412 1.3065 2 2 2 2 1 0 1.2929 1.2929 2 2s0.29291 2.2929 1 3 1.4588 1.6935 2 3c0.38269 0.92389 0 1 0 2v14s0.38269 1.0761 0 2c-0.5412 1.3065-0.61731 2.0761-1 3-0.5412 1.3065 0.41422 2.5858-1 4-0.70709 0.70709-1 1-1 2s-1 3-2 4l-1 1c-0.70709 0.70709-0.4588 1.6935-1 3-0.38269 0.92389 0.41422 2.5858-1 4-0.70709 0.70709-0.61731 2.0761-1 3-0.5412 1.3065-1 2-1 3s-0.29291 1.2929-1 2 0 2 0 3-1 2-1 3 0.38269 1.0761 0 2c-0.5412 1.3065-1 2-1 3v1h-1" fill="none" stroke="#7f7f7f" stroke-width="4"/>
 <path d="m430 418c0 1 0.29291 1.2929 1 2s0.29291 1.2929 1 2 0.29291 1.2929 1 2-0.70709 1.2929 0 2 1 1 1 2v13c0 1 0.38269 2.0761 0 3-0.5412 1.3065-1.2929 1.2929-2 2s-0.69254 1.186-2 3c-0.8269 1.1473-1 2-1 3s-1.2929 0.29291-2 1-0.29291 2.2929-1 3-1 1-2 1-1.2929 1.2929-2 2-2 0-2 1-0.82376 2.4863-3 3c-0.97324 0.22977-1.2929 1.2929-2 2s-2.0761-0.38269-3 0c-1.3065 0.5412-2 2-2 2-1 1-1.6935 2.4588-3 3-0.92389 0.38269-1.5858-0.41422-3 1l-2 2c-0.70709 0.70709-1 1-2 1s-2.4588 0.69345-3 2c-0.38269 0.92389-1.0761 0.61731-2 1-1.3065 0.5412-1.6925 1.186-3 3-0.8269 1.1473-2.6173 1.0761-3 2-0.5412 1.3065-0.85272 2.1731-2 3-1.814 1.3075-2.2929 1.2929-3 2s-2 1-3 1h-1c-1 0-2.2929-0.70709-3 0s-2.0761 1.6173-3 2c-1.3065 0.5412-2.0761 0.61731-3 1-1.3065 0.5412-3.0761 1.6173-4 2-1.3065 0.5412-2.2929 2.2929-3 3s-1.1523 0.23462-3 1c-1.3065 0.5412-1 1-1 1-2 0-2.2929 0.29291-3 1s-2 0-3 1l-1 1" fill="none" stroke="#7f7f7f" stroke-width="4"/>
</svg>
