<?xml version="1.0" encoding="UTF-8" standalone="no"?>
<!-- Created with Inkscape (http://www.inkscape.org/) -->

<svg
   width="210mm"
   height="297mm"
   viewBox="0 0 210 297"
   version="1.1"
   id="svg1"
   inkscape:version="1.4 (86a8ad7, 2024-10-11)"
   sodipodi:docname="Fernando_triste.svg"
   xmlns:inkscape="http://www.inkscape.org/namespaces/inkscape"
   xmlns:sodipodi="http://sodipodi.sourceforge.net/DTD/sodipodi-0.dtd"
   xmlns:xlink="http://www.w3.org/1999/xlink"
   xmlns="http://www.w3.org/2000/svg"
   xmlns:svg="http://www.w3.org/2000/svg">
  <sodipodi:namedview
     id="namedview1"
     pagecolor="#ffffff"
     bordercolor="#000000"
     borderopacity="0.25"
     inkscape:showpageshadow="2"
     inkscape:pageopacity="0.0"
     inkscape:pagecheckerboard="0"
     inkscape:deskcolor="#d1d1d1"
     inkscape:document-units="mm"
     inkscape:zoom="0.71891835"
     inkscape:cx="397.12437"
     inkscape:cy="561.25984"
     inkscape:window-width="1920"
     inkscape:window-height="1009"
     inkscape:window-x="-8"
     inkscape:window-y="-8"
     inkscape:window-maximized="1"
     inkscape:current-layer="layer1" />
  <defs
     id="defs1">
    <radialGradient
       inkscape:collect="always"
       xlink:href="#linearGradient165"
       id="radialGradient166"
       cx="37.812092"
       cy="141.53999"
       fx="37.812092"
       fy="141.53999"
       r="1.1901907"
       gradientTransform="matrix(0.6865512,-0.70565296,0.82515115,0.80281462,31.416644,44.780732)"
       gradientUnits="userSpaceOnUse" />
    <linearGradient
       id="linearGradient165"
       inkscape:collect="always">
      <stop
         style="stop-color:#b7624a;stop-opacity:1;"
         offset="0"
         id="stop165" />
      <stop
         style="stop-color:#b7624a;stop-opacity:0.49803922;"
         offset="0.56768101"
         id="stop169" />
      <stop
         style="stop-color:#fde4c4;stop-opacity:1;"
         offset="1"
         id="stop166" />
    </linearGradient>
  </defs>
  <g
     inkscape:label="Camada 1"
     inkscape:groupmode="layer"
     id="layer1">
    <g
       id="Fernando_sad"
       transform="matrix(2.3686361,0,0,2.3686361,-310.2249,-216.58179)">
      <path
         style="opacity:1;fill:#68563e;fill-opacity:1;stroke:#000000;stroke-width:0.175;stroke-linecap:round;stroke-dasharray:none;paint-order:fill markers stroke"
         d="m 168.42657,187.64994 5.77637,0.0935 c 0,0 0.25725,2.57247 0.1637,2.92326 -0.0935,0.35079 -6.80535,1.37978 -9.42459,0.72497 0,0 -1.52594,-0.0877 0.42095,-1.81238 0,0 1.61363,-1.19269 3.06357,-1.92935 z"
         id="path156" />
      <path
         style="opacity:1;fill:#67553e;fill-opacity:1;stroke:#000000;stroke-width:0.175;stroke-linecap:round;stroke-dasharray:none;paint-order:fill markers stroke"
         d="m 177.72254,188.43337 c 0,0 -1.64872,1.66041 -1.85919,2.25676 0,0 -0.73222,1.64046 0.78343,1.59025 2.88593,-0.0956 7.96722,-0.14012 6.99708,-3.17604 -0.008,-0.0744 -0.3638,-1.10794 -0.3638,-1.10794 l -5.19245,-0.0413 z"
         id="path157"
         sodipodi:nodetypes="ccscccc" />
      <path
         style="opacity:1;fill:#608a97;fill-opacity:1;stroke:#000000;stroke-width:0.175;stroke-linecap:round;stroke-dasharray:none;paint-order:fill markers stroke"
         d="m 168.0524,163.65581 15.43481,0.14031 0.28064,6.68842 c 0,0 0.073,9.2311 -0.15848,17.26782 0,0 -1.9513,1.4056 -6.08541,0.57877 l -0.29352,-0.19843 c 0,0 -1.75701,-16.05691 -1.82315,-21.34857 -0.0744,0 -1.21543,-0.16537 -1.81901,-0.43822 0,0 0.94257,0.30593 1.09967,0.339 l 0.1571,0.0165 c 0,0 -0.0331,17.14834 -0.4961,20.85251 l -0.0759,0.31818 c 0,0 -2.82971,1.08745 -5.98683,-0.14032 l -0.18709,-0.0702 c 0,0 -0.52619,-21.37484 -0.1754,-22.68446 0,0 0.0702,-1.2453 0.12863,-1.32131 z"
         id="path155" />
      <path
         style="opacity:1;fill:#ed9a5e;fill-opacity:1;stroke:#000000;stroke-width:0.175;stroke-linecap:round;stroke-dasharray:none;paint-order:fill markers stroke"
         d="m 168.37521,145.21412 c 0,0 -0.28063,16.9783 -0.46772,18.42823 0,0 1.96443,1.82412 14.59292,0.65482 l 1.05428,-0.22242 -0.0165,-11.01329 -0.8434,-0.0992 c 0,0 -0.42168,-0.1571 -0.38034,-1.03353 0.0413,-0.87644 0.0744,-2.2655 0.0744,-2.2655 0,0 0.0414,-3.09271 0.3688,-3.9346 l -0.17862,0.8092 -0.0827,0.90124 -0.0744,1.33118 -0.0969,3.09721 c 0,0 -0.0234,0.74836 0.16371,0.93545 0.18708,0.18708 0.71327,0.24555 0.87697,0.26894 0.16371,0.0234 3.5313,-0.10524 4.38489,-0.45603 0.8536,-0.35079 0.78344,-0.49111 0.78344,-0.49111 0,0 -0.68989,-5.78806 -1.181,-7.07429 -0.49111,-1.28624 -0.98221,-2.29184 -1.23946,-2.5257 0,0 -3.96449,-2.92393 -6.11423,-3.20505 l -0.6736,-0.21516 -6.22655,0.34494 -3.76516,1.71888 c 0,0 -1.5386,1.07002 -2.28274,1.96299 -0.74414,0.89297 -1.15755,2.53008 -1.15755,2.53008 l -1.3808,5.95312 c 0,0 0.009,0.33479 0.48882,0.47511 0.47941,0.14032 2.40877,0.45603 3.23313,0.49111"
         id="path152" />
      <path
         style="opacity:1;fill:#fde4c4;fill-opacity:1;stroke:#000000;stroke-width:0.293923;stroke-linecap:round;stroke-dasharray:none;paint-order:fill markers stroke"
         d="m 182.3813,129.08752 c 0.21525,-0.0347 0.71519,0.31245 0.71519,0.31245 1.75939,1.93929 -0.82441,4.46576 -2.2983,4.13138 l -0.24997,0.58327 c 0,0 -1.4998,4.6938 -6.49912,4.24942 -4.99932,-0.4444 -5.16596,-5.36039 -5.16596,-5.36039 l 0.0777,-7.6212 4.04579,-2.19829 7.5537,0.74836 0.14032,5.05139 z"
         id="path150"
         sodipodi:nodetypes="cscccc" />
      <g
         id="hair_Fernando"
         transform="matrix(1.6795613,0,0,1.6795613,81.53392,-57.692594)"
         style="opacity:1;fill:#987048;fill-opacity:1">
        <path
           style="opacity:1;fill:#987048;fill-opacity:1;stroke:#000000;stroke-width:0.175;stroke-linecap:round;stroke-dasharray:none;paint-order:fill markers stroke"
           d="m 59.134374,111.88568 c 0,0 0.380339,-0.71107 0.777214,-0.678 0.396875,0.0331 0.479557,0.0662 0.479557,0.0662 0,0 0.363802,-2.24896 0.330729,-2.49701 -0.03307,-0.24805 -0.198437,-1.00872 -0.363802,-1.20716 -0.165364,-0.19844 -0.380338,-0.39687 -0.479557,-0.46302 -0.09922,-0.0661 -0.28112,-0.13229 -0.28112,-0.13229 0,0 0.446484,-0.11576 0.56224,-0.11576 0.115755,0 0.496093,0.0165 0.496093,0.0165 0,0 -0.148828,-0.34727 -0.396875,-0.41341 -0.248046,-0.0661 -0.644921,-0.0827 -0.760677,-0.0661 -0.115755,0.0165 -0.23151,0.0992 -0.23151,0.0992 0,0 -0.198438,-0.89297 -0.496094,-1.19062 -0.297656,-0.29766 -0.661458,-0.41342 -0.661458,-0.41342 0,0 0.05788,0.48779 0.02894,0.5498 -0.02894,0.062 0.03721,0.48783 0.06615,0.5085 0.02894,0.0207 0.103353,0.23564 0.103353,0.23564 0,0 -0.74414,-0.99632 -1.736328,-1.12861 -0.992187,-0.13229 -1.65778,-0.0703 -1.65778,-0.0703 0,0 -1.298117,0.33075 -1.608175,0.52092 -0.310059,0.19017 -0.334864,0.22737 -0.334864,0.22737 0,0 0.42168,0.0992 0.566374,0.18191 0.144694,0.0827 0.252181,0.16123 0.252181,0.16123 0,0 -0.665592,-0.0992 -1.087272,0.1819 0,0 -1.030141,0.73218 -1.293235,1.05959 -0.263093,0.3274 -0.491107,0.81851 -0.491107,0.81851 0,0 0.368331,-0.0468 0.590498,-0.12862 0.222168,-0.0819 0.315712,-0.15786 0.315712,-0.15786 0,0 -0.537879,0.46188 -0.666503,0.7542 -0.128623,0.29233 -0.163703,0.53788 -0.146163,0.64897 0.01754,0.11108 0.04677,0.23386 0.04677,0.23386 0,0 0.964676,-0.18709 1.297928,-0.36249 0.333252,-0.17539 1.549328,-0.85359 1.672105,-0.94713 0.122777,-0.0935 0.467722,-0.39757 0.467722,-0.39757 0,0 -0.590499,0.53788 -0.619732,0.70159 -0.02923,0.1637 -0.140316,0.40341 -0.105237,0.47941 0.03508,0.076 0.198782,0.12278 0.52034,0.0468 0.321559,-0.076 1.07576,-0.56126 1.07576,-0.56126 0.04093,-0.0176 0.567115,-0.46776 0.654812,-0.60223 0.0877,-0.13447 0.122777,-0.27478 0.122777,-0.27478 0,0 -0.222167,0.78343 -0.245553,0.92375 -0.02339,0.14032 -0.05847,0.27479 -0.03508,0.36248 0.02339,0.0877 0.08185,0.15201 0.08185,0.15201 0,0 0.40341,0 0.678196,-0.19878 0.274787,-0.19878 0.742508,-0.69574 0.783434,-0.78343 0.04093,-0.0877 0.13447,-0.2514 0.13447,-0.2514 0,0 0.05262,-0.0526 0.08185,0.0351 0.02923,0.0877 0.06431,0.52618 0.111084,0.64311 0.04677,0.11693 0.40341,0.80098 0.572959,0.98222 0.169549,0.18124 0.432643,0.32156 0.432643,0.32156 l 0.10524,0.0643 -0.02339,-0.94129 c 0,0 -0.0064,2.14728 0.312531,3.00591 z"
           id="path140" />
        <path
           style="opacity:1;fill:#987048;fill-opacity:1;stroke:#000000;stroke-width:0.175;stroke-linecap:round;stroke-dasharray:none;paint-order:fill markers stroke"
           d="m 52.081575,109.31426 -0.14056,2.52181 c 0,0 -0.595313,-1.64538 -0.413411,-2.42259 l 0.587045,-0.21498 z"
           id="path141" />
      </g>
      <path
         style="opacity:1;fill:none;fill-opacity:1;stroke:#000000;stroke-width:0.293923;stroke-linecap:round;stroke-dasharray:none;paint-order:fill markers stroke"
         d="m 170.07742,128.12932 c 0,0 1.18039,-0.24997 2.01361,-0.74989"
         id="path142" />
      <path
         style="opacity:1;fill:none;fill-opacity:1;stroke:#000000;stroke-width:0.293923;stroke-linecap:round;stroke-dasharray:none;paint-order:fill markers stroke"
         d="m 176.03494,126.93505 c 0,0 1.13874,0.76378 1.44425,0.80544 l 0.87489,0.0973"
         id="path143" />
      <ellipse
         style="opacity:1;fill:#000000;fill-opacity:1;stroke:#000000;stroke-width:0.293923;stroke-linecap:round;stroke-dasharray:none;paint-order:fill markers stroke"
         id="path144"
         cx="171.27864"
         cy="130.504"
         rx="0.40966645"
         ry="0.83321983" />
      <ellipse
         style="opacity:1;fill:#000000;fill-opacity:1;stroke:#000000;stroke-width:0.293923;stroke-linecap:round;stroke-dasharray:none;paint-order:fill markers stroke"
         id="path145"
         cx="187.7377"
         cy="114.78323"
         rx="0.4374404"
         ry="0.86099392"
         transform="rotate(4.9292307)" />
      <path
         style="opacity:1;fill:none;fill-opacity:1;stroke:#000000;stroke-width:0.293923;stroke-linecap:round;stroke-dasharray:none;paint-order:fill markers stroke"
         d="m 173.64638,129.80965 c 0,0 -0.0694,0.29163 -0.12498,0.38883 -0.0555,0.0973 -0.76379,1.73589 -0.80545,1.9164 -0.0416,0.18054 -0.0555,1.01377 0.5416,1.22207 0.59714,0.2083 1.54145,-0.0277 1.54145,-0.0277"
         id="path146" />
      <path
         style="opacity:1;fill:none;fill-opacity:1;stroke:#000000;stroke-width:0.293923;stroke-linecap:round;stroke-dasharray:none;paint-order:fill markers stroke"
         d="m 181.55628,132.17901 c 0.0196,-0.0394 0,-1.0998 0.89358,-1.57115"
         id="path147" />
      <path
         style="opacity:1;fill:none;fill-opacity:1;stroke:#000000;stroke-width:0.293923;stroke-linecap:round;stroke-dasharray:none;paint-order:fill markers stroke"
         d="m 172.56152,136.05774 c 0,0 1.39438,-1.51221 2.99498,-0.39279"
         id="path148" />
      <path
         style="opacity:1;fill:#fde4c4;fill-opacity:1;stroke:#000000;stroke-width:0.293923;stroke-linecap:round;stroke-dasharray:none;paint-order:fill markers stroke"
         d="m 168.90863,133.12167 -0.35878,-0.34021 c -1.94418,-2.52743 -0.22219,-3.72172 -0.22219,-3.72172 l 0.48278,0.84112 z"
         id="path149" />
      <path
         style="opacity:1;fill:#fee5c4;fill-opacity:1;stroke:#000000;stroke-width:0.175;stroke-linecap:round;stroke-dasharray:none;paint-order:fill markers stroke"
         d="m 179.08973,136.55031 -0.0496,2.16627 0.44648,0.81029 c 0,0 -3.42305,5.14284 -7.22643,0.69453 l -0.14884,-0.34726 0.79375,-0.54571 v 0.76068 -1.83555 c 0,0 2.03398,0.21498 2.64583,0.0331 0.61185,-0.18191 2.05053,-0.62839 2.57969,-1.05834 0.52917,-0.42995 0.95912,-0.67799 0.95912,-0.67799 z"
         id="path151" />
      <path
         style="opacity:1;fill:#fee5c4;fill-opacity:1;stroke:#000000;stroke-width:0.175;stroke-linecap:round;stroke-dasharray:none;paint-order:fill markers stroke"
         d="m 183.58075,153.31916 0.0936,10.7576 c 0,0 -0.58373,1.03102 -0.64987,2.05628 l -0.13234,2.62104 c 0,0 0.33073,1.05833 1.04179,-0.3142 l 0.1571,-1.07487 c 0,0 -0.17363,2.14974 -0.25631,2.40606 0,0 -0.30593,2.25722 0.87643,0.83509 0,0 0.7276,-1.30638 0.69453,-2.59622 l -0.008,-0.339 c 0,0 -0.16563,2.48047 -0.67826,2.96002 0,0 -0.33073,0.74414 0.35553,0.47956 0,0 1.51309,-0.82682 1.62057,-3.00963 l 0.0413,-0.52917 c 0,0 -0.14878,2.42259 -1.11617,3.18327 0,0 -0.87643,0.94258 0.41342,0.11575 0,0 1.4304,-1.14101 1.56269,-2.97656 0,0 0.0744,-2.78639 -0.25631,-3.48092 l -0.19844,-0.38034 c 0,0 0.84336,-8.1194 0.51263,-10.99675 l -0.0515,-0.23735 c 0,0 -2.71009,0.36138 -4.07435,0.23735 z"
         id="path153" />
      <path
         style="opacity:1;fill:#fee5c4;fill-opacity:1;stroke:#000000;stroke-width:0.175;stroke-linecap:round;stroke-dasharray:none;paint-order:fill markers stroke"
         d="m 165.76037,152.57315 c 0,0 -0.66146,10.15338 -0.59531,11.01328 l 0.0248,0.3142 c 0,0 -1.26505,3.75377 0.62011,5.98619 0,0 1.28984,1.07487 1.20716,0.0827 0,0 -0.16536,-0.89298 -0.38034,-1.25679 0,0 -0.44648,-1.36425 -0.23978,-2.59622 0,0 0.0496,2.25723 0.339,2.43913 0.28939,0.1819 0.7028,0.21497 0.83509,-0.1819 0.13229,-0.39688 0.14056,-1.0666 0.0744,-1.20716 l 0.0496,0.24804 0.0165,0.26459 -0.008,0.26458 -0.0413,0.24805 -0.0827,0.27285 -0.11575,0.14056 -0.1571,0.0744 -0.23151,0.0248 -0.21497,-0.0413 -0.1323,-0.091 -0.13229,-0.0744 0.13229,0.38861 0.0248,0.19844 0.16537,0.48782 0.10749,0.3638 -0.0248,0.29766 c 0,0 0.63665,0.28939 0.85162,0.16536 0.21498,-0.12402 0.39688,-0.28938 0.3142,-0.85162 -0.0827,-0.56224 -0.12403,-0.71934 -0.21498,-0.80202 l -0.10366,-0.12629 c 0,0 0.23386,0.0585 0.35664,-0.1637 l 0.16872,-4.1087 v 0 l 0.0301,-0.15926 0.006,-0.0526 c -0.076,-0.0234 -0.47352,-0.0351 -0.47352,-0.0351 0,0 0.46772,-10.4302 0.46772,-10.9213 l -0.0117,-0.57296 c 0,0 -2.32692,-0.1754 -2.53739,-0.23386 l -0.16371,-0.0234 z"
         id="path154" />
      <path
         style="opacity:1;fill:url(#radialGradient166);stroke:none;stroke-width:0.184726;stroke-linecap:round;stroke-dasharray:none;paint-order:fill markers stroke"
         d="m 173.20662,132.72993 c 0,0 0.12257,-0.0522 0.20786,-0.0294 0.0853,0.023 0.1402,0.0513 0.21336,0.0763 0.0731,0.025 0.13812,0.039 0.20504,0.0276 0.0669,-0.0114 0.0801,-0.008 0.13283,-0.0288 0.0526,-0.0214 0.0718,-0.0561 0.14987,-0.0757 0.078,-0.0194 0.0192,-0.0345 0.10241,-0.0236 0.0832,0.0109 -0.0202,0.0285 0.10759,0.007 0.12776,-0.0218 0.12168,-0.0208 0.1966,-0.0586 0.0749,-0.0378 -0.0352,0.0874 0.0861,-0.0459 0.12125,-0.13338 0.0583,-0.13516 0.16176,-0.15281 0.10343,-0.0176 0.064,0.0454 0.16425,-0.028 0.10018,-0.0734 0.0907,-0.16573 0.0907,-0.16573 0,0 -0.0407,-0.0556 -0.007,-0.11158 0.0343,-0.056 -0.0417,-0.0241 0.0545,-0.0845 0.0962,-0.0602 0.0516,-0.0276 0.0962,-0.0602 0.0446,-0.0326 0.0324,0.007 0.093,-0.0786 0.0606,-0.0855 0.0556,-0.0407 0.0645,-0.0986 0.009,-0.0578 0,0 0.009,-0.13294 0.009,-0.13292 0.0119,-0.0772 0.008,-0.17046 -0.003,-0.0933 0.10519,-0.0806 -0.0221,-0.20284 -0.12729,-0.12228 -0.15353,-0.0608 -0.17209,-0.16472 -0.0483,-0.27136 -0.14143,-0.1382 -0.27076,-0.22934 -0.0452,-0.0318 -0.20533,-0.10272 -0.26735,-0.13596 -0.062,-0.0333 -0.0691,-0.0383 -0.0966,-0.0524 -0.0275,-0.0141 0.0588,-0.0225 -0.0842,-0.0169 -0.14304,0.006 -0.0355,-0.0252 -0.16129,0.009 -0.12568,0.0339 -0.10744,0.0308 -0.19869,0.0464 -0.0913,0.0156 0.13072,-0.0411 -0.16129,0.009 -0.29201,0.0498 -0.28191,0.0356 -0.31534,0.0599 -0.0334,0.0245 -0.0831,0.0266 -0.10433,0.049 -0.0212,0.0224 0.0111,-0.008 -0.0718,0.0561 -0.15093,0.10426 -0.0857,0.26142 -0.17698,0.43086 -0.0394,0.063 -0.0384,0.0316 -0.0776,0.13219 -0.0391,0.10062 -0.0412,0.0884 -0.037,0.1503 0.004,0.0618 0.0183,0.0344 0.0128,0.1105 -0.006,0.0762 -0.002,0.10041 -0.042,0.15743 -0.0404,0.057 -0.0394,0.063 -0.0765,0.13826 -0.0373,0.0752 -0.0546,0.0469 -0.0381,0.10662 0.0163,0.0599 0.0235,0.0649 0.038,0.11249 0.0142,0.0477 0.0297,0.0638 0.0256,0.11458 -0.004,0.0508 -0.0199,0.10351 -0.0147,0.13397 0.005,0.0304 -7e-4,0.069 0.0225,0.0963 0.0234,0.0273 0.0245,0.0334 0.0469,0.0546 0.0224,0.0212 0.0498,0.0353 0.0498,0.0353 z"
         id="path165"
         sodipodi:nodetypes="cccscccsscsscccsscssssssssssscscsscssscccscscc" />
      <path
         style="opacity:1;fill:none;fill-opacity:1;stroke:#000000;stroke-width:0.1;stroke-linecap:round;stroke-dasharray:none;stroke-opacity:1;paint-order:fill markers stroke"
         d="m 177.23008,131.8127 c 0.005,0.006 0.87416,-0.36442 0.92545,-0.82742"
         id="path170"
         sodipodi:nodetypes="cc" />
    </g>
  </g>
</svg>
