<?xml version="1.0" encoding="UTF-8" standalone="no"?>
<!-- Created with Inkscape (http://www.inkscape.org/) -->

<svg
   width="210mm"
   height="297mm"
   viewBox="0 0 210 297"
   version="1.1"
   id="svg1"
   inkscape:version="1.4 (86a8ad7, 2024-10-11)"
   sodipodi:docname="Fernando_explicando.svg"
   xmlns:inkscape="http://www.inkscape.org/namespaces/inkscape"
   xmlns:sodipodi="http://sodipodi.sourceforge.net/DTD/sodipodi-0.dtd"
   xmlns:xlink="http://www.w3.org/1999/xlink"
   xmlns="http://www.w3.org/2000/svg"
   xmlns:svg="http://www.w3.org/2000/svg">
  <sodipodi:namedview
     id="namedview1"
     pagecolor="#ffffff"
     bordercolor="#000000"
     borderopacity="0.25"
     inkscape:showpageshadow="2"
     inkscape:pageopacity="0.0"
     inkscape:pagecheckerboard="0"
     inkscape:deskcolor="#d1d1d1"
     inkscape:document-units="mm"
     inkscape:zoom="0.71891835"
     inkscape:cx="397.12437"
     inkscape:cy="561.25984"
     inkscape:window-width="1920"
     inkscape:window-height="1009"
     inkscape:window-x="-8"
     inkscape:window-y="-8"
     inkscape:window-maximized="1"
     inkscape:current-layer="layer1" />
  <defs
     id="defs1">
    <radialGradient
       inkscape:collect="always"
       xlink:href="#linearGradient165"
       id="radialGradient188"
       gradientUnits="userSpaceOnUse"
       gradientTransform="matrix(0.35849471,-0.43377637,0.50723386,0.41920368,66.837976,92.227837)"
       cx="37.629852"
       cy="141.48949"
       fx="37.629852"
       fy="141.48949"
       r="1.1901907" />
    <linearGradient
       id="linearGradient165"
       inkscape:collect="always">
      <stop
         style="stop-color:#b7624a;stop-opacity:1;"
         offset="0"
         id="stop165" />
      <stop
         style="stop-color:#b7624a;stop-opacity:0.49803922;"
         offset="0.56768101"
         id="stop169" />
      <stop
         style="stop-color:#fde4c4;stop-opacity:1;"
         offset="1"
         id="stop166" />
    </linearGradient>
  </defs>
  <g
     inkscape:label="Camada 1"
     inkscape:groupmode="layer"
     id="layer1">
    <g
       id="Fernando_speaking"
       transform="matrix(3.8814692,0,0,3.8814692,-490.81457,-436.70637)">
      <path
         style="fill:#68563e;fill-opacity:1;stroke:#000000;stroke-width:0.100028;stroke-linecap:round;stroke-dasharray:none;paint-order:fill markers stroke"
         d="m 148.9883,164.19384 3.30169,0.0534 c 0,0 0.14704,1.47038 0.0936,1.67089 -0.0534,0.20051 -3.88984,0.78866 -5.38696,0.41438 0,0 -0.87221,-0.0501 0.2406,-1.03593 0,0 0.92233,-0.68172 1.7511,-1.10279 z"
         id="path171" />
      <path
         style="fill:#67553e;fill-opacity:1;stroke:#000000;stroke-width:0.100028;stroke-linecap:round;stroke-dasharray:none;paint-order:fill markers stroke"
         d="m 153.92758,164.36101 c 0,0 -0.94239,0.94907 -1.06269,1.28993 0,0 -0.41853,0.93767 0.4478,0.90897 1.64956,-0.0547 4.55395,-0.0801 3.99943,-1.81538 -0.005,-0.0425 -0.20794,-0.63329 -0.20794,-0.63329 l -2.96793,-0.0236 z"
         id="path172"
         sodipodi:nodetypes="ccscccc" />
      <path
         style="fill:#608a97;fill-opacity:1;stroke:#000000;stroke-width:0.0914124;stroke-linecap:round;stroke-dasharray:none;paint-order:fill markers stroke"
         d="m 148.99171,151.49794 8.06243,0.0733 0.1466,3.49372 c 0,0 0.0381,4.82191 -0.0828,9.01992 0,0 -1.01927,0.73422 -3.17874,0.30232 l -0.15332,-0.10365 c 0,0 -0.91778,-8.3874 -0.95233,-11.15152 -0.0388,0 -0.63489,-0.0864 -0.95017,-0.22891 0,0 0.49235,0.15981 0.57442,0.17708 l 0.0821,0.008 c 0,0 -0.0173,8.95751 -0.25913,10.8924 l -0.0397,0.16621 c 0,0 -1.47812,0.56803 -3.12725,-0.0733 l -0.0977,-0.0366 c 0,0 -0.27485,-11.16525 -0.0916,-11.84933 0,0 0.0366,-0.65049 0.0672,-0.69019 z"
         id="path173" />
      <path
         style="fill:#fee5c4;fill-opacity:1;stroke:#000000;stroke-width:0.0879033;stroke-linecap:round;stroke-dasharray:none;paint-order:fill markers stroke"
         d="m 154.60899,137.82837 -0.025,1.08812 0.22428,0.40701 c 0.46149,0.36683 -3.07883,3.68282 -3.62986,0.34886 l -0.0748,-0.17443 0.39871,-0.27411 v 0.38209 -0.922 c 0,0 1.02167,0.10798 1.32901,0.0166 0.30733,-0.0914 1.02998,-0.31564 1.29578,-0.53161 0.26581,-0.21597 0.48177,-0.34055 0.48177,-0.34055 z"
         id="path184"
         sodipodi:nodetypes="ccccccccsscc" />
      <path
         style="opacity:1;fill:#e9a16b;fill-opacity:1;stroke:#000000;stroke-width:0.0878787;stroke-linecap:round;stroke-dasharray:none;stroke-opacity:1;paint-order:fill markers stroke"
         d="m 148.90822,141.51848 0.004,10.23781 c 2.62546,0.37563 5.51342,0.34106 8.13887,-0.0386 l 0.32238,-5.95585 -0.31245,-0.62488 c 0,0 0.50863,1.06811 0.7484,1.18436 0.23978,0.11626 0.50136,0.0218 0.50136,0.0218 l -0.13806,-0.31245 -0.26157,0.36331 c 0,0 0.76293,-1.14077 1.71478,-1.42414 l 0.32838,-0.10577 0.27231,-1.12004 c 0,0 -1.5961,-3.05387 -1.68329,-3.12653 -0.0872,-0.0727 -0.53769,-0.71207 -1.20616,-0.88645 0,0 -2.47961,-0.70357 -2.64916,-0.6933 0,0 0.19324,0.72963 -0.60601,1.13653 -0.79926,0.40689 -0.8356,0.53042 -2.02722,0.42869 0,0 -0.77059,-0.14974 -0.83995,-0.74316 0,0 -0.0683,-0.33947 0.16421,-0.52476 0.0254,-0.0218 0.13442,-0.0872 0.13442,-0.0872 0,0 -2.1534,0.39101 -2.54901,0.65303 0,0 -0.38534,0.1824 -0.42644,0.2235 -0.0411,0.0411 -0.4547,0.48553 -0.63196,0.78352 l -1.80338,3.41668 -0.0565,0.10275 c 0,0 1.59788,0.62681 2.08596,1.56191 l -0.16441,0.33909 c 0,0 0.19523,0.21066 0.4624,-0.0617 l 0.46241,-0.50091"
         id="path189"
         sodipodi:nodetypes="cccccsccccccsccscccccsccccccc" />
      <path
         style="opacity:1;fill:none;fill-opacity:1;stroke:#000000;stroke-width:0.0878787;stroke-linecap:round;stroke-dasharray:none;stroke-opacity:1;paint-order:fill markers stroke"
         d="m 157.00256,141.38769 c 0,0 -0.33424,1.71479 -0.13079,2.6303"
         id="path190" />
      <path
         style="opacity:1;fill:#fcdcb7;fill-opacity:1;stroke:#000000;stroke-width:0.0878787;stroke-linecap:round;stroke-dasharray:none;stroke-opacity:1;paint-order:fill markers stroke"
         d="m 146.08771,144.43809 -0.0747,0.0541 c 0,0 0.41767,1.59742 0.42794,1.54604 0.0103,-0.0514 -1.17142,-3.82256 -1.1817,-4.20276 l -0.0386,-0.16698 c 0,0 0.3057,-0.61397 0.34681,-0.90169 0.0411,-0.28772 -0.0308,-0.84261 -0.0925,-0.98647 -0.0617,-0.14386 -0.072,-0.54461 -0.0514,-0.70902 0.0206,-0.16441 0.19524,-0.95564 -0.51379,-0.55488 0,0 -0.19412,0.42981 -0.24861,0.87304 l -0.0109,0.27974 c 0,0 -0.8138,-0.76657 -1.16983,-1.57309 0,0 -0.4505,-0.76657 -0.53042,-0.8029 -0.0799,-0.0363 -0.29428,-0.1108 -0.37239,0.04 0,0 -0.0744,0.13985 -0.069,0.17436 0,0 0.83377,1.34058 1.00452,1.73658 l 0.0618,0.0836 -1.18799,-1.96911 c 0,0 -0.49772,-0.38873 -0.44686,0.27611 0,0 1.02249,1.68321 1.07388,1.87331 0,0 -0.97106,-1.81367 -1.12006,-1.85477 0,0 -0.49837,-0.16441 -0.39561,0.4059 0,0.0257 0.0873,0.2312 0.15927,0.33395 0,0 0.53948,0.80151 0.62682,0.89913 0.0874,0.0976 0.30313,0.41616 0.32882,0.49837 l 0.0925,0.12845 c 0,0 -0.95564,-1.4797 -1.15088,-1.53109 0,0 -0.47781,-0.15413 -0.21579,0.57031 0,0 0.47755,1.63008 2.25046,3.19954 0,0 0.42143,3.90911 0.65394,4.51945 0.97591,3.2352 3.14112,1.29037 4.09331,-0.50234 0.005,0 -0.79181,-1.13495 -2.08192,-1.66788 z"
         id="path191"
         sodipodi:nodetypes="ccsccscsccccsccccccccccscccccccsc" />
      <path
         style="opacity:1;fill:#fcdcb7;fill-opacity:1;stroke:#000000;stroke-width:0.0878787;stroke-linecap:round;stroke-dasharray:none;stroke-opacity:1;paint-order:fill markers stroke"
         d="m 160.00337,144.7333 c -0.0639,0.28451 -0.21167,0.94736 -0.3545,1.4129 -0.0386,0.12579 0.99911,-3.99044 1.14303,-4.26976 l 0.0167,-0.21058 c 0,0 -0.11679,-0.44685 -0.1579,-0.73458 -0.0411,-0.28771 0.0308,-0.8426 0.0925,-0.98646 0.0617,-0.14386 0.072,-0.54461 0.0514,-0.70902 -0.0206,-0.16442 -0.19523,-0.95564 0.51379,-0.55489 0,0 0.19412,0.42982 0.24862,0.87304 l 0.0109,0.27975 c 0,0 0.8138,-0.76657 1.16984,-1.57309 0,0 0.45049,-0.76657 0.53042,-0.8029 0.08,-0.0363 0.29427,-0.11081 0.37237,0.04 0,0 0.0745,0.13985 0.0691,0.17436 0,0 -0.83378,1.34058 -1.00453,1.73658 l -0.0618,0.0836 1.18799,-1.96911 c 0,0 0.49773,-0.38873 0.44686,0.27611 0,0 -1.02249,1.68321 -1.07386,1.87331 0,0 0.97105,-1.81367 1.12004,-1.85477 0,0 0.49837,-0.16441 0.39562,0.40589 0,0.0257 -0.0874,0.2312 -0.15927,0.33396 0,0 -0.53947,0.80151 -0.62682,0.89912 -0.0874,0.0976 -0.30313,0.41617 -0.32882,0.49838 l -0.0925,0.12845 c 0,0 0.95563,-1.47971 1.15086,-1.53109 0,0 0.43673,-0.21579 0.17469,0.50865 0,0 -0.57002,1.4143 -2.34293,2.98376 0,0 -0.28783,4.18655 -0.52035,4.79689 0,0 -0.82054,3.39931 -3.23534,0.60432 l -0.70902,-1.16115 c -0.005,0 0.67306,-1.04298 1.97294,-1.55163 z"
         id="path192"
         sodipodi:nodetypes="csccssscccccccccccccccscccccccccc" />
      <path
         style="fill:#fde4c4;fill-opacity:1;stroke:#000000;stroke-width:0.168002;stroke-linecap:round;stroke-dasharray:none;paint-order:fill markers stroke"
         d="m 156.88244,133.6496 c 0.12303,-0.0198 0.40879,0.17859 0.40879,0.17859 1.00565,1.10847 -0.47122,2.55257 -1.31367,2.36144 l -0.14288,0.33339 c 0,0 -0.85727,2.68291 -3.71481,2.42891 -2.85754,-0.25401 -2.95279,-3.06393 -2.95279,-3.06393 l -0.10761,-4.32109 2.46453,-1.29159 4.31759,0.42775 0.0802,2.88731 z"
         id="path175"
         sodipodi:nodetypes="csccccccccc" />
      <g
         id="g177"
         transform="matrix(0.96001418,0,0,0.96001418,99.23946,26.888641)"
         style="fill:#987048;fill-opacity:1">
        <path
           style="opacity:1;fill:#987048;fill-opacity:1;stroke:#000000;stroke-width:0.175;stroke-linecap:round;stroke-dasharray:none;paint-order:fill markers stroke"
           d="m 59.134374,111.88568 c 0,0 0.380339,-0.71107 0.777214,-0.678 0.396875,0.0331 0.479557,0.0662 0.479557,0.0662 0,0 0.363802,-2.24896 0.330729,-2.49701 -0.03307,-0.24805 -0.198437,-1.00872 -0.363802,-1.20716 -0.165364,-0.19844 -0.380338,-0.39687 -0.479557,-0.46302 -0.09922,-0.0661 -0.28112,-0.13229 -0.28112,-0.13229 0,0 0.33452,-0.19327 0.450276,-0.19327 0.115755,0 0.608057,0.094 0.608057,0.094 0,0 -0.157441,-0.45923 -0.405488,-0.52537 -0.248046,-0.0661 -0.636308,0.0293 -0.752064,0.0459 -0.115755,0.0165 -0.23151,0.0992 -0.23151,0.0992 0,0 -0.198438,-0.89297 -0.496094,-1.19062 -0.297656,-0.29766 -1.092089,-0.0258 -1.092089,-0.0258 0,0 0.350709,0.26386 0.321769,0.32587 -0.02894,0.062 0.175012,0.32419 0.203952,0.34486 0.02894,0.0207 0.103353,0.23564 0.103353,0.23564 0,0 -0.74414,-0.99632 -1.736328,-1.12861 -0.992187,-0.13229 -1.65778,-0.0703 -1.65778,-0.0703 0,0 -1.298117,0.33075 -1.608175,0.52092 -0.310059,0.19017 -0.481278,0.55465 -0.481278,0.55465 0,0 0.568094,-0.22808 0.712788,-0.14537 0.144694,0.0827 0.252181,0.16123 0.252181,0.16123 0,0 -0.665592,-0.0992 -1.087272,0.1819 0,0 -1.030141,0.73218 -1.293235,1.05959 -0.263093,0.3274 -0.491107,0.81851 -0.491107,0.81851 0,0 0.368331,-0.0468 0.590498,-0.12862 0.222168,-0.0819 0.315712,-0.15786 0.315712,-0.15786 0,0 -0.537879,0.46188 -0.666503,0.7542 -0.128623,0.29233 -0.163703,0.53788 -0.146163,0.64897 0.01754,0.11108 0.04677,0.23386 0.04677,0.23386 0,0 0.964676,-0.18709 1.297928,-0.36249 0.333252,-0.17539 1.549328,-0.85359 1.672105,-0.94713 0.122777,-0.0935 0.467722,-0.39757 0.467722,-0.39757 -0.395916,0.37515 -0.873584,0.70766 -1.233113,1.09487 0.03508,0.076 0.706926,0.20891 1.028484,0.13293 0.321559,-0.076 1.07576,-0.56126 1.07576,-0.56126 0.04093,-0.0176 0.567115,-0.46776 0.654812,-0.60223 0.0877,-0.13447 0.122777,-0.27478 0.122777,-0.27478 0.05812,0.63415 -0.60787,0.92111 -0.887792,1.30905 -0.113905,-0.0438 0.911099,0.0594 1.367205,-0.0696 0.838406,-0.23713 0.884747,-1.3952 1.110838,-0.35662 0.02679,0.12305 0.282833,0.83543 0.452382,1.01667 0.169549,0.18124 0.380968,0.31295 0.380968,0.31295 0,0 0.247702,1.24445 0.566633,2.10308 z"
           id="path176"
           sodipodi:nodetypes="cscssscscsccscsscscscsccscccsscsscsscsccsssccc" />
        <path
           style="opacity:1;fill:#987048;fill-opacity:1;stroke:#000000;stroke-width:0.175;stroke-linecap:round;stroke-dasharray:none;paint-order:fill markers stroke"
           d="m 51.911054,109.31426 0.02996,2.52181 c 0,0 -0.430882,-1.68801 -0.24898,-2.46522 z"
           id="path177"
           sodipodi:nodetypes="cccc" />
      </g>
      <path
         style="fill:none;fill-opacity:1;stroke:#000000;stroke-width:0.168002;stroke-linecap:round;stroke-dasharray:none;paint-order:fill markers stroke"
         d="m 149.84971,133.1019 c 0.002,0.001 1.05073,0.0307 1.26788,-0.37015"
         id="path178"
         sodipodi:nodetypes="cc" />
      <path
         style="fill:none;fill-opacity:1;stroke:#000000;stroke-width:0.168002;stroke-linecap:round;stroke-dasharray:none;paint-order:fill markers stroke"
         d="m 153.37188,132.61805 c 0,0 0.67428,0.35472 0.8489,0.37853 l 0.47669,0.13745"
         id="path179"
         sodipodi:nodetypes="ccc" />
      <ellipse
         style="fill:#000000;fill-opacity:1;stroke:#000000;stroke-width:0.168002;stroke-linecap:round;stroke-dasharray:none;paint-order:fill markers stroke"
         id="ellipse179"
         ry="0.41779181"
         rx="0.23415972"
         cy="134.45923"
         cx="150.5363" />
      <ellipse
         style="fill:#000000;fill-opacity:1;stroke:#000000;stroke-width:0.168002;stroke-linecap:round;stroke-dasharray:none;paint-order:fill markers stroke"
         id="ellipse180"
         cx="164.82341"
         cy="120.73534"
         rx="0.25003493"
         ry="0.43287858"
         transform="rotate(4.9292311)" />
      <path
         style="fill:none;fill-opacity:1;stroke:#000000;stroke-width:0.168002;stroke-linecap:round;stroke-dasharray:none;paint-order:fill markers stroke"
         d="m 151.88968,134.06236 c 0,0 -0.0397,0.16669 -0.0714,0.22225 -0.0317,0.0556 -0.43657,0.99221 -0.46038,1.09538 -0.0238,0.1032 -0.04,0.4637 0.3013,0.58276 0.34132,0.11906 0.848,-0.11501 0.848,-0.11501"
         id="path180"
         sodipodi:nodetypes="csssc" />
      <path
         style="fill:none;fill-opacity:1;stroke:#000000;stroke-width:0.168002;stroke-linecap:round;stroke-dasharray:none;paint-order:fill markers stroke"
         d="m 156.41087,135.41665 c 0.0112,-0.0225 0,-0.62863 0.51076,-0.89805"
         id="path181" />
      <path
         style="fill:#fde4c4;fill-opacity:1;stroke:#000000;stroke-width:0.168002;stroke-linecap:round;stroke-dasharray:none;paint-order:fill markers stroke"
         d="m 149.18165,135.95546 -0.20508,-0.19446 c -1.11126,-1.44464 0.007,-2.20913 0.007,-2.20913 l 0.14148,0.56262 z"
         id="path183"
         sodipodi:nodetypes="ccccc" />
      <path
         style="fill:url(#radialGradient188);stroke:none;stroke-width:0.105587;stroke-linecap:round;stroke-dasharray:none;paint-order:fill markers stroke"
         d="m 151.68562,135.77473 c 0,0 0.0675,-0.0354 0.11706,-0.0264 0.0497,0.009 0.0822,0.0227 0.12508,0.0336 0.0428,0.0109 0.0804,0.0158 0.11809,0.006 0.0375,-0.0101 0.0453,-0.009 0.0743,-0.0226 0.029,-0.0146 0.0383,-0.0353 0.0819,-0.0501 0.0436,-0.0147 0.009,-0.0205 0.0572,-0.0182 0.0479,0.002 -0.0101,0.0172 0.0616,-9.9e-4 0.0718,-0.0184 0.0683,-0.0175 0.1093,-0.0425 0.0409,-0.025 -0.016,0.0514 0.0469,-0.0301 0.0629,-0.0816 0.0269,-0.0796 0.0851,-0.0945 0.0581,-0.0148 0.0386,0.0229 0.0923,-0.0235 0.0537,-0.0464 0.0441,-0.0986 0.0441,-0.0986 0,0 -0.0258,-0.0298 -0.009,-0.0633 0.0169,-0.0335 -0.0248,-0.0118 0.0272,-0.0507 0.052,-0.0387 0.0281,-0.0181 0.052,-0.0387 0.0239,-0.0206 0.0188,0.002 0.0494,-0.0491 0.0305,-0.0515 0.0298,-0.0258 0.0322,-0.0592 0.002,-0.0333 0,0 -0.001,-0.0762 -10e-4,-0.0762 0.003,-0.0445 -0.003,-0.0975 -0.006,-0.053 0.0562,-0.0508 -0.0219,-0.11454 -0.0782,-0.0638 -0.0902,-0.0276 -0.1057,-0.0859 -0.0401,-0.15236 -0.0869,-0.0722 -0.16487,-0.11814 -0.0272,-0.016 -0.12173,-0.049 -0.1586,-0.0651 -0.0368,-0.0161 -0.0411,-0.0186 -0.0574,-0.0253 -0.0163,-0.007 0.0324,-0.0156 -0.0488,-0.006 -0.0813,0.01 -0.0214,-0.0127 -0.0915,0.0124 -0.07,0.0251 -0.0598,0.0225 -0.11106,0.0356 -0.0513,0.0132 0.0726,-0.0295 -0.0915,0.0125 -0.16405,0.0419 -0.15897,0.0333 -0.17689,0.0487 -0.0179,0.0155 -0.0461,0.019 -0.0571,0.0327 -0.011,0.0137 0.006,-0.005 -0.0383,0.0353 -0.10826,0.0885 -0.10811,0.52433 -0.1378,0.57376 -0.0204,0.0344 -0.0195,0.0377 -0.0372,0.0823 -0.0178,0.0446 -0.0289,0.0292 -0.0168,0.0625 0.0117,0.0334 0.0164,0.0359 0.0268,0.0623 0.0102,0.0266 0.0199,0.035 0.0199,0.0641 3.5e-4,0.0291 -0.007,0.0599 -0.002,0.077 0.004,0.0171 0.003,0.0393 0.0173,0.0538 0.0146,0.0145 0.0155,0.0179 0.0292,0.0289 0.0137,0.011 0.03,0.0178 0.03,0.0178 z"
         id="path187"
         sodipodi:nodetypes="cccscccsscsscccsscssssssssssscscsscccscscc" />
      <path
         style="fill:none;fill-opacity:1;stroke:#000000;stroke-width:0.0571586;stroke-linecap:round;stroke-dasharray:none;stroke-opacity:1;paint-order:fill markers stroke"
         d="m 153.93807,135.20727 c 0.003,0.003 0.49966,-0.20829 0.52898,-0.47294"
         id="path188"
         sodipodi:nodetypes="cc" />
      <path
         style="opacity:1;fill:#fcdcb7;fill-opacity:1;stroke:#000000;stroke-width:0.1;stroke-linecap:round;stroke-dasharray:none;stroke-opacity:1;paint-order:fill markers stroke"
         d="m 161.86093,141.3221 c 0,0 -0.006,-0.44433 0.23971,-0.55542 0.24555,-0.11108 0.70743,-0.23386 0.76004,-0.32156"
         id="path193" />
      <path
         style="opacity:1;fill:#000000;fill-opacity:1;stroke:#000000;stroke-width:0.0806533;stroke-linecap:round;stroke-dasharray:none;stroke-opacity:1;paint-order:fill markers stroke"
         d="m 151.80671,136.80179 c 0,0 1.24036,-0.38677 1.61381,0.19339 0.37344,0.58017 0.19338,0.70687 -0.0267,0.84025 0,0 -0.28008,-0.006 -0.43346,-0.0467 -0.15338,-0.04 -0.76956,-0.0297 -0.90693,0.0133 -0.40399,0.12653 -1.46943,-0.42904 -0.24674,-1.00025 z"
         id="path194"
         sodipodi:nodetypes="csccsc" />
    </g>
  </g>
</svg>
