<?xml version="1.0" encoding="UTF-8" standalone="no"?>
<!-- Created with Inkscape (http://www.inkscape.org/) -->

<svg
   width="210mm"
   height="297mm"
   viewBox="0 0 210 297"
   version="1.1"
   id="svg1"
   inkscape:version="1.4 (86a8ad7, 2024-10-11)"
   sodipodi:docname="Fernando_explicando.svg"
   xmlns:inkscape="http://www.inkscape.org/namespaces/inkscape"
   xmlns:sodipodi="http://sodipodi.sourceforge.net/DTD/sodipodi-0.dtd"
   xmlns:xlink="http://www.w3.org/1999/xlink"
   xmlns="http://www.w3.org/2000/svg"
   xmlns:svg="http://www.w3.org/2000/svg">
  <sodipodi:namedview
     id="namedview1"
     pagecolor="#ffffff"
     bordercolor="#000000"
     borderopacity="0.25"
     inkscape:showpageshadow="2"
     inkscape:pageopacity="0.0"
     inkscape:pagecheckerboard="0"
     inkscape:deskcolor="#d1d1d1"
     inkscape:document-units="mm"
     inkscape:zoom="0.71891835"
     inkscape:cx="397.12437"
     inkscape:cy="561.25984"
     inkscape:window-width="1920"
     inkscape:window-height="1009"
     inkscape:window-x="-8"
     inkscape:window-y="-8"
     inkscape:window-maximized="1"
     inkscape:current-layer="layer1" />
  <defs
     id="defs1">
    <radialGradient
       inkscape:collect="always"
       xlink:href="#linearGradient165"
       id="radialGradient231"
       gradientUnits="userSpaceOnUse"
       gradientTransform="matrix(0.39242324,-0.40334154,0.47164507,0.45887781,50.703162,-14.054916)"
       cx="37.812092"
       cy="141.53999"
       fx="37.812092"
       fy="141.53999"
       r="1.1901907" />
    <linearGradient
       id="linearGradient165"
       inkscape:collect="always">
      <stop
         style="stop-color:#b7624a;stop-opacity:1;"
         offset="0"
         id="stop165" />
      <stop
         style="stop-color:#b7624a;stop-opacity:0.49803922;"
         offset="0.56768101"
         id="stop169" />
      <stop
         style="stop-color:#fde4c4;stop-opacity:1;"
         offset="1"
         id="stop166" />
    </linearGradient>
  </defs>
  <g
     inkscape:label="Camada 1"
     inkscape:groupmode="layer"
     id="layer1">
    <g
       id="Fernando_speaking_2"
       transform="matrix(4.4236212,0,0,4.4236212,-474.55719,-72.427565)">
      <path
         style="fill:#68563e;fill-opacity:1;stroke:#000000;stroke-width:0.100028;stroke-linecap:round;stroke-dasharray:none;paint-order:fill markers stroke"
         d="m 129.01615,67.60717 3.3017,0.0534 c 0,0 0.14704,1.47039 0.0936,1.67089 -0.0534,0.20051 -3.88985,0.78867 -5.38697,0.41439 0,0 -0.8722,-0.0501 0.24061,-1.03593 0,0 0.92233,-0.68173 1.7511,-1.10279 z"
         id="path214" />
      <path
         style="fill:#67553e;fill-opacity:1;stroke:#000000;stroke-width:0.100028;stroke-linecap:round;stroke-dasharray:none;paint-order:fill markers stroke"
         d="m 134.3296,68.05496 c 0,0 -0.94238,0.94907 -1.06268,1.28994 0,0 -0.41853,0.93766 0.44779,0.90896 1.64956,-0.0546 4.55396,-0.0801 3.99944,-1.81538 -0.005,-0.0425 -0.20794,-0.63328 -0.20794,-0.63328 l -2.96794,-0.0236 z"
         id="path215"
         sodipodi:nodetypes="ccscccc" />
      <path
         style="fill:#608a97;fill-opacity:1;stroke:#000000;stroke-width:0.100028;stroke-linecap:round;stroke-dasharray:none;paint-order:fill markers stroke"
         d="m 128.80228,53.89245 8.82233,0.0802 0.16041,3.82301 c 0,0 0.0417,5.27637 -0.0906,9.87005 0,0 -1.11534,0.80342 -3.47834,0.33081 l -0.16777,-0.11342 c 0,0 -1.00428,-9.17791 -1.04209,-12.20255 -0.0425,0 -0.69472,-0.0945 -1.03972,-0.25048 0,0 0.53876,0.17487 0.62856,0.19377 l 0.0898,0.009 c 0,0 -0.0189,9.80176 -0.28357,11.91901 l -0.0434,0.18187 c 0,0 -1.61742,0.62157 -3.42199,-0.0802 l -0.10693,-0.0401 c 0,0 -0.30077,-12.21757 -0.10026,-12.96613 0,0 0.0401,-0.71179 0.0735,-0.75524 z"
         id="path216" />
      <path
         style="opacity:1;fill:#ed9a5e;fill-opacity:1;stroke:#000000;stroke-width:0.100028;stroke-linecap:round;stroke-dasharray:none;paint-order:fill markers stroke"
         d="m 129.0592,43.33654 c 0,0 -0.16041,9.70457 -0.26735,10.53333 0,0 1.12285,1.04264 8.34112,0.37428 l 0.60261,-0.12713 -0.009,-6.29504 -0.48208,-0.0567 c 0,0 -0.24102,-0.0898 -0.21739,-0.59075 0.0236,-0.50096 0.0425,-1.29493 0.0425,-1.29493 0,0 0.0237,-1.76775 0.2108,-2.24896 l -0.1021,0.46253 -0.0473,0.51513 -0.0425,0.76089 -0.0554,1.77032 c 0,0 -0.0134,0.42775 0.0936,0.53469 0.10693,0.10693 0.4077,0.14035 0.50127,0.15372 0.0936,0.0134 2.01844,-0.0601 2.50634,-0.26066 0.4879,-0.2005 0.4478,-0.28071 0.4478,-0.28071 0,0 -0.39433,-3.30837 -0.67504,-4.04357 -0.28071,-0.73519 -0.56142,-1.30998 -0.70846,-1.44365 0,0 -2.26605,-1.67128 -3.49481,-1.83196 l -0.38502,-0.12299 -3.55901,0.19717 -2.15211,0.98249 c 0,0 -0.87945,0.6116 -1.30479,1.12201 -0.42534,0.51041 -0.66164,1.44616 -0.66164,1.44616 l -0.74247,3.06362 c 0.81502,0.0435 1.37147,0.28334 2.04556,0.56982"
         id="path217"
         sodipodi:nodetypes="ccccccsccccccssccscccccsccc" />
      <path
         style="fill:#fde4c4;fill-opacity:1;stroke:#000000;stroke-width:0.168002;stroke-linecap:round;stroke-dasharray:none;paint-order:fill markers stroke"
         d="m 136.99249,34.13369 c 0.12303,-0.0198 0.40879,0.17859 0.40879,0.17859 1.00564,1.10847 -0.47122,2.55257 -1.31368,2.36144 l -0.14288,0.33339 c 0,0 -0.85726,2.68291 -3.7148,2.42891 -2.85755,-0.25401 -2.9528,-3.06392 -2.9528,-3.06392 l 0.0444,-4.35618 2.31252,-1.25651 4.31759,0.42775 0.0802,2.88731 z"
         id="path218"
         sodipodi:nodetypes="cscccc" />
      <g
         id="g220"
         transform="matrix(0.96001418,0,0,0.96001418,79.349509,-72.627263)"
         style="fill:#987048;fill-opacity:1">
        <path
           style="opacity:1;fill:#987048;fill-opacity:1;stroke:#000000;stroke-width:0.175;stroke-linecap:round;stroke-dasharray:none;paint-order:fill markers stroke"
           d="m 59.134374,111.88568 c 0,0 0.380339,-0.71107 0.777214,-0.678 0.396875,0.0331 0.479557,0.0662 0.479557,0.0662 0,0 0.363802,-2.24896 0.330729,-2.49701 -0.03307,-0.24805 -0.198437,-1.00872 -0.363802,-1.20716 -0.165364,-0.19844 -0.380338,-0.39687 -0.479557,-0.46302 -0.09922,-0.0661 -0.28112,-0.13229 -0.28112,-0.13229 0,0 0.446484,-0.11576 0.56224,-0.11576 0.115755,0 0.496093,0.0165 0.496093,0.0165 0,0 -0.148828,-0.34727 -0.396875,-0.41341 -0.248046,-0.0661 -0.644921,-0.0827 -0.760677,-0.0661 -0.115755,0.0165 -0.23151,0.0992 -0.23151,0.0992 0,0 -0.198438,-0.89297 -0.496094,-1.19062 -0.297656,-0.29766 -0.661458,-0.41342 -0.661458,-0.41342 0,0 0.05788,0.48779 0.02894,0.5498 -0.02894,0.062 0.03721,0.48783 0.06615,0.5085 0.02894,0.0207 0.103353,0.23564 0.103353,0.23564 0,0 -0.74414,-0.99632 -1.736328,-1.12861 -0.992187,-0.13229 -1.65778,-0.0703 -1.65778,-0.0703 0,0 -1.298117,0.33075 -1.608175,0.52092 -0.310059,0.19017 -0.334864,0.22737 -0.334864,0.22737 0,0 0.42168,0.0992 0.566374,0.18191 0.144694,0.0827 0.252181,0.16123 0.252181,0.16123 0,0 -0.665592,-0.0992 -1.087272,0.1819 0,0 -1.030141,0.73218 -1.293235,1.05959 -0.263093,0.3274 -0.491107,0.81851 -0.491107,0.81851 0,0 0.368331,-0.0468 0.590498,-0.12862 0.222168,-0.0819 0.315712,-0.15786 0.315712,-0.15786 0,0 -0.537879,0.46188 -0.666503,0.7542 -0.128623,0.29233 -0.163703,0.53788 -0.146163,0.64897 0.01754,0.11108 0.04677,0.23386 0.04677,0.23386 0,0 0.964676,-0.18709 1.297928,-0.36249 0.333252,-0.17539 1.549328,-0.85359 1.672105,-0.94713 0.122777,-0.0935 0.467722,-0.39757 0.467722,-0.39757 0,0 -0.590499,0.53788 -0.619732,0.70159 -0.02923,0.1637 -0.140316,0.40341 -0.105237,0.47941 0.03508,0.076 0.198782,0.12278 0.52034,0.0468 0.321559,-0.076 1.07576,-0.56126 1.07576,-0.56126 0.04093,-0.0176 0.567115,-0.46776 0.654812,-0.60223 0.0877,-0.13447 0.122777,-0.27478 0.122777,-0.27478 0,0 -0.222167,0.78343 -0.245553,0.92375 -0.02339,0.14032 -0.05847,0.27479 -0.03508,0.36248 0.02339,0.0877 0.08185,0.15201 0.08185,0.15201 0,0 0.40341,0 0.678196,-0.19878 0.274787,-0.19878 0.742508,-0.69574 0.783434,-0.78343 0.04093,-0.0877 0.13447,-0.2514 0.13447,-0.2514 0,0 0.05262,-0.0526 0.08185,0.0351 0.02923,0.0877 0.06431,0.52618 0.111084,0.64311 0.04677,0.11693 0.40341,0.80098 0.572959,0.98222 0.169549,0.18124 0.432643,0.32156 0.432643,0.32156 l 0.10524,0.0643 -0.02339,-0.94129 c 0,0 -0.0064,2.14728 0.312531,3.00591 z"
           id="path219" />
        <path
           style="opacity:1;fill:#987048;fill-opacity:1;stroke:#000000;stroke-width:0.175;stroke-linecap:round;stroke-dasharray:none;paint-order:fill markers stroke"
           d="m 52.081575,109.31426 -0.14056,2.52181 c 0,0 -0.595313,-1.64538 -0.413411,-2.42259 l 0.587045,-0.21498 z"
           id="path220" />
      </g>
      <path
         style="fill:none;fill-opacity:1;stroke:#000000;stroke-width:0.168002;stroke-linecap:round;stroke-dasharray:none;paint-order:fill markers stroke"
         d="m 129.95976,33.586 c 0,0 0.67469,-0.14288 1.15095,-0.42863"
         id="path221" />
      <path
         style="fill:none;fill-opacity:1;stroke:#000000;stroke-width:0.168002;stroke-linecap:round;stroke-dasharray:none;paint-order:fill markers stroke"
         d="m 133.36499,32.90337 c 0,0 0.65089,0.43656 0.82552,0.46038 l 0.50007,0.0556"
         id="path222" />
      <ellipse
         style="fill:#000000;fill-opacity:1;stroke:#000000;stroke-width:0.168002;stroke-linecap:round;stroke-dasharray:none;paint-order:fill markers stroke"
         id="ellipse222"
         cx="130.64636"
         cy="34.943317"
         rx="0.23415972"
         ry="0.47625703" />
      <ellipse
         style="fill:#000000;fill-opacity:1;stroke:#000000;stroke-width:0.168002;stroke-linecap:round;stroke-dasharray:none;paint-order:fill markers stroke"
         id="ellipse223"
         cx="136.526"
         cy="23.290503"
         rx="0.25003493"
         ry="0.49213231"
         transform="rotate(4.9292311)" />
      <path
         style="fill:none;fill-opacity:1;stroke:#000000;stroke-width:0.168002;stroke-linecap:round;stroke-dasharray:none;paint-order:fill markers stroke"
         d="m 131.99973,34.54645 c 0,0 -0.0397,0.16669 -0.0714,0.22225 -0.0317,0.0556 -0.43658,0.99221 -0.46039,1.09539 -0.0238,0.10319 -0.0317,0.57945 0.30957,0.69852 0.34132,0.11906 0.88107,-0.0158 0.88107,-0.0158"
         id="path223" />
      <path
         style="fill:none;fill-opacity:1;stroke:#000000;stroke-width:0.168002;stroke-linecap:round;stroke-dasharray:none;paint-order:fill markers stroke"
         d="m 136.52092,35.90074 c 0.0112,-0.0225 0,-0.62863 0.51075,-0.89804"
         id="path224" />
      <path
         style="fill:#fde4c4;fill-opacity:1;stroke:#000000;stroke-width:0.168002;stroke-linecap:round;stroke-dasharray:none;paint-order:fill markers stroke"
         d="m 129.29169,36.43955 -0.20507,-0.19445 c -1.11127,-1.44465 -0.127,-2.12729 -0.127,-2.12729 l 0.27595,0.48077 z"
         id="path226" />
      <path
         style="fill:#fee5c4;fill-opacity:1;stroke:#000000;stroke-width:0.100028;stroke-linecap:round;stroke-dasharray:none;paint-order:fill markers stroke"
         d="m 135.11107,38.39932 -0.0284,1.23821 0.2552,0.46315 c 0,0 -1.95657,2.93958 -4.13053,0.39698 l -0.0851,-0.19849 0.4537,-0.31192 v 0.4348 -1.04918 c 0,0 1.1626,0.12288 1.51232,0.0189 0.34973,-0.10398 1.17206,-0.35918 1.47452,-0.60493 0.30246,-0.24575 0.54822,-0.38753 0.54822,-0.38753 z"
         id="path227" />
      <path
         style="fill:#fee5c4;fill-opacity:1;stroke:#000000;stroke-width:0.100028;stroke-linecap:round;stroke-dasharray:none;paint-order:fill markers stroke"
         d="m 137.67808,47.98416 0.0535,6.1489 c 0,0 -0.33366,0.58932 -0.37146,1.17534 l -0.0756,1.49815 c 0,0 0.18904,0.60493 0.59547,-0.17959 l 0.0898,-0.61438 c 0,0 -0.0992,1.22876 -0.1465,1.37527 0,0 -0.17487,1.29019 0.50095,0.47732 0,0 0.41589,-0.7467 0.39699,-1.48396 l -0.005,-0.19377 c 0,0 -0.0947,1.41781 -0.38769,1.69191 0,0 -0.18904,0.42534 0.20322,0.27411 0,0 0.86486,-0.4726 0.9263,-1.72026 l 0.0236,-0.30247 c 0,0 -0.085,1.38472 -0.63799,1.81951 0,0 -0.47172,0.59724 0.26554,0.12467 0.0253,0.004 0.86627,-0.69952 0.86398,-1.75983 0,0 0.0425,-1.59266 -0.14651,-1.98964 l -0.11342,-0.2174 c 0,0 0.48205,-4.64094 0.29301,-6.28559 l -0.0294,-0.13567 c 0,0 -1.54905,0.20656 -2.32884,0.13567 z"
         id="path228"
         sodipodi:nodetypes="ccccccccccccccccccccccc" />
      <path
         style="fill:url(#radialGradient231);stroke:none;stroke-width:0.105587;stroke-linecap:round;stroke-dasharray:none;paint-order:fill markers stroke"
         d="m 131.74837,36.21564 c 0,0 0.0701,-0.0298 0.11881,-0.0168 0.0488,0.0131 0.0801,0.0293 0.12195,0.0436 0.0418,0.0143 0.079,0.0223 0.1172,0.0158 0.0382,-0.007 0.0458,-0.005 0.0759,-0.0165 0.0301,-0.0122 0.041,-0.0321 0.0857,-0.0433 0.0446,-0.0111 0.011,-0.0197 0.0585,-0.0135 0.0476,0.006 -0.0115,0.0163 0.0615,0.004 0.073,-0.0125 0.0696,-0.0119 0.11237,-0.0335 0.0428,-0.0216 -0.0201,0.05 0.0492,-0.0262 0.0693,-0.0762 0.0333,-0.0772 0.0925,-0.0873 0.0591,-0.0101 0.0366,0.0259 0.0939,-0.016 0.0573,-0.042 0.0518,-0.0947 0.0518,-0.0947 0,0 -0.0233,-0.0318 -0.004,-0.0638 0.0196,-0.032 -0.0238,-0.0138 0.0311,-0.0483 0.055,-0.0344 0.0295,-0.0158 0.055,-0.0344 0.0255,-0.0186 0.0185,0.004 0.0532,-0.0449 0.0346,-0.0489 0.0318,-0.0233 0.0369,-0.0564 0.005,-0.033 0,0 0.005,-0.076 0.005,-0.076 0.007,-0.0441 0.005,-0.0974 -0.002,-0.0533 0.0601,-0.0461 -0.0126,-0.11594 -0.0728,-0.0699 -0.0878,-0.0348 -0.0984,-0.0942 -0.0276,-0.1551 -0.0808,-0.079 -0.15476,-0.13108 -0.0258,-0.0182 -0.11737,-0.0587 -0.15282,-0.0777 -0.0354,-0.019 -0.0395,-0.0219 -0.0552,-0.0299 -0.0157,-0.008 0.0336,-0.0129 -0.0481,-0.01 -0.0818,0.003 -0.0203,-0.0144 -0.0922,0.005 -0.0718,0.0194 -0.0614,0.0176 -0.11356,0.0265 -0.0522,0.009 0.0747,-0.0235 -0.0922,0.005 -0.16691,0.0285 -0.16114,0.0203 -0.18025,0.0342 -0.0191,0.014 -0.0475,0.0152 -0.0596,0.028 -0.0121,0.0128 0.006,-0.005 -0.041,0.0321 -0.0863,0.0596 -0.049,0.14942 -0.10116,0.24627 -0.0225,0.036 -0.022,0.0181 -0.0444,0.0756 -0.0223,0.0575 -0.0236,0.0505 -0.0211,0.0859 0.002,0.0353 0.0105,0.0197 0.007,0.0632 -0.003,0.0436 -0.001,0.0574 -0.024,0.09 -0.0231,0.0326 -0.0225,0.036 -0.0437,0.079 -0.0213,0.043 -0.0312,0.0268 -0.0218,0.0609 0.009,0.0342 0.0134,0.0371 0.0217,0.0643 0.008,0.0273 0.017,0.0365 0.0146,0.0655 -0.002,0.029 -0.0114,0.0592 -0.008,0.0766 0.003,0.0174 -4e-4,0.0394 0.0129,0.055 0.0134,0.0156 0.014,0.0191 0.0268,0.0312 0.0128,0.0121 0.0285,0.0202 0.0285,0.0202 z"
         id="path230"
         sodipodi:nodetypes="cccscccsscsscccsscssssssssssscscsscssscccscscc" />
      <path
         style="fill:none;fill-opacity:1;stroke:#000000;stroke-width:0.0571586;stroke-linecap:round;stroke-dasharray:none;stroke-opacity:1;paint-order:fill markers stroke"
         d="m 134.04812,35.69137 c 0.003,0.003 0.49966,-0.2083 0.52897,-0.47295"
         id="path231"
         sodipodi:nodetypes="cc" />
      <path
         style="opacity:1;fill:#fde4c4;fill-opacity:1;stroke:#000000;stroke-width:0.1;stroke-linecap:round;stroke-dasharray:none;stroke-opacity:1;paint-order:fill markers stroke"
         d="m 127.92365,47.91345 c 0,0 -1.82728,-2.71198 -2.08359,-2.86908 0,0 -0.11494,-0.0925 -0.2421,-0.0545 0.003,-0.009 -0.15785,-0.48671 -0.24555,-0.59195 -0.0877,-0.10524 -0.31279,-0.29233 -0.40634,-0.33179 0,0 -0.58611,-0.28356 -1.25261,-0.31279 -0.66651,-0.0292 -1.181,-0.37418 -1.181,-0.37418 0,0 -0.89452,-0.14031 -0.14616,0.7659 0,0 0.72497,0.36833 1.04652,0.4151 l 0.11694,-0.006 c 0,0 -1.20439,0.81266 -2.33277,1.21023 0,0 -0.35663,0.12001 -0.42095,0.26033 -0.0643,0.14031 0.009,0.26894 0.0731,0.3274 0.0643,0.0585 0.35956,0.0322 0.77174,-0.1257 0.41218,-0.15786 1.25408,-0.47064 1.25408,-0.47064 0,0 0.68697,0.98806 0.80975,1.06114 0,0 -0.66651,-0.8419 -0.78928,-1.05822 0,0 -1.66041,0.63727 -1.82412,0.60804 0,0 -0.68112,0.3771 0.0585,0.58465 l 0.23972,0.0438 c 0,0 0.21924,-0.20166 0.4531,-0.22212 0.23386,-0.0205 1.38855,-0.50572 1.38855,-0.50572 l -1.20731,0.47064 c 0,0 -0.47064,0.0731 -0.5788,0.23094 -0.10816,0.15785 -0.0263,0.3771 0.11985,0.42387 0.14616,0.0468 0.3391,0.0409 0.44141,0.006 0.10232,-0.0351 0.16078,-0.0965 0.16078,-0.0965 0,0 0.0994,-0.20767 0.47357,-0.22813 0,0 0.92375,-0.16955 1.0553,-0.23971 l -0.94421,0.22801 c 0,0 -0.54958,-0.0146 -0.60804,0.27187 0,0.0205 -0.13155,0.29817 0.44433,0.3274 0.57588,0.0292 1.12253,-0.14324 1.12253,-0.14324 0.0411,-0.0185 1.33924,-0.48148 1.79399,-0.79567 l -0.36793,0.2129 c 0,0 0.90537,2.57349 1.66604,3.11919 0.76068,0.54571 1.4056,0.17364 1.4056,0.17364 0,0 0.60358,-0.48783 0.74414,-0.75241 l 0.023,-2.24997 c 0,0 -1.37687,-0.5943 -1.86469,-0.53436 0,0 0.76687,1.10174 0.83302,1.22163 z"
         id="path232" />
      <path
         style="fill:#000000;fill-opacity:1;stroke:#000000;stroke-width:0.0752258;stroke-linecap:round;stroke-dasharray:none;stroke-opacity:1;paint-order:fill markers stroke"
         d="m 133.61225,37.5333 c 0.63866,0.16469 0.32254,0.54915 0.0885,0.6583 0,0 -0.29777,-0.005 -0.46084,-0.0382 -0.16307,-0.0327 -0.81416,0.004 -0.96423,0.0109 -0.61213,0.0266 0.62354,-0.81485 1.33652,-0.631 z"
         id="path194-7"
         sodipodi:nodetypes="sccss" />
    </g>
  </g>
</svg>
