<?xml version="1.0" encoding="UTF-8" standalone="no"?>
<!-- Created with Inkscape (http://www.inkscape.org/) -->

<svg
   version="1.1"
   id="svg1"
   width="1326.1954"
   height="1058.6865"
   viewBox="0 0 1326.1954 1058.6865"
   xml:space="preserve"
   xmlns:xlink="http://www.w3.org/1999/xlink"
   xmlns="http://www.w3.org/2000/svg"
   xmlns:svg="http://www.w3.org/2000/svg"><defs
     id="defs1"><linearGradient
       id="swatch129"><stop
         style="stop-color:#000000;stop-opacity:1;"
         offset="0"
         id="stop129" /></linearGradient><linearGradient
       id="swatch128"><stop
         style="stop-color:#000000;stop-opacity:1;"
         offset="0"
         id="stop128" /></linearGradient><linearGradient
       id="swatch36"><stop
         style="stop-color:#000000;stop-opacity:1;"
         offset="0"
         id="stop36" /></linearGradient><linearGradient
       id="swatch35"><stop
         style="stop-color:#000000;stop-opacity:1;"
         offset="0"
         id="stop35" /></linearGradient><linearGradient
       id="swatch34"><stop
         style="stop-color:#000000;stop-opacity:1;"
         offset="0"
         id="stop34" /></linearGradient><linearGradient
       id="swatch33"><stop
         style="stop-color:#000000;stop-opacity:1;"
         offset="0"
         id="stop33" /></linearGradient><linearGradient
       id="swatch32"><stop
         style="stop-color:#000000;stop-opacity:1;"
         offset="0"
         id="stop32" /></linearGradient><linearGradient
       id="swatch31"><stop
         style="stop-color:#000000;stop-opacity:1;"
         offset="0"
         id="stop31" /></linearGradient><linearGradient
       id="swatch30"><stop
         style="stop-color:#000000;stop-opacity:1;"
         offset="0"
         id="stop30" /></linearGradient><linearGradient
       id="swatch29"><stop
         style="stop-color:#000000;stop-opacity:1;"
         offset="0"
         id="stop29" /></linearGradient><linearGradient
       id="swatch26"><stop
         style="stop-color:#000000;stop-opacity:1;"
         offset="0"
         id="stop26" /></linearGradient><linearGradient
       id="swatch25"><stop
         style="stop-color:#000000;stop-opacity:1;"
         offset="0"
         id="stop25" /></linearGradient><linearGradient
       id="swatch24"><stop
         style="stop-color:#000000;stop-opacity:1;"
         offset="0"
         id="stop24" /></linearGradient><linearGradient
       id="swatch5"><stop
         style="stop-color:#000000;stop-opacity:1;"
         offset="0"
         id="stop5" /></linearGradient><linearGradient
       id="swatch4"><stop
         style="stop-color:#000000;stop-opacity:1;"
         offset="0"
         id="stop4" /></linearGradient><linearGradient
       id="swatch3"><stop
         style="stop-color:#000000;stop-opacity:1;"
         offset="0"
         id="stop3" /></linearGradient><linearGradient
       id="swatch2"><stop
         style="stop-color:#000000;stop-opacity:1;"
         offset="0"
         id="stop2" /></linearGradient><linearGradient
       id="swatch1"><stop
         style="stop-color:#000000;stop-opacity:1;"
         offset="0"
         id="stop1" /></linearGradient><linearGradient
       xlink:href="#swatch29"
       id="linearGradient115"
       gradientUnits="userSpaceOnUse"
       x1="747.33948"
       y1="729.70319"
       x2="940.67621"
       y2="729.70319" /><linearGradient
       xlink:href="#swatch30"
       id="linearGradient116"
       gradientUnits="userSpaceOnUse"
       x1="704.55225"
       y1="935.64813"
       x2="820.02502"
       y2="935.64813" /><linearGradient
       xlink:href="#swatch31"
       id="linearGradient117"
       gradientUnits="userSpaceOnUse"
       x1="857.04175"
       y1="946.28174"
       x2="938.88562"
       y2="946.28174" /><linearGradient
       xlink:href="#swatch1"
       id="linearGradient118"
       gradientUnits="userSpaceOnUse"
       x1="1405.8235"
       y1="214.54198"
       x2="1467.3431"
       y2="214.54198" /><linearGradient
       xlink:href="#swatch3"
       id="linearGradient119"
       gradientUnits="userSpaceOnUse"
       x1="1269.5708"
       y1="353.59344"
       x2="1564.3625"
       y2="353.59344" /><linearGradient
       xlink:href="#swatch36"
       id="linearGradient120"
       gradientUnits="userSpaceOnUse"
       x1="1398.6261"
       y1="263.71335"
       x2="1410.5692"
       y2="263.71335" /><linearGradient
       xlink:href="#swatch2"
       id="linearGradient121"
       gradientUnits="userSpaceOnUse"
       x1="1353.121"
       y1="218.76892"
       x2="1397.6204"
       y2="218.76892" /><linearGradient
       xlink:href="#swatch32"
       id="linearGradient122"
       gradientUnits="userSpaceOnUse"
       x1="1368.476"
       y1="208.03633"
       x2="1454.5698"
       y2="208.03633" /><linearGradient
       xlink:href="#swatch26"
       id="linearGradient123"
       gradientUnits="userSpaceOnUse"
       x1="2016.851"
       y1="554.94019"
       x2="2052.8696"
       y2="554.94019" /><linearGradient
       xlink:href="#swatch33"
       id="linearGradient125"
       gradientUnits="userSpaceOnUse"
       x1="1344.9359"
       y1="117.66685"
       x2="1482.5092"
       y2="117.66685" /><linearGradient
       xlink:href="#swatch34"
       id="linearGradient126"
       gradientUnits="userSpaceOnUse"
       x1="1334.9167"
       y1="118.47654"
       x2="1345.9991"
       y2="118.47654" /><linearGradient
       xlink:href="#swatch35"
       id="linearGradient127"
       gradientUnits="userSpaceOnUse"
       x1="1338.8182"
       y1="62.604023"
       x2="1477.6243"
       y2="62.604023" /><linearGradient
       xlink:href="#swatch128"
       id="linearGradient128"
       x1="630.85712"
       y1="398.90512"
       x2="750.22321"
       y2="398.90512"
       gradientUnits="userSpaceOnUse" /><linearGradient
       xlink:href="#swatch129"
       id="linearGradient129"
       x1="575.46136"
       y1="339.34784"
       x2="675.6925"
       y2="339.34784"
       gradientUnits="userSpaceOnUse" /></defs><g
     id="g1"
     transform="translate(-1165.0511,-13.927155)"><g
       id="g51"><g
         id="g49"><g
           id="g48"><rect
             style="opacity:0.633894;fill:#070808;fill-opacity:1;stroke-width:1.48913"
             id="rect36"
             width="1.0009766"
             height="3.0761719"
             x="1359.79"
             y="160.47363"
             ry="0.50048828"
             rx="0.50048828" /></g></g></g><g
       id="g80"
       transform="translate(319.34173,98.706668)"><path
         style="opacity:1;fill:#91714e;fill-opacity:1;stroke:url(#linearGradient115);stroke-width:1.48913"
         d="m 748.21437,600.22286 c 1.34698,61.2778 4.43952,184.07469 6.48257,245.74912 2.04305,61.67443 3.03657,62.22638 7.94912,63.44072 4.91255,1.21433 13.74376,3.09097 24.50715,2.70457 10.76339,-0.3864 23.45826,-3.03577 29.80583,-3.97409 6.34756,-0.93833 6.34756,-0.1656 6.67874,-7.72764 0.33119,-7.56204 0.99353,-23.45823 2.09747,-56.46606 1.10393,-33.00783 2.6494,-83.12499 4.08451,-114.80774 1.43512,-31.68275 2.7598,-44.92958 3.86373,-60.3295 1.10394,-15.39991 1.98706,-32.95195 2.046,-44.66857 0.0589,-11.71662 -0.7063,-17.59723 -1.98662,-20.86935 -1.28033,-3.27213 -3.07566,-3.93562 -7.40801,-5.26264 -4.33236,-1.32703 -11.20143,-3.3175 -16.02161,-5.05433 -4.82019,-1.73683 -7.59124,-3.21993 -7.20091,-2.98573 0.39033,0.2342 3.94196,2.18564 8.6646,3.90296 4.72264,1.71732 10.616,3.20041 14.57752,4.33228 3.96153,1.13186 5.99103,1.91244 7.43513,5.28856 1.44411,3.37612 2.30274,9.34753 2.84916,15.47524 0.54641,6.12772 0.78058,12.41136 1.6978,18.53907 0.91721,6.12771 2.51739,12.09912 3.76635,20.29544 1.24896,8.19632 2.14662,18.61702 6.14723,61.41374 4.0006,42.79672 11.10385,117.96625 15.38442,155.83393 4.28057,37.86768 5.73826,38.432 9.61337,40.0113 3.87511,1.5793 10.16735,4.17347 17.59132,5.49818 7.42398,1.3247 15.97922,1.3799 23.43077,0.68993 7.45155,-0.68997 13.79899,-2.12504 17.93872,-3.44976 4.13974,-1.32472 6.07156,-2.53901 7.17549,-6.89959 1.10393,-4.36057 1.3799,-11.86711 1.2695,-69.43782 -0.11039,-57.57072 -0.60715,-165.20117 -1.1341,-224.4064 -0.52696,-59.20524 -1.08408,-69.98242 -1.67905,-75.16299 -0.59498,-5.18057 -1.22774,-4.76385 -7.95922,-2.90754 -6.73148,1.8563 -19.56114,5.15202 -31.88221,7.1863 -12.32107,2.03427 -24.13282,2.807 -35.55855,3.41417 -11.42572,0.60716 -22.46474,1.04872 -34.12844,0.54028 -11.66371,-0.50844 -23.95115,-1.96681 -35.07666,-3.50414 -11.12551,-1.53734 -21.08776,-3.15346 -27.81921,-4.22227 -6.73145,-1.06882 -10.23131,-1.5902 -12.6514,-1.99477 -2.42009,-0.40458 -3.76014,-0.69231 -4.62952,-0.95684 -0.86938,-0.26453 -1.26796,-0.50582 0.079,60.77198 z"
         id="path51"
         transform="translate(567.19152,-27.989284)" /><path
         style="opacity:1;fill:#423526;fill-opacity:1;stroke:url(#linearGradient116);stroke-width:1.48913"
         d="m 762.64606,909.4127 c -1.69377,1.60563 -3.38754,3.21127 -6.63479,5.38016 -3.24726,2.16888 -8.0478,4.9009 -15.28789,8.55021 -7.24009,3.64931 -16.91924,8.21569 -22.46146,10.94777 -5.54222,2.73208 -6.94726,3.62975 -8.70361,5.34707 -1.75635,1.71733 -3.86391,4.25421 -4.6445,6.94728 -0.78059,2.69307 -0.23418,5.54217 1.0343,7.84493 1.26848,2.30277 3.25895,4.05907 6.71312,5.42511 3.45417,1.36605 8.37181,2.34177 14.16777,2.84916 5.79596,0.50738 12.46989,0.54641 20.393,-0.31226 7.9231,-0.85867 17.09487,-2.61497 23.4177,-4.25423 6.32284,-1.63925 9.7964,-3.16138 12.74316,-4.02003 2.94676,-0.85865 5.36655,-1.05379 8.84023,-1.01476 3.47368,0.039 8.00103,0.31223 12.37239,-0.33177 4.37135,-0.64401 8.58647,-2.20516 11.14292,-3.70781 2.55644,-1.50266 3.45411,-2.94673 3.92247,-6.12769 0.46835,-3.18096 0.50738,-8.09859 -0.0145,-14.18692 -0.52187,-6.08833 -1.60457,-13.34681 -2.14596,-16.97627 -0.54138,-3.62947 -0.54138,-3.62947 -1.28985,-3.50709 -0.74848,0.12238 -2.24537,0.36713 -4.98848,0.81275 -2.74311,0.44562 -6.73227,1.09208 -10.34958,1.59799 -3.61732,0.5059 -6.86259,0.87123 -10.0839,1.08675 -3.22131,0.21551 -6.41846,0.28121 -9.55415,0.1721 -3.13568,-0.10911 -6.2097,-0.39301 -9.29754,-0.84255 -3.08784,-0.44955 -6.18932,-1.06472 -7.74009,-1.37231 -1.55077,-0.30759 -1.55077,-0.30759 -1.55077,-0.30759"
         id="path52"
         transform="translate(567.19152,-27.989284)" /><path
         style="opacity:1;fill:#423526;fill-opacity:1;stroke:url(#linearGradient117);stroke-width:1.48913"
         d="m 879.55308,918.31169 c 0.0505,0.82283 0.15145,2.46849 -0.40304,4.54029 -0.55449,2.07179 -1.76438,4.56964 -3.89153,7.69204 -2.12714,3.12241 -5.17139,6.86918 -8.00107,10.49897 -2.82967,3.62979 -5.4446,7.14238 -7.18142,10.08914 -1.73683,2.94676 -2.59546,5.32752 -2.9077,8.11817 -0.31224,2.79065 -0.0781,5.99101 1.05382,8.44989 1.13188,2.45889 3.16138,4.17616 7.00585,5.34705 3.84447,1.1709 9.50365,1.79536 15.53379,2.02953 6.03014,0.23418 12.43087,0.0781 17.64137,-0.70254 5.21049,-0.78061 9.23046,-2.18564 13.56279,-4.3323 4.33233,-2.14666 8.97676,-5.03479 11.45515,-6.81065 2.47838,-1.77585 2.79061,-2.43934 3.62976,-2.79061 0.83915,-0.35127 2.20516,-0.3903 3.80539,-1.24897 1.60024,-0.85867 3.43459,-2.5369 4.74209,-4.02004 1.3075,-1.48314 2.08808,-2.77109 2.59546,-4.58599 0.50739,-1.8149 0.74156,-4.15663 0.68301,-6.75213 -0.0585,-2.5955 -0.4098,-5.4446 -1.13186,-8.78167 -0.72206,-3.33707 -1.81486,-7.1619 -2.34176,-9.7769 -0.5269,-2.61499 -0.48788,-4.02003 -0.52308,-5.21196 -0.0352,-1.19194 -0.14464,-2.1707 -0.60224,-2.51193 -0.45761,-0.34122 -1.26336,-0.0449 -2.71909,0.38114 -1.45573,0.42605 -3.56135,0.9818 -6.55117,1.55677 -2.98983,0.57496 -6.86367,1.16911 -10.26635,1.50152 -3.40268,0.33241 -6.33393,0.40308 -9.16568,0.42553 -2.83175,0.0225 -5.56371,-0.003 -10.04982,-0.7226 -4.48611,-0.71929 -10.72608,-2.13203 -13.68895,-2.78171 -2.96287,-0.64968 -2.64854,-0.53627 -2.49137,-0.47956 0.15717,0.0567 0.15717,0.0567 0.20765,0.87952 z"
         id="path53"
         transform="translate(566.72373,-27.76467)" /><path
         style="opacity:1;fill:#899fa2;fill-opacity:1;stroke:url(#linearGradient118);stroke-width:1.48913"
         d="m 1454.8684,183.53849 c 0.6455,-0.46757 1.5997,-0.0901 2.7908,1.15157 1.1911,1.24172 2.6189,3.34759 4.0991,5.60544 1.4802,2.25784 3.0127,4.6675 4.0912,7.40104 1.0785,2.73353 1.7029,5.79081 1.4297,9.89549 -0.2732,4.10468 -1.4441,9.25649 -3.3371,14.70118 -1.8929,5.44468 -4.5078,11.18195 -6.7521,15.31911 -2.2442,4.13716 -4.1176,6.67403 -5.8154,7.64976 -1.6978,0.97572 -3.2199,0.3903 -5.3471,-1.17091 -2.1271,-1.56121 -4.8591,-4.09808 -7.6107,-6.20569 -2.7516,-2.10761 -5.5227,-3.78587 -7.3181,-4.66404 -1.7953,-0.87816 -2.6149,-0.95622 -4.1176,-0.19512 -1.5027,0.76109 -3.6883,2.36128 -5.7178,3.94199 -2.0296,1.58072 -3.903,3.14187 -6.6929,4.10286 -2.7899,0.96099 -6.4961,1.32177 -7.9915,1.13428 -1.4953,-0.1875 -0.7797,-0.92327 2.2262,-3.76081 3.006,-2.83753 8.3022,-7.77668 13.8731,-12.94223 5.5709,-5.16555 11.4162,-10.5572 15.565,-14.43756 4.1487,-3.88037 6.6007,-6.24925 8.1113,-7.86101 1.5106,-1.61176 2.0797,-2.46629 2.611,-3.29544 0.5313,-0.82915 1.0248,-1.63288 1.5339,-2.87089 0.509,-1.23801 1.0336,-2.91022 1.5446,-4.717 0.511,-1.80678 1.0083,-3.74797 1.4253,-5.37492 0.417,-1.62694 0.7537,-2.93953 1.3991,-3.4071 z"
         id="path54" /><g
         id="g56"><path
           style="opacity:1;fill:#899fa2;fill-opacity:1;stroke:url(#linearGradient119);stroke-width:1.48913"
           d="m 1368.1635,192.88435 c -2.5174,0.97574 -6.8106,8.19611 -15.2802,14.71413 -8.4695,6.51803 -21.115,12.33341 -29.038,16.80232 -7.923,4.4689 -11.1234,7.59123 -14.7444,13.43025 -3.6211,5.83901 -7.6626,14.3942 -14.2156,30.39692 -6.5529,16.00272 -15.6166,39.45106 -25.5041,59.99446 -9.8875,20.54339 -20.5976,38.17938 -25.1966,48.95874 -4.5991,10.77937 -3.0866,14.70081 0.521,14.181 3.6075,-0.5198 9.3095,-5.48083 13.65,-5.74094 4.3404,-0.26011 7.3189,4.18091 8.8081,6.40148 1.4893,2.22056 1.4893,2.22056 2.0146,5.71793 0.5253,3.49737 1.5759,10.49141 3.9875,13.09011 2.4117,2.5987 6.1841,0.80142 12.7826,-7.00965 6.5985,-7.81106 16.0224,-21.6352 20.8906,-43.84733 4.8681,-22.21213 5.1804,-52.81073 5.2194,-69.94476 0.039,-17.13404 -0.1951,-20.80275 -0.3513,-4.95637 -0.1561,15.84637 -0.2341,51.20649 -0.5073,87.07506 -0.2732,35.86858 -0.7416,72.24345 -0.1556,95.58337 0.5861,23.33992 2.2264,33.64375 3.0465,38.79576 0.8202,5.15202 0.8202,5.15202 7.4548,6.24476 6.6346,1.09274 19.9033,3.27814 32.4314,5.19051 12.5281,1.91236 24.3148,3.55157 35.5164,4.33216 11.2016,0.78059 21.8174,0.70253 34.4631,0.078 12.6458,-0.62448 27.3207,-1.79535 41.3324,-3.86395 14.0118,-2.0686 27.3596,-5.03478 34.385,-7.49366 7.0253,-2.45888 7.7279,-4.41032 8.1572,-11.43578 0.4293,-7.02546 0.5854,-19.1244 -0.1562,-52.76847 -0.7416,-33.64408 -2.3808,-88.83085 -2.3808,-89.10351 10e-5,-0.27266 1.6393,54.3677 2.3028,90.47027 0.6635,36.10257 0.3512,53.66554 0.5074,62.5643 0.1561,8.89875 0.7806,9.13294 4.3323,10.14772 3.5518,1.01479 10.0306,2.81011 17.9537,3.39554 7.9231,0.58543 17.29,-0.039 22.4809,-1.05381 5.191,-1.01479 6.2057,-2.41981 7.3766,-10.14782 1.1709,-7.72801 2.4979,-21.77839 3.2785,-37.19525 0.7806,-15.41686 1.0148,-32.19926 0.7026,-49.45053 -0.3123,-17.25126 -1.1709,-34.97035 -2.9663,-57.92004 -1.7954,-22.9497 -4.5274,-51.12851 -7.2986,-70.25312 -2.7711,-19.12461 -5.5812,-29.19406 -8.6645,-37.74161 -3.0834,-8.54755 -6.4399,-15.57275 -11.1625,-21.89561 -4.7227,-6.32286 -10.8112,-11.943 -17.6414,-16.31435 -6.8303,-4.37134 -14.4019,-7.49365 -22.364,-11.00635 -7.9621,-3.5127 -16.3143,-7.41559 -20.8417,-9.4061 -4.5275,-1.99051 -5.23,-2.06856 -6.9863,-4.52748 -1.7564,-2.45891 -4.5665,-7.2985 -6.7131,-10.577 -2.1467,-3.27851 -3.6298,-4.99578 -4.7616,-3.66872 -1.1319,1.32706 -1.9125,5.69829 -2.7712,9.32807 -0.8586,3.62977 -1.7953,6.51792 -4.7616,9.9916 -2.9663,3.47367 -7.962,7.53267 -13.8555,12.91883 -5.8936,5.38616 -12.6846,12.09912 -18.3439,17.32913 -5.6594,5.23 -10.1867,8.97673 -13.5823,13.11392 -3.3956,4.13718 -5.6593,8.66454 -6.8692,13.85554 -1.2099,5.191 -1.3661,11.04532 -1.5612,16.43145 -0.1952,5.38614 -0.4293,10.30378 -0.039,12.68458 0.3903,2.3808 1.405,2.2247 3.981,1.99051 2.576,-0.23418 6.7131,-0.54642 6.1276,-0.50738 -0.5855,0.039 -5.8934,0.42932 -8.5475,0.11707 -2.654,-0.31224 -2.654,-1.32699 -2.4588,-4.76166 0.1951,-3.43467 0.5854,-9.28898 0.9367,-14.20676 0.3512,-4.91777 0.6635,-8.89871 1.6002,-12.68463 0.9367,-3.78592 2.4979,-7.37654 3.6298,-9.67929 1.1318,-2.30275 1.8344,-3.31754 0.7415,-5.38611 -1.0928,-2.06858 -3.981,-5.19092 -6.9863,-8.70361 -3.0053,-3.5127 -6.1276,-7.41558 -9.0158,-11.24052 -2.8882,-3.82493 -5.5422,-7.57172 -7.3181,-11.10394 -1.7758,-3.53221 -2.6735,-6.84959 -3.4931,-11.14295 -0.8197,-4.29336 -1.5612,-9.56221 -4.0786,-8.58647 z"
           id="path55" /><ellipse
           style="opacity:1;fill:#899fa2;fill-opacity:1;stroke:url(#linearGradient120);stroke-width:1.48913"
           id="ellipse55"
           cx="1404.5977"
           cy="263.71335"
           rx="5.9715304"
           ry="6.0593472" /><path
           style="opacity:1;fill:#899fa2;fill-opacity:1;stroke:url(#linearGradient121);stroke-width:1.48913"
           d="m 1367.6204,193.33739 c -0.8687,0.84795 -2.6062,2.54385 -4.186,4.15713 -1.5799,1.61327 -3.002,3.14385 -4.3615,4.51176 -1.3595,1.36791 -2.6563,2.57307 -3.3132,3.84878 -0.6569,1.27571 -0.6739,2.6219 -1.0922,5.75393 -0.4184,3.13204 -1.238,8.04967 -1.4721,12.22587 -0.2342,4.1762 0.117,7.61073 0.6049,10.90877 0.4879,3.29803 1.1123,6.45936 1.932,8.31328 0.8196,1.85392 1.8344,2.40034 4.1371,1.42456 2.3028,-0.97578 5.8935,-3.47364 9.0744,-5.8935 3.181,-2.41986 5.952,-4.76157 8.0986,-5.71779 2.1467,-0.95622 3.6688,-0.52692 5.3861,0.48788 1.7174,1.0148 3.6298,2.61498 6.4001,4.39792 2.7703,1.78293 6.3983,3.74849 7.909,4.29899 1.5108,0.5505 0.9043,-0.31404 -0.4801,-2.03234 -1.3844,-1.71829 -3.5465,-4.29016 -6.7148,-8.36327 -3.1682,-4.07311 -7.3424,-9.64719 -10.0245,-13.55177 -2.6821,-3.90459 -3.8721,-6.13954 -4.7853,-8.40934 -0.9132,-2.2698 -1.5496,-4.57433 -2.0009,-6.35529 -0.4512,-1.78097 -0.7173,-3.03829 -1.1353,-4.56044 -0.418,-1.52215 -0.9879,-3.30904 -1.5312,-4.40203 -0.5433,-1.09299 -1.0599,-1.49199 -1.3183,-1.69152 -0.2583,-0.19953 -0.258,-0.19953 -1.1268,0.64842 z"
           id="path56" /></g><path
         style="opacity:1;fill:#edc49b;fill-opacity:1;stroke:url(#linearGradient122);stroke-width:1.48913"
         d="m 1368.7937,190.87804 c -0.1261,0.40127 -0.3781,1.20378 -0.3045,1.6114 0.074,0.40761 0.4728,0.42031 0.7815,0.52596 0.3087,0.10564 0.5267,0.30418 0.7685,0.67116 0.2419,0.36698 0.5074,0.90231 0.805,1.8366 0.2976,0.9343 0.6271,2.26745 0.9047,3.52416 0.2775,1.25671 0.5031,2.43686 0.7983,3.77203 0.2951,1.33518 0.66,2.82528 1.1463,4.36751 0.4863,1.54223 1.094,3.13647 1.801,4.65859 0.7071,1.52211 1.5135,2.97204 2.5319,4.59257 1.0184,1.62053 2.2487,3.41155 3.4825,5.12388 1.2338,1.71232 2.4709,3.3458 4.5058,5.88298 2.0348,2.53719 4.8672,5.97788 6.8912,8.41823 2.0241,2.44034 3.2396,3.88016 4.1297,5.01321 0.8902,1.13305 1.455,1.9593 1.8196,2.59373 0.3646,0.63442 0.5291,1.07696 0.6146,1.46672 0.086,0.38976 0.092,0.72657 0.3278,0.97797 0.2355,0.25139 0.6998,0.41725 1.4798,-0.12036 0.7801,-0.53761 1.8757,-1.77866 3.0906,-3.04064 1.215,-1.26199 2.5492,-2.54484 5.8363,-5.62584 3.2872,-3.081 8.527,-7.9599 12.1993,-11.39919 3.6723,-3.43928 5.7768,-5.43872 9.5068,-8.90323 3.73,-3.4645 9.0852,-8.39383 12.2283,-11.44667 3.143,-3.05284 4.0738,-4.22909 4.8646,-5.49581 0.7907,-1.26672 1.4415,-2.62391 2.2248,-5.0879 0.7834,-2.46399 1.6993,-6.03466 2.3216,-8.16383 0.6222,-2.12917 0.9506,-2.81669 1.0099,-3.9378 0.059,-1.1211 -0.1505,-2.67569 -0.3829,-4.99051 -0.2323,-2.31482 -0.4871,-5.38973 -0.6805,-6.78578 -0.1934,-1.39605 -0.3253,-1.11319 -0.6702,-0.42634 -0.3448,0.68685 -0.9025,1.77769 -1.7231,3.19198 -0.8207,1.41429 -1.9042,3.15191 -2.9606,4.66612 -1.0565,1.51421 -2.0858,2.8049 -2.9432,3.80079 -0.8575,0.9959 -1.5431,1.69696 -2.6179,2.63762 -1.0748,0.94066 -2.5387,2.12084 -4.2897,3.30214 -1.7509,1.1813 -3.7887,2.36361 -5.7789,3.37673 -1.9901,1.01312 -3.9324,1.85697 -5.9501,2.63813 -2.0176,0.78116 -4.1104,1.49956 -6.1597,2.12675 -2.0492,0.62719 -4.0548,1.16313 -6.3035,1.65842 -2.2487,0.49529 -4.7404,0.94991 -6.6547,1.24576 -1.9143,0.29585 -3.2511,0.4329 -4.7112,0.53553 -1.4601,0.10262 -3.0434,0.17081 -4.9511,0.16748 -1.9077,-0.003 -4.1395,-0.0782 -6.2493,-0.24364 -2.1097,-0.16546 -4.0973,-0.42152 -5.9262,-0.78459 -1.8288,-0.36306 -3.499,-0.83315 -4.7623,-1.26942 -1.2632,-0.43626 -2.1195,-0.83872 -3.0138,-1.3099 -0.8943,-0.47118 -1.8266,-1.01108 -2.8226,-1.62202 -0.9959,-0.61093 -2.0555,-1.29288 -2.9187,-1.87049 -0.8632,-0.57761 -1.53,-1.05087 -2.0932,-1.46331 -0.5631,-0.41244 -1.0228,-0.76414 -1.1849,-0.88701 -0.1622,-0.12288 -0.027,-0.017 0.041,0.036 0.068,0.053 0.068,0.0529 -0.058,0.45417 z"
         id="path57" /><path
         style="opacity:1;fill:#edc49b;fill-opacity:1;stroke:url(#linearGradient123);stroke-width:1.48913"
         d="m 2026.6588,518.85618 c -1.1853,0.3935 -1.5108,1.86128 -2.2275,4.00333 -0.7168,2.14204 -1.8245,4.95811 -2.8041,8.25932 -0.9795,3.30121 -1.8307,7.08725 -2.4842,10.7707 -0.6534,3.68345 -1.1092,7.26411 -1.4998,11.26807 -0.3906,4.00395 -0.7161,8.43094 -0.7812,11.94659 -0.065,3.51566 0.1302,6.11977 1.3021,7.55207 1.1719,1.43229 3.3203,1.69271 5.1107,0.97655 1.7903,-0.71616 3.2226,-2.40885 4.3945,-5.27348 1.1719,-2.86462 2.0833,-6.90098 2.832,-10.44919 0.7487,-3.54821 1.3347,-6.60804 1.4323,-7.06376 0.098,-0.45572 -0.293,1.6927 -0.6511,3.80859 -0.358,2.1159 -0.6836,4.19919 -1.3997,6.96614 -0.7162,2.76695 -1.8229,6.21742 -3.1576,9.50521 -1.3346,3.2878 -2.8971,6.41275 -4.1015,9.04948 -1.2044,2.63673 -2.0508,4.78515 -1.9531,6.34766 0.098,1.56251 1.1393,2.53903 2.0833,3.12497 0.944,0.58594 1.7904,0.78127 3.3529,-0.58595 1.5625,-1.36722 3.8411,-4.29684 5.3385,-6.90103 1.4974,-2.60419 2.2136,-4.88281 3.0925,-7.68232 0.8789,-2.79951 1.9205,-6.11974 2.7343,-8.95181 0.8138,-2.83206 1.3998,-5.17576 1.3347,-4.91531 -0.065,0.26044 -0.7813,3.12498 -1.9532,6.96618 -1.1718,3.8412 -2.7994,8.65879 -3.7762,11.40743 -0.9768,2.74865 -1.3028,3.42821 -1.726,4.11182 -0.4232,0.68362 -0.9436,1.37122 -1.5832,2.27598 -0.6396,0.90475 -2.1268,3.10315 -2.257,3.10315 -0.1302,0 -0.293,0 -0.4557,0.30925 -0.1628,0.30926 -0.3255,0.92771 -0.016,1.41601 0.3093,0.4883 1.0905,0.84636 2.181,0.6022 1.0905,-0.24415 2.4902,-1.09047 3.8086,-2.24609 1.3184,-1.15563 2.5553,-2.62042 3.6458,-3.90624 1.0905,-1.28582 2.0345,-2.39258 2.9134,-4.13415 0.8789,-1.74158 1.6927,-4.11781 2.5716,-6.64063 0.879,-2.52282 1.823,-5.19203 2.5066,-7.73111 0.6836,-2.53908 1.1067,-4.94788 1.123,-5.09436 0.016,-0.14647 -0.3744,1.96938 -0.9766,4.37826 -0.6022,2.40889 -1.416,5.11066 -2.2298,7.53581 -0.8138,2.42514 -1.6276,4.57355 -2.181,5.95702 -0.5534,1.38348 -0.8463,2.00193 -1.4974,2.88085 -0.651,0.87892 -1.6601,2.01823 -2.7994,3.32034 -1.1394,1.3021 -2.4089,2.76692 -3.0111,3.45051 -0.6022,0.68359 -0.5371,0.58592 -0.3743,0.86262 0.1627,0.2767 0.4231,0.92773 1.2858,0.78123 0.8626,-0.14649 2.3274,-1.09046 3.7272,-2.21352 1.3997,-1.12305 2.7343,-2.4251 4.3294,-4.49221 1.5951,-2.0671 3.4505,-4.89906 5.2083,-8.54495 1.7579,-3.64589 3.418,-8.10544 4.3294,-11.88151 0.9115,-3.77606 1.0742,-6.86845 1.2207,-12.27218 0.1465,-5.40372 0.2768,-13.1184 0.2442,-18.13145 -0.032,-5.01305 -0.2279,-7.32419 -0.4883,-8.47979 -0.2604,-1.1556 -0.5859,-1.1556 -1.6764,-1.22071 -1.0906,-0.0651 -2.946,-0.19531 -5.2735,-0.47201 -2.3275,-0.27669 -5.1269,-0.69986 -7.4544,-1.17187 -2.3275,-0.47201 -4.1829,-0.99283 -6.1331,-1.59365 -1.9502,-0.60082 -3.9949,-1.28156 -5.1801,-0.88806 z"
         id="path58"
         transform="rotate(-7.3707199,1807.0568,4463.0203)" /><g
         id="g79"><path
           style="opacity:1;fill:#edc49b;fill-opacity:1;stroke:url(#linearGradient125);stroke-width:1.48913"
           d="m 1366.9211,38.57701 c -2.2507,0.920956 -5.4121,2.59923 -8.593,6.033888 -3.181,3.434658 -6.3814,8.625507 -8.6451,16.47056 -2.2637,7.845054 -3.5907,18.343801 -4.2542,30.950511 -0.6635,12.606711 -0.6635,27.320581 0.039,39.088091 0.7026,11.76751 2.1076,20.58805 4.6055,28.999 2.4979,8.41096 6.0886,16.41188 10.6941,22.32491 4.6056,5.91302 10.2257,9.73782 14.3044,12.23574 4.0786,2.49792 6.6155,3.66879 11.7284,4.46889 5.113,0.80011 12.8017,1.22943 21.2517,-0.0195 8.45,-1.24898 17.6608,-4.17614 24.413,-7.49369 6.7521,-3.31755 11.0453,-7.02531 14.5775,-11.61135 3.5322,-4.58604 6.3032,-10.05005 8.2742,-15.3191 1.971,-5.26904 3.1419,-10.3428 3.7273,-14.0116 0.5855,-3.66881 0.5855,-5.93248 0.7416,-7.10337 0.1561,-1.17088 0.4684,-1.24896 1.1904,-0.97574 0.7221,0.27322 1.8539,0.89766 3.4542,1.19039 1.6002,0.29273 3.6687,0.2537 6.2919,-1.456 2.6231,-1.70971 9.0087,-8.50247 9.3202,-9.61218 0.3115,-1.10971 0.9367,-3.33701 1.5115,-6.38259 0.5748,-3.04557 1.0991,-6.90924 0.9197,-10.42802 -0.1793,-3.51878 -1.0625,-6.69249 -2.3458,-9.30054 -1.2833,-2.60805 -2.9668,-4.6503 -4.8296,-5.9336 -1.8629,-1.283303 -3.9052,-1.807674 -5.5887,-1.655851 -1.6835,0.151822 -3.0081,0.979711 -4.4432,2.552841 -1.4351,1.57313 -2.9806,3.8913 -3.9879,5.90598 -1.0074,2.01469 -1.4765,3.72574 -1.8629,3.8775 -0.3864,0.15177 -0.69,-1.2557 -1.0626,-3.71196 -0.3726,-2.45626 -0.8141,-5.96116 -1.2005,-9.162569 -0.3864,-3.201413 -0.7175,-6.099149 -1.9319,-15.261877 -1.2144,-9.162727 -3.3118,-24.589455 -4.3606,-32.303275 -1.0488,-7.71382 -1.0488,-7.71382 -1.0488,-7.71382 0,0 0,0 0,0 0,0 0,0 -1.0349,-0.593376 -1.035,-0.593377 -3.1048,-1.780075 -5.7404,-3.022002 -2.6357,-1.241926 -5.837,-2.538999 -8.307,-3.325548 -2.4701,-0.786548 -4.2087,-1.062519 -6.4718,-0.703734 -2.2631,0.358784 -5.0504,1.352271 -8.3623,2.566611 -3.3118,1.21434 -7.1478,2.649394 -10.3492,3.601539 -3.2014,0.952146 -5.768,1.421313 -8.0035,1.476506 -2.2354,0.05519 -4.1397,-0.303588 -5.1608,-0.88315 -1.0211,-0.579562 -1.1591,-1.379891 -1.311,-1.89716 -0.152,-0.51727 -0.3178,-0.7514 -0.4849,-0.795128 -0.1671,-0.04373 -0.3354,0.103013 -0.5037,0.24976 -0.3513,0.468355 -0.7025,0.936703 -1.0521,1.14742 -0.3495,0.210717 -0.6972,0.163802 -0.8711,0.140337 -0.1739,-0.02346 -0.1739,-0.02346 -0.7199,-0.01107 -0.5459,0.01239 -1.6377,0.03716 -3.1358,0.242743 -1.4981,0.205578 -3.4023,0.591939 -5.3756,0.75753 -1.9733,0.165592 -4.0155,0.110397 -5.6714,-0.193183 -1.6559,-0.303581 -2.9254,-0.855541 -3.6593,-1.301705 -0.7338,-0.446163 -0.932,-0.786518 -1.1051,-1.153639 -0.1732,-0.367121 -0.3213,-0.760996 -0.4237,-1.130923 -0.1024,-0.369927 -0.1591,-0.71577 -0.8574,-0.806903 -0.6984,-0.09113 -2.0383,0.07251 -4.2889,0.993461 z"
           id="path60" /><ellipse
           style="opacity:1;fill:#001313;fill-opacity:1;stroke-width:1.48913"
           id="ellipse60"
           cx="1422.5033"
           cy="102.85684"
           rx="4.4087968"
           ry="7.679172" /><path
           style="opacity:1;fill:#edc49b;fill-opacity:1;stroke:url(#linearGradient126);stroke-width:1.48913"
           d="m 1344.4787,98.013258 c -0.6919,0.05272 -2.0756,0.158153 -3.2918,0.680033 -1.2162,0.52188 -2.2649,1.460189 -3.3137,3.778479 -1.0488,2.31829 -2.0975,6.01635 -2.5942,9.07977 -0.4968,3.06343 -0.4416,5.49201 -0.083,8.32085 0.3588,2.82884 1.0211,6.05774 2.2217,9.19016 1.2005,3.13242 2.9391,6.16818 4.4805,7.8722 1.5413,1.70402 2.8851,2.07625 3.534,2.02755 0.6488,-0.0487 0.6026,-0.51848 0.52,-1.47608 -0.083,-0.95761 -0.2014,-2.40311 -0.3242,-4.24375 -0.1227,-1.84064 -0.2493,-4.07631 -0.3575,-6.74058 -0.1083,-2.66426 -0.1981,-5.75696 -0.2496,-8.73885 -0.051,-2.98189 -0.064,-5.85281 -0.043,-8.83475 0.022,-2.98193 0.077,-6.07471 0.1151,-7.92116 0.038,-1.846452 0.057,-2.446533 0.067,-2.746562 0.01,-0.30003 0.011,-0.30003 -0.6812,-0.24731 z"
           id="path61" /><path
           style="opacity:1;fill:#644d30;fill-opacity:1;stroke:url(#linearGradient127);stroke-width:1.48913"
           d="m 1343.6873,94.635542 c -0.7914,-3.377715 -2.3741,-10.133125 -3.4387,-15.579451 -1.0646,-5.446326 -1.611,-9.583383 -1.3768,-14.30602 0.2342,-4.722637 1.2489,-10.03055 2.6931,-14.792213 1.4441,-4.761664 3.3175,-8.976741 5.6983,-12.021076 2.3808,-3.044336 5.2689,-4.917716 7.8449,-6.400864 2.576,-1.483148 4.8397,-2.57596 5.1909,-3.200427 0.3513,-0.624467 -1.2099,-0.780586 -3.1224,-0.702526 -1.9124,0.07806 -4.1761,0.390296 -3.5516,-0.585459 0.6245,-0.975754 4.1371,-3.239428 8.5475,-5.229957 4.4104,-1.990529 9.7183,-3.70779 16.9389,-4.917725 7.2206,-1.209935 16.3533,-1.912453 24.2373,-2.146628 7.8841,-0.234174 14.519,-1e-6 20.2564,1.209938 5.7374,1.20994 10.577,3.395553 15.4167,5.620251 4.8397,2.224699 9.6793,4.488382 12.4114,6.55698 2.7321,2.068597 3.3565,3.941965 4.8787,5.190926 1.5222,1.248962 3.942,1.873426 6.596,3.434642 2.6541,1.561216 5.5422,4.05904 7.884,7.337568 2.3418,3.278527 4.1371,7.337514 5.269,12.255307 1.1318,4.917794 1.6002,10.694067 1.5611,16.860809 -0.039,6.166742 -0.5854,12.723587 -1.9888,17.09139 -1.4034,4.367802 -3.6636,6.546292 -5.5343,8.061055 -1.8707,1.514763 -3.3517,2.365678 -4.7569,3.775498 -1.4052,1.40983 -2.7345,3.37846 -3.7096,5.00906 -0.9752,1.6306 -1.5961,2.92305 -2.0284,3.2793 -0.4322,0.35626 -0.6756,-0.22369 -1.0049,-1.97788 -0.3293,-1.7542 -0.7444,-4.68249 -1.4558,-10.085637 -0.7114,-5.403148 -1.719,-13.280767 -2.8863,-22.120062 -1.1674,-8.839295 -2.4945,-18.639727 -3.3104,-24.574701 -0.8159,-5.934974 -1.1206,-8.004217 -1.2247,-8.769723 -0.1041,-0.765506 -0.01,-0.227412 -0.4236,-0.221517 -0.4161,0.0059 -1.3448,-0.520482 -2.7229,-1.23684 -1.3781,-0.716359 -3.2056,-1.62269 -5.2549,-2.516314 -2.0494,-0.893624 -4.3206,-1.774541 -6.0193,-2.346506 -1.6987,-0.571965 -2.8247,-0.834921 -3.6958,-0.975007 -0.8711,-0.140087 -1.4873,-0.157303 -2.1873,-0.10732 -0.7001,0.04998 -1.4839,0.167151 -2.5457,0.424446 -1.0618,0.257295 -2.4015,0.654689 -4.7373,1.453177 -2.3359,0.798487 -5.6677,1.997998 -8.2288,2.874337 -2.5612,0.87634 -4.3515,1.429445 -5.8642,1.832942 -1.5126,0.403497 -2.7475,0.657357 -3.7846,0.820645 -1.0371,0.163287 -1.8764,0.236001 -2.8814,0.222654 -1.0051,-0.01335 -2.1758,-0.112748 -3.0359,-0.259934 -0.8601,-0.147185 -1.4097,-0.342186 -1.8385,-0.585 -0.4289,-0.242814 -0.7371,-0.533468 -0.9556,-0.849658 -0.2184,-0.316189 -0.3473,-0.657916 1.1224,-1.85571 1.4696,-1.197795 4.5377,-3.251625 5.4232,-3.892157 0.8854,-0.640531 -0.4117,0.132197 -1.7157,0.856641 -1.304,0.724444 -2.6149,1.400595 -3.6652,1.950248 -1.0502,0.549654 -1.8398,0.972802 -2.5551,1.399013 -0.7154,0.42621 -1.3564,0.855429 -2.3196,1.108677 -0.9632,0.253248 -2.2484,0.330471 -4.4561,0.498651 -2.2078,0.168181 -5.338,0.427312 -7.3994,0.469226 -2.0614,0.04191 -3.054,-0.133387 -3.9399,-0.385853 -0.886,-0.252467 -1.6652,-0.582059 -2.4685,-1.115094 -0.8032,-0.533035 -1.6303,-1.269376 -0.914,-2.097765 0.7163,-0.828389 2.976,-1.7486 5.2167,-3.009062 2.2407,-1.260462 4.4622,-2.861055 5.4644,-3.789121 1.0022,-0.928066 0.7849,-1.183327 0.014,-0.607182 -0.7711,0.576146 -2.0958,1.983617 -3.3653,2.977142 -1.2695,0.993524 -2.4838,1.573082 -3.7947,2.244902 -1.3109,0.671821 -2.7183,1.435852 -3.565,1.683405 -0.8466,0.247554 -1.1324,-0.02141 -1.7338,-0.08395 -0.6014,-0.06254 -1.5185,0.08138 -2.5431,0.389499 -1.0245,0.308121 -2.1566,0.780465 -3.3148,1.393507 -1.1582,0.613042 -2.3424,1.366737 -3.5899,2.370381 -1.2474,1.003644 -2.5581,2.257208 -3.8793,3.864408 -1.3211,1.6072 -2.6527,3.567969 -3.7436,5.490029 -1.0909,1.922061 -1.9411,3.805324 -2.6687,5.712841 -0.7275,1.907517 -1.3324,3.839186 -1.8362,5.709733 -0.5037,1.870547 -0.9064,3.679889 -1.2531,5.460769 -0.3467,1.780879 -0.6374,3.533199 -0.9311,5.649389 -0.2937,2.11619 -0.5903,4.596104 -0.8252,6.873464 -0.2348,2.27736 -0.408,4.352044 -0.5445,6.206282 -0.1364,1.854238 -0.2363,3.487915 -0.3256,5.192248 -0.089,1.704334 -0.1682,3.479202 -0.213,4.517311 -0.045,1.038109 -0.055,1.339404 -0.1743,1.448829 -0.1188,0.109425 -0.3459,0.02698 -0.4595,-0.01425 -0.1135,-0.04122 -0.1138,-0.04122 -0.9052,-3.41894 z"
           id="path62" /><ellipse
           style="opacity:1;fill:#001313;fill-opacity:1;stroke-width:1.48913"
           id="ellipse62"
           cx="1371.2186"
           cy="103.72057"
           rx="4.4087968"
           ry="7.679172" /><path
           style="opacity:1;fill:#001313;fill-opacity:1;stroke-width:1.48913"
           d="m 1388.7365,97.973252 c -0.2484,0.496766 -0.3035,1.26953 -0.2897,2.028498 0.014,0.75897 0.097,1.50407 -0.1105,2.3458 -0.207,0.84174 -0.7037,1.78008 -1.6283,4.27775 -0.9245,2.49767 -2.2768,6.55452 -3.4635,9.81111 -1.1867,3.25659 -2.2079,5.71277 -2.9254,7.71366 -0.7176,2.0009 -1.1315,3.54634 -1.3799,5.21606 -0.2484,1.66971 -0.3312,3.46354 -0.069,5.27124 0.2622,1.8077 0.8693,3.62911 2.0009,5.13322 1.1315,1.5041 2.7874,2.69082 4.7607,3.65676 1.9733,0.96594 4.2638,1.71105 6.5407,1.93184 2.2769,0.22079 4.5399,-0.0828 6.6374,-0.73135 2.0974,-0.64856 4.0293,-1.6421 5.2298,-2.48384 1.2005,-0.84174 1.6697,-1.5317 1.6421,-2.12503 -0.028,-0.59333 -0.552,-1.09011 -1.7802,-1.07631 -1.2281,0.0138 -3.1599,0.53814 -4.8986,0.93832 -1.7387,0.40018 -3.2842,0.67617 -5.0367,0.60715 -1.7525,-0.069 -3.7119,-0.48297 -5.354,-0.93834 -1.6421,-0.45538 -2.9668,-0.95213 -3.9741,-1.79387 -1.0073,-0.84174 -1.6973,-2.02846 -2.1112,-3.11859 -0.414,-1.09013 -0.552,-2.08364 -0.4968,-3.03578 0.055,-0.95215 0.3036,-1.86287 1.7387,-5.64387 1.4351,-3.78099 4.0569,-10.43202 5.5886,-14.57176 1.5317,-4.13974 1.9732,-5.76797 2.194,-7.71367 0.2208,-1.94569 0.2208,-4.208688 -0.097,-5.36781 -0.3174,-1.159121 -0.9521,-1.214312 -1.4903,-1.131532 -0.5381,0.08278 -0.9797,0.303578 -1.2281,0.800344 z"
           id="path63" /><path
           style="opacity:1;fill:#001313;fill-opacity:1;stroke-width:1.48913"
           d="m 1470.626,110.76115 c -0.683,0.6391 -2.0491,1.91736 -3.1224,3.36634 -1.0733,1.44897 -1.8539,3.06867 -2.4394,4.6689 -0.5854,1.60023 -0.9757,3.1809 -1.1416,4.50305 -0.1658,1.32215 -0.1073,2.38567 0.1464,2.98574 0.2537,0.60007 0.7025,0.73667 1.1319,0.75619 0.4293,0.0195 0.8391,-0.0781 1.1025,-0.21953 0.2635,-0.14148 0.3806,-0.32687 0.4293,-0.86353 0.049,-0.53666 0.029,-1.42457 0.1266,-2.27348 0.097,-0.84891 0.3121,-1.65877 0.8439,-2.61011 0.5318,-0.95135 1.3807,-2.04416 2.3077,-3.25408 0.9269,-1.20992 1.9319,-2.5369 2.6735,-3.35165 0.7416,-0.81476 1.2197,-1.11724 1.4197,-1.62463 0.2,-0.50739 0.122,-1.21967 -0.068,-1.72706 -0.1903,-0.5074 -0.4927,-0.80984 -0.966,-0.94158 -0.4732,-0.13173 -1.1172,-0.0927 -1.4392,-0.0732 -0.322,0.0195 -0.3216,0.0195 -1.0046,0.65861 z"
           id="path64" /><path
           style="opacity:1;fill:#001313;fill-opacity:1;stroke-width:1.48913"
           d="m 1411.262,75.502805 c -0.068,0.351259 -0.4391,0.917159 -0.5562,1.531889 -0.1171,0.61473 0.02,1.278221 0.5366,1.717308 0.5172,0.439087 1.4149,0.653757 2.576,0.683016 1.1612,0.02926 2.5857,-0.126848 4.5177,-0.175635 1.932,-0.04879 4.3713,0.0098 5.991,0.234192 1.6198,0.224434 2.4198,0.614676 3.3175,1.180613 0.8977,0.565937 1.893,1.307526 3.0346,1.931993 1.1416,0.624466 2.4296,1.13185 3.2785,1.229423 0.8489,0.09757 1.2587,-0.214662 1.5612,-0.673261 0.3024,-0.458598 0.4976,-1.063566 0.2731,-1.853925 -0.2244,-0.790359 -0.8683,-1.766056 -1.7563,-2.64424 -0.8879,-0.878184 -2.0198,-1.658786 -3.0638,-2.253985 -1.0441,-0.595199 -2.0003,-1.004996 -3.5029,-1.278198 -1.5027,-0.273203 -3.5517,-0.409802 -6.2936,-0.361016 -2.7418,0.04879 -6.1764,0.282963 -9.611,0.517141 0,0 0,0 0,0 -0.2342,-0.136604 -0.4683,-0.273193 -0.4683,-0.273192 0,0 0.2342,0.136617 0.1659,0.487877 z"
           id="path65" /><path
           style="opacity:1;fill:#001313;fill-opacity:1;stroke-width:1.48913"
           d="m 1357.3035,81.542623 c -0.1659,0.165884 -0.4976,0.497603 -0.4879,0.956221 0.01,0.458618 0.3611,1.044068 1.1514,1.444113 0.7904,0.400044 2.0198,0.614701 3.4541,0.117058 1.4344,-0.497642 3.0736,-1.70752 4.1372,-2.419806 1.0635,-0.712286 1.5514,-0.926961 2.3906,-1.122115 0.8391,-0.195154 2.0295,-0.370788 4.0688,-0.595208 2.0393,-0.22442 4.9275,-0.497628 6.274,-0.975751 1.3465,-0.478123 1.1514,-1.161111 0.8391,-1.8051 -0.3122,-0.643989 -0.7415,-1.248925 -1.8929,-1.590449 -1.1514,-0.341525 -3.0248,-0.419585 -4.7812,-0.468371 -1.7563,-0.04879 -3.3955,-0.0683 -4.9957,0.312248 -1.6003,0.380548 -3.1614,1.16111 -4.5665,2.05881 -1.4051,0.8977 -2.654,1.912429 -3.5322,2.585706 -0.8782,0.673278 -1.3855,1.004997 -1.6392,1.170881 -0.2537,0.165883 -0.2537,0.165879 -0.4196,0.331763 z"
           id="path66" /><g
           id="g78"><rect
             style="opacity:0.633894;fill:#070808;fill-opacity:1;stroke-width:1.48913"
             id="rect67"
             width="1.0009766"
             height="3.0761719"
             x="1359.79"
             y="160.47363"
             ry="0.50048828"
             rx="0.50048828" /><use
             id="use67"
             xlink:href="#rect36"
             transform="translate(11.389167,14.35547)" /><use
             id="use68"
             xlink:href="#rect36"
             transform="translate(22.912604,24.121095)" /><use
             id="use69"
             xlink:href="#rect36"
             transform="translate(31.896979,17.285157)" /><use
             id="use70"
             xlink:href="#rect36"
             transform="translate(50.451667,12.402345)" /><use
             id="use71"
             xlink:href="#rect36"
             transform="translate(69.201667,20.214845)" /><use
             id="use72"
             xlink:href="#rect36"
             transform="translate(48.107917,27.246095)" /><use
             id="use73"
             xlink:href="#rect36"
             transform="translate(78.381354,7.5195321)" /><use
             id="use74"
             xlink:href="#rect36"
             transform="translate(93.029792,-3.2226555)" /><use
             id="use75"
             xlink:href="#rect36"
             transform="translate(77.014167,-4.199218)" /><use
             id="use76"
             xlink:href="#rect36"
             transform="translate(8.7524465,-8.3007807)" /><use
             id="use77"
             xlink:href="#rect36"
             transform="translate(91.467292,-17.285156)" /><g
             id="g77"><path
               style="opacity:0.318241;fill:#3f250b;fill-opacity:1;stroke-width:1.48913"
               d="m 1350.2884,156.40633 c 1.0029,-0.90841 3.0089,-2.72529 5.2413,-4.47287 2.2325,-1.74759 4.6913,-3.42582 7.7161,-4.81136 3.0248,-1.38555 6.6155,-2.47837 9.5324,-3.20177 2.9169,-0.7234 5.1599,-1.07737 6.7782,-1.07495 1.6183,0.002 2.6118,0.36118 3.8261,0.83725 1.2143,0.47606 2.6494,1.06942 4.6848,1.53169 2.0354,0.46227 4.671,0.79345 6.7547,0.82794 2.0836,0.0345 3.6153,-0.22769 5.1677,-0.66236 1.5524,-0.43468 3.1254,-1.04181 4.4915,-1.86288 1.3662,-0.82107 2.5253,-1.85598 3.5809,-2.38723 1.0556,-0.53126 2.0078,-0.55886 3.9259,-0.35187 1.9181,0.207 4.802,0.64855 7.3135,1.14532 2.5114,0.49677 4.6502,1.04871 6.8236,2.08367 2.1734,1.03495 4.3812,2.55282 6.0923,3.67743 1.711,1.12461 2.9253,1.85594 4.0983,2.20093 1.1729,0.34499 2.3044,0.3036 3.5325,-0.48298 1.2282,-0.78659 2.5528,-2.31821 4.4226,-5.29885 1.8698,-2.98065 4.2846,-7.41006 6.0026,-10.41828 1.718,-3.00821 2.7391,-4.59506 3.4221,-5.96807 0.6831,-1.37301 1.0281,-2.53211 1.4007,-3.40834 0.3726,-0.87622 0.7727,-1.46959 1.3316,-1.64897 0.5589,-0.17939 1.2764,0.0552 1.6213,0.62785 0.3449,0.57267 0.3173,1.48337 0.3241,3.36007 0.01,1.8767 0.048,4.71926 -0.021,7.32731 -0.069,2.60804 -0.2483,4.98143 -10e-4,6.42571 0.2474,1.44427 0.9215,1.95939 1.1888,2.86551 0.2673,0.90612 0.1279,2.20319 -0.1331,4.09241 -0.2609,1.88922 -0.6434,4.37049 -1.0574,6.49135 -0.414,2.12087 -0.8597,3.88123 -1.4842,5.92226 -0.6246,2.04103 -1.428,4.36263 -2.1312,6.19584 -0.7031,1.83321 -1.3058,3.17795 -1.8944,4.38235 -0.5886,1.20441 -1.1629,2.26837 -1.7726,3.3577 -0.6098,1.08934 -1.2548,2.20394 -1.9315,3.26081 -0.6768,1.05687 -1.3852,2.05593 -2.483,3.3494 -1.0978,1.29346 -2.5848,2.88119 -4.0433,4.22545 -1.4585,1.34426 -2.8884,2.44497 -4.7107,3.63002 -1.8223,1.18505 -4.037,2.45444 -5.9918,3.45692 -1.9549,1.00248 -3.6498,1.73802 -5.5239,2.46026 -1.8741,0.72225 -3.9273,1.43115 -6.0046,2.06203 -2.0772,0.63088 -4.1783,1.18366 -6.2368,1.66666 -2.0585,0.483 -4.0743,0.89617 -5.7006,1.17774 -1.6263,0.28157 -2.863,0.43152 -4.5747,0.54973 -1.7116,0.11821 -3.898,0.20466 -6.2863,0.18437 -2.3883,-0.0203 -4.9785,-0.14733 -7.0077,-0.3187 -2.0293,-0.17138 -3.4975,-0.38706 -5.0254,-0.70649 -1.5279,-0.31942 -3.1153,-0.74255 -4.8712,-1.43097 -1.7559,-0.68841 -3.6801,-1.64204 -5.1393,-2.44245 -1.4592,-0.80041 -2.4533,-1.44756 -3.7647,-2.37944 -1.3115,-0.93189 -2.9401,-2.1484 -4.4556,-3.42609 -1.5154,-1.27769 -2.9175,-2.61643 -3.9901,-3.72386 -1.0727,-1.10743 -1.8158,-1.98347 -2.7213,-3.20503 -0.9055,-1.22156 -1.9732,-2.78848 -2.9445,-4.38454 -0.9712,-1.59605 -1.8459,-3.22112 -2.7894,-5.23554 -0.9435,-2.01441 -1.9559,-4.41808 -2.719,-6.38422 -0.7631,-1.96615 -1.2771,-3.49464 -1.6962,-4.82091 -0.4192,-1.32628 -0.7435,-2.4502 -0.9228,-3.07623 -0.1793,-0.62602 -0.2135,-0.75408 -0.2307,-0.81821 -0.017,-0.0641 -0.017,-0.0641 0.9861,-0.97252 z"
               id="path77" /></g></g><path
           style="opacity:1;fill:#000000;fill-opacity:1;stroke-width:1.48913"
           d="m 798.28029,235.01173 c 0.80562,1.19692 2.4629,3.03835 4.76471,4.97186 2.30181,1.93352 5.24803,3.95904 8.67772,5.13295 3.42969,1.17392 7.34264,1.49616 11.27872,0.94372 3.93609,-0.55244 7.89507,-1.97952 10.95646,-3.42965 3.06139,-1.45014 5.22502,-2.92325 6.53704,-4.60357 1.31202,-1.68032 1.77236,-3.56774 1.97952,-5.15598 0.20716,-1.58824 0.16113,-2.87721 -0.5064,-3.52171 -0.66753,-0.6445 -1.9565,-0.6445 -3.89003,-0.34526 -1.93352,0.29924 -4.51146,0.89769 -7.20457,1.58823 -2.69311,0.69054 -5.50122,1.47313 -8.53961,1.9565 -3.03838,0.48338 -6.30684,0.66752 -9.20711,0.6445 -2.90027,-0.023 -5.43217,-0.25319 -7.75699,-0.46036 -2.32482,-0.20716 -4.44242,-0.3913 -5.7084,-0.3913 -1.26598,1e-5 -1.68029,0.18414 -1.91047,0.55244 -0.23018,0.36829 -0.27622,0.9207 0.52941,2.11763 z"
           id="path129"
           transform="translate(576.26723,-75.211679)" /></g><path
         style="opacity:1;fill:#edc49b;fill-opacity:1;stroke:url(#linearGradient129);stroke-width:1.48913"
         d="m 635.31427,389.27701 c -1.31202,-1.84142 -2.60101,-4.97184 -6.46807,-8.47058 -3.86705,-3.49875 -10.31191,-7.36566 -16.22754,-12.29153 -5.91562,-4.92587 -11.30168,-10.91038 -16.36564,-17.10223 -5.06397,-6.19185 -9.80554,-12.59067 -12.8439,-17.26331 -3.03836,-4.67264 -4.37337,-7.61886 -5.24805,-10.26593 -0.87468,-2.64707 -1.28899,-4.99484 -0.94371,-6.69817 0.34527,-1.70333 1.45011,-2.76213 2.9693,-2.78514 1.51919,-0.023 3.45265,0.98976 5.86955,2.55499 2.4169,1.56523 5.31708,3.68283 7.66491,5.9386 2.34784,2.25577 4.14319,4.64957 5.50125,6.53704 1.35806,1.88748 2.27875,3.26852 1.65725,2.46286 -0.6215,-0.80565 -2.78513,-3.7979 -4.9258,-6.12272 -2.14068,-2.32481 -4.25828,-3.98206 -6.23783,-5.63936 -1.97955,-1.6573 -3.82093,-3.31454 -5.38615,-4.48846 -1.56523,-1.17391 -2.8542,-1.86443 -4.39641,-3.61382 -1.54221,-1.74938 -3.33757,-4.55749 -4.07413,-7.43475 -0.73657,-2.87725 -0.41433,-5.82347 0.66753,-7.29661 1.08185,-1.47314 2.92324,-1.47314 4.87978,-0.73656 1.95653,0.73659 4.02809,2.2097 6.81328,4.71868 2.78519,2.50897 6.28382,6.05364 9.66747,9.34521 3.38365,3.29158 6.65211,6.32987 8.76976,8.40148 2.11765,2.07162 3.08438,3.17645 2.50891,2.624 -0.57547,-0.55245 -2.69306,-2.76211 -4.64959,-4.76468 -1.95653,-2.00257 -3.75189,-3.79792 -5.73144,-5.6854 -1.97955,-1.88748 -4.14318,-3.86697 -6.03065,-5.54728 -1.88748,-1.68031 -3.4987,-3.06136 -5.38618,-4.74167 -1.88748,-1.68032 -4.05111,-3.65981 -5.15596,-5.66238 -1.10486,-2.00257 -1.15089,-4.0281 -0.48336,-5.36314 0.66753,-1.33503 2.04857,-1.97952 3.3606,-2.14064 1.31202,-0.16112 2.55496,0.16112 4.14321,1.12788 1.58824,0.96677 3.5217,2.57798 5.52427,4.23528 2.00257,1.6573 4.07413,3.36058 6.51404,5.2941 2.43992,1.93352 5.24803,4.09714 7.78001,5.9616 2.53198,1.86446 4.78768,3.42964 7.06647,5.22505 2.27878,1.79541 4.58052,3.82093 5.50122,4.53448 0.92071,0.71354 0.46037,0.11509 -0.82865,-0.96676 -1.28902,-1.08185 -3.40662,-2.64703 -5.47824,-4.16622 -2.07162,-1.51919 -4.09715,-2.9923 -6.92837,-5.22506 -2.83123,-2.23275 -6.46797,-5.22501 -8.90787,-7.13549 -2.43989,-1.91049 -3.68283,-2.73911 -4.14318,-4.16623 -0.46035,-1.42713 -0.13811,-3.45266 0.94375,-4.48846 1.08185,-1.0358 2.92323,-1.08183 5.8005,-0.046 2.87726,1.03582 6.79021,3.15342 12.03834,6.8133 5.24812,3.65988 11.83108,8.8618 16.11241,12.56769 4.28133,3.70588 6.26082,5.91555 8.83885,7.75699 2.57802,1.84144 5.75441,3.31454 8.28639,4.46544 2.53197,1.1509 4.4194,1.97953 5.24804,2.76214 0.82864,0.78261 0.59846,1.51917 0.32224,2.25574 -0.27621,0.73658 -0.59846,1.47313 -0.59845,2.23273 0,0.7596 0.32224,1.54218 0.32224,1.4501 -10e-6,-0.0921 -0.32225,-1.05881 -0.29923,-2.04859 0.023,-0.98977 0.3913,-2.00253 1.01279,-3.40663 0.62149,-1.40411 1.49615,-3.19946 1.8184,-5.68541 0.32225,-2.48596 0.0921,-5.66235 0.7596,-8.93091 0.66753,-3.26856 2.23271,-6.62909 3.63681,-8.97692 1.4041,-2.34783 2.64704,-3.68284 3.95906,-4.5345 1.31203,-0.85166 2.69307,-1.21994 3.95906,-0.94371 1.26599,0.27622 2.41686,1.19691 3.38362,2.43988 0.96675,1.24298 1.74934,2.80816 2.14065,4.51149 0.3913,1.70334 0.3913,3.54473 0.3913,5.68541 0,2.14068 0,4.58052 -0.20716,7.11251 -0.20717,2.53198 -0.62148,5.15595 -0.66751,8.05622 -0.046,2.90028 0.2762,6.07668 0.80562,8.76978 0.52941,2.6931 1.26597,4.90277 1.74935,7.6189 0.48337,2.71613 0.71355,5.93856 0.55242,8.74675 -0.16113,2.8082 -0.71355,5.20201 -1.49616,7.89512 -0.78262,2.69311 -1.79538,5.68536 -2.50893,7.54981 -0.71356,1.86445 -1.12788,2.60101 -0.87467,3.86701 0.2532,1.26599 1.1739,3.06134 1.26596,4.69562 0.0921,1.63428 -0.64449,3.10739 -3.03838,5.54731 -2.39389,2.43992 -6.44494,5.84648 -10.28895,8.21733 -3.84401,2.37085 -7.48075,3.70586 -10.68025,4.83374 -3.1995,1.12788 -5.96159,2.04857 -8.01018,2.23271 -2.0486,0.18413 -3.38361,-0.36828 -4.69562,-2.20971 z"
         id="path127"
         transform="translate(566.9112,-73.628292)" /><path
         style="opacity:1;fill:#899fa2;fill-opacity:1;stroke:url(#linearGradient128);stroke-width:1.48913"
         d="m 634.53923,389.69699 c -0.77503,0.41998 -2.3251,1.25994 -3.13268,2.20075 -0.80759,0.94082 -0.87269,1.98247 0.82005,7.256 1.69274,5.27354 5.14319,14.77855 9.7982,25.61851 4.65501,10.83997 10.51427,23.01421 15.03904,31.05462 4.52477,8.0404 7.71481,11.94657 10.57942,15.52733 2.86461,3.58076 5.40362,6.83591 8.69142,9.24478 3.2878,2.40886 7.32418,3.97133 11.6211,5.33853 4.29692,1.3672 8.85412,2.53905 12.69529,2.66925 3.84118,0.1302 6.96612,-0.78124 10.70965,-2.66929 3.74354,-1.88805 8.10543,-4.75257 11.97916,-7.97527 3.87373,-3.22269 7.25908,-6.80334 10.2539,-10.57942 2.99482,-3.77609 5.59893,-7.74736 7.09633,-10.02601 1.4974,-2.27865 1.88802,-2.86458 2.40886,-8.62641 0.52084,-5.76183 1.17187,-16.69911 2.34376,-35.84001 1.17189,-19.1409 2.86456,-46.4841 3.80858,-61.0349 0.94401,-14.5508 1.13932,-16.30857 0.84634,-21.54954 -0.29298,-5.24098 -1.07421,-13.96476 -2.27865,-18.09887 -1.20445,-4.13411 -2.83202,-3.67839 -5.04559,-0.68354 -2.21357,2.99484 -5.01299,8.52858 -7.8776,14.25781 -2.86462,5.72923 -5.79424,11.65359 -9.1797,19.17321 -3.38545,7.51962 -7.22652,16.63402 -11.19792,25.71614 -3.9714,9.08213 -8.07288,18.13143 -10.41663,23.17701 -2.34376,5.04558 -2.92969,6.08723 -2.89712,7.29167 0.0326,1.20444 0.68359,2.5716 2.24611,5.04559 1.56252,2.474 4.03644,6.05466 6.15234,9.21223 2.1159,3.15758 3.87368,5.8919 5.30598,8.23567 1.4323,2.34377 2.53905,4.29686 3.12499,5.79426 0.58593,1.49741 0.65104,2.53906 0.68359,2.5065 0.0326,-0.0326 0.0326,-1.13932 -0.71616,-2.79949 -0.74871,-1.66018 -2.24608,-3.87368 -3.97136,-6.54299 -1.72528,-2.6693 -3.67836,-5.79423 -5.30598,-8.39842 -1.62762,-2.60419 -2.92968,-4.68748 -4.26433,-6.83594 -1.33464,-2.14846 -2.7018,-4.36196 -4.36198,-7.16147 -1.66017,-2.79951 -3.61326,-6.18486 -6.38023,-10.6771 -2.76696,-4.49225 -6.34761,-10.09109 -9.24477,-14.9414 -2.89716,-4.8503 -5.11066,-8.95178 -7.13613,-10.90763 -2.02547,-1.95585 -3.86279,-1.766 -4.88128,-1.41336 -1.01849,0.35264 -1.2181,0.86804 -1.37613,1.37881 -0.15802,0.51076 -0.27445,1.01684 -0.32041,1.40364 -0.046,0.38679 -0.0215,0.65428 0.1055,1.1538 0.12697,0.49952 0.35641,1.23104 0.56741,2.01366 0.21099,0.78261 0.40353,1.61626 0.48397,2.23217 0.0804,0.61591 0.0488,1.01405 -0.0832,1.48518 -0.13193,0.47113 -0.36412,1.01521 -1.09339,1.97235 -0.72927,0.95714 -1.95558,2.32726 -3.40146,3.70786 -1.44588,1.3806 -3.11125,2.77159 -4.71947,3.98886 -1.60821,1.21727 -3.15918,2.26075 -4.5698,3.11129 -1.41062,0.85053 -2.6808,1.50806 -4.04226,2.1317 -1.36145,0.62365 -2.81411,1.21338 -4.29525,1.7714 -1.48114,0.55801 -2.99067,1.08429 -4.39735,1.52736 -1.40668,0.44307 -2.71042,0.80292 -3.71344,1.01995 -1.00303,0.21704 -1.70528,0.29125 -2.2772,0.29585 -0.57192,0.005 -1.01347,-0.0604 -1.43019,-0.1914 -0.41672,-0.13102 -0.80859,-0.32804 -1.13798,-0.54848 -0.32938,-0.22045 -0.59625,-0.4643 -0.82589,-0.707 -0.22965,-0.2427 -0.42204,-0.48424 -0.51823,-0.60501 -0.0962,-0.12077 -0.0962,-0.12077 -0.87128,0.29921 z"
         id="path128"
         transform="translate(566.81496,-73.749059)" /></g></g></svg>
