<?xml version="1.0" encoding="UTF-8" standalone="no"?>
<svg
   xmlns:dc="http://purl.org/dc/elements/1.1/"
   xmlns:cc="http://creativecommons.org/ns#"
   xmlns:rdf="http://www.w3.org/1999/02/22-rdf-syntax-ns#"
   xmlns:svg="http://www.w3.org/2000/svg"
   xmlns="http://www.w3.org/2000/svg"
   xmlns:sodipodi="http://sodipodi.sourceforge.net/DTD/sodipodi-0.dtd"
   xmlns:inkscape="http://www.inkscape.org/namespaces/inkscape"
   id="svg2"
   height="197.84096pt"
   width="200.01451pt"
   version="1.1"
   viewBox="0 0 200.01451 197.84096"
   sodipodi:docname="glass-block-01.svg"
   inkscape:version="1.0.1 (3bc2e813f5, 2020-09-07)"
   inkscape:export-filename="/home/santanche/git/harena-cases/cellular/aquarium/images/processed/glass-block-01.png"
   inkscape:export-xdpi="96"
   inkscape:export-ydpi="96">
  <metadata
     id="metadata5717">
    <rdf:RDF>
      <cc:Work
         rdf:about="">
        <dc:format>image/svg+xml</dc:format>
        <dc:type
           rdf:resource="http://purl.org/dc/dcmitype/StillImage" />
        <dc:title></dc:title>
      </cc:Work>
    </rdf:RDF>
  </metadata>
  <defs
     id="defs5715" />
  <sodipodi:namedview
     pagecolor="#ffffff"
     bordercolor="#666666"
     borderopacity="1"
     objecttolerance="10"
     gridtolerance="10"
     guidetolerance="10"
     inkscape:pageopacity="0"
     inkscape:pageshadow="2"
     inkscape:window-width="1920"
     inkscape:window-height="1043"
     id="namedview5713"
     showgrid="false"
     inkscape:zoom="1.2931953"
     inkscape:cx="87.305858"
     inkscape:cy="198.2447"
     inkscape:window-x="0"
     inkscape:window-y="0"
     inkscape:window-maximized="1"
     inkscape:current-layer="svg2" />
  <path
     id="path304-1"
     fill="#2cbed1"
     d="m 165.63091,1.60116 c 3.32073,1.32833 6.52378,2.90048 9.46647,5.00359 -1.34057,-0.0581 -5.57024,-3.11206 -4.01403,-0.22749 25.44023,46.69622 -10.02303,98.54039 3.38728,147.11305 1.79535,5.17037 11.60806,14.03426 1.95794,16.56876 -39.47907,8.27974 -77.86501,-8.59386 -117.11635,-10.22854 -5.99216,-0.56127 -14.89514,-2.86085 -13.68198,-10.68212 -0.0568,-20.10152 6.55221,-41.08874 20.42324,-55.87409 15.0478,-11.92355 32.26637,12.61301 47.63869,1.62737 13.66337,-7.14565 28.53217,-31.23917 10.1126,-41.21553 C 98.42414,43.4667 71.23894,37.11284 43.83845,36.21189 c -13.0158,-0.95598 -11.0197,14.00669 -10.71233,22.6943 2.2408,35.21882 -13.19579,68.99578 -9.5238,104.25571 1.14493,8.61692 0.75187,21.95771 11.90112,23.70665 -6.42159,2.56252 -11.00489,-5.19897 -11.66081,-10.54288 C 13.90768,133.0735 37.30924,90.80081 29.4452,47.38174 23.95877,33.2445 40.8638,29.86413 50.80353,32.20801 c 29.6806,3.89169 60.99965,6.68552 87.64764,20.86985 13.09244,18.56322 -6.8079,40.57162 -20.32594,52.68556 -14.3508,12.7763 -32.61357,-13.47164 -46.67477,1.12307 -11.19631,9.93257 -24.18332,34.54673 -6.72264,44.82396 30.83408,9.7538 63.26077,15.88912 95.65857,16.53448 9.63617,2.54968 15.36152,-7.44693 10.87323,-15.37297 -11.21741,-46.89089 20.14423,-94.89084 0.28893,-140.66046 -3.02713,-6.81685 -8.18356,2.43436 -11.42045,4.56081 C 120.90885,36.62204 77.94227,13.06235 36.92776,16.02155 24.3528,16.90203 5.28313,19.77166 3.05689,34.76762 -0.21694,32.65807 0.75811,28.72923 2.22856,25.80233 5.44349,23.59392 8.14389,20.77668 11.32783,18.56194 54.57329,1.49861 99.29952,29.33049 143.26157,19.586 c 8.50194,-2.06579 19.15311,-5.45416 21.6318,-15.02738 0.007,-0.63132 0.0233,-1.88029 0.0298,-2.5116 z" />
  <path
     id="path306-1"
     fill="#38d5d6"
     d="m 171.08335,6.37726 c -1.55621,-2.88457 2.67346,0.16943 4.01403,0.22749 25.65502,43.8642 -8.13558,93.89125 3.01459,140.55858 -12.53999,1.9399 15.34189,19.52707 1.33869,23.60132 -40.29215,12.04806 -80.04509,-8.69784 -120.53378,-7.10937 -7.50282,-0.0247 -20.141,0.56523 -19.0673,-10.75447 1.76774,-25.12182 5.69232,-52.43939 22.08695,-72.39571 10.85587,-10.08292 23.91669,5.27507 34.41611,8.66955 12.19814,5.4722 28.05183,-11.66719 18.97137,-22.57938 C 97.56911,50.24766 73.00694,43.41058 49.32852,43.12281 40.36455,45.04887 39.54824,56.78276 38.43186,64.03637 35.6927,98.40074 23.80589,131.92931 26.83139,166.68898 c 0.35978,5.27685 3.08277,14.10049 9.96357,10.08259 41.87342,-15.62689 84.2997,6.70864 126.78487,3.28216 9.40189,-1.38455 20.23775,-3.0728 27.12657,-10.28459 -2.35604,-5.15922 -8.41449,-7.82568 -9.3694,-13.71172 2.89927,3.49832 5.70478,7.43903 9.87814,9.49056 1.29315,0.4002 2.62666,0.65049 3.95883,0.92309 1.47814,12.6198 -19.3171,16.0982 -29.46399,18.77313 -40.82596,4.07265 -82.33762,-18.64704 -122.19158,-2.77797 -2.20949,1.20696 -4.54549,2.13303 -6.70204,3.42828 -0.32357,0.24043 -0.98936,0.73361 -1.31292,0.97404 -11.14925,-1.74894 -10.75619,-15.08973 -11.90112,-23.70665 -3.67199,-35.25993 11.7646,-69.03689 9.5238,-104.25571 -0.30737,-8.68761 -2.30347,-23.65028 10.71233,-22.6943 27.40049,0.90095 54.58569,7.25481 79.96632,17.47427 18.41957,9.97636 3.55077,34.06988 -10.1126,41.21553 -15.37232,10.98564 -32.59089,-13.55092 -47.63869,-1.62737 -13.87103,14.78535 -20.48009,35.77257 -20.42324,55.87409 -1.21316,7.82127 7.68982,10.12085 13.68198,10.68212 39.25134,1.63468 77.63728,18.50828 117.11635,10.22854 9.65012,-2.5345 -0.16259,-11.39839 -1.95794,-16.56876 C 161.06032,104.91765 196.52358,53.07348 171.08335,6.37726 Z" />
  <path
     id="path310-2"
     fill="#1c96c3"
     d="m 160.1281,16.77231 c 3.23689,-2.12645 8.39332,-11.37766 11.42045,-4.56081 19.8553,45.76962 -11.50634,93.76957 -0.28893,140.66046 4.48829,7.92604 -1.23706,17.92265 -10.87323,15.37297 -32.3978,-0.64536 -64.82449,-6.78068 -95.65857,-16.53448 -17.46068,-10.27723 -4.47367,-34.89139 6.72264,-44.82396 14.0612,-14.59471 32.32397,11.65323 46.67477,-1.12307 C 131.64327,93.64948 151.54361,71.64108 138.45117,53.07786 111.80318,38.89353 80.48413,36.0997 50.80353,32.20801 40.8638,29.86413 23.95877,33.2445 29.4452,47.38174 c 7.86404,43.41907 -15.53752,85.69176 -5.60257,128.94393 0.65592,5.34391 5.23922,13.1054 11.66081,10.54288 0.32356,-0.24043 0.98935,-0.73361 1.31292,-0.97404 -1.54859,3.48224 -3.05656,7.03412 -4.79104,10.47831 -2.7619,-1.75624 -5.83505,-3.25339 -8.72408,-1.24943 -0.35161,-0.191 -1.03577,-0.586 -1.38698,-0.77768 C -9.60105,145.93182 42.61203,84.3361 8.49958,36.72061 c 0.16876,-0.57229 0.49261,-1.71322 0.66136,-2.28552 5.59535,-1.41142 7.87935,-8.48742 14.27517,-8.60531 40.41834,-9.74663 79.89442,11.05881 120.49048,7.08437 6.62965,0.0171 19.22564,-3.0798 20.26385,6.94197 0.7112,28.30818 -6.42684,56.39162 -14.94971,83.21366 -1.86778,7.7551 -7.88371,15.87499 -16.70763,15.31847 -17.41536,-0.95572 -28.9658,-15.94976 -43.39532,-23.65711 -18.31641,-7.51503 -34.24611,26.41602 -14.5118,33.89519 25.58151,10.23152 53.19666,13.90067 80.45337,16.45066 22.55967,2.50551 11.53219,-25.75433 11.08492,-38.67963 1.91871,-36.74331 18.17464,-74.0194 4.83306,-110.45111 -2.72869,-5.59377 -7.29881,-0.4381 -10.86923,0.82606 z" />
  <path
     id="path314-3"
     fill="#0a57a1"
     d="m 160.1281,16.77231 c 3.57042,-1.26416 8.14054,-6.41983 10.86923,-0.82606 13.34158,36.43171 -2.91435,73.7078 -4.83306,110.45111 -3.51406,11.44652 6.80416,32.41485 -9.8131,34.95677 -23.93571,-5.18213 -49.88164,-5.16246 -71.96299,-16.75643 -7.31794,-3.10496 -8.94079,-16.37411 0.68108,-17.01966 18.86724,1.92098 31.09597,24.20019 51.25182,21.96923 11.95894,-1.81349 17.58615,-14.2801 19.90059,-24.84882 C 162.04201,95.87732 169.3223,66.76749 168.73345,37.16741 168.34715,28.3765 159.69649,25.67989 152.296,28.57791 109.08108,37.66833 66.79199,13.4952 23.71633,23.62443 17.26201,24.34363 11.43769,28.15164 9.16094,34.43509 8.99219,35.00739 8.66834,36.14832 8.49958,36.72061 6.68547,36.04274 4.86234,35.44049 3.05689,34.76762 5.28313,19.77166 24.3528,16.90203 36.92776,16.02155 c 41.01451,-2.9592 83.98109,20.60049 123.20034,0.75076 z" />
  <path
     id="path320-9"
     fill="#1377b6"
     d="m 152.296,28.57791 c 7.40049,-2.89802 16.05115,-0.20141 16.43745,8.5895 0.58885,29.60008 -6.69144,58.70991 -12.51178,87.53104 -2.31444,10.56872 -7.94165,23.03533 -19.90059,24.84882 -20.15585,2.23096 -32.38458,-20.04825 -51.25182,-21.96923 -9.62187,0.64555 -7.99902,13.9147 -0.68108,17.01966 22.08135,11.59397 48.02728,11.5743 71.96299,16.75643 16.61726,-2.54192 6.29904,-23.51025 9.8131,-34.95677 0.44727,12.9253 11.47475,41.18514 -11.08492,38.67963 -27.25671,-2.54999 -54.87186,-6.21914 -80.45337,-16.45066 -19.73431,-7.47917 -3.80461,-41.41022 14.5118,-33.89519 14.42952,7.70735 25.97996,22.70139 43.39532,23.65711 8.82392,0.55652 14.83985,-7.56337 16.70763,-15.31847 8.52287,-26.82204 15.66091,-54.90548 14.94971,-83.21366 -1.03821,-10.02177 -13.6342,-6.92486 -20.26385,-6.94197 -40.59606,3.97444 -80.07214,-16.831 -120.49048,-7.08437 -6.39582,0.11789 -8.67982,7.19389 -14.27517,8.60531 2.27675,-6.28345 8.10107,-10.09146 14.55539,-10.81066 43.07566,-10.12923 85.36475,14.0439 128.57967,4.95348 z" />
  <path
     id="path346-3"
     fill="#47eae7"
     d="m 49.32852,43.12281 c 23.67842,0.28777 48.24059,7.12485 65.99549,23.47246 9.08046,10.91219 -6.77323,28.05158 -18.97137,22.57938 C 85.85322,85.78017 72.7924,70.42218 61.93653,80.5051 45.5419,100.46142 41.61732,127.77899 39.84958,152.90081 c -1.0737,11.3197 11.56448,10.72975 19.0673,10.75447 40.48869,-1.58847 80.24163,19.15743 120.53378,7.10937 14.0032,-4.07425 -13.87868,-21.66142 -1.33869,-23.60132 1.11811,2.94339 2.19023,5.90642 3.22503,8.89409 0.95491,5.88604 7.01336,8.5525 9.3694,13.71172 -6.88882,7.21179 -17.72468,8.90004 -27.12657,10.28459 -42.48517,3.42648 -84.91145,-18.90905 -126.78487,-3.28216 -6.8808,4.0179 -9.60379,-4.80574 -9.96357,-10.08259 -3.0255,-34.75967 8.86131,-68.28824 11.60047,-102.65261 1.11638,-7.25361 1.93269,-18.9875 10.89666,-20.91356 z" />
  <path
     id="path352-8"
     fill="#4aeeb5"
     d="m 4.53971,22.37931 c 1.97612,-1.72275 4.30624,-2.99863 6.78812,-3.81737 -3.18394,2.21474 -5.88434,5.03198 -9.09927,7.24039 0.6517,-1.22878 1.49259,-2.32523 2.31115,-3.42302 z" />
  <path
     id="path4678"
     fill="#1b94b5"
     d="m 174.33832,1.85948 c 0.34008,0.23098 1.02522,0.68428 1.36529,0.91526 32.17076,46.8986 -14.36523,104.6013 9.97455,153.58357 1.89585,2.37629 6.34135,11.83646 9.69936,7.02021 1.24629,0.0614 2.24856,0.60539 3.01315,1.60108 -0.0441,0.43641 -0.12735,1.30057 -0.18013,1.73198 l -0.0632,0.82952 c -1.11218,3.52635 -3.57902,6.25904 -6.242,8.75147 0.325,-0.56291 0.98866,-1.69241 1.31366,-2.25532 3.19361,-3.2715 3.87127,-7.54524 -1.73922,-7.74759 -3.47479,-2.94148 -6.61566,-6.22134 -9.60091,-9.63073 -17.74957,-42.33685 8.95842,-86.47644 1.3066,-129.9231 0.0301,-3.41209 -0.67214,-6.71582 -2.3496,-9.67038 -1.38408,-2.5427 -2.72218,-5.10504 -3.91368,-7.7213 -0.97705,-2.3077 -2.01509,-4.56978 -3.05812,-6.82319 z" />
  <path
     id="path4688"
     fill="#1c94c1"
     d="m 166.49761,0 c 2.4397,0.8543 4.88807,1.71361 7.36643,2.52096 1.04303,2.25341 2.08107,4.51549 3.05812,6.82319 -1.0177,-1.2573 -2.02674,-2.50959 -3.07944,-3.70626 C 171.24144,3.74344 168.14088,2.55377 165.2679,1.22992 165.57316,0.92119 166.19235,0.30873 166.49761,0 Z" />
  <path
     id="path4724"
     fill="#2ec3d4"
     d="m 165.2679,1.22992 c 2.87298,1.32385 5.97354,2.51352 8.57482,4.40797 -4.43185,-1.10381 -2.05928,3.40678 -1.09651,5.57921 -1.5083,-1.66755 -3.28072,-5.57762 -5.56338,-2.70395 0.40646,-2.14401 1.34237,-4.52505 -1.07822,-5.77247 -0.20542,-0.38418 -0.62628,-1.13524 -0.83671,-1.51076 z" />
  <path
     id="path4740"
     fill="#42e3e7"
     d="m 172.74621,11.2171 c -0.96277,-2.17243 -3.33534,-6.68302 1.09651,-5.57921 1.0527,1.19667 2.06174,2.44896 3.07944,3.70626 1.1915,2.61626 2.5296,5.1786 3.91368,7.7213 0.81186,3.19382 1.58006,6.44326 2.3496,9.67038 7.65182,43.44666 -19.05617,87.58625 -1.3066,129.9231 1.91912,3.55597 4.24208,6.9525 7.19654,9.75522 -8.58005,17.10109 -33.50182,12.74685 -49.7867,12.51309 -3.31232,-5.72289 -10.17164,-4.30221 -15.56389,-5.60255 -23.59619,-4.27019 -47.39798,-9.44428 -71.52895,-7.26823 -5.28976,-0.91785 -14.1696,-0.61753 -13.90033,-8.16392 l 0.5422,0.52088 c 2.46851,2.46443 5.0128,5.45758 8.88846,5.00474 6.27206,0.37647 12.57583,0.59803 18.8638,0.18694 33.60294,0.198 66.25603,15.10119 100.08776,9.32292 2.79793,-0.48617 5.56097,-1.21188 8.32498,-1.87929 11.66114,0.16232 5.48208,-10.79525 1.16265,-16.53378 -16.57317,-46.63441 21.0725,-98.33863 -3.41915,-143.29785 z" />
  <path
     id="path4784"
     fill="#1fa2c9"
     d="m 167.18283,8.51315 c 2.28266,-2.87367 4.05508,1.0364 5.56338,2.70395 18.38348,45.65887 -10.38137,92.94106 -1.09745,139.50085 -0.24618,0.96638 -0.48869,1.94643 -0.72754,2.94013 -0.0984,0.37043 -0.29519,1.11129 -0.38493,1.48672 -5.3995,-20.2878 -1.31641,-41.13991 0.48345,-61.49736 0.45395,-5.84628 2.2641,-11.52154 2.1204,-17.41265 1.28405,-3.40403 2.02446,-7.00646 1.48492,-10.63195 1.24053,-5.88867 2.31786,-11.89466 1.24804,-17.88167 -0.0643,-5.34872 0.18033,-10.69234 -0.27971,-16.01553 0.22611,-5.93164 -1.30888,-11.63296 -4.05668,-16.83362 -0.005,-3.13193 -3.92429,-4.78294 -5.77249,-1.98175 -1.3239,0.93306 -2.5762,1.94209 -3.79653,3.01577 l -0.50586,-0.60382 c 2.05488,-2.13916 3.85397,-4.49527 5.721,-6.78907 z" />
  <path
     id="path4810"
     fill="#2dc5d7"
     d="m 172.74621,11.2171 c 24.49165,44.95922 -13.15402,96.66344 3.41915,143.29785 4.31943,5.73853 10.49849,16.6961 -1.16265,16.53378 -1.73028,-0.28306 -3.44923,-0.60577 -5.17487,-0.81687 15.11317,-0.69677 4.56661,-11.8896 1.82092,-19.51391 -9.28392,-46.55979 19.48093,-93.84198 1.09745,-139.50085 z" />
  <path
     id="path4820"
     fill="#25aecc"
     d="m 180.83584,17.06545 c 1.67746,2.95456 2.37967,6.25829 2.3496,9.67038 -0.76954,-3.22712 -1.53774,-6.47656 -2.3496,-9.67038 z" />
  <path
     id="path4832"
     fill="#1588bd"
     d="m 165.76422,12.89027 c 1.8482,-2.80119 5.76783,-1.15018 5.77249,1.98175 -1.90571,-0.71921 -3.82776,-1.39012 -5.77249,-1.98175 z" />
  <path
     id="path4848"
     fill="#0c64a9"
     d="m 165.76422,12.89027 c 1.94473,0.59163 3.86678,1.26254 5.77249,1.98175 0.4059,2.71695 0.53628,5.47113 0.95816,8.22041 l -0.20765,-0.72034 c -1.4757,-5.644 -5.10626,-10.09569 -10.92202,-5.98251 l 0.60249,-0.48354 c 1.22033,-1.07368 2.47263,-2.08271 3.79653,-3.01577 z" />
  <path
     id="path4850"
     fill="#1585bb"
     d="m 171.53671,14.87202 c 2.7478,5.20066 4.28279,10.90198 4.05668,16.83362 -0.41674,-1.11818 -0.85715,-2.21538 -1.26157,-3.3149 -0.55511,-1.79851 -1.28049,-3.52212 -1.83695,-5.29831 -0.42188,-2.74928 -0.55226,-5.50346 -0.95816,-8.22041 z" />
  <path
     id="path4868"
     fill="#064797"
     d="m 161.3652,16.38958 c 5.81576,-4.11318 9.44632,0.33851 10.92202,5.98251 -1.50054,10.51902 -17.94275,-0.90225 -25.88831,6.29987 -1.52567,0.56253 -2.98143,1.30399 -4.44317,1.9958 -1.17603,0.0369 -2.33607,0.10619 -3.50076,0.10349 -4.35091,-3.12399 -10.14171,-0.99403 -15.01287,-0.37694 -14.37058,-0.32942 -28.38798,-3.93058 -42.58549,-5.79977 -3.43293,-2.59399 2.42425,-2.91893 4.21528,-4.02108 2.63745,1.2918 5.5067,1.78211 8.42543,1.74673 10.35054,1.17234 20.78017,2.96769 31.22103,1.96359 4.63106,0.0988 9.28078,0.18521 13.90168,-0.21842 8.07567,-0.48747 16.30111,-2.57434 22.74516,-7.67578 z" />
  <path
     id="path4906"
     fill="#1d8fc1"
     d="m 161.46183,15.30222 0.50586,0.60382 -0.60249,0.48354 c -6.44405,5.10144 -14.66949,7.18831 -22.74516,7.67578 5.46678,-1.50874 10.91062,-3.15775 16.08716,-5.50379 2.24744,-1.09267 4.45925,-2.26364 6.75463,-3.25935 z" />
  <path
     id="path4914"
     fill="#0a57a1"
     d="m 172.28722,22.37209 0.20765,0.72034 c 0.55646,1.77619 1.28184,3.4998 1.83695,5.29831 -0.0474,6.46206 0.004,12.99279 1.54128,19.33043 -0.94536,5.89742 -1.6319,11.88654 -1.24804,17.88167 -1.12414,3.42707 -1.76027,7.00887 -1.48492,10.63195 -6.66368,24.06183 -9.51744,49.0647 -7.83737,73.99473 -1.21049,11.95663 -14.9916,10.16621 -21.8553,4.49449 8.62482,-11.27864 16.60382,-24.03866 15.96829,-38.9779 0.69793,-8.26885 3.76442,-16.14016 3.99862,-24.44581 4.83757,-15.35892 5.25097,-31.87494 6.6653,-47.82463 1.55001,-6.86469 -2.45491,-18.88797 -11.4281,-16.28596 -4.06262,0.65667 -8.17211,0.97451 -12.25267,1.48225 7.94556,-7.20212 24.38777,4.21915 25.88831,-6.29987 m -11.31026,104.60995 c -2.66027,8.56772 -6.99671,16.39865 -10.46542,24.62663 -0.30943,7.09596 12.54276,6.07532 12.2581,-0.75165 0.25803,-7.80691 1.53318,-16.73555 -1.79268,-23.87498 z" />
  <path
     id="path4950"
     fill="#41dbdd"
     d="m 150.70222,17.13841 c 1.222,-0.0566 2.45365,-0.0498 3.68896,-0.0295 0.0815,0.35882 0.23952,1.08514 0.31602,1.45262 -5.17654,2.34604 -10.62038,3.99505 -16.08716,5.50379 -4.6209,0.40363 -9.27062,0.31718 -13.90168,0.21842 -0.27569,-0.48249 -0.83074,-1.46112 -1.10643,-1.94361 5.42077,-0.36905 10.80504,-1.17488 16.17333,-2.01303 3.80236,-0.42588 7.75462,-0.81139 10.91696,-3.18873 z" />
  <path
     id="path4952"
     fill="#0e6cae"
     d="m 174.33182,28.39074 c 0.40442,1.09952 0.84483,2.19672 1.26157,3.3149 0.46004,5.32319 0.21546,10.66681 0.27971,16.01553 -1.53711,-6.33764 -1.58866,-12.86837 -1.54128,-19.33043 z" />
  <path
     id="path4970"
     fill="#50f1b4"
     d="m 139.78526,20.32714 c 3.44561,-1.64798 7.19745,-2.42634 10.91696,-3.18873 -3.16234,2.37734 -7.1146,2.76285 -10.91696,3.18873 z" />
  <path
     id="path4992"
     fill="#0d63aa"
     d="m 158.65158,27.18971 c 8.97319,-2.60201 12.97811,9.42127 11.4281,16.28596 -1.41433,15.94969 -1.82773,32.46571 -6.6653,47.82463 1.31428,-17.7164 5.9437,-35.35479 4.80273,-53.21857 0.48467,-6.05948 -4.69282,-9.0718 -9.56553,-10.89202 z" />
  <path
     id="path5016"
     fill="#1171b2"
     d="m 158.65158,27.18971 c 4.87271,1.82022 10.0502,4.83254 9.56553,10.89202 1.14097,17.86378 -3.48845,35.50217 -4.80273,53.21857 -3.85269,10.89305 -5.24861,22.43086 -8.02099,33.61277 -3.10651,9.06063 -7.25982,20.33437 -18.37405,21.58478 -19.61641,1.97662 -32.91493,-15.98967 -49.5775,-22.76925 -9.16858,-3.09955 -15.08832,7.37374 -13.2075,15.07606 5.36567,8.3864 15.32291,10.13995 23.54534,14.29828 -7.90464,-1.98877 -16.02765,-4.5193 -22.62942,-9.4047 -9.99424,-7.92947 1.93923,-27.97884 13.65916,-22.07836 16.1231,8.15397 30.16375,25.47486 49.88293,22.98023 13.75995,-5.99293 16.46818,-22.82371 18.16752,-36.20707 5.72629,-23.29822 10.45371,-47.34635 9.66787,-71.42523 -2.84536,-10.5917 -16.75205,-6.1846 -24.572,-6.30005 1.46174,-0.69181 2.9175,-1.43327 4.44317,-1.9958 4.08056,-0.50774 8.19005,-0.82558 12.25267,-1.48225 z" />
  <path
     id="path5034"
     fill="#157ebb"
     d="m 141.95574,30.66776 c 7.81995,0.11545 21.72664,-4.29165 24.572,6.30005 0.78584,24.07888 -3.94158,48.12701 -9.66787,71.42523 -4.73802,11.38649 -4.23867,27.10159 -16.62716,33.45909 -21.93674,4.95555 -36.88589,-17.53176 -55.30178,-24.43449 -10.87607,-0.7021 -19.36052,13.31339 -15.50143,22.98926 8.60244,10.74012 23.2947,11.5324 35.1258,16.70032 l 0.0434,0.84488 c -13.09321,-4.7419 -29.19845,-5.20681 -38.3646,-16.93057 -3.45341,-12.47851 7.75238,-31.2275 22.25776,-26.35156 15.58753,6.70161 26.46677,24.5182 44.91631,24.14266 9.56586,0.51145 14.47474,-9.69098 16.68135,-17.49294 7.43466,-25.33721 14.3165,-51.31691 14.49559,-77.88709 2.19015,-10.51346 -9.61388,-12.84828 -17.09068,-10.91809 -37.69913,4.37682 -73.8791,-12.07764 -111.52579,-9.17166 -8.74031,1.55866 -19.99925,2.15972 -24.65454,11.12292 -0.51748,0.33631 -1.54746,1.00028 -2.05995,1.32793 -0.004,-0.53337 -0.003,-1.59511 0.002,-2.12349 1.93265,-2.26745 4.02851,-4.41758 5.50619,-7.017 7.60898,-3.75914 16.19874,-4.37704 24.4346,-5.74198 13.98561,-0.12378 27.89279,1.20828 41.65969,3.68331 14.19751,1.86919 28.21491,5.47035 42.58549,5.79977 4.99345,0.33109 10.00691,0.62753 15.01287,0.37694 1.16469,0.003 2.32473,-0.0666 3.50076,-0.10349 z" />
  <path
     id="path5072"
     fill="#1a8cc2"
     d="m 147.4944,32.51451 c 7.4768,-1.93019 19.28083,0.40463 17.09068,10.91809 -0.17909,26.57018 -7.06093,52.54988 -14.49559,77.88709 -2.20661,7.80196 -7.11549,18.00439 -16.68135,17.49294 -18.44954,0.37554 -29.32878,-17.44105 -44.91631,-24.14266 -14.50538,-4.87594 -25.71117,13.87305 -22.25776,26.35156 9.16615,11.72376 25.27139,12.18867 38.3646,16.93057 0.5256,0.34964 1.56813,1.04392 2.09373,1.39356 -11.20935,-1.34485 -21.86445,-5.42966 -32.73851,-8.25524 -20.33196,-7.52401 -9.29118,-37.40721 8.10758,-40.80275 17.79971,1.27001 28.38974,20.24753 46.04158,22.41365 9.00837,0.91705 14.08186,-8.3705 17.27395,-15.19935 8.66544,-22.62899 16.41613,-46.51357 15.64574,-70.99922 0.55108,-5.37451 -6.27611,-10.60946 -10.8669,-7.49799 -10.06099,-1.29384 -20.26302,-4.34342 -30.46828,-2.48739 -28.66242,-4.13522 -57.27555,-12.37582 -86.45552,-9.75463 -5.35104,0.0283 -15.67881,2.6565 -11.58817,10.19129 12.55699,31.29065 2.17575,64.59149 -1.73563,96.4662 -1.86984,19.35865 -4.51133,42.09385 8.94071,58.17423 2.16708,-0.87349 4.05614,-2.26544 5.96717,-3.57543 0.51883,-0.35864 1.57014,-1.07957 2.09397,-1.44686 -1.98357,3.11563 -3.95553,6.41117 -4.9428,10.02118 -2.35547,-2.78021 -11.09023,-6.09117 -8.01871,0.50881 l -0.38036,0.7388 c -2.00779,-3.42241 -4.12388,-6.75723 -5.99372,-10.23857 5.36883,2.66092 0.67357,-5.02665 0.67639,-7.61155 C 4.90627,136.44441 33.57855,92.12255 19.39235,48.71378 17.80227,43.40788 15.87676,37.94296 11.31407,34.46577 15.96936,25.50257 27.2283,24.90151 35.96861,23.34285 73.6153,20.43687 109.79527,36.89133 147.4944,32.51451 Z" />
  <path
     id="path5122"
     fill="#0f6eaf"
     d="m 175.8731,47.72117 c 1.06982,5.98701 -0.008,11.993 -1.24804,17.88167 -0.38386,-5.99513 0.30268,-11.98425 1.24804,-17.88167 z" />
  <path
     id="path5136"
     fill="#1b92c5"
     d="m 150.15584,39.00476 c 4.59079,-3.11147 11.41798,2.12348 10.8669,7.49799 0.77039,24.48565 -6.9803,48.37023 -15.64574,70.99922 -3.19209,6.82885 -8.26558,16.1164 -17.27395,15.19935 -17.65184,-2.16612 -28.24187,-21.14364 -46.04158,-22.41365 -17.39876,3.39554 -28.43954,33.27874 -8.10758,40.80275 l -0.0723,0.90514 c -22.70535,-7.39318 -10.23617,-39.95043 8.34237,-43.66941 16.1345,1.69423 27.52671,17.68234 44.12623,17.45112 7.11367,-0.88123 4.28881,-9.94843 8.26062,-14.16781 1.57666,-4.77085 10.43274,-8.93003 4.25977,-12.89814 8.68323,-11.57979 14.82089,-25.31053 14.88988,-39.97003 5.61062,-20.99787 -20.939,-18.83259 -34.07295,-22.22392 10.20526,-1.85603 20.40729,1.19355 30.46828,2.48739 z" />
  <path
     id="path5142"
     fill="#55f1ad"
     d="m 113.77744,21.15401 c 3.428,-0.75748 6.67644,-0.46393 9.83449,1.18616 -3.26236,-0.50943 -6.57044,-0.77967 -9.83449,-1.18616 z" />
  <path
     id="path5144"
     fill="#0c61aa"
     d="m 123.44211,30.39431 c 4.87116,-0.61709 10.66196,-2.74705 15.01287,0.37694 -5.00596,0.25059 -10.01942,-0.0458 -15.01287,-0.37694 z" />
  <path
     id="path5160"
     fill="#3bd0d9"
     d="m 113.77744,21.15401 c 3.26405,0.40649 6.57213,0.67673 9.83449,1.18616 0.27569,0.48249 0.83074,1.46112 1.10643,1.94361 -10.44086,1.0041 -20.87049,-0.79125 -31.22103,-1.96359 -2.66648,-1.18153 -5.53207,-1.65818 -8.42543,-1.74673 -16.76772,-4.05745 -34.11595,-4.48944 -51.26078,-5.47373 0.2283,-0.29543 0.70223,-0.87628 0.93919,-1.16671 26.64268,-3.56648 52.51524,7.04092 79.02713,7.22099 z" />
  <path
     id="path5196"
     fill="#1996be"
     d="m 119.68756,36.51737 c 13.13395,3.39133 39.68357,1.22605 34.07295,22.22392 C 148.96746,48.50311 138.03571,42.75746 127.19189,41.2195 98.00487,35.67289 68.7204,28.61509 38.85534,28.54289 30.33259,26.92472 22.60662,36.0665 26.81315,43.76057 c 4.00863,13.97686 2.43246,28.66686 2.86729,42.99371 -1.30538,3.461 -1.95053,7.11842 -1.62224,10.8298 -1.14055,2.65549 -1.62452,5.49376 -1.44888,8.38954 -1.02065,2.74782 -1.49998,5.65805 -1.65817,8.59203 -0.28117,1.02701 -0.55503,2.08134 -0.7979,3.142 -2.90545,16.83239 -6.11109,34.78473 -1.80718,51.53014 0.82018,6.33941 1.44735,19.25311 10.01336,18.95635 0.61167,-0.0394 1.84002,-0.12701 2.45669,-0.17511 -1.91103,1.30999 -3.80009,2.70194 -5.96717,3.57543 C 15.39691,175.51408 18.0384,152.77888 19.90824,133.42023 23.81962,101.54552 34.20086,68.24468 21.64387,36.95403 17.55323,29.41924 27.881,26.79101 33.23204,26.76274 c 29.17997,-2.62119 57.7931,5.61941 86.45552,9.75463 z" />
  <path
     id="path5234"
     fill="#1b9dc1"
     d="m 127.19189,41.2195 c 10.84382,1.53796 21.77557,7.28361 26.56862,17.52179 -0.069,14.6595 -6.20665,28.39024 -14.88988,39.97003 -3.77569,5.57969 -9.14343,9.91689 -14.68722,13.67903 0.35179,-1.00933 0.70359,-2.01866 1.07636,-3.00432 8.4362,-16.27193 26.6951,-30.93726 22.0878,-51.13719 C 139.94527,42.89 120.26947,42.04949 105.43155,39.42952 81.92767,35.03942 57.7444,28.90607 33.77289,31.48595 c -5.81398,0.65011 -7.25167,7.36026 -6.95974,12.27462 -4.20653,-7.69407 3.51944,-16.83585 12.04219,-15.21768 29.86506,0.0722 59.14953,7.13 88.33655,12.67661 z" />
  <path
     id="path5238"
     fill="#0f6eaf"
     d="m 174.62506,65.60284 c 0.53954,3.62549 -0.20087,7.22792 -1.48492,10.63195 -0.27535,-3.62308 0.36078,-7.20488 1.48492,-10.63195 z" />
  <path
     id="path5252"
     fill="#106eae"
     d="m 85.0719,20.57346 c 2.89336,0.0886 5.75895,0.5652 8.42543,1.74673 -2.91873,0.0354 -5.78798,-0.45493 -8.42543,-1.74673 z" />
  <path
     id="path5254"
     fill="#1da3c3"
     d="m 105.43155,39.42952 c 14.83792,2.61997 34.51372,3.46048 41.91602,18.81932 4.6073,20.19993 -13.6516,34.86526 -22.0878,51.13719 -2.65999,0.42724 -5.34159,0.6919 -7.94204,1.39601 1.62204,-1.86944 3.12916,-3.83987 4.58799,-5.82663 11.93731,-12.27602 26.4555,-28.66227 21.9153,-47.21842 -6.83215,-14.70635 -25.46904,-12.92632 -38.38947,-18.30747 z" />
  <path
     id="path5272"
     fill="#1fabc3"
     d="m 105.43155,39.42952 c 12.92043,5.38115 31.55732,3.60112 38.38947,18.30747 4.5402,18.55615 -9.97799,34.9424 -21.9153,47.21842 l 0.1711,-1.65636 C 131.89521,90.2731 147.51297,75.42236 141.44371,57.63462 136.51321,49.0145 125.67033,45.59492 116.27555,44.54715 89.76212,37.74976 62.60163,32.25311 35.12523,32.24363 c -0.34275,-0.18634 -1.00959,-0.57134 -1.35234,-0.75768 23.97151,-2.57988 48.15478,3.55347 71.65866,7.94357 z" />
  <path
     id="path5280"
     fill="#09529e"
     d="m 33.81112,15.09973 c 17.14483,0.98429 34.49306,1.41628 51.26078,5.47373 -1.79103,1.10215 -7.64821,1.42709 -4.21528,4.02108 -13.7669,-2.47503 -27.67408,-3.80709 -41.65969,-3.68331 -1.04683,-3.90683 -5.05096,-3.85148 -8.37119,-3.62067 0.99802,-0.72861 1.99237,-1.47088 2.98538,-2.19083 z" />
  <path
     id="path5292"
     fill="#23b1c7"
     d="m 116.27555,44.54715 c 9.39478,1.04777 20.23766,4.46735 25.16816,13.08747 6.06926,17.78774 -9.5485,32.63848 -19.36689,45.66443 -1.43863,1.35179 -3.69977,0.5082 -5.16439,1.84499 0.14376,-0.52899 0.43127,-1.58698 0.57003,-2.10731 0.80222,-1.0495 1.59579,-2.10399 2.39667,-3.13116 C 131.23311,89.6599 142.45138,75.62929 140.08524,59.36756 135.74037,49.8731 125.01959,48.00204 116.27555,44.54715 Z" />
  <path
     id="path5294"
     fill="#26b8c7"
     d="m 116.27555,44.54715 c 8.74404,3.45489 19.46482,5.32595 23.80969,14.82041 2.36614,16.26173 -8.85213,30.29234 -20.20611,40.53801 0.005,-0.38945 0.0214,-1.17701 0.0182,-1.57146 C 130.22395,87.88789 145.51616,70.101 133.9615,55.77426 105.28525,39.70299 70.1605,35.30084 37.54851,34.56645 c -2.41911,0.37002 -4.79197,0.93995 -6.90388,2.23788 1.44703,-1.56633 2.98298,-3.04668 4.48064,-4.5607 27.4764,0.009 54.63689,5.50613 81.15032,12.30352 z" />
  <path
     id="path5320"
     fill="#0f6cae"
     d="m 173.14014,76.23479 c 0.1437,5.89111 -1.66645,11.56637 -2.1204,17.41265 -5.51523,19.63266 -4.65931,40.23016 -3.54839,60.38599 -1.29904,10.66999 -12.54374,9.46639 -20.42589,7.99868 -16.38124,-3.10686 -33.12947,-4.57808 -49.26578,-8.92917 -8.22243,-4.15833 -18.17967,-5.91188 -23.54534,-14.29828 -1.88082,-7.70232 4.03892,-18.17561 13.2075,-15.07606 16.66257,6.77958 29.96109,24.74587 49.5775,22.76925 11.11423,-1.25041 15.26754,-12.52415 18.37405,-21.58478 -0.93272,11.13551 -8.8036,24.40828 -21.32426,24.2347 -17.85605,-1.15242 -30.24402,-17.19582 -46.74567,-21.95413 -9.63312,-2.67494 -13.66271,13.40451 -4.25164,16.64406 20.33157,12.90469 45.70801,11.25141 68.33894,16.97349 7.39483,2.27177 15.62603,-2.22509 13.89201,-10.58167 -1.68007,-24.93003 1.17369,-49.9329 7.83737,-73.99473 z" />
  <path
     id="path5326"
     fill="#2cc4ca"
     d="m 37.54847,34.56645 c 32.61199,0.73439 67.73674,5.13654 96.41299,21.20781 1.38671,4.73814 2.87921,9.95306 1.04435,14.77113 C 134.78029,66.316 133.9998,61.92785 131.20776,58.58381 104.64322,41.81494 71.66758,37.51043 40.73296,35.85076 39.45543,35.56351 38.19289,35.25028 36.91768,34.99901 Z" />
  <path
     id="path5332"
     fill="#2abece"
     d="m 133.96146,55.77426 c 11.55466,14.32674 -3.73755,32.11363 -14.06417,42.55985 -1.57638,0.81038 -3.19107,1.5871 -4.77611,2.39247 0.0228,-0.37944 0.0956,-1.14566 0.12342,-1.53377 0.16876,-0.5723 0.50261,-1.73055 0.67637,-2.3115 9.01737,-6.39856 15.27467,-16.07651 19.08484,-26.33592 1.83486,-4.81807 0.34236,-10.03299 -1.04435,-14.77113 z" />
  <path
     id="path5356"
     fill="#32cfce"
     d="m 40.73296,35.85076 c 30.93462,1.65967 63.91026,5.96418 90.4748,22.73305 2.4154,9.09639 -0.99003,18.43478 -6.99593,25.41731 2.24708,-5.19206 5.3243,-10.18197 5.90048,-15.89994 C 125.79118,51.0456 105.08328,50.23274 91.42734,44.56551 74.72603,41.19303 57.25052,35.64151 40.158,38.78661 c -2.56875,0.54921 -4.68611,2.23659 -6.46439,4.09666 0.39642,-4.06662 3.91096,-5.59398 7.03935,-7.03251 z" />
  <path
     id="path5368"
     fill="#30c8d2"
     d="m 131.20776,58.58381 c 2.79204,3.34404 3.57253,7.73219 3.79805,11.96158 -3.81017,10.25941 -10.06747,19.93736 -19.08484,26.33592 l -0.0994,-0.80792 c -0.0428,-0.40579 -0.13353,-1.2087 -0.18504,-1.61949 0.52768,-0.95397 1.07634,-1.88428 1.64598,-2.79092 2.2789,-2.58717 4.5911,-5.13201 6.92928,-7.66186 6.0059,-6.98253 9.41133,-16.32092 6.99593,-25.41731 z" />
  <path
     id="path5382"
     fill="#37d7d1"
     d="m 91.42734,44.56551 c 13.65594,5.66723 34.36384,6.48009 38.68497,23.53567 -1.60753,0.28432 -3.27389,0.13054 -4.8708,0.53647 C 121.24282,53.82359 102.4078,52.1868 90.58205,46.92959 75.52935,42.96164 59.14137,38.02646 43.6655,40.51145 c -0.36017,0.10382 -1.08916,0.30648 -1.44933,0.4103 -0.69138,-0.72248 -1.3791,-1.43131 -2.05817,-2.13514 17.09252,-3.1451 34.56803,2.40642 51.26934,5.7789 z" />
  <path
     id="path5412"
     fill="#3ddfd6"
     d="m 90.58205,46.92959 c 11.82575,5.25721 30.66077,6.894 34.65946,21.70806 -0.29245,6.06654 -4.08429,11.0942 -7.50292,15.87544 -1.0422,0.34515 -2.06708,0.70029 -3.09696,1.06409 0.40608,-0.94335 0.83814,-1.87169 1.27386,-2.78638 1.12823,-2.67415 1.92639,-5.59661 1.50022,-8.49847 -0.35575,-5.34381 -1.23887,-11.7542 -7.33421,-13.65676 C 90.92164,48.66141 66.78405,40.34895 44.02997,43.62017 c -0.0623,-1.0521 -0.17923,-2.08956 -0.36447,-3.10872 15.47587,-2.48499 31.86385,2.45019 46.91655,6.41814 z" />
  <path
     id="path5440"
     fill="#40dada"
     d="m 26.68581,13.86114 c 2.68222,-0.12574 5.373,0.0537 8.0645,0.0719 -0.23696,0.29043 -0.71089,0.87128 -0.93919,1.16671 -0.99301,0.71995 -1.98736,1.46222 -2.98538,2.19083 -0.95648,0.0367 -1.9043,0.0784 -2.85212,0.12002 -4.2041,-0.71828 -8.33414,0.31515 -11.87325,2.62507 -0.48614,0.26203 -1.46344,0.79475 -1.94959,1.05679 -3.0009,1.77771 -6.0884,3.50543 -8.82326,5.70233 -0.60827,-0.16643 -1.81616,-0.49431 -2.42444,-0.66074 1.71667,-1.95337 3.36907,-3.95539 5.07208,-5.9051 6.16864,-2.3044 12.39255,-4.48453 18.71065,-6.36779 z" />
  <path
     id="path5442"
     fill="#37d4d7"
     d="m 125.24151,68.63765 c 1.59691,-0.40593 3.26327,-0.25215 4.8708,-0.53647 -0.57618,5.71797 -3.6534,10.70788 -5.90048,15.89994 -2.33818,2.52985 -4.65038,5.07469 -6.92928,7.66186 -1.00184,0.19523 -2.00868,0.39913 -3.01186,0.61669 -0.17239,-0.56141 -0.52083,-1.69789 -0.68822,-2.26796 1.37516,-1.86186 2.75765,-3.6964 4.15612,-5.49862 3.41863,-4.78124 7.21047,-9.8089 7.50292,-15.87544 z" />
  <path
     id="path5454"
     fill="#1788be"
     d="m 171.01974,93.64744 c -1.79986,20.35745 -5.88295,41.20956 -0.48345,61.49736 -1.51388,4.32211 -2.29107,11.44824 -8.61088,10.37448 -18.55375,1.21604 -37.00675,-3.20242 -55.23301,-6.17362 -0.5256,-0.34964 -1.56813,-1.04392 -2.09373,-1.39356 l -0.0434,-0.84488 c 17.58145,3.48803 35.42166,6.24789 53.32271,7.32236 5.82438,1.19188 12.73906,-4.5847 9.59334,-10.39615 -1.11092,-20.15583 -1.96684,-40.75333 3.54839,-60.38599 z" />
  <path
     id="path5462"
     fill="#064596"
     d="m 30.82574,17.29056 c 3.32023,-0.23081 7.32436,-0.28616 8.37119,3.62067 -8.23586,1.36494 -16.82562,1.98284 -24.4346,5.74198 -3.33078,0.92908 -4.40921,4.11697 -5.50619,7.017 -1.90875,-0.59394 -3.76982,-1.31048 -5.61589,-2.05299 2.77847,-4.19245 6.59473,-7.46241 10.51053,-10.52478 0.48615,-0.26204 1.46345,-0.79476 1.94959,-1.05679 3.98504,-0.78229 7.9674,-1.51994 11.87325,-2.62507 0.94782,-0.0417 1.89564,-0.0833 2.85212,-0.12002 z" />
  <path
     id="path5466"
     fill="#43e7d8"
     d="m 44.02997,43.62017 c 22.75408,-3.27122 46.89167,5.04124 66.05153,17.0154 6.09534,1.90256 6.97846,8.31295 7.33421,13.65676 -3.37025,-2.74255 -7.0038,-5.12906 -10.62869,-7.51057 C 91.6151,56.44031 74.01785,45.07964 54.83785,47.10037 c -9.67777,1.5024 -12.72362,12.53796 -14.38767,20.78018 -4.62042,30.1028 -12.55588,59.82742 -12.83122,90.46431 -0.19783,7.10266 1.02335,15.86752 9.44227,17.12552 -2.72195,0.41456 -5.48274,0.35638 -8.22888,0.35283 -1.028,-3.39944 -1.99637,-6.82218 -3.24928,-10.13208 -0.4787,-1.13086 -1.06937,-2.18779 -1.61905,-3.25571 -0.0949,-1.25567 -0.11414,-2.50231 -0.0441,-3.7436 0.14698,-1.25459 0.40923,-2.48882 0.64782,-3.70207 1.59899,-13.12953 3.8243,-26.24387 4.60743,-39.44029 1.71923,-4.7578 2.27682,-9.64358 2.58791,-14.60239 0.18823,-1.04603 0.37512,-2.06973 0.57067,-3.08844 5.89339,-17.64764 2.57924,-37.44737 11.69623,-54.23846 z" />
  <path
     id="path5468"
     fill="#0d65aa"
     d="m 163.41438,91.3003 c -0.2342,8.30565 -3.30069,16.17696 -3.99862,24.44581 -2.38052,15.10318 -8.3794,31.37356 -23.41841,37.70189 0.24755,5.13123 11.40223,3.43075 15.41341,7.36319 -22.63093,-5.72208 -48.00737,-4.0688 -68.33894,-16.97349 -9.41107,-3.23955 -5.38148,-19.319 4.25164,-16.64406 16.50165,4.75831 28.88962,20.80171 46.74567,21.95413 12.52066,0.17358 20.39154,-13.09919 21.32426,-24.2347 2.77238,-11.18191 4.1683,-22.71972 8.02099,-33.61277 m -67.21366,42.57747 c -5.41502,-5.1009 -16.77382,-2.68688 -12.54294,5.94501 9.59431,9.44217 26.25632,13.84274 38.79719,12.2613 -6.09609,-7.86125 -17.8799,-11.95109 -26.25425,-18.20631 z" />
  <path
     id="path5480"
     fill="#53f0af"
     d="m 7.97516,20.22893 c 5.07499,-4.61014 11.9777,-6.30599 18.71065,-6.36779 -6.3181,1.88326 -12.54201,4.06339 -18.71065,6.36779 z" />
  <path
     id="path5526"
     fill="#48ede0"
     d="m 54.83785,47.10037 c 19.18,-2.02073 36.77725,9.33994 51.94917,19.68139 0.53954,3.6255 0.65097,7.2925 0.12242,10.94796 -0.9436,-0.62562 -1.99123,-1.01107 -3.0769,-1.21064 -0.8827,-1.49113 -1.77406,-2.98725 -2.948,-4.25392 -12.40587,-14.2524 -44.359,-32.30795 -55.83277,-7.97481 -7.58347,32.29497 -15.87212,65.29132 -15.16622,98.68867 2.06392,16.44519 21.01079,6.88824 31.83048,5.768 13.05625,0.5059 26.88234,-0.84158 39.22717,4.27654 -17.13973,-1.29312 -34.63869,-4.36402 -51.65401,0.10737 -4.0853,0.73595 -8.11838,1.72144 -12.22796,2.33945 -8.41892,-1.258 -9.6401,-10.02286 -9.44227,-17.12552 0.27534,-30.63689 8.2108,-60.36151 12.83122,-90.46431 1.66405,-8.24222 4.7099,-19.27778 14.38767,-20.78018 z" />
  <path
     id="path5538"
     fill="#43e4e1"
     d="m 106.78702,66.78176 c 3.62489,2.38151 7.25844,4.76802 10.62869,7.51057 0.42617,2.90186 -0.37199,5.82432 -1.50022,8.49847 -2.30253,1.4881 -4.82184,2.63166 -7.3065,3.79522 -0.55834,-1.07292 -1.11803,-2.12352 -1.68771,-3.15679 -0.54976,-1.8878 0.10249,-3.79753 -0.0118,-5.69951 0.52855,-3.65546 0.41712,-7.32246 -0.12242,-10.94796 z" />
  <path
     id="path5582"
     fill="#4df1ea"
     d="M 45.05177,64.29035 C 56.52554,39.95721 88.47867,58.01276 100.88454,72.26516 86.18323,65.42858 68.68367,49.67871 52.66594,64.10223 39.72442,94.3776 32.37393,128.38902 32.98332,161.45352 c 3.66045,13.05992 19.33549,3.44995 28.73271,7.2935 -10.81969,1.12024 -29.76656,10.67719 -31.83048,-5.768 -0.7059,-33.39735 7.58275,-66.3937 15.16622,-98.68867 z" />
  <path
     id="path5598"
     fill="#1eabbc"
     d="m 26.81315,43.76057 c -0.29193,-4.91436 1.14576,-11.62451 6.95974,-12.27462 0.34275,0.18634 1.00959,0.57134 1.35234,0.75768 -1.49766,1.51402 -3.03361,2.99437 -4.48064,4.5607 -2.14341,8.09249 -0.41742,16.58299 0.75931,24.74484 -0.31204,3.78046 -0.56114,7.63191 0.26187,11.38642 -0.419,3.84573 -0.76506,7.74512 -0.93121,11.63291 -0.2617,0.55328 -0.79742,1.64117 -1.05412,2.18578 -0.43483,-14.32685 1.14134,-29.01685 -2.86729,-42.99371 z" />
  <path
     id="path5600"
     fill="#2cc8c3"
     d="m 36.91768,34.99901 c 1.27521,0.25127 2.53775,0.5645 3.81528,0.85175 -3.12839,1.43853 -6.64293,2.96589 -7.03935,7.03251 -1.43525,9.50592 1.44334,19.32006 -1.41507,28.65096 -0.15535,0.34909 -0.45741,1.05227 -0.61277,1.40136 -0.82301,-3.75451 -0.57391,-7.60596 -0.26187,-11.38642 1.80245,-8.68194 -3.29056,-20.6406 5.51378,-26.55016 z" />
  <path
     id="path5610"
     fill="#157bb6"
     d="m 5.32752,26.79477 c 2.73486,-2.1969 5.82236,-3.92462 8.82326,-5.70233 -3.9158,3.06237 -7.73206,6.33233 -10.51053,10.52478 0.61983,-1.59358 1.14306,-3.21985 1.68727,-4.82245 z" />
  <path
     id="path5612"
     fill="#26bec0"
     d="m 30.64459,36.80433 c 2.11191,-1.29793 4.48477,-1.86786 6.90388,-2.23788 l -0.63079,0.43256 C 28.11334,40.90857 33.20635,52.86723 31.4039,61.54917 30.22717,53.38732 28.50118,44.89682 30.64459,36.80433 Z" />
  <path
     id="path5620"
     fill="#4beeee"
     d="m 52.66594,64.10223 c 16.01773,-14.42352 33.51729,1.32635 48.2186,8.16293 1.17394,1.26667 2.0653,2.76279 2.948,4.25392 -14.14246,7.21545 -30.86588,-20.71873 -45.68916,-7.68405 -16.376,25.24406 -20.04166,56.53317 -22.74161,85.98962 -1.3392,10.21956 8.73247,13.57493 16.79407,11.23181 24.13097,-2.17605 47.93276,2.99804 71.52895,7.26823 5.39225,1.30034 12.25157,-0.12034 15.56389,5.60255 -12.8908,-1.17248 -25.60559,-3.70982 -38.34548,-5.90368 -12.34483,-5.11812 -26.17092,-3.77064 -39.22717,-4.27654 -9.39722,-3.84355 -25.07226,5.76642 -28.73271,-7.2935 -0.60939,-33.0645 6.7411,-67.07592 19.68262,-97.35129 z" />
  <path
     id="path5626"
     fill="#49e8b0"
     d="M 2.31773,23.04789 C 4.2183,22.136 6.11521,21.21046 7.97516,20.22893 6.27215,22.17864 4.61975,24.18066 2.90308,26.13403 1.91729,27.18146 0.9315,28.2289 0,29.34232 0.65833,27.18206 1.42924,25.0868 2.31773,23.04789 Z" />
  <path
     id="path5628"
     fill="#33d2c7"
     d="m 40.158,38.78661 c 0.67907,0.70383 1.36679,1.41266 2.05817,2.13514 -7.72366,1.93779 -6.07359,11.31977 -6.76879,17.30389 0.40084,13.32573 -1.94472,26.42837 -3.11364,39.63299 -0.19555,1.01871 -0.38244,2.04241 -0.57067,3.08844 -1.62228,4.70986 -2.24451,9.6276 -2.58791,14.60239 -3.72569,12.73307 -4.69614,26.21394 -4.60743,39.44029 -0.23859,1.21325 -0.50084,2.44748 -0.64782,3.70207 -0.46048,-1.88244 -1.39174,-3.60944 -1.67597,-5.51714 1.592,-12.11743 2.05602,-24.40112 4.89993,-36.32692 -0.55043,0.21337 -1.65495,0.62645 -2.20538,0.83982 l -0.78524,0.0201 c 0.24287,-1.06066 0.51673,-2.11499 0.7979,-3.142 1.34912,-2.69673 1.97603,-5.60258 1.65817,-8.59203 1.11091,-2.68415 1.58988,-5.51376 1.44888,-8.38954 1.31905,-3.46465 1.91589,-7.13842 1.62224,-10.8298 0.2567,-0.54461 0.79242,-1.6325 1.05412,-2.18578 1.97117,-3.95417 4.5244,-9.0965 1.54398,-13.03427 2.85841,-9.3309 -0.0202,-19.14504 1.41507,-28.65096 1.77828,-1.86007 3.89564,-3.54745 6.46439,-4.09666 z" />
  <path
     id="path5630"
     fill="#3de2ce"
     d="m 43.6655,40.51145 c 0.18524,1.01916 0.30217,2.05662 0.36447,3.10872 -9.11699,16.79109 -5.80284,36.59082 -11.69623,54.23846 1.16892,-13.20462 3.51448,-26.30726 3.11364,-39.63299 0.6952,-5.98412 -0.95487,-15.3661 6.76879,-17.30389 0.36017,-0.10382 1.08916,-0.30648 1.44933,-0.4103 z" />
  <path
     id="path5632"
     fill="#47e6ee"
     d="m 103.83254,76.51908 c 1.08567,0.19957 2.1333,0.58502 3.0769,1.21064 0.11433,1.90198 -0.53792,3.81171 0.0118,5.69951 -16.54906,7.0038 -31.84669,-22.73992 -47.3138,-9.1301 -15.38691,24.29091 -22.56242,54.93925 -21.31197,83.59341 -0.26927,7.54639 8.61057,7.24607 13.90033,8.16392 -8.0616,2.34312 -18.13327,-1.01225 -16.79407,-11.23181 2.69995,-29.45645 6.36561,-60.74556 22.74161,-85.98962 14.82328,-13.03468 31.5467,14.8995 45.68916,7.68405 z" />
  <path
     id="path5634"
     fill="#3edae7"
     d="m 115.91549,82.7908 c -0.43572,0.91469 -0.86778,1.84303 -1.27386,2.78638 -16.71264,19.50714 -38.56291,-19.74707 -54.34127,-1.69815 -10.89485,16.33044 -16.98006,35.83032 -18.36322,55.36603 -0.68489,3.94626 -1.71726,7.93438 -1.58397,11.98351 -0.52608,5.3312 2.55843,9.84868 7.373,12.18959 -3.87566,0.45284 -6.41995,-2.54031 -8.88846,-5.00474 0.23222,-27.08222 6.20976,-54.71562 20.09823,-78.15115 16.07065,-17.39519 32.39924,15.92288 49.67305,6.32375 2.48466,-1.16356 5.00397,-2.30712 7.3065,-3.79522 z" />
  <path
     id="path5644"
     fill="#3bd5e4"
     d="m 114.64163,85.57718 c 1.02988,-0.3638 2.05476,-0.71894 3.09696,-1.06409 -1.39847,1.80222 -2.78096,3.63676 -4.15612,5.49862 C 96.4807,103.31284 81.74416,75.41727 64.5441,84.60865 48.91565,98.51792 47.06005,120.25192 41.93714,139.24506 c 1.38316,-19.53571 7.46837,-39.03559 18.36322,-55.36603 15.77836,-18.04892 37.62863,21.20529 54.34127,1.69815 z" />
  <path
     id="path5650"
     fill="#0e66af"
     d="m 9.25614,33.67021 c 1.09698,-2.90003 2.17541,-6.08792 5.50619,-7.017 -1.47768,2.59942 -3.57354,4.74955 -5.50619,7.017 z" />
  <path
     id="path5652"
     fill="#1379b6"
     d="m 156.85987,108.39304 c -1.69934,13.38336 -4.40757,30.21414 -18.16752,36.20707 -19.71918,2.49463 -33.75983,-14.82626 -49.88293,-22.98023 -11.71993,-5.90048 -23.6534,14.14889 -13.65916,22.07836 6.60177,4.8854 14.72478,7.41593 22.62942,9.4047 16.13631,4.35109 32.88454,5.82231 49.26578,8.92917 7.88215,1.46771 19.12685,2.67131 20.42589,-7.99868 3.14572,5.81145 -3.76896,11.58803 -9.59334,10.39615 -17.90105,-1.07447 -35.74126,-3.83433 -53.32271,-7.32236 -11.8311,-5.16792 -26.52336,-5.9602 -35.1258,-16.70032 -3.85909,-9.67587 4.62536,-23.69136 15.50143,-22.98926 18.41589,6.90273 33.36504,29.39004 55.30178,24.43449 12.38849,-6.3575 11.88914,-22.0726 16.62716,-33.45909 z" />
  <path
     id="path5666"
     fill="#1d97c6"
     d="m 138.87063,98.71132 c 6.17297,3.96811 -2.68311,8.12729 -4.25977,12.89814 -3.97181,4.21938 -1.14695,13.28658 -8.26062,14.16781 -16.59952,0.23122 -27.99173,-15.75689 -44.12623,-17.45112 -18.57854,3.71898 -31.04772,36.27623 -8.34237,43.66941 -31.34985,-6.46047 -3.20465,-59.98938 21.1352,-41.38724 8.54368,3.88191 24.17395,15.46949 29.16657,1.78203 5.54379,-3.76214 10.91153,-8.09934 14.68722,-13.67903 z" />
  <path
     id="path5684"
     fill="#42e0eb"
     d="m 106.92128,83.42923 c 0.56968,1.03327 1.12937,2.08387 1.68771,3.15679 C 91.33518,96.18515 75.00659,62.86708 58.93594,80.26227 45.04747,103.6978 39.06993,131.3312 38.83771,158.41342 l -0.5422,-0.52088 c -1.25045,-28.65416 5.92506,-59.3025 21.31197,-83.59341 15.46711,-13.60982 30.76474,16.1339 47.3138,9.1301 z" />
  <path
     id="path5706"
     fill="#28b4c6"
     d="m 2.90308,26.13403 c 0.60828,0.16643 1.81617,0.49431 2.42444,0.66074 -0.54421,1.6026 -1.06744,3.22887 -1.68727,4.82245 l -0.4833,0.7371 C 2.09353,31.33621 1.02377,30.34909 0,29.34232 0.9315,28.2289 1.91729,27.18146 2.90308,26.13403 Z" />
  <path
     id="path5708"
     fill="#34c9df"
     d="m 114.27069,92.27967 c 1.00318,-0.21756 2.01002,-0.42146 3.01186,-0.61669 -0.56964,0.90664 -1.1183,1.83695 -1.64598,2.79092 -15.82885,12.39637 -32.38747,-11.04325 -48.12206,-1.71015 -15.11785,14.28489 -21.62354,36.01307 -21.80498,56.42734 -1.16856,8.94399 9.61268,10.33035 16.0323,11.83124 l -0.2934,0.70818 C 50.45286,162.77539 39.40642,155.20838 43.77823,143.0562 47.0115,123.076 51.3582,99.8473 68.26935,86.73633 c 15.62661,-4.02609 30.72321,16.82584 46.00134,5.54334 z" />
  <path
     id="path5710"
     fill="#0c5fa6"
     d="m 159.41576,115.74611 c 0.63553,14.93924 -7.34347,27.69926 -15.96829,38.9779 6.8637,5.67172 20.64481,7.46214 21.8553,-4.49449 1.73402,8.35658 -6.49718,12.85344 -13.89201,10.58167 -4.01118,-3.93244 -15.16586,-2.23196 -15.41341,-7.36319 15.03901,-6.32833 21.03789,-22.59871 23.41841,-37.70189 z" />
  <path
     id="path5720"
     fill="#38d0e2"
     d="m 113.58247,90.01171 c 0.16739,0.57007 0.51583,1.70655 0.68822,2.26796 C 98.99256,103.56217 83.89596,82.71024 68.26935,86.73633 51.3582,99.8473 47.0115,123.076 43.77823,143.0562 c -4.37181,12.15218 6.67463,19.71919 17.6702,18.65431 -8.49132,2.18739 -19.24109,-0.69345 -21.09526,-10.48194 -0.13329,-4.04913 0.89908,-8.03725 1.58397,-11.98351 5.12291,-18.99314 6.97851,-40.72714 22.60696,-54.63641 17.20006,-9.19138 31.9366,18.70419 49.03837,5.40306 z" />
  <path
     id="path5740"
     fill="#0c75ab"
     d="m 3.64025,31.61722 c 1.84607,0.74251 3.70714,1.45905 5.61589,2.05299 -0.005,0.52838 -0.006,1.59012 -0.002,2.12349 0.0355,0.37847 0.11024,1.14906 0.15443,1.53253 L 8.74441,36.89659 c -1.6617,-1.20186 -3.71678,-1.52234 -5.67125,-1.87711 0.0179,-0.67095 0.0573,-1.9992 0.0838,-2.66516 z" />
  <path
     id="path5742"
     fill="#28b3cf"
     d="m 11.31407,34.46577 c 4.56269,3.47719 6.4882,8.94211 8.07828,14.24801 C 18.848,48.67658 17.75063,48.59731 17.20628,48.56016 14.8795,44.63026 12.4571,40.72599 9.40855,37.32623 9.36435,36.94276 9.28965,36.17217 9.25412,35.7937 c 0.51249,-0.32765 1.54247,-0.99162 2.05995,-1.32793 z" />
  <path
     id="path5744"
     fill="#30c4db"
     d="m 67.51451,92.74375 c 15.73459,-9.3331 32.29321,14.10652 48.12206,1.71015 0.0515,0.41079 0.1422,1.2137 0.18504,1.61949 -14.52406,11.85643 -31.87867,-10.26452 -46.73419,-0.574 -14.66151,13.47449 -22.1866,34.04832 -21.1595,53.80934 2.83528,9.78914 14.96597,9.51818 23.33884,9.97594 10.95061,0.95298 21.57708,3.94739 32.49064,5.14456 21.73627,4.13168 43.86842,7.93766 66.07044,5.80263 1.72564,0.2111 3.44459,0.53381 5.17487,0.81687 -2.76401,0.66741 -5.52705,1.39312 -8.32498,1.87929 -35.61524,2.1274 -69.60555,-10.79966 -104.9359,-11.92569 -6.41962,-1.50089 -17.20086,-2.88725 -16.0323,-11.83124 0.18144,-20.41427 6.68713,-42.14245 21.80498,-56.42734 z" />
  <path
     id="path5754"
     fill="#2ebed9"
     d="m 115.82161,96.07339 0.0994,0.80792 c -0.17376,0.58095 -0.50761,1.7392 -0.67637,2.3115 -14.59686,9.26251 -29.30083,-10.06947 -43.89358,-1.17409 -14.6995,11.42028 -23.77309,32.11621 -20.69141,50.63858 2.32361,9.65538 13.78303,7.20708 20.60715,10.62737 -8.37287,-0.45776 -20.50356,-0.1868 -23.33884,-9.97594 -1.0271,-19.76102 6.49799,-40.33485 21.1595,-53.80934 14.85552,-9.69052 32.21013,12.43043 46.73419,0.574 z" />
  <path
     id="path5756"
     fill="#29b2d4"
     d="m 115.12118,100.72658 c 1.58504,-0.80537 3.19973,-1.58209 4.77611,-2.39247 0.003,0.39445 -0.0127,1.18201 -0.0182,1.57146 -0.80088,1.02717 -1.59445,2.08166 -2.39667,3.13116 -14.32361,11.12922 -29.22093,-9.90787 -43.61217,-0.86151 -13.02185,9.5945 -22.24089,26.74235 -18.93631,43.11865 4.04909,9.34677 15.69719,9.65167 23.85491,13.02208 -10.30626,-1.08903 -26.33246,-2.87085 -26.86195,-15.99373 0.36502,-17.35224 9.11427,-38.46638 26.66112,-44.47841 12.49221,-1.51716 24.44043,12.44792 36.53312,2.88277 z" />
  <path
     id="path5774"
     fill="#108580"
     d="m 8.74439,36.89659 0.66416,0.42964 c 3.04855,3.39976 5.47095,7.30403 7.79773,11.23393 -0.0731,0.54667 -0.20574,1.63636 -0.27388,2.17437 -3.15718,-4.35159 -5.60662,-9.14905 -8.18801,-13.83794 z" />
  <path
     id="path5778"
     fill="#2cb8d7"
     d="m 71.35102,98.01872 c 14.59275,-8.89538 29.29672,10.4366 43.89358,1.17409 -0.0278,0.38811 -0.10065,1.15433 -0.12342,1.53377 -12.09269,9.56515 -24.04091,-4.39993 -36.53312,-2.88277 -17.54685,6.01203 -26.2961,27.12617 -26.66112,44.47841 0.52949,13.12288 16.55569,14.9047 26.86195,15.99373 1.0737,0.10029 2.14241,0.20924 3.21977,0.32319 7.18699,2.15178 14.78721,2.86781 21.74874,5.79009 -10.91356,-1.19717 -21.54003,-4.19158 -32.49064,-5.14456 -6.82412,-3.42029 -18.28354,-0.97199 -20.60715,-10.62737 -3.08168,-18.52237 5.99191,-39.2183 20.69141,-50.63858 z" />
  <path
     id="path5780"
     fill="#23a6cd"
     d="m 116.91243,105.14404 c 1.46462,-1.33679 3.72576,-0.4932 5.16439,-1.84499 l -0.1711,1.65636 c -1.45883,1.98676 -2.96595,3.95719 -4.58799,5.82663 -14.02882,8.15864 -26.80909,-12.5453 -41.07824,-5.01039 -11.63694,7.49577 -19.67668,21.64101 -18.02243,35.65575 3.58763,11.58605 17.505,12.30045 27.30473,14.88682 24.68514,5.68409 49.88044,11.00455 75.31666,10.96773 6.94809,1.20556 12.58918,-5.74511 9.69784,-12.13715 0.0897,-0.37543 0.28653,-1.11629 0.38493,-1.48672 2.79986,4.93049 5.94881,14.19636 -3.14557,14.48828 -28.90202,2.31978 -57.61849,-4.72185 -85.79438,-10.31978 -8.81705,-4.32842 -23.10988,-4.01251 -25.73164,-15.79148 -2.95176,-19.56741 17.0902,-49.9811 39.26542,-36.06971 6.43869,3.34787 16.09789,5.73764 21.39738,-0.82135 z" />
  <path
     id="path5796"
     fill="#084d9a"
     d="m 160.97696,126.98204 c 3.32586,7.13943 2.05071,16.06807 1.79268,23.87498 0.28466,6.82697 -12.56753,7.84761 -12.2581,0.75165 3.46871,-8.22798 7.80515,-16.05891 10.46542,-24.62663 z" />
  <path
     id="path5806"
     fill="#27acd1"
     d="m 73.87029,102.17522 c 14.39124,-9.04636 29.28856,11.99073 43.61217,0.86151 -0.13876,0.52033 -0.42627,1.57832 -0.57003,2.10731 -5.29949,6.55899 -14.95869,4.16922 -21.39738,0.82135 -22.17522,-13.91139 -42.21718,16.5023 -39.26542,36.06971 2.62176,11.77897 16.91459,11.46306 25.73164,15.79148 l 0.0274,0.81256 c -1.07736,-0.11395 -2.14607,-0.2229 -3.21977,-0.32319 -8.15772,-3.37041 -19.80582,-3.67531 -23.85491,-13.02208 -3.30458,-16.3763 5.91446,-33.52415 18.93631,-43.11865 z" />
  <path
     id="path5822"
     fill="#20a3c3"
     d="m 19.39235,48.71378 c 14.1862,43.40877 -14.48608,87.73063 -1.14146,131.27706 -0.003,2.5849 4.69244,10.27247 -0.67639,7.61155 C 1.27774,148.5292 24.33813,107.38744 19.99306,67.29332 19.92526,61.63077 18.70337,56.08713 16.9324,50.73453 c 0.0681,-0.53801 0.20075,-1.6277 0.27388,-2.17437 0.54435,0.0371 1.64172,0.11646 2.18607,0.15362 z" />
  <path
     id="path5824"
     fill="#209ec9"
     d="m 117.31773,110.78204 c 2.60045,-0.70411 5.28205,-0.96877 7.94204,-1.39601 -0.37277,0.98566 -0.72457,1.99499 -1.07636,3.00432 -4.99262,13.68746 -20.62289,2.09988 -29.16657,-1.78203 -24.33985,-18.60214 -52.48505,34.92677 -21.1352,41.38724 3.84973,1.47208 7.72177,2.9455 11.64015,4.31866 -9.79973,-2.58637 -23.7171,-3.30077 -27.30473,-14.88682 -1.65425,-14.01474 6.38549,-28.15998 18.02243,-35.65575 14.26915,-7.53491 27.04942,13.16903 41.07824,5.01039 z" />
  <path
     id="path5926"
     fill="#28b4d3"
     d="m 171.64876,150.71795 c 2.74569,7.62431 13.29225,18.81714 -1.82092,19.51391 -22.20202,2.13503 -44.33417,-1.67095 -66.07044,-5.80263 -6.96153,-2.92228 -14.56175,-3.63831 -21.74874,-5.79009 l -0.0274,-0.81256 c 28.17589,5.59793 56.89236,12.63956 85.79438,10.31978 9.09438,-0.29192 5.94543,-9.55779 3.14557,-14.48828 0.23885,-0.9937 0.48136,-1.97375 0.72754,-2.94013 z" />
  <path
     id="path5942"
     fill="#2ac5c3"
     d="m 32.27854,71.53423 c 2.98042,3.93777 0.42719,9.0801 -1.54398,13.03427 0.16615,-3.88779 0.51221,-7.78718 0.93121,-11.63291 0.15536,-0.34909 0.45742,-1.05227 0.61277,-1.40136 z" />
  <path
     id="path5948"
     fill="#074d9f"
     d="m 198.14731,167.5411 c 3.01769,1.9732 2.16025,4.83834 -1.01598,5.87974 -2.21763,1.64105 -4.37,3.38905 -6.59263,5.03876 0.34599,-0.53926 1.02063,-1.62777 1.36661,-2.16703 2.66298,-2.49243 5.12982,-5.22512 6.242,-8.75147 z" />
  <path
     id="path5956"
     fill="#3cdfc8"
     d="m 191.47975,166.28966 c 5.61049,0.20235 4.93283,4.47609 1.73922,7.74759 -5.79922,-0.71547 -10.05142,5.18956 -15.60105,6.36179 -14.53456,6.1346 -30.6478,0.50356 -45.46994,2.69626 -11.21942,-2.1474 -22.71144,-2.96264 -33.75334,-5.9775 -18.16401,-3.85902 -38.76787,-6.03208 -55.86614,2.58298 -0.33043,-0.16768 -1.00494,-0.49937 -1.33537,-0.66705 3.14169,-1.36157 5.08865,-4.61381 8.09606,-5.9028 17.01532,-4.47139 34.51428,-1.40049 51.65401,-0.10737 12.73989,2.19386 25.45468,4.7312 38.34548,5.90368 16.28488,0.23376 41.20665,4.588 49.7867,-12.51309 0.60667,-0.0308 1.80636,-0.0887 2.40437,-0.12449 z" />
  <path
     id="path5970"
     fill="#1d98c6"
     d="m 170.53629,155.1448 c 2.89134,6.39204 -2.74975,13.34271 -9.69784,12.13715 -25.43622,0.0368 -50.63152,-5.28364 -75.31666,-10.96773 -3.91838,-1.37316 -7.79042,-2.84658 -11.64015,-4.31866 l 0.0723,-0.90514 c 10.87406,2.82558 21.52916,6.91039 32.73851,8.25524 18.22626,2.9712 36.67926,7.38966 55.23301,6.17362 6.31981,1.07376 7.097,-6.05237 8.61088,-10.37448 z" />
  <path
     id="path5994"
     fill="#2099bf"
     d="m 177.61792,180.39904 c 5.54963,-1.17223 9.80183,-7.07726 15.60105,-6.36179 -0.325,0.56291 -0.98866,1.69241 -1.31366,2.25532 -0.34598,0.53926 -1.02062,1.62777 -1.36661,2.16703 -3.12001,2.34403 -6.83142,3.79237 -10.66717,4.47609 -3.13791,-0.045 -6.21102,0.39779 -9.08584,1.71713 -12.30645,2.97541 -24.90879,1.92328 -37.2954,0.33753 -0.33899,-0.47285 -1.00332,-1.4222 -1.34231,-1.89505 14.82214,-2.1927 30.93538,3.43834 45.46994,-2.69626 z" />
  <path
     id="path6058"
     fill="#1da9bc"
     d="m 29.68044,86.75428 c 0.29365,3.69138 -0.30319,7.36515 -1.62224,10.8298 -0.32829,-3.71138 0.31686,-7.3688 1.62224,-10.8298 z" />
  <path
     id="path6110"
     fill="#37d2e1"
     d="m 61.74183,161.00233 c 35.33035,1.12603 69.32066,14.05309 104.9359,11.92569 -33.83173,5.77827 -66.48482,-9.12492 -100.08776,-9.32292 -1.66715,-0.81241 -3.26197,-1.71009 -5.14154,-1.89459 z" />
  <path
     id="path6118"
     fill="#0c5ea5"
     d="m 96.20072,133.87777 c 8.37435,6.25522 20.15816,10.34506 26.25425,18.20631 -12.54087,1.58144 -29.20288,-2.81913 -38.79719,-12.2613 -4.23088,-8.63189 7.12792,-11.04591 12.54294,-5.94501 z" />
  <path
     id="path6120"
     fill="#116daf"
     d="m 170.78569,184.65282 c 2.87482,-1.31934 5.94793,-1.76211 9.08584,-1.71713 -2.9816,0.78428 -6.05934,1.15508 -9.08584,1.71713 z" />
  <path
     id="path6154"
     fill="#1ea9bc"
     d="m 28.0582,97.58408 c 0.141,2.87578 -0.33797,5.70539 -1.44888,8.38954 -0.17564,-2.89578 0.30833,-5.73405 1.44888,-8.38954 z" />
  <path
     id="path6162"
     fill="#3de0cf"
     d="m 31.76307,100.94707 c -0.31109,4.95881 -0.86868,9.84459 -2.58791,14.60239 0.3434,-4.97479 0.96563,-9.89253 2.58791,-14.60239 z" />
  <path
     id="path6226"
     fill="#1eabbc"
     d="m 26.60932,105.97362 c 0.31786,2.98945 -0.30905,5.8953 -1.65817,8.59203 0.15819,-2.93398 0.63752,-5.84421 1.65817,-8.59203 z" />
  <path
     id="path6272"
     fill="#3ce1cf"
     d="m 29.17516,115.54946 c -0.78313,13.19642 -3.00844,26.31076 -4.60743,39.44029 -0.0887,-13.22635 0.88174,-26.70722 4.60743,-39.44029 z" />
  <path
     id="path6290"
     fill="#2bc6c3"
     d="m 24.93849,117.68758 c 0.55043,-0.21337 1.65495,-0.62645 2.20538,-0.83982 -2.84391,11.9258 -3.30793,24.20949 -4.89993,36.32692 -1.26146,-11.97509 1.91618,-23.63893 2.69455,-35.4871 z" />
  <path
     id="path6304"
     fill="#1facbc"
     d="m 24.15325,117.70765 0.78524,-0.0201 c -0.77837,11.84817 -3.95601,23.51201 -2.69455,35.4871 -0.1035,4.85927 -0.0521,9.75023 0.4584,14.60603 -0.0847,0.36677 -0.26288,1.09531 -0.35627,1.45708 -4.30391,-16.74541 -1.09827,-34.69775 1.80718,-51.53014 z" />
  <path
     id="path6330"
     fill="#1372b1"
     d="m 98.39464,177.1178 c 11.0419,3.01486 22.53392,3.8301 33.75334,5.9775 0.33899,0.47285 1.00332,1.4222 1.34231,1.89505 -2.54722,-0.10809 -5.06068,-0.55465 -7.56048,-1.00487 -9.92607,-2.34755 -20.07233,-3.71371 -30.15859,-5.18379 0.87204,-0.57041 1.74407,-1.14081 2.62342,-1.68389 z" />
  <path
     id="path6438"
     fill="#24a6c2"
     d="m 42.5285,179.70078 c 17.09827,-8.61506 37.70213,-6.442 55.86614,-2.58298 -0.87935,0.54308 -1.75138,1.11348 -2.62342,1.68389 -5.56575,-0.49984 -11.07506,-1.41743 -16.63983,-1.85897 -2.57355,-0.0425 -5.15247,0.004 -7.71406,0.0612 -4.71054,0.47889 -9.31271,1.69007 -14.04253,2.04236 -4.02927,-1.5411 -8.17574,-0.1592 -11.07641,2.7849 -3.026,2.12119 -6.28975,3.87417 -9.55216,5.60483 l 0.16386,-0.8638 0.835,-1.44627 c 1.57105,-1.84114 3.11612,-3.69728 4.78341,-5.42512 z" />
  <path
     id="path6466"
     fill="#3ad8e3"
     d="m 61.44843,161.71051 c 1.87957,0.1845 3.47439,1.08218 5.14154,1.89459 -6.28797,0.41109 -12.59174,0.18953 -18.8638,-0.18694 -4.81457,-2.34091 -7.89908,-6.85839 -7.373,-12.18959 1.85417,9.78849 12.60394,12.66933 21.09526,10.48194 z" />
  <path
     id="path6506"
     fill="#1272b2"
     d="m 71.41733,177.00388 c 2.56159,-0.0568 5.14051,-0.10363 7.71406,-0.0612 -2.57489,-0.0202 -5.15113,-0.018 -7.71406,0.0612 z" />
  <path
     id="path6570"
     fill="#2bc5c3"
     d="m 22.24394,153.17468 c 0.28423,1.9077 1.21549,3.6347 1.67597,5.51714 -0.07,1.24129 -0.0508,2.48793 0.0441,3.7436 -0.30941,1.7959 -0.81836,3.55743 -1.26168,5.34529 -0.5105,-4.8558 -0.5619,-9.74676 -0.4584,-14.60603 z" />
  <path
     id="path6614"
     fill="#42e8c7"
     d="m 37.06123,175.47038 c 4.10958,-0.61801 8.14266,-1.6035 12.22796,-2.33945 -3.00741,1.28899 -4.95437,4.54123 -8.09606,5.9028 -3.93016,2.10723 -9.23587,7.27699 -12.40552,1.26698 -0.0218,-1.50217 0.0183,-2.99166 0.0447,-4.4775 2.74614,0.004 5.50693,0.0617 8.22888,-0.35283 z" />
  <path
     id="path6616"
     fill="#0e61a8"
     d="m 46.29839,181.83114 c 2.90067,-2.9441 7.04714,-4.326 11.07641,-2.7849 -3.59774,1.27147 -7.33725,2.0685 -11.07641,2.7849 z" />
  <path
     id="path6654"
     fill="#30cfc7"
     d="m 23.96402,162.43542 c 0.54968,1.06792 1.14035,2.12485 1.61905,3.25571 0.16253,2.21849 -0.29259,4.42678 -0.5245,6.64847 -0.13304,0.35043 -0.38546,1.04763 -0.50484,1.3944 -0.73877,-1.5004 -1.47755,-3.00081 -2.20766,-4.49621 0.0934,-0.36177 0.27153,-1.09031 0.35627,-1.45708 0.44332,-1.78786 0.95227,-3.54939 1.26168,-5.34529 z" />
  <path
     id="path6682"
     fill="#3ce1cc"
     d="m 25.58307,165.69113 c 1.25291,3.3099 2.22128,6.73264 3.24928,10.13208 -0.0265,1.48584 -0.0666,2.97533 -0.0447,4.4775 -1.39372,-2.606 -2.54522,-5.29154 -3.72904,-7.96111 0.23191,-2.22169 0.68703,-4.42998 0.5245,-6.64847 z" />
  <path
     id="path6712"
     fill="#34d4c7"
     d="m 41.19313,179.03373 c 0.33043,0.16768 1.00494,0.49937 1.33537,0.66705 -1.66729,1.72784 -3.21236,3.58398 -4.78341,5.42512 -3.73523,0.94961 -7.63453,0.30339 -10.65506,-2.14489 -1.83576,-2.78038 -2.09023,-6.07962 -2.5363,-9.24701 0.11938,-0.34677 0.3718,-1.04397 0.50484,-1.3944 1.18382,2.66957 2.33532,5.35511 3.72904,7.96111 3.16965,6.01001 8.47536,0.84025 12.40552,-1.26698 z" />
  <path
     id="path6728"
     fill="#1eacba"
     d="m 22.34607,169.23779 c 0.73011,1.4954 1.46889,2.99581 2.20766,4.49621 0.44607,3.16739 0.70054,6.46663 2.5363,9.24701 1.45721,1.99603 3.31398,3.68002 5.2694,5.21313 -8.56601,0.29676 -9.19318,-12.61694 -10.01336,-18.95635 z" />
  <path
     id="path6790"
     fill="#2ac1c5"
     d="m 27.09003,182.98101 c 3.02053,2.44828 6.91983,3.0945 10.65506,2.14489 l -0.835,1.44627 c -0.52383,0.36729 -1.57514,1.08822 -2.09397,1.44686 -0.61667,0.0481 -1.84502,0.13566 -2.45669,0.17511 -1.95542,-1.53311 -3.81219,-3.2171 -5.2694,-5.21313 z" />
</svg>
