<?xml version="1.0" encoding="UTF-8"?>
<svg viewBox="0 0 1020.8884 690.7486" xmlns="http://www.w3.org/2000/svg">
 <g transform="translate(-22.336 -17.298)">
  <g transform="translate(1204.8 72.652)">
   <path transform="scale(1,-1)" d="m-1182.4-463.44h1019v518.8h-1019z" fill="#82a0f5"/>
   <path d="m-1182.5 281.62 114.59 68.249 268.15-17.062 212.12-116.59 146.72 127.97 152.98 39.812 124.54-56.874v100.59h-1019.1v-146.09z" fill="#c8beb7"/>
   <path d="m-1182.5 301.62 234.87 54.03 359.99-88.155 257.62 96.686 166.62-17.062v100.59h-1019.1v-146.09z" fill="#ac9d93"/>
   <path d="m-1182.5 421.06h1019.1v214.34h-1019.1z" fill="#808000"/>
   <path d="m-684.46 458.4 44.785 2.0996 470.24 157.47-230.64-8.3982-284.38-151.17z" fill="#b3b3b3"/>
   <path d="m-1182.5 421.06h333.77l284.37 200.12-618.14 14.218v-214.34z" fill="#6b6d00"/>
   <path d="m-599.52 421.06h436.15l1.7835 131.87-437.93-131.87z" fill="#6b6d00"/>
  </g>
  <path d="m910.7 185.57c-68.899 10.532-78.258 46.224-62.195 86.628-53.662 7.4851-100.4 31.272-100.43 66.235 0.00394 0.52215 0.06179 1.0538 0.14581 1.5756-43.388-15.846-89.001-31.679-135.21-46.602-27.241-40.795-59.797-78.516-79.117-81.427-2.2581-0.32547-5.0868-0.62712-8.3982-0.87144-24.3-1.7929-74.09-0.85656-107.8 10.404-22.797-11.048-58.496-22.485-93.93-28.198-7.7598-1.1004-15.11-1.8725-22.047-2.3738-1.4695-0.10618-2.9337-0.20875-4.3654-0.29017-44.382-2.5241-70.515 6.683-73.509 16.536-51.379-2.1993-93.487 3.2464-121.13 19.133 10.06 17.504 74.574 46.109 101.14 54.422-2.9892 0.87233-5.5953 1.7521-7.882 2.6706-2.7835-0.06168-5.6033 0.50165-8.3291 1.8579-11.607 5.7754-3.3014 21.313 1.6047 31.927 3.6854 8.7834 9.1114 16.046 16.6 16.481 61.795 30.227 138.01 53.955 219 74.158 31.599 82.213 190.24 206.17 224.9 228.04 37.401 25.105 45.916-97.4 30.357-173.52 55.368 11.046 108.32 21.865 155.72 33.433 6.7657 1.3063 13.468-1.0262 19.678-5.8014l1.2411 0.64624c36.583 7.9989 60.198-65.864 28.988-86.487-1.1439-4.4434-2.9893-8.2855-5.6106-11.241 10.552-2.5637 25.267-11.784 39.551-23.961 21.075 20.861 41.376 37.434 53.461 45.239 67.722-19.816-13.027-212.24-62.443-228.61z" fill="#ff0" fill-rule="evenodd" stroke="#040404" stroke-linecap="round" stroke-linejoin="round" stroke-width="15"/>
  <path d="m412.12 299.27c46.814 41.458 198.79 90.842 239.39 99.153 41.345 11.166-73.161-179.76-117.61-186.46-36.13-5.2075-220.56-2.5025-121.78 87.304z" fill="#ff0" fill-rule="evenodd" stroke="#000" stroke-linecap="round" stroke-linejoin="round" stroke-width="4"/>
  <path d="m872.93 387.89c34.642 13.526-0.16398 115.03-37.101 107.9-189.59-46.273-467.89-80.672-635.33-164.75 5.6462-14.589-46.254-35.809 3.3424-50.283-26.57-8.3132-91.074-36.918-101.13-54.422 122.53-70.419 528.85 64.147 770.22 161.56z" fill="#f00" fill-rule="evenodd" stroke="#000" stroke-linecap="round" stroke-linejoin="round" stroke-width="4"/>
  <path d="m323.76 193.32c59.223 9.5484 119.26 35.05 118.39 48.087-1.6739 11.112-53.259 13.295-112.48 3.7464-60.216-8.6791-108.7-24.996-106.03-36.977 1.7358-12.043 38.049-23.659 100.13-14.856z" fill="#9ff" fill-rule="evenodd" stroke="#000" stroke-linecap="round" stroke-linejoin="round" stroke-width="4"/>
  <path d="m213.54 331.9c9.0614-9.6857 7.0106-21.045 3.0976-32.529s-17.385-19.861-28.993-14.086-3.286 21.293 1.6202 31.907c4.8442 11.545 12.668 20.483 24.275 14.708z" fill="#333" fill-rule="evenodd" stroke="#000" stroke-linecap="round" stroke-linejoin="round" stroke-width="4"/>
  <path d="m427.9 357.37c26.377-30.981 182.33 28.955 225.85 49.618 44.327 22.587 47.043 263.13-3.9907 228.88-43.087-27.181-277.71-212.06-221.85-278.5z" fill="#ff0" fill-rule="evenodd" stroke="#000" stroke-linecap="round" stroke-linejoin="round" stroke-width="4"/>
  <path d="m748.08 338.44c0.19112 25.265 95.794 50.326 124.47 55.038 29.612 4.7742 134.5-95.811 75.898-114.67-75.987-24.692-200.32 2.5839-200.37 59.633z" fill="#ff0" fill-rule="evenodd" stroke="#000" stroke-linecap="round" stroke-linejoin="round" stroke-width="4"/>
  <path d="m910.7 185.58c49.416 16.379 130.15 208.8 62.431 228.62-48.426-31.277-228.73-203.2-62.431-228.62z" fill="#f00" fill-rule="evenodd" stroke="#000" stroke-linecap="round" stroke-linejoin="round" stroke-width="4"/>
  <path d="m884.98 403.66c32.346 19.92 8.6471 95.038-28.228 86.975-189.85-98.666-54.71-105.58 28.228-86.975z" fill="#666" fill-rule="evenodd" stroke="#000" stroke-linecap="round" stroke-linejoin="round" stroke-width="4"/>
  <path d="m281.17 196.65c18.937 0.71336 38.702 6.947 38.898 11.525-0.12597 3.9437-16.243 6.979-35.18 6.2656-19.217-0.36684-35.026-3.911-34.62-8.2012 0.11193-4.2707 11.095-9.9174 30.901-9.5896z" fill="#fffeff" fill-rule="evenodd"/>
 </g>
</svg>
