<?xml version="1.0" encoding="utf-8"?>
<!-- Generator: Moho 12.4 build 22203 -->
<!DOCTYPE svg PUBLIC "-//W3C//DTD SVG 1.1//EN" "http://www.w3.org/Graphics/SVG/1.1/DTD/svg11.dtd">
<svg version="1.1" id="Frame_0" xmlns="http://www.w3.org/2000/svg" xmlns:xlink="http://www.w3.org/1999/xlink" width="1280px" height="720px">
<g id="Layer_6">
<g id="Layer_2">
<clipPath id="b4b1ceb3-8685-4516-83dd-516eaec9ea44">
<path fill="#af692b" fill-rule="evenodd" stroke="none" d="M 450.977 339.207 C 453.951 350.930 464.809 363.823 470.064 374.716 C 473.406 381.645 475.840 391.953 480.272 398.241 C 482.009 400.704 486.128 402.600 487.374 405.343 C 490.350 411.889 486.921 422.136 487.374 429.312 C 487.840 436.680 490.268 446.345 490.481 453.725 C 490.825 465.608 489.095 481.466 487.374 493.229 C 485.796 504.022 484.799 519.106 479.766 528.783 C 476.824 534.441 470.936 541.063 465.733 544.751 C 460.686 548.329 450.984 548.109 446.620 552.493 C 444.420 554.703 442.051 558.819 442.265 561.929 C 442.561 566.248 446.663 571.763 450.491 573.785 C 457.369 577.418 468.962 574.679 476.379 572.333 C 479.323 571.402 482.978 569.251 485.331 567.252 C 490.464 562.891 495.224 555.005 498.880 549.348 C 504.027 541.384 509.395 529.880 513.880 521.524 C 515.554 518.406 518.582 514.554 519.445 511.121 C 520.879 505.418 518.351 497.373 518.961 491.524 C 519.697 484.467 523.244 475.517 524.526 468.539 C 526.460 458.006 527.492 443.727 528.832 433.102 C 529.903 424.606 532.107 413.351 532.523 404.798 C 532.769 399.757 531.760 393.014 532.113 387.980 C 532.753 378.878 537.740 367.155 537.446 358.036 C 536.933 342.135 532.573 319.964 523.556 306.857 C 517.769 298.445 506.357 289.206 496.665 285.993 C 489.404 283.586 478.456 283.677 471.165 285.993 C 464.030 288.260 456.885 296.054 450.765 300.366 C 450.765 300.366 450.765 300.366 450.765 300.366 C 450.829 300.567 448.112 327.912 450.977 339.207 Z"/>
<path fill="#af692b" fill-rule="evenodd" stroke="none" d="M 683.365 326.496 C 679.954 338.624 682.901 356.052 685.114 368.454 C 687.503 381.843 691.705 400.163 699.100 411.577 C 701.385 415.105 705.811 418.753 709.007 421.484 C 718.262 429.393 732.293 437.752 742.223 444.794 C 752.750 452.259 767.787 461.012 777.188 469.852 C 783.156 475.464 791.285 483.371 794.670 490.831 C 798.543 499.364 799.284 512.346 799.332 521.717 C 799.355 526.154 799.837 532.592 797.561 536.401 C 795.364 540.078 789.704 542.664 785.914 544.660 C 783.211 546.084 778.805 546.393 776.385 548.260 C 772.981 550.886 768.748 555.839 768.338 560.119 C 768.026 563.383 769.913 568.101 772.362 570.283 C 778.327 575.599 790.691 575.709 798.620 574.730 C 804.358 574.022 812.281 571.367 816.409 567.319 C 823.273 560.586 825.991 546.851 828.055 537.460 C 831.279 522.801 828.293 502.346 830.385 487.484 C 830.976 483.288 834.566 477.754 833.388 473.685 C 832.125 469.319 825.950 466.124 822.675 462.971 C 817.090 457.594 808.923 451.157 803.684 445.441 C 798.688 439.991 791.619 432.705 788.588 425.962 C 786.508 421.337 783.932 414.321 785.179 409.406 C 786.656 403.584 795.586 399.653 798.327 394.310 C 803.308 384.600 805.857 369.574 805.581 358.665 C 805.294 347.289 800.595 332.388 796.077 321.943 C 792.194 312.965 786.643 300.134 778.796 294.294 C 767.246 285.698 746.535 283.031 732.138 283.061 C 725.249 283.075 716.412 286.388 709.672 287.813 C 709.672 287.813 709.672 287.813 709.672 287.813 C 709.473 287.880 687.166 312.986 683.365 326.496 Z"/>
</clipPath>
<path fill="#af692b" fill-rule="evenodd" stroke="#af692b" stroke-width="1" stroke-opacity="0.000000" stroke-linecap="round" stroke-linejoin="round" d="M 450.977 339.207 C 453.951 350.930 464.809 363.823 470.064 374.716 C 473.406 381.645 475.840 391.953 480.272 398.241 C 482.009 400.704 486.128 402.600 487.374 405.343 C 490.350 411.889 486.921 422.136 487.374 429.312 C 487.840 436.680 490.268 446.345 490.481 453.725 C 490.825 465.608 489.095 481.466 487.374 493.229 C 485.796 504.022 484.799 519.106 479.766 528.783 C 476.824 534.441 470.936 541.063 465.733 544.751 C 460.686 548.329 450.984 548.109 446.620 552.493 C 444.420 554.703 442.051 558.819 442.265 561.929 C 442.561 566.248 446.663 571.763 450.491 573.785 C 457.369 577.418 468.962 574.679 476.379 572.333 C 479.323 571.402 482.978 569.251 485.331 567.252 C 490.464 562.891 495.224 555.005 498.880 549.348 C 504.027 541.384 509.395 529.880 513.880 521.524 C 515.554 518.406 518.582 514.554 519.445 511.121 C 520.879 505.418 518.351 497.373 518.961 491.524 C 519.697 484.467 523.244 475.517 524.526 468.539 C 526.460 458.006 527.492 443.727 528.832 433.102 C 529.903 424.606 532.107 413.351 532.523 404.798 C 532.769 399.757 531.760 393.014 532.113 387.980 C 532.753 378.878 537.740 367.155 537.446 358.036 C 536.933 342.135 532.573 319.964 523.556 306.857 C 517.769 298.445 506.357 289.206 496.665 285.993 C 489.404 283.586 478.456 283.677 471.165 285.993 C 464.030 288.260 456.885 296.054 450.765 300.366 C 450.765 300.366 450.765 300.366 450.765 300.366 C 450.829 300.567 448.112 327.912 450.977 339.207 Z"/>
<path fill="#af692b" fill-rule="evenodd" stroke="#af692b" stroke-width="1" stroke-opacity="0.000000" stroke-linecap="round" stroke-linejoin="round" d="M 683.365 326.496 C 679.954 338.624 682.901 356.052 685.114 368.454 C 687.503 381.843 691.705 400.163 699.100 411.577 C 701.385 415.105 705.811 418.753 709.007 421.484 C 718.262 429.393 732.293 437.752 742.223 444.794 C 752.750 452.259 767.787 461.012 777.188 469.852 C 783.156 475.464 791.285 483.371 794.670 490.831 C 798.543 499.364 799.284 512.346 799.332 521.717 C 799.355 526.154 799.837 532.592 797.561 536.401 C 795.364 540.078 789.704 542.664 785.914 544.660 C 783.211 546.084 778.805 546.393 776.385 548.260 C 772.981 550.886 768.748 555.839 768.338 560.119 C 768.026 563.383 769.913 568.101 772.362 570.283 C 778.327 575.599 790.691 575.709 798.620 574.730 C 804.358 574.022 812.281 571.367 816.409 567.319 C 823.273 560.586 825.991 546.851 828.055 537.460 C 831.279 522.801 828.293 502.346 830.385 487.484 C 830.976 483.288 834.566 477.754 833.388 473.685 C 832.125 469.319 825.950 466.124 822.675 462.971 C 817.090 457.594 808.923 451.157 803.684 445.441 C 798.688 439.991 791.619 432.705 788.588 425.962 C 786.508 421.337 783.932 414.321 785.179 409.406 C 786.656 403.584 795.586 399.653 798.327 394.310 C 803.308 384.600 805.857 369.574 805.581 358.665 C 805.294 347.289 800.595 332.388 796.077 321.943 C 792.194 312.965 786.643 300.134 778.796 294.294 C 767.246 285.698 746.535 283.031 732.138 283.061 C 725.249 283.075 716.412 286.388 709.672 287.813 C 709.672 287.813 709.672 287.813 709.672 287.813 C 709.473 287.880 687.166 312.986 683.365 326.496 Z"/>
<path fill="#2f2621" fill-rule="evenodd" stroke="none" d="M 492.736 392.752 C 492.736 392.752 492.736 392.752 492.736 392.752 C 491.189 389.204 490.152 383.817 487.580 380.924 C 482.617 375.341 472.151 372.813 465.539 369.337 C 465.539 369.337 465.539 369.337 465.539 369.337 C 468.886 378.308 472.005 390.894 476.697 399.241 C 478.665 402.742 483.204 406.237 484.731 409.952 C 487.851 417.543 487.112 428.976 487.408 437.178 C 488.076 455.655 490.095 480.946 485.177 498.770 C 481.464 512.224 472.690 529.499 463.307 539.831 C 457.813 545.881 444.048 547.874 440.991 555.453 C 440.188 557.443 440.822 560.537 441.438 562.594 C 442.748 566.972 445.553 573.185 449.471 575.537 C 456.704 579.879 469.586 578.202 477.590 575.537 C 484.856 573.117 493.114 566.158 498.120 560.362 C 509.981 546.630 523.190 524.012 524.453 505.911 C 524.672 502.767 522.273 498.797 522.221 495.646 C 522.070 486.379 527.325 474.626 529.128 465.535 C 532.070 450.703 537.065 430.919 537.316 415.800 C 537.608 398.175 546.383 362.406 529.431 357.573 C 527.083 356.904 523.365 359.094 522.152 361.212 C 520.004 364.964 525.020 371.207 524.275 375.466 C 522.814 383.827 509.720 399.725 509.719 399.727 C 504.806 394.632 493.344 382.746 493.342 382.744 C 493.160 385.746 492.736 392.751 492.736 392.752 C 492.736 392.752 492.736 392.752 492.736 392.752 Z" clip-path="url(#b4b1ceb3-8685-4516-83dd-516eaec9ea44)"/>
<path fill="none" stroke="#af692b" stroke-width="1" stroke-opacity="0.000000" stroke-linecap="round" stroke-linejoin="round" d="M 509.719 399.727 C 509.719 399.727 509.719 399.727 509.719 399.727 C 509.720 399.725 522.814 383.827 524.275 375.466 C 525.020 371.207 520.004 364.964 522.152 361.212 C 523.365 359.094 527.083 356.904 529.431 357.573 C 546.383 362.406 537.608 398.175 537.316 415.800 C 537.065 430.919 532.070 450.703 529.128 465.535 C 527.325 474.626 522.070 486.379 522.221 495.646 C 522.273 498.797 524.672 502.767 524.453 505.911 C 523.190 524.012 509.981 546.630 498.120 560.362 C 493.114 566.158 484.856 573.117 477.590 575.537 C 469.586 578.202 456.704 579.879 449.471 575.537 C 445.553 573.185 442.748 566.972 441.438 562.594 C 440.822 560.537 440.188 557.443 440.991 555.453 C 444.048 547.874 457.813 545.881 463.307 539.831 C 472.690 529.499 481.464 512.224 485.177 498.770 C 490.095 480.946 488.076 455.655 487.408 437.178 C 487.112 428.976 487.851 417.543 484.731 409.952 C 483.204 406.237 478.665 402.742 476.697 399.241 C 472.005 390.894 468.886 378.308 465.539 369.337 C 472.151 372.813 482.617 375.341 487.580 380.924 C 490.152 383.817 491.189 389.204 492.736 392.752 C 492.736 392.752 492.736 392.752 492.736 392.752 C 492.736 392.751 493.160 385.746 493.342 382.744 C 493.342 382.744 493.342 382.744 493.342 382.744 C 493.344 382.746 504.806 394.632 509.719 399.727 M 465.539 369.337 C 465.539 369.337 465.539 369.337 465.539 369.337 M 492.736 392.752 C 492.736 392.752 492.736 392.752 492.736 392.752 " clip-path="url(#b4b1ceb3-8685-4516-83dd-516eaec9ea44)"/>
<path fill="#2f2621" fill-rule="evenodd" stroke="none" d="M 802.496 434.671 C 797.380 427.586 788.662 409.038 788.660 409.035 C 776.294 410.296 754.830 403.244 747.438 413.238 C 743.181 418.995 754.655 431.969 749.568 437.007 C 741.479 445.019 711.440 417.238 712.566 428.568 C 712.755 430.470 715.997 431.421 717.523 432.574 C 724.666 437.976 734.877 444.225 742.068 449.561 C 755.797 459.748 776.378 471.450 786.529 485.206 C 790.931 491.172 795.091 500.540 796.494 507.820 C 798.107 516.182 800.389 529.322 795.344 536.183 C 792.447 540.124 784.568 540.143 780.396 542.698 C 776.078 545.343 769.437 548.809 767.365 553.430 C 766.001 556.473 766.341 561.372 767.365 564.545 C 768.502 568.069 771.455 572.634 774.647 574.510 C 780.608 578.014 790.879 577.471 797.644 576.044 C 807.009 574.068 819.660 568.199 825.623 560.712 C 832.765 551.746 834.004 535.159 835.456 523.787 C 836.601 514.826 835.704 502.705 835.456 493.675 C 835.212 484.754 838.356 471.661 833.829 463.970 C 831.612 460.203 825.328 458.290 822.028 455.424 C 815.573 449.819 807.500 441.604 802.496 434.671 Z" clip-path="url(#b4b1ceb3-8685-4516-83dd-516eaec9ea44)"/>
<path fill="none" stroke="#af692b" stroke-width="1" stroke-opacity="0.000000" stroke-linecap="round" stroke-linejoin="round" d="M 802.496 434.671 C 797.380 427.586 788.662 409.038 788.660 409.035 C 776.294 410.296 754.830 403.244 747.438 413.238 C 743.181 418.995 754.655 431.969 749.568 437.007 C 741.479 445.019 711.440 417.238 712.566 428.568 C 712.755 430.470 715.997 431.421 717.523 432.574 C 724.666 437.976 734.877 444.225 742.068 449.561 C 755.797 459.748 776.378 471.450 786.529 485.206 C 790.931 491.172 795.091 500.540 796.494 507.820 C 798.107 516.182 800.389 529.322 795.344 536.183 C 792.447 540.124 784.568 540.143 780.396 542.698 C 776.078 545.343 769.437 548.809 767.365 553.430 C 766.001 556.473 766.341 561.372 767.365 564.545 C 768.502 568.069 771.455 572.634 774.647 574.510 C 780.608 578.014 790.879 577.471 797.644 576.044 C 807.009 574.068 819.660 568.199 825.623 560.712 C 832.765 551.746 834.004 535.159 835.456 523.787 C 836.601 514.826 835.704 502.705 835.456 493.675 C 835.212 484.754 838.356 471.661 833.829 463.970 C 831.612 460.203 825.328 458.290 822.028 455.424 C 815.573 449.819 807.500 441.604 802.496 434.671 M 788.660 409.035 C 788.660 409.035 788.660 409.035 788.660 409.035 " clip-path="url(#b4b1ceb3-8685-4516-83dd-516eaec9ea44)"/>
</g>
<g id="Layer_5">
<clipPath id="39558967-c7f4-4b3a-9d75-fc5fc3453d21">
<path fill="#af692b" fill-rule="evenodd" stroke="none" d="M 1049.676 495.418 C 1049.676 495.418 1049.676 495.418 1049.676 495.418 C 1043.706 493.179 1035.513 490.734 1029.773 487.954 C 1023.303 484.820 1015.438 479.239 1009.287 475.516 C 999.417 469.542 985.847 462.212 976.355 455.653 C 970.472 451.587 962.676 445.991 957.537 441.017 C 950.973 434.663 944.004 424.546 938.197 417.494 C 929.172 406.536 917.085 391.969 908.083 380.992 C 899.030 369.955 888.299 354.012 878.012 344.114 C 869.084 335.522 856.250 324.566 845.105 319.150 C 838.292 315.838 828.088 314.364 820.795 312.313 C 820.795 312.313 820.795 312.313 820.795 312.313 C 816.467 316.343 806.367 325.746 806.366 325.747 C 806.665 332.017 806.689 340.405 807.361 346.645 C 808.124 353.721 809.602 363.130 811.342 370.031 C 814.239 381.520 819.123 396.680 824.278 407.348 C 832.024 423.378 844.701 443.881 856.620 457.105 C 870.199 472.170 891.562 489.678 909.362 499.398 C 930.326 510.845 961.795 518.587 984.993 524.277 C 993.240 526.300 1004.475 530.616 1012.856 529.252 C 1020.899 527.944 1030.828 521.924 1036.740 516.315 C 1042.089 511.241 1049.675 495.420 1049.676 495.418 C 1049.676 495.418 1049.676 495.418 1049.676 495.418 Z"/>
</clipPath>
<path fill="#af692b" fill-rule="evenodd" stroke="none" d="M 1049.676 495.418 C 1049.676 495.418 1049.676 495.418 1049.676 495.418 C 1043.706 493.179 1035.513 490.734 1029.773 487.954 C 1023.303 484.820 1015.438 479.239 1009.287 475.516 C 999.417 469.542 985.847 462.212 976.355 455.653 C 970.472 451.587 962.676 445.991 957.537 441.017 C 950.973 434.663 944.004 424.546 938.197 417.494 C 929.172 406.536 917.085 391.969 908.083 380.992 C 899.030 369.955 888.299 354.012 878.012 344.114 C 869.084 335.522 856.250 324.566 845.105 319.150 C 838.292 315.838 828.088 314.364 820.795 312.313 C 820.795 312.313 820.795 312.313 820.795 312.313 C 816.467 316.343 806.367 325.746 806.366 325.747 C 806.665 332.017 806.689 340.405 807.361 346.645 C 808.124 353.721 809.602 363.130 811.342 370.031 C 814.239 381.520 819.123 396.680 824.278 407.348 C 832.024 423.378 844.701 443.881 856.620 457.105 C 870.199 472.170 891.562 489.678 909.362 499.398 C 930.326 510.845 961.795 518.587 984.993 524.277 C 993.240 526.300 1004.475 530.616 1012.856 529.252 C 1020.899 527.944 1030.828 521.924 1036.740 516.315 C 1042.089 511.241 1049.675 495.420 1049.676 495.418 C 1049.676 495.418 1049.676 495.418 1049.676 495.418 Z"/>
<path fill="none" stroke="#96561c" stroke-width="1" stroke-linecap="round" stroke-linejoin="round" d="M 806.366 325.747 C 806.366 325.747 806.366 325.747 806.366 325.747 C 806.367 325.746 816.467 316.343 820.795 312.313 C 828.088 314.364 838.292 315.838 845.105 319.150 C 856.250 324.566 869.084 335.522 878.012 344.114 C 888.299 354.012 899.030 369.955 908.083 380.992 C 917.085 391.969 929.172 406.536 938.197 417.494 C 944.004 424.546 950.973 434.663 957.537 441.017 C 962.676 445.991 970.472 451.587 976.355 455.653 C 985.847 462.212 999.417 469.542 1009.287 475.516 C 1015.438 479.239 1023.303 484.820 1029.773 487.954 C 1035.513 490.734 1043.706 493.179 1049.676 495.418 C 1049.676 495.418 1049.676 495.418 1049.676 495.418 C 1049.675 495.420 1042.089 511.241 1036.740 516.315 C 1030.828 521.924 1020.899 527.944 1012.856 529.252 C 1004.475 530.616 993.240 526.300 984.993 524.277 C 961.795 518.587 930.326 510.845 909.362 499.398 C 891.562 489.678 870.199 472.170 856.620 457.105 C 844.701 443.881 832.024 423.378 824.278 407.348 C 819.123 396.680 814.239 381.520 811.342 370.031 C 809.602 363.130 808.124 353.721 807.361 346.645 C 806.689 340.405 806.665 332.017 806.366 325.747 M 820.795 312.313 C 820.795 312.313 820.795 312.313 820.795 312.313 M 1049.676 495.418 C 1049.676 495.418 1049.676 495.418 1049.676 495.418 "/>
<path fill="#ca8548" fill-rule="evenodd" stroke="none" d="M 1054.164 505.068 C 1054.164 505.068 1054.164 505.068 1054.164 505.068 C 1051.802 504.393 1048.575 503.720 1046.291 502.818 C 1033.014 497.577 1017.005 486.948 1004.674 479.760 C 989.624 470.988 968.202 460.965 955.183 449.391 C 943.427 438.940 932.269 420.717 922.565 408.336 C 912.696 395.747 900.548 378.136 889.946 366.157 C 878.165 352.846 862.935 333.809 847.767 324.540 C 839.206 319.309 825.721 316.667 816.273 313.293 C 816.273 313.293 816.273 313.293 816.273 313.293 C 815.767 311.437 814.586 307.107 814.586 307.106 C 825.890 309.300 841.867 309.473 852.266 314.417 C 869.539 322.629 887.136 342.507 900.069 356.597 C 916.477 374.470 931.450 403.973 947.872 421.834 C 955.393 430.013 966.674 439.738 975.430 446.579 C 992.022 459.544 1017.631 472.037 1033.918 485.384 C 1040.470 490.753 1054.162 505.066 1054.164 505.068 C 1054.164 505.068 1054.164 505.068 1054.164 505.068 Z" clip-path="url(#39558967-c7f4-4b3a-9d75-fc5fc3453d21)"/>
<path fill="none" stroke="#af692b" stroke-width="1" stroke-opacity="0.000000" stroke-linecap="round" stroke-linejoin="round" d="M 814.586 307.106 C 814.586 307.106 814.586 307.106 814.586 307.106 C 814.586 307.107 815.767 311.437 816.273 313.293 C 825.721 316.667 839.206 319.309 847.767 324.540 C 862.935 333.809 878.165 352.846 889.946 366.157 C 900.548 378.136 912.696 395.747 922.565 408.336 C 932.269 420.717 943.427 438.940 955.183 449.391 C 968.202 460.965 989.624 470.988 1004.674 479.760 C 1017.005 486.948 1033.014 497.577 1046.291 502.818 C 1048.575 503.720 1051.802 504.393 1054.164 505.068 C 1054.164 505.068 1054.164 505.068 1054.164 505.068 C 1054.162 505.066 1040.470 490.753 1033.918 485.384 C 1017.631 472.037 992.022 459.544 975.430 446.579 C 966.674 439.738 955.393 430.013 947.872 421.834 C 931.450 403.973 916.477 374.470 900.069 356.597 C 887.136 342.507 869.539 322.629 852.266 314.417 C 841.867 309.473 825.890 309.300 814.586 307.106 M 816.273 313.293 C 816.273 313.293 816.273 313.293 816.273 313.293 M 1054.164 505.068 C 1054.164 505.068 1054.164 505.068 1054.164 505.068 " clip-path="url(#39558967-c7f4-4b3a-9d75-fc5fc3453d21)"/>
<path fill="#bec1c8" fill-rule="evenodd" stroke="none" d="M 1037.497 486.670 C 1043.337 490.080 1057.836 496.388 1057.838 496.389 C 1055.261 501.609 1053.097 509.422 1049.250 513.792 C 1041.388 522.719 1026.936 531.672 1015.348 534.359 C 1004.942 536.772 979.867 531.421 979.864 531.420 C 989.153 519.012 1005.461 504.602 1010.827 490.060 C 1012.930 484.363 1009.116 474.539 1013.087 469.945 C 1013.187 469.830 1013.388 469.725 1013.540 469.719 C 1022.337 469.377 1029.894 482.231 1037.497 486.670 Z" clip-path="url(#39558967-c7f4-4b3a-9d75-fc5fc3453d21)"/>
<path fill="none" stroke="#af692b" stroke-width="1" stroke-opacity="0.000000" stroke-linecap="round" stroke-linejoin="round" d="M 1037.497 486.670 C 1043.337 490.080 1057.836 496.388 1057.838 496.389 C 1057.838 496.389 1057.838 496.389 1057.838 496.389 C 1055.261 501.609 1053.097 509.422 1049.250 513.792 C 1041.388 522.719 1026.936 531.672 1015.348 534.359 C 1004.942 536.772 979.867 531.421 979.864 531.420 C 989.153 519.012 1005.461 504.602 1010.827 490.060 C 1012.930 484.363 1009.116 474.539 1013.087 469.945 C 1013.187 469.830 1013.388 469.725 1013.540 469.719 C 1022.337 469.377 1029.894 482.231 1037.497 486.670 M 979.864 531.420 C 979.864 531.420 979.864 531.420 979.864 531.420 " clip-path="url(#39558967-c7f4-4b3a-9d75-fc5fc3453d21)"/>
<path fill="#aaaaaa" d="M 1005.118 507.822 C 1014.409 507.823 1023.867 505.619 1033.248 505.500 L 1033.257 506.216 C 1023.944 506.330 1014.424 507.965 1005.118 507.965 L 1005.118 507.822 Z" clip-path="url(#39558967-c7f4-4b3a-9d75-fc5fc3453d21)"/>
<path fill="#aaaaaa" d="M 1033.248 505.500 C 1034.602 505.483 1041.335 505.603 1041.288 503.424 L 1041.431 503.424 C 1041.383 505.738 1034.619 506.199 1033.257 506.216 L 1033.248 505.500 Z" clip-path="url(#39558967-c7f4-4b3a-9d75-fc5fc3453d21)"/>
<path fill="none" stroke="#aaaaaa" stroke-width="1" stroke-linecap="butt" stroke-linejoin="round" d="M 1033.248 505.500 L 1033.257 506.216 " clip-path="url(#39558967-c7f4-4b3a-9d75-fc5fc3453d21)"/>
<path fill="#aaaaaa" d="M 995.320 521.932 C 1001.235 518.589 1007.290 515.081 1013.691 512.678 L 1013.942 513.348 C 1007.583 515.734 1001.304 518.715 995.390 522.057 L 995.320 521.932 Z" clip-path="url(#39558967-c7f4-4b3a-9d75-fc5fc3453d21)"/>
<path fill="none" stroke="#aaaaaa" stroke-width="1" stroke-linecap="butt" stroke-linejoin="round" d="M 995.320 521.932 L 995.390 522.057 " clip-path="url(#39558967-c7f4-4b3a-9d75-fc5fc3453d21)"/>
<path fill="#aaaaaa" d="M 1013.691 512.678 C 1020.169 510.247 1026.935 508.945 1033.865 508.945 L 1033.865 509.088 C 1026.952 509.087 1020.378 510.932 1013.942 513.348 L 1013.691 512.678 Z" clip-path="url(#39558967-c7f4-4b3a-9d75-fc5fc3453d21)"/>
<path fill="none" stroke="#aaaaaa" stroke-width="1" stroke-linecap="butt" stroke-linejoin="round" d="M 1013.691 512.678 L 1013.942 513.348 " clip-path="url(#39558967-c7f4-4b3a-9d75-fc5fc3453d21)"/>
<path fill="#aaaaaa" d="M 1015.405 486.200 C 1019.333 490.128 1023.318 493.239 1027.535 495.569 L 1027.188 496.195 C 1022.906 493.823 1019.236 490.232 1015.304 486.301 L 1015.405 486.200 Z" clip-path="url(#39558967-c7f4-4b3a-9d75-fc5fc3453d21)"/>
<path fill="none" stroke="#aaaaaa" stroke-width="1" stroke-linecap="butt" stroke-linejoin="round" d="M 1015.405 486.200 L 1015.304 486.301 " clip-path="url(#39558967-c7f4-4b3a-9d75-fc5fc3453d21)"/>
<path fill="#aaaaaa" d="M 1027.535 495.569 C 1031.814 497.938 1036.423 499.584 1042.163 499.583 L 1042.163 499.726 C 1036.404 499.726 1031.539 498.599 1027.188 496.195 L 1027.535 495.569 Z" clip-path="url(#39558967-c7f4-4b3a-9d75-fc5fc3453d21)"/>
<path fill="none" stroke="#aaaaaa" stroke-width="1" stroke-linecap="butt" stroke-linejoin="round" d="M 1027.535 495.569 L 1027.188 496.195 " clip-path="url(#39558967-c7f4-4b3a-9d75-fc5fc3453d21)"/>
<path fill="#e6e6e7" fill-rule="evenodd" stroke="none" d="M 1051.176 498.109 C 1051.176 498.109 1051.176 498.109 1051.176 498.109 C 1046.775 497.510 1040.771 497.355 1036.506 496.114 C 1028.508 493.787 1019.008 487.652 1011.508 484.026 C 1011.508 484.026 1011.508 484.026 1011.508 484.026 C 1011.368 481.456 1011.039 475.460 1011.039 475.459 C 1011.954 476.092 1013.148 476.979 1014.090 477.571 C 1018.853 480.564 1025.413 484.251 1030.521 486.608 C 1036.429 489.333 1050.822 494.236 1050.824 494.236 C 1050.930 495.398 1051.176 498.108 1051.176 498.109 C 1051.176 498.109 1051.176 498.109 1051.176 498.109 Z" clip-path="url(#39558967-c7f4-4b3a-9d75-fc5fc3453d21)"/>
<path fill="none" stroke="#e6e6e7" stroke-width="1" stroke-linecap="round" stroke-linejoin="round" d="M 1050.824 494.236 C 1050.824 494.236 1050.824 494.236 1050.824 494.236 C 1050.822 494.236 1036.429 489.333 1030.521 486.608 C 1025.413 484.251 1018.853 480.564 1014.090 477.571 C 1013.148 476.979 1011.954 476.092 1011.039 475.459 C 1011.039 475.459 1011.039 475.459 1011.039 475.459 C 1011.039 475.460 1011.368 481.456 1011.508 484.026 C 1019.008 487.652 1028.508 493.787 1036.506 496.114 C 1040.771 497.355 1046.775 497.510 1051.176 498.109 C 1051.176 498.109 1051.176 498.109 1051.176 498.109 C 1051.176 498.108 1050.930 495.398 1050.824 494.236 M 1011.508 484.026 C 1011.508 484.026 1011.508 484.026 1011.508 484.026 M 1051.176 498.109 C 1051.176 498.109 1051.176 498.109 1051.176 498.109 " clip-path="url(#39558967-c7f4-4b3a-9d75-fc5fc3453d21)"/>
</g>
<g id="Layer_4">
<clipPath id="0b3b31db-e894-425d-91bf-6905095a3c26">
<path fill="#af692b" fill-rule="evenodd" stroke="none" d="M 346.286 302.369 C 347.749 303.705 349.599 305.650 351.299 306.666 C 352.147 307.173 353.490 307.422 354.343 307.920 C 355.532 308.613 356.655 310.254 357.924 310.784 C 361.103 312.112 365.949 311.764 369.384 311.501 C 375.437 311.036 383.314 308.747 389.080 306.845 C 393.400 305.420 398.751 302.437 403.046 300.936 C 404.683 300.364 406.865 299.410 408.596 299.325 C 413.060 299.105 419.384 300.244 423.100 302.727 C 427.461 305.641 430.180 312.712 433.127 317.051 C 435.861 321.078 439.982 326.194 442.052 330.599 C 444.026 334.799 444.516 341.235 446.585 345.389 C 451.249 354.756 460.628 365.458 467.816 373.062 C 479.270 385.176 495.159 401.908 510.299 408.889 C 534.590 420.088 571.918 419.642 598.631 421.023 C 615.504 421.895 638.255 422.280 654.931 419.566 C 673.432 416.556 696.747 406.746 714.629 401.123 C 741.122 392.793 779.896 388.600 802.789 372.876 C 812.026 366.532 822.847 355.073 827.529 344.892 C 830.721 337.949 830.518 327.313 831.584 319.747 C 831.858 317.804 833.066 315.101 832.396 313.258 C 829.340 304.853 815.566 300.800 807.656 296.629 C 797.943 291.507 784.113 286.374 773.588 283.245 C 757.417 278.438 735.222 273.920 718.430 272.295 C 698.811 270.396 672.433 272.222 652.728 272.700 C 635.877 273.110 613.438 274.540 596.590 275.052 C 589.959 275.254 581.035 276.550 574.483 275.513 C 564.899 273.996 552.733 268.863 544.086 264.460 C 538.929 261.834 532.705 257.187 527.966 253.867 C 517.624 246.620 504.377 236.208 494.346 228.536 C 486.289 222.374 475.939 213.632 467.633 207.811 C 462.116 203.944 454.667 198.854 448.682 195.759 C 445.897 194.319 442.190 191.819 439.058 191.687 C 430.898 191.345 420.569 197.359 413.885 202.052 C 410.607 204.354 407.340 208.727 404.631 211.677 C 402.183 214.343 398.936 217.922 396.672 220.746 C 393.839 224.282 390.760 229.541 387.788 232.962 C 385.683 235.386 382.482 238.251 380.143 240.450 C 379.326 241.218 378.049 242.066 377.378 242.964 C 376.358 244.328 375.740 246.586 374.990 248.116 C 374.375 249.373 373.146 250.894 372.854 252.263 C 372.381 254.483 374.087 257.615 373.482 259.803 C 372.219 264.377 366.811 268.667 363.555 272.118 C 359.941 275.949 354.463 280.385 350.534 283.891 C 348.732 285.499 346.090 287.402 344.497 289.217 C 343.509 290.344 342.396 292.023 341.662 293.329 C 341.155 294.231 340.663 295.527 340.235 296.469 C 340.235 296.469 340.235 296.469 340.235 296.469 C 340.224 296.466 344.413 300.659 346.286 302.369 Z"/>
</clipPath>
<path fill="#af692b" fill-rule="evenodd" stroke="#96561c" stroke-width="1" stroke-linecap="round" stroke-linejoin="round" d="M 346.286 302.369 C 347.749 303.705 349.599 305.650 351.299 306.666 C 352.147 307.173 353.490 307.422 354.343 307.920 C 355.532 308.613 356.655 310.254 357.924 310.784 C 361.103 312.112 365.949 311.764 369.384 311.501 C 375.437 311.036 383.314 308.747 389.080 306.845 C 393.400 305.420 398.751 302.437 403.046 300.936 C 404.683 300.364 406.865 299.410 408.596 299.325 C 413.060 299.105 419.384 300.244 423.100 302.727 C 427.461 305.641 430.180 312.712 433.127 317.051 C 435.861 321.078 439.982 326.194 442.052 330.599 C 444.026 334.799 444.516 341.235 446.585 345.389 C 451.249 354.756 460.628 365.458 467.816 373.062 C 479.270 385.176 495.159 401.908 510.299 408.889 C 534.590 420.088 571.918 419.642 598.631 421.023 C 615.504 421.895 638.255 422.280 654.931 419.566 C 673.432 416.556 696.747 406.746 714.629 401.123 C 741.122 392.793 779.896 388.600 802.789 372.876 C 812.026 366.532 822.847 355.073 827.529 344.892 C 830.721 337.949 830.518 327.313 831.584 319.747 C 831.858 317.804 833.066 315.101 832.396 313.258 C 829.340 304.853 815.566 300.800 807.656 296.629 C 797.943 291.507 784.113 286.374 773.588 283.245 C 757.417 278.438 735.222 273.920 718.430 272.295 C 698.811 270.396 672.433 272.222 652.728 272.700 C 635.877 273.110 613.438 274.540 596.590 275.052 C 589.959 275.254 581.035 276.550 574.483 275.513 C 564.899 273.996 552.733 268.863 544.086 264.460 C 538.929 261.834 532.705 257.187 527.966 253.867 C 517.624 246.620 504.377 236.208 494.346 228.536 C 486.289 222.374 475.939 213.632 467.633 207.811 C 462.116 203.944 454.667 198.854 448.682 195.759 C 445.897 194.319 442.190 191.819 439.058 191.687 C 430.898 191.345 420.569 197.359 413.885 202.052 C 410.607 204.354 407.340 208.727 404.631 211.677 C 402.183 214.343 398.936 217.922 396.672 220.746 C 393.839 224.282 390.760 229.541 387.788 232.962 C 385.683 235.386 382.482 238.251 380.143 240.450 C 379.326 241.218 378.049 242.066 377.378 242.964 C 376.358 244.328 375.740 246.586 374.990 248.116 C 374.375 249.373 373.146 250.894 372.854 252.263 C 372.381 254.483 374.087 257.615 373.482 259.803 C 372.219 264.377 366.811 268.667 363.555 272.118 C 359.941 275.949 354.463 280.385 350.534 283.891 C 348.732 285.499 346.090 287.402 344.497 289.217 C 343.509 290.344 342.396 292.023 341.662 293.329 C 341.155 294.231 340.663 295.527 340.235 296.469 C 340.235 296.469 340.235 296.469 340.235 296.469 C 340.224 296.466 344.413 300.659 346.286 302.369 Z"/>
<path fill="#8e521c" d="M 355.478 285.681 C 357.589 286.279 360.224 285.365 362.182 284.614 L 362.438 285.282 C 360.427 286.051 357.590 286.422 355.439 285.819 L 355.478 285.681 Z"/>
<path fill="#8e521c" d="M 362.182 284.614 C 366.993 282.776 370.968 279.411 375.073 276.200 L 375.513 276.763 C 371.419 279.966 367.357 283.392 362.438 285.282 L 362.182 284.614 Z"/>
<path fill="none" stroke="#8e521c" stroke-width="1" stroke-linecap="butt" stroke-linejoin="round" d="M 362.182 284.614 L 362.438 285.282 "/>
<path fill="#8e521c" d="M 375.073 276.200 C 376.112 275.387 380.476 272.313 380.275 270.985 L 380.416 270.966 C 380.584 272.406 376.554 275.949 375.514 276.763 L 375.073 276.200 Z"/>
<path fill="none" stroke="#8e521c" stroke-width="1" stroke-linecap="butt" stroke-linejoin="round" d="M 375.073 276.200 L 375.514 276.763 "/>
<path fill="#8e521c" d="M 376.912 253.882 C 376.909 255.372 376.239 256.958 375.830 258.290 L 375.147 258.078 C 375.594 256.650 376.773 255.329 376.769 253.882 L 376.912 253.882 Z"/>
<path fill="none" stroke="#8e521c" stroke-width="1" stroke-linecap="butt" stroke-linejoin="round" d="M 376.912 253.882 L 376.769 253.882 "/>
<path fill="#8e521c" d="M 375.830 258.290 C 374.701 261.925 372.987 265.413 372.991 269.231 L 372.848 269.231 C 372.847 265.386 374.027 261.685 375.147 258.078 L 375.830 258.290 Z"/>
<path fill="none" stroke="#8e521c" stroke-width="1" stroke-linecap="butt" stroke-linejoin="round" d="M 375.830 258.290 L 375.147 258.078 "/>
<path fill="#8e521c" d="M 393.578 257.708 C 393.557 263.260 385.191 266.459 381.087 267.653 L 380.887 266.966 C 384.968 265.779 393.456 263.158 393.435 257.708 L 393.578 257.708 Z"/>
<path fill="none" stroke="#8e521c" stroke-width="1" stroke-linecap="butt" stroke-linejoin="round" d="M 393.578 257.708 L 393.435 257.708 "/>
<path fill="#8e521c" d="M 381.087 267.653 C 379.888 268.001 378.198 268.461 376.911 268.531 L 376.896 268.235 C 378.126 268.173 379.648 267.327 380.887 266.966 L 381.087 267.653 Z"/>
<path fill="none" stroke="#8e521c" stroke-width="1" stroke-linecap="butt" stroke-linejoin="round" d="M 381.087 267.653 L 380.887 266.966 "/>
<path fill="#8e521c" d="M 376.900 268.531 C 376.799 268.528 376.835 268.501 376.764 268.497 L 376.776 268.259 C 376.849 268.263 376.802 268.232 376.907 268.234 L 376.900 268.531 Z"/>
<path fill="none" stroke="#8e521c" stroke-width="1" stroke-linecap="butt" stroke-linejoin="round" d="M 376.900 268.531 L 376.907 268.234 "/>
<path fill="#8e521c" d="M 376.770 268.259 C 376.889 268.378 376.842 268.451 376.770 268.380 L 376.770 268.523 C 376.699 268.451 376.651 268.378 376.770 268.497 L 376.770 268.259 Z"/>
<path fill="none" stroke="#8e521c" stroke-width="1" stroke-linecap="butt" stroke-linejoin="round" d="M 376.770 268.259 L 376.770 268.497 "/>
<path fill="#ca8548" fill-rule="evenodd" stroke="none" d="M 837.718 308.923 C 840.735 312.419 843.905 323.015 843.906 323.017 C 838.028 319.820 830.204 315.532 824.312 312.361 C 816.391 308.097 806.176 301.660 797.844 298.267 C 784.341 292.769 765.378 287.856 751.057 285.123 C 727.412 280.610 695.237 278.295 671.177 277.555 C 645.193 276.756 610.344 283.897 584.570 280.498 C 569.610 278.525 549.731 273.349 536.222 266.624 C 524.268 260.674 511.322 247.893 500.514 240.049 C 486.713 230.033 469.035 215.462 454.093 207.242 C 449.102 204.497 442.381 199.791 436.686 199.654 C 428.345 199.455 418.133 206.006 411.021 210.367 C 406.804 212.952 401.661 217.228 398.299 220.856 C 393.655 225.870 390.347 234.935 385.355 239.603 C 383.836 241.023 380.872 241.789 379.553 243.397 C 378.314 244.906 378.653 248.243 377.098 249.423 C 376.124 250.161 373.990 249.277 373.080 250.092 C 372.149 250.927 371.692 252.889 371.965 254.109 C 372.131 254.855 373.261 255.402 373.527 256.118 C 374.085 257.625 373.957 259.926 373.527 261.474 C 373.173 262.747 372.070 264.199 371.295 265.268 C 368.236 269.487 363.026 274.183 359.466 277.989 C 355.423 282.313 350.990 289.266 345.945 292.363 C 344.468 293.270 341.785 295.440 340.497 294.281 C 340.434 294.225 340.457 294.089 340.445 294.006 C 340.326 293.176 339.982 292.031 340.203 291.222 C 340.924 288.589 344.329 286.370 346.134 284.322 C 349.983 279.957 355.971 274.819 359.170 269.958 C 362.928 264.249 364.911 254.988 368.507 249.176 C 371.819 243.823 377.821 237.820 381.760 232.911 C 384.860 229.048 388.886 223.811 392.001 219.960 C 398.053 212.475 404.422 200.523 412.482 195.261 C 419.425 190.729 430.713 186.898 438.987 187.430 C 444.268 187.770 450.563 191.767 455.336 194.053 C 467.959 200.097 484.186 209.458 495.808 217.256 C 513.611 229.203 532.385 252.688 551.928 261.505 C 565.472 267.616 585.679 270.090 600.494 271.219 C 629.250 273.410 667.611 264.500 696.439 265.268 C 717.181 265.820 745.264 267.039 765.188 272.830 C 788.527 279.613 821.838 290.525 837.718 308.923 Z" clip-path="url(#0b3b31db-e894-425d-91bf-6905095a3c26)"/>
<path fill="none" stroke="#af692b" stroke-width="1" stroke-opacity="0.000000" stroke-linecap="round" stroke-linejoin="round" d="M 837.718 308.923 C 840.735 312.419 843.905 323.015 843.906 323.017 C 838.028 319.820 830.204 315.532 824.312 312.361 C 816.391 308.097 806.176 301.660 797.844 298.267 C 784.341 292.769 765.378 287.856 751.057 285.123 C 727.412 280.610 695.237 278.295 671.177 277.555 C 645.193 276.756 610.344 283.897 584.570 280.498 C 569.610 278.525 549.731 273.349 536.222 266.624 C 524.268 260.674 511.322 247.893 500.514 240.049 C 486.713 230.033 469.035 215.462 454.093 207.242 C 449.102 204.497 442.381 199.791 436.686 199.654 C 428.345 199.455 418.133 206.006 411.021 210.367 C 406.804 212.952 401.661 217.228 398.299 220.856 C 393.655 225.870 390.347 234.935 385.355 239.603 C 383.836 241.023 380.872 241.789 379.553 243.397 C 378.314 244.906 378.653 248.243 377.098 249.423 C 376.124 250.161 373.990 249.277 373.080 250.092 C 372.149 250.927 371.692 252.889 371.965 254.109 C 372.131 254.855 373.261 255.402 373.527 256.118 C 374.085 257.625 373.957 259.926 373.527 261.474 C 373.173 262.747 372.070 264.199 371.295 265.268 C 368.236 269.487 363.026 274.183 359.466 277.989 C 355.423 282.313 350.990 289.266 345.945 292.363 C 344.468 293.270 341.785 295.440 340.497 294.281 C 340.434 294.225 340.457 294.089 340.445 294.006 C 340.326 293.176 339.982 292.031 340.203 291.222 C 340.924 288.589 344.329 286.370 346.134 284.322 C 349.983 279.957 355.971 274.819 359.170 269.958 C 362.928 264.249 364.911 254.988 368.507 249.176 C 371.819 243.823 377.821 237.820 381.760 232.911 C 384.860 229.048 388.886 223.811 392.001 219.960 C 398.053 212.475 404.422 200.523 412.482 195.261 C 419.425 190.729 430.713 186.898 438.987 187.430 C 444.268 187.770 450.563 191.767 455.336 194.053 C 467.959 200.097 484.186 209.458 495.808 217.256 C 513.611 229.203 532.385 252.688 551.928 261.505 C 565.472 267.616 585.679 270.090 600.494 271.219 C 629.250 273.410 667.611 264.500 696.439 265.268 C 717.181 265.820 745.264 267.039 765.188 272.830 C 788.527 279.613 821.838 290.525 837.718 308.923 M 843.906 323.017 C 843.906 323.017 843.906 323.017 843.906 323.017 " clip-path="url(#0b3b31db-e894-425d-91bf-6905095a3c26)"/>
<path fill="#bfc2c9" fill-rule="evenodd" stroke="none" d="M 354.155 286.509 C 354.155 286.509 354.155 286.509 354.155 286.509 C 352.589 287.568 350.238 288.670 348.936 290.040 C 348.127 290.892 347.591 292.444 346.844 293.351 C 345.016 295.570 341.858 297.839 339.721 299.763 C 339.721 299.763 339.721 299.763 339.721 299.763 C 344.924 305.041 350.072 314.899 357.064 317.357 C 363.215 319.519 372.258 316.229 378.679 315.095 C 387.953 313.456 399.864 305.413 409.090 307.303 C 412.614 308.025 416.975 310.968 419.144 313.838 C 424.077 320.364 422.215 332.880 425.582 340.336 C 434.420 359.906 451.646 384.443 468.741 397.438 C 489.621 413.312 524.588 424.049 550.411 428.645 C 595.544 436.678 658.006 431.440 703.126 423.334 C 742.744 416.216 836.655 421.298 830.611 381.503 C 829.947 377.130 822.895 374.145 818.659 372.871 C 803.848 368.416 782.846 377.334 767.533 379.511 C 739.390 383.512 702.242 391.787 673.911 394.118 C 650.268 396.064 618.554 395.702 594.839 395.070 C 577.148 394.598 553.324 394.788 535.963 391.347 C 522.423 388.664 503.527 384.846 492.313 376.797 C 488.216 373.857 482.336 368.910 481.485 363.940 C 480.509 358.235 489.348 351.743 488.591 346.006 C 487.972 341.314 483.325 335.870 479.455 333.148 C 475.406 330.300 467.684 331.474 463.552 328.749 C 459.562 326.118 456.346 320.224 453.572 316.333 C 451.142 312.925 446.123 304.539 446.122 304.538 C 447.116 304.414 448.454 303.915 449.433 304.124 C 451.959 304.665 456.468 309.090 456.469 309.091 C 456.282 307.663 456.353 305.680 455.848 304.331 C 454.523 300.797 448.399 294.193 448.398 294.192 C 449.392 294.130 450.737 294.197 451.709 293.985 C 454.808 293.310 461.434 289.847 461.435 289.846 C 458.890 289.164 455.480 288.310 452.951 287.570 C 450.388 286.821 447.004 285.713 444.467 284.880 C 439.357 283.202 432.443 281.205 427.499 279.087 C 422.803 277.074 416.737 273.913 412.394 271.223 C 407.889 268.434 398.117 260.827 398.116 260.826 C 396.823 261.922 395.128 263.421 393.804 264.481 C 390.952 266.767 386.869 269.457 384.056 271.792 C 381.208 274.157 377.796 277.750 374.964 280.135 C 371.114 283.377 366.480 288.921 361.654 290.352 C 360.360 290.735 358.370 290.939 357.155 290.352 C 355.838 289.715 354.155 286.509 354.155 286.509 C 354.155 286.509 354.155 286.509 354.155 286.509 Z" clip-path="url(#0b3b31db-e894-425d-91bf-6905095a3c26)"/>
<path fill="none" stroke="#af692b" stroke-width="1" stroke-opacity="0.000000" stroke-linecap="round" stroke-linejoin="round" d="M 461.435 289.846 C 461.435 289.846 461.435 289.846 461.435 289.846 C 461.434 289.847 454.808 293.310 451.709 293.985 C 450.737 294.197 449.392 294.130 448.398 294.192 C 448.398 294.192 448.398 294.192 448.398 294.192 C 448.399 294.193 454.523 300.797 455.848 304.331 C 456.353 305.680 456.282 307.663 456.469 309.091 C 456.469 309.091 456.469 309.091 456.469 309.091 C 456.468 309.090 451.959 304.665 449.433 304.124 C 448.454 303.915 447.116 304.414 446.122 304.538 C 446.122 304.538 446.122 304.538 446.122 304.538 C 446.123 304.539 451.142 312.925 453.572 316.333 C 456.346 320.224 459.562 326.118 463.552 328.749 C 467.684 331.474 475.406 330.300 479.455 333.148 C 483.325 335.870 487.972 341.314 488.591 346.006 C 489.348 351.743 480.509 358.235 481.485 363.940 C 482.336 368.910 488.216 373.857 492.313 376.797 C 503.527 384.846 522.423 388.664 535.963 391.347 C 553.324 394.788 577.148 394.598 594.839 395.070 C 618.554 395.702 650.268 396.064 673.911 394.118 C 702.242 391.787 739.390 383.512 767.533 379.511 C 782.846 377.334 803.848 368.416 818.659 372.871 C 822.895 374.145 829.947 377.130 830.611 381.503 C 836.655 421.298 742.744 416.216 703.126 423.334 C 658.006 431.440 595.544 436.678 550.411 428.645 C 524.588 424.049 489.621 413.312 468.741 397.438 C 451.646 384.443 434.420 359.906 425.582 340.336 C 422.215 332.880 424.077 320.364 419.144 313.838 C 416.975 310.968 412.614 308.025 409.090 307.303 C 399.864 305.413 387.953 313.456 378.679 315.095 C 372.258 316.229 363.215 319.519 357.064 317.357 C 350.072 314.899 344.924 305.041 339.721 299.763 C 341.858 297.839 345.016 295.570 346.844 293.351 C 347.591 292.444 348.127 290.892 348.936 290.040 C 350.238 288.670 352.589 287.568 354.155 286.509 C 354.155 286.509 354.155 286.509 354.155 286.509 C 354.155 286.509 355.838 289.715 357.155 290.352 C 358.370 290.939 360.360 290.735 361.654 290.352 C 366.480 288.921 371.114 283.377 374.964 280.135 C 377.796 277.750 381.208 274.157 384.056 271.792 C 386.869 269.457 390.952 266.767 393.804 264.481 C 395.128 263.421 396.823 261.922 398.116 260.826 C 398.116 260.826 398.116 260.826 398.116 260.826 C 398.117 260.827 407.889 268.434 412.394 271.223 C 416.737 273.913 422.803 277.074 427.499 279.087 C 432.443 281.205 439.357 283.202 444.467 284.880 C 447.004 285.713 450.388 286.821 452.951 287.570 C 455.480 288.310 458.890 289.164 461.435 289.846 M 339.721 299.763 C 339.721 299.763 339.721 299.763 339.721 299.763 M 354.155 286.509 C 354.155 286.509 354.155 286.509 354.155 286.509 " clip-path="url(#0b3b31db-e894-425d-91bf-6905095a3c26)"/>
<path fill="#311913" fill-rule="evenodd" stroke="none" d="M 350.210 288.828 C 350.210 288.828 350.210 288.828 350.210 288.828 C 349.295 289.315 348.137 290.103 347.160 290.451 C 346.634 290.639 345.898 290.816 345.340 290.845 C 344.508 290.887 343.411 290.603 342.585 290.500 C 342.585 290.500 342.585 290.500 342.585 290.500 C 341.994 291.179 341.139 292.031 340.617 292.763 C 339.995 293.635 338.942 294.796 338.846 295.863 C 338.701 297.460 339.844 299.555 340.814 300.832 C 342.478 303.024 348.291 306.145 348.292 306.145 C 347.790 305.038 346.976 303.617 346.619 302.455 C 346.350 301.581 346.072 300.369 346.078 299.454 C 346.089 297.793 346.667 295.595 347.259 294.042 C 347.898 292.362 350.210 288.828 350.210 288.828 C 350.210 288.828 350.210 288.828 350.210 288.828 Z" clip-path="url(#0b3b31db-e894-425d-91bf-6905095a3c26)"/>
<path fill="none" stroke="#af692b" stroke-width="1" stroke-opacity="0.000000" stroke-linecap="round" stroke-linejoin="round" d="M 348.292 306.145 C 348.292 306.145 348.292 306.145 348.292 306.145 C 348.291 306.145 342.478 303.024 340.814 300.832 C 339.844 299.555 338.701 297.460 338.846 295.863 C 338.942 294.796 339.995 293.635 340.617 292.763 C 341.139 292.031 341.994 291.179 342.585 290.500 C 343.411 290.603 344.508 290.887 345.340 290.845 C 345.898 290.816 346.634 290.639 347.160 290.451 C 348.137 290.103 349.295 289.315 350.210 288.828 C 350.210 288.828 350.210 288.828 350.210 288.828 C 350.210 288.828 347.898 292.362 347.259 294.042 C 346.667 295.595 346.089 297.793 346.078 299.454 C 346.072 300.369 346.350 301.581 346.619 302.455 C 346.976 303.617 347.790 305.038 348.292 306.145 M 342.585 290.500 C 342.585 290.500 342.585 290.500 342.585 290.500 M 350.210 288.828 C 350.210 288.828 350.210 288.828 350.210 288.828 " clip-path="url(#0b3b31db-e894-425d-91bf-6905095a3c26)"/>
<path fill="#000000" fill-rule="evenodd" stroke="#af692b" stroke-width="1" stroke-opacity="0.000000" stroke-linecap="round" stroke-linejoin="round" d="M 358.659 307.127 C 361.533 306.325 365.205 304.593 367.661 302.899 C 369.210 301.830 370.706 299.705 372.230 298.602 C 375.018 296.585 379.340 294.871 382.392 293.283 C 384.129 292.378 386.231 290.304 388.189 290.282 C 388.668 290.276 389.512 290.382 389.689 290.827 C 390.015 291.645 388.671 292.663 387.984 293.214 C 386.636 294.297 384.152 294.504 382.597 295.260 C 379.829 296.606 376.394 298.891 373.867 300.648 C 372.083 301.888 370.013 303.982 368.138 305.081 C 366.715 305.915 364.670 306.783 363.092 307.263 C 360.707 307.989 357.398 308.803 354.908 308.695 C 353.901 308.652 352.616 308.170 351.634 307.945 C 351.634 307.945 351.634 307.945 351.634 307.945 C 351.696 307.925 356.615 307.697 358.659 307.127 Z" clip-path="url(#0b3b31db-e894-425d-91bf-6905095a3c26)"/>
<path fill="#000000" fill-rule="evenodd" stroke="#af692b" stroke-width="1" stroke-opacity="0.000000" stroke-linecap="round" stroke-linejoin="round" d="M 379.472 259.366 C 379.590 258.162 379.194 256.545 378.870 255.379 C 378.675 254.677 377.863 253.844 377.967 253.123 C 378.108 252.156 379.193 251.063 380.074 250.641 C 381.254 250.075 383.188 250.249 384.436 250.641 C 385.751 251.053 387.349 252.188 388.198 253.273 C 388.621 253.815 389.379 254.751 389.100 255.379 C 388.874 255.889 387.822 255.730 387.370 256.056 C 385.983 257.057 385.059 259.313 383.985 260.645 C 382.701 262.238 381.021 264.423 379.472 265.760 C 378.486 266.610 376.945 267.445 375.861 268.167 C 375.861 268.167 375.861 268.167 375.861 268.167 C 375.907 268.144 379.194 262.206 379.472 259.366 Z" clip-path="url(#0b3b31db-e894-425d-91bf-6905095a3c26)"/>
<path fill="#eba451" fill-rule="evenodd" stroke="#af692b" stroke-width="1" stroke-opacity="0.000000" stroke-linecap="round" stroke-linejoin="round" d="M 385.035 257.884 C 385.533 257.622 386.074 257.052 386.383 256.582 C 386.755 256.014 387.291 255.123 387.159 254.457 C 387.068 253.993 386.529 253.526 386.145 253.250 C 385.104 252.502 383.365 251.756 382.090 251.899 C 381.556 251.958 380.731 252.235 380.497 252.719 C 380.063 253.618 380.906 255.076 381.463 255.905 C 381.985 256.683 383.003 257.546 383.877 257.884 C 384.104 257.972 384.440 258.004 384.683 257.982 C 384.792 257.972 384.938 257.936 385.035 257.884 Z" clip-path="url(#0b3b31db-e894-425d-91bf-6905095a3c26)"/>
<path fill="#000000" fill-rule="evenodd" stroke="#af692b" stroke-width="1" stroke-opacity="0.000000" stroke-linecap="round" stroke-linejoin="round" d="M 384.404 252.440 C 384.376 252.449 384.297 252.489 384.272 252.503 C 384.183 252.559 384.082 252.606 384.011 252.679 C 383.882 252.817 383.754 252.954 383.627 253.093 C 383.530 253.199 383.436 253.308 383.340 253.414 C 383.200 253.574 383.084 253.753 382.961 253.926 C 382.874 254.050 382.781 254.167 382.710 254.297 C 382.649 254.406 382.600 254.517 382.558 254.632 C 382.535 254.694 382.505 254.752 382.499 254.815 C 382.490 254.919 382.501 255.025 382.515 255.128 C 382.522 255.177 382.544 255.220 382.556 255.266 C 382.585 255.391 382.632 255.504 382.676 255.622 C 382.715 255.737 382.744 255.857 382.794 255.968 C 382.824 256.031 382.876 256.077 382.904 256.138 C 382.924 256.182 382.923 256.235 382.945 256.276 C 382.973 256.332 383.024 256.374 383.054 256.427 C 383.131 256.566 383.201 256.707 383.278 256.846 C 383.342 256.961 383.408 257.077 383.464 257.194 C 383.496 257.258 383.511 257.330 383.542 257.392 C 383.549 257.407 383.572 257.440 383.579 257.452 C 383.602 257.495 383.636 257.451 383.646 257.435 C 383.665 257.406 383.670 257.367 383.674 257.329 C 383.693 257.054 383.610 256.775 383.631 256.498 C 383.634 256.456 383.655 256.417 383.659 256.373 C 383.666 256.242 383.634 256.112 383.639 255.981 C 383.641 255.932 383.662 255.887 383.665 255.836 C 383.668 255.751 383.649 255.667 383.653 255.582 C 383.654 255.533 383.675 255.487 383.679 255.437 C 383.681 255.365 383.665 255.293 383.668 255.222 C 383.670 255.179 383.692 255.140 383.695 255.096 C 383.697 255.057 383.687 255.018 383.689 254.979 C 383.694 254.910 383.734 254.845 383.747 254.776 C 383.776 254.630 383.821 254.488 383.859 254.341 C 383.908 254.153 383.941 253.958 383.999 253.771 C 384.040 253.646 384.107 253.532 384.150 253.406 C 384.183 253.305 384.236 253.211 384.269 253.108 C 384.314 252.964 384.320 252.805 384.382 252.664 C 384.407 252.606 384.478 252.557 384.474 252.492 C 384.475 252.476 384.443 252.425 384.404 252.440 Z" clip-path="url(#0b3b31db-e894-425d-91bf-6905095a3c26)"/>
</g>
<g id="Layer_4">
<clipPath id="4b946e89-8e96-44e5-8f06-a8f44d82bf2f">
<path fill="#312114" fill-rule="evenodd" stroke="none" d="M 406.451 184.840 C 406.116 179.732 404.658 172.572 406.451 167.777 C 406.984 166.350 407.983 163.876 409.497 163.715 C 412.291 163.416 413.642 168.801 415.591 170.824 C 418.854 174.210 423.517 178.427 427.169 181.387 C 430.494 184.081 435.789 186.624 438.748 189.715 C 443.577 194.758 448.723 202.867 451.138 209.418 C 452.230 212.379 453.464 216.661 452.967 219.778 C 452.214 224.495 448.375 230.166 445.045 233.590 C 443.171 235.517 440.200 238.166 437.529 238.465 C 433.323 238.938 427.931 235.500 424.529 232.981 C 419.687 229.397 414.587 222.749 411.935 217.340 C 410.933 215.296 410.513 212.221 409.904 210.028 C 409.904 210.028 409.904 210.028 409.904 210.028 C 409.965 210.150 406.949 192.451 406.451 184.840 Z"/>
</clipPath>
<path fill="#312114" fill-rule="evenodd" stroke="#af692b" stroke-width="1" stroke-opacity="0.000000" stroke-linecap="round" stroke-linejoin="round" d="M 406.451 184.840 C 406.116 179.732 404.658 172.572 406.451 167.777 C 406.984 166.350 407.983 163.876 409.497 163.715 C 412.291 163.416 413.642 168.801 415.591 170.824 C 418.854 174.210 423.517 178.427 427.169 181.387 C 430.494 184.081 435.789 186.624 438.748 189.715 C 443.577 194.758 448.723 202.867 451.138 209.418 C 452.230 212.379 453.464 216.661 452.967 219.778 C 452.214 224.495 448.375 230.166 445.045 233.590 C 443.171 235.517 440.200 238.166 437.529 238.465 C 433.323 238.938 427.931 235.500 424.529 232.981 C 419.687 229.397 414.587 222.749 411.935 217.340 C 410.933 215.296 410.513 212.221 409.904 210.028 C 409.904 210.028 409.904 210.028 409.904 210.028 C 409.965 210.150 406.949 192.451 406.451 184.840 Z"/>
<path fill="#a5a8af" fill-rule="evenodd" stroke="#af692b" stroke-width="1" stroke-opacity="0.000000" stroke-linecap="round" stroke-linejoin="round" d="M 425.744 234.821 C 425.744 234.821 425.744 234.821 425.744 234.821 C 425.599 234.092 425.418 233.118 425.259 232.393 C 423.054 222.374 419.381 209.188 417.003 199.209 C 415.387 192.424 413.360 183.349 411.823 176.546 C 410.891 172.421 409.670 166.915 408.748 162.787 C 408.748 162.787 408.748 162.787 408.748 162.787 C 406.708 165.118 403.084 167.675 401.949 170.557 C 398.294 179.832 401.324 194.066 403.729 203.741 C 405.869 212.345 409.478 224.641 416.032 230.612 C 418.379 232.751 425.743 234.821 425.744 234.821 C 425.744 234.821 425.744 234.821 425.744 234.821 Z" clip-path="url(#4b946e89-8e96-44e5-8f06-a8f44d82bf2f)"/>
<path fill="#bfc2c9" fill-rule="evenodd" stroke="none" d="M 414.234 198.598 C 414.234 198.598 414.234 198.598 414.234 198.598 C 414.730 197.316 416.073 195.687 415.888 194.324 C 415.761 193.381 414.369 192.617 414.096 191.705 C 413.894 191.031 414.458 189.964 414.096 189.361 C 413.734 188.758 412.392 188.860 412.028 188.258 C 411.643 187.621 412.201 186.501 412.028 185.777 C 411.598 183.975 409.584 182.156 408.995 180.400 C 407.960 177.317 407.782 172.881 407.782 169.629 C 407.782 168.061 408.139 165.987 408.292 164.427 C 408.292 164.427 408.292 164.427 408.292 164.427 C 408.541 164.268 408.833 163.959 409.122 163.898 C 409.414 163.837 409.884 163.848 410.104 164.049 C 410.310 164.239 410.265 164.683 410.330 164.955 C 411.109 168.214 411.999 172.593 412.770 175.854 C 414.675 183.914 417.134 194.690 419.502 202.626 C 419.799 203.622 420.598 205.913 420.598 205.914 C 420.363 207.088 419.815 209.827 419.815 209.828 C 420.520 210.203 421.674 210.449 422.164 211.080 C 423.188 212.400 422.939 214.905 423.106 216.567 C 423.329 218.778 423.199 221.751 423.301 223.970 C 423.366 225.399 423.625 227.299 423.606 228.730 C 423.589 229.969 424.397 232.402 423.239 232.846 C 421.716 233.431 419.782 228.646 419.782 228.646 C 420.015 227.283 420.558 224.103 420.558 224.102 C 419.670 224.276 417.598 224.680 417.597 224.680 C 417.668 224.380 417.807 223.987 417.834 223.680 C 417.858 223.409 417.962 222.981 417.787 222.773 C 417.407 222.319 415.825 222.574 415.825 222.574 C 415.965 221.803 416.291 220.003 416.291 220.002 C 415.569 220.092 413.885 220.303 413.885 220.303 C 414.158 219.747 414.795 218.451 414.795 218.451 C 414.389 218.193 413.441 217.590 413.441 217.590 C 413.762 217.476 414.230 217.405 414.509 217.211 C 415.997 216.174 417.956 212.248 417.956 212.247 C 416.674 212.744 413.683 213.901 413.682 213.902 C 414.675 212.040 416.991 207.698 416.991 207.698 C 415.957 207.325 413.545 206.457 413.544 206.457 C 414.289 204.182 416.026 198.875 416.026 198.874 C 415.488 198.791 414.234 198.598 414.234 198.598 C 414.234 198.598 414.234 198.598 414.234 198.598 Z" clip-path="url(#4b946e89-8e96-44e5-8f06-a8f44d82bf2f)"/>
<path fill="none" stroke="#af692b" stroke-width="1" stroke-opacity="0.000000" stroke-linecap="round" stroke-linejoin="round" d="M 413.682 213.902 C 413.682 213.902 413.682 213.902 413.682 213.902 C 413.683 213.901 416.674 212.744 417.956 212.247 C 417.956 212.247 417.956 212.247 417.956 212.247 C 417.956 212.248 415.997 216.174 414.509 217.211 C 414.230 217.405 413.762 217.476 413.441 217.590 C 413.441 217.590 413.441 217.590 413.441 217.590 C 413.441 217.590 414.389 218.193 414.795 218.451 C 414.795 218.451 414.795 218.451 414.795 218.451 C 414.795 218.451 414.158 219.747 413.885 220.303 C 413.885 220.303 413.885 220.303 413.885 220.303 C 413.885 220.303 415.569 220.092 416.291 220.002 C 416.291 220.002 416.291 220.002 416.291 220.002 C 416.291 220.003 415.965 221.803 415.825 222.574 C 415.825 222.574 415.825 222.574 415.825 222.574 C 415.825 222.574 417.407 222.319 417.787 222.773 C 417.962 222.981 417.858 223.409 417.834 223.680 C 417.807 223.987 417.668 224.380 417.597 224.680 C 417.597 224.680 417.597 224.680 417.597 224.680 C 417.598 224.680 419.670 224.276 420.558 224.102 C 420.558 224.102 420.558 224.102 420.558 224.102 C 420.558 224.103 420.015 227.283 419.782 228.646 C 419.782 228.646 419.782 228.646 419.782 228.646 C 419.782 228.646 421.716 233.431 423.239 232.846 C 424.397 232.402 423.589 229.969 423.606 228.730 C 423.625 227.299 423.366 225.399 423.301 223.970 C 423.199 221.751 423.329 218.778 423.106 216.567 C 422.939 214.905 423.188 212.400 422.164 211.080 C 421.674 210.449 420.520 210.203 419.815 209.828 C 419.815 209.828 419.815 209.828 419.815 209.828 C 419.815 209.827 420.363 207.088 420.598 205.914 C 420.598 205.914 420.598 205.914 420.598 205.914 C 420.598 205.913 419.799 203.622 419.502 202.626 C 417.134 194.690 414.675 183.914 412.770 175.854 C 411.999 172.593 411.109 168.214 410.330 164.955 C 410.265 164.683 410.310 164.239 410.104 164.049 C 409.884 163.848 409.414 163.837 409.122 163.898 C 408.833 163.959 408.541 164.268 408.292 164.427 C 408.139 165.987 407.782 168.061 407.782 169.629 C 407.782 172.881 407.960 177.317 408.995 180.400 C 409.584 182.156 411.598 183.975 412.028 185.777 C 412.201 186.501 411.643 187.621 412.028 188.258 C 412.392 188.860 413.734 188.758 414.096 189.361 C 414.458 189.964 413.894 191.031 414.096 191.705 C 414.369 192.617 415.761 193.381 415.888 194.324 C 416.073 195.687 414.730 197.316 414.234 198.598 C 414.234 198.598 414.234 198.598 414.234 198.598 C 414.234 198.598 415.488 198.791 416.026 198.874 C 416.026 198.874 416.026 198.874 416.026 198.874 C 416.026 198.875 414.289 204.182 413.544 206.457 C 413.544 206.457 413.544 206.457 413.544 206.457 C 413.545 206.457 415.957 207.325 416.991 207.698 C 416.991 207.698 416.991 207.698 416.991 207.698 C 416.991 207.698 414.675 212.040 413.682 213.902 M 408.292 164.427 C 408.292 164.427 408.292 164.427 408.292 164.427 M 414.234 198.598 C 414.234 198.598 414.234 198.598 414.234 198.598 " clip-path="url(#4b946e89-8e96-44e5-8f06-a8f44d82bf2f)"/>
<path fill="#995a23" fill-rule="evenodd" stroke="#af692b" stroke-width="1" stroke-opacity="0.000000" stroke-linecap="round" stroke-linejoin="round" d="M 457.298 219.133 C 457.298 219.133 457.298 219.133 457.298 219.133 C 454.128 216.695 450.377 212.651 446.732 211.006 C 443.289 209.452 438.087 207.851 434.378 208.568 C 431.562 209.112 427.956 211.299 426.251 213.606 C 424.367 216.156 423.988 220.696 423.650 223.847 C 423.254 227.535 423.991 232.495 424.138 236.201 C 424.138 236.201 424.138 236.201 424.138 236.201 C 426.576 237.274 429.679 239.138 432.265 239.777 C 435.112 240.480 439.179 241.159 442.018 240.427 C 446.970 239.151 453.458 235.113 455.997 230.674 C 457.728 227.650 457.298 219.134 457.298 219.133 C 457.298 219.133 457.298 219.133 457.298 219.133 Z" clip-path="url(#4b946e89-8e96-44e5-8f06-a8f44d82bf2f)"/>
</g>
<g id="Layer_6">
<clipPath id="c3c5fa72-2980-41bf-abd1-5a28f53e24fe">
<path fill="#af692b" fill-rule="evenodd" stroke="none" d="M 495.620 362.051 C 498.593 373.774 509.452 386.668 514.706 397.561 C 518.049 404.490 520.482 414.798 524.915 421.086 C 526.651 423.548 530.770 425.445 532.017 428.188 C 534.992 434.734 531.563 444.980 532.017 452.157 C 532.483 459.525 534.911 469.189 535.124 476.569 C 535.467 488.452 533.737 504.311 532.017 516.073 C 530.439 526.866 529.441 541.950 524.409 551.628 C 521.466 557.286 515.579 563.908 510.376 567.596 C 505.329 571.173 495.627 570.953 491.262 575.338 C 489.063 577.548 486.694 581.663 486.907 584.774 C 487.204 589.093 491.306 594.607 495.133 596.629 C 502.011 600.262 513.605 597.523 521.021 595.177 C 523.966 594.246 527.620 592.096 529.973 590.097 C 535.106 585.735 539.866 577.850 543.522 572.193 C 548.669 564.228 554.038 552.724 558.523 544.369 C 560.197 541.250 563.224 537.398 564.087 533.966 C 565.522 528.262 562.993 520.217 563.604 514.368 C 564.340 507.312 567.887 498.361 569.168 491.383 C 571.102 480.850 572.135 466.572 573.474 455.946 C 574.545 447.450 576.749 436.195 577.166 427.642 C 577.411 422.602 576.402 415.859 576.756 410.824 C 577.395 401.722 582.382 390.000 582.088 380.880 C 581.576 364.979 577.215 342.809 568.199 329.702 C 562.412 321.289 551.000 312.051 541.308 308.838 C 534.047 306.431 523.099 306.522 515.808 308.838 C 508.673 311.104 501.528 318.899 495.408 323.211 C 495.408 323.211 495.408 323.211 495.408 323.211 C 495.471 323.411 492.755 350.756 495.620 362.051 Z"/>
<path fill="#af692b" fill-rule="evenodd" stroke="none" d="M 728.008 349.341 C 724.596 361.468 727.543 378.896 729.756 391.298 C 732.146 404.687 736.347 423.008 743.742 434.422 C 746.028 437.949 750.454 441.598 753.649 444.329 C 762.904 452.237 776.935 460.597 786.866 467.639 C 797.393 475.104 812.429 483.856 821.831 492.697 C 827.799 498.309 835.927 506.215 839.313 513.676 C 843.185 522.209 843.926 535.191 843.975 544.561 C 843.998 548.999 844.480 555.437 842.204 559.246 C 840.007 562.923 834.347 565.509 830.557 567.505 C 827.853 568.928 823.447 569.238 821.028 571.105 C 817.624 573.731 813.390 578.684 812.981 582.963 C 812.668 586.228 814.556 590.946 817.004 593.128 C 822.969 598.443 835.333 598.553 843.263 597.575 C 849.001 596.867 856.924 594.211 861.051 590.163 C 867.916 583.431 870.633 569.695 872.698 560.305 C 875.921 545.646 872.935 525.191 875.028 510.328 C 875.618 506.133 879.209 500.599 878.031 496.529 C 876.768 492.163 870.592 488.969 867.318 485.816 C 861.732 480.438 853.566 474.001 848.326 468.285 C 843.331 462.836 836.262 455.550 833.230 448.807 C 831.151 444.182 828.575 437.166 829.822 432.250 C 831.298 426.429 840.229 422.498 842.970 417.154 C 847.951 407.445 850.500 392.419 850.224 381.510 C 849.936 370.134 845.237 355.232 840.720 344.788 C 836.836 335.810 831.285 322.979 823.439 317.138 C 811.889 308.542 791.178 305.876 776.780 305.906 C 769.892 305.920 761.055 309.232 754.315 310.658 C 754.315 310.658 754.315 310.658 754.315 310.658 C 754.115 310.724 731.809 335.831 728.008 349.341 Z"/>
</clipPath>
<path fill="#af692b" fill-rule="evenodd" stroke="none" d="M 495.620 362.051 C 498.593 373.774 509.452 386.668 514.706 397.561 C 518.049 404.490 520.482 414.798 524.915 421.086 C 526.651 423.548 530.770 425.445 532.017 428.188 C 534.992 434.734 531.563 444.980 532.017 452.157 C 532.483 459.525 534.911 469.189 535.124 476.569 C 535.467 488.452 533.737 504.311 532.017 516.073 C 530.439 526.866 529.441 541.950 524.409 551.628 C 521.466 557.286 515.579 563.908 510.376 567.596 C 505.329 571.173 495.627 570.953 491.262 575.338 C 489.063 577.548 486.694 581.663 486.907 584.774 C 487.204 589.093 491.306 594.607 495.133 596.629 C 502.011 600.262 513.605 597.523 521.021 595.177 C 523.966 594.246 527.620 592.096 529.973 590.097 C 535.106 585.735 539.866 577.850 543.522 572.193 C 548.669 564.228 554.038 552.724 558.523 544.369 C 560.197 541.250 563.224 537.398 564.087 533.966 C 565.522 528.262 562.993 520.217 563.604 514.368 C 564.340 507.312 567.887 498.361 569.168 491.383 C 571.102 480.850 572.135 466.572 573.474 455.946 C 574.545 447.450 576.749 436.195 577.166 427.642 C 577.411 422.602 576.402 415.859 576.756 410.824 C 577.395 401.722 582.382 390.000 582.088 380.880 C 581.576 364.979 577.215 342.809 568.199 329.702 C 562.412 321.289 551.000 312.051 541.308 308.838 C 534.047 306.431 523.099 306.522 515.808 308.838 C 508.673 311.104 501.528 318.899 495.408 323.211 C 495.408 323.211 495.408 323.211 495.408 323.211 C 495.471 323.411 492.755 350.756 495.620 362.051 Z"/>
<path fill="#96561c" d="M 495.967 361.963 C 498.905 373.599 509.748 386.467 515.028 397.405 L 514.384 397.716 C 509.155 386.868 498.281 373.949 495.273 362.139 L 495.967 361.963 Z"/>
<path fill="#96561c" d="M 515.028 397.405 C 518.388 404.376 520.813 414.661 525.207 420.880 L 524.623 421.292 C 520.152 414.934 517.710 404.604 514.384 397.716 L 515.028 397.405 Z"/>
<path fill="none" stroke="#96561c" stroke-width="1" stroke-linecap="butt" stroke-linejoin="round" d="M 515.028 397.405 L 514.384 397.716 "/>
<path fill="#96561c" d="M 525.207 420.880 C 526.865 423.261 531.004 425.174 532.343 428.040 L 531.691 428.336 C 530.536 425.715 526.438 423.835 524.623 421.292 L 525.207 420.880 Z"/>
<path fill="none" stroke="#96561c" stroke-width="1" stroke-linecap="butt" stroke-linejoin="round" d="M 525.207 420.880 L 524.623 421.292 "/>
<path fill="#96561c" d="M 532.343 428.040 C 535.350 434.743 531.916 445.040 532.374 452.134 L 531.660 452.179 C 531.211 444.920 534.635 434.724 531.691 428.336 L 532.343 428.040 Z"/>
<path fill="none" stroke="#96561c" stroke-width="1" stroke-linecap="butt" stroke-linejoin="round" d="M 532.343 428.040 L 531.691 428.336 "/>
<path fill="#96561c" d="M 532.374 452.134 C 532.836 459.465 535.265 469.135 535.482 476.559 L 534.767 476.579 C 534.558 469.244 532.130 459.585 531.660 452.179 L 532.374 452.134 Z"/>
<path fill="none" stroke="#96561c" stroke-width="1" stroke-linecap="butt" stroke-linejoin="round" d="M 532.374 452.134 L 531.660 452.179 "/>
<path fill="#96561c" d="M 535.482 476.559 C 535.824 488.470 534.092 504.355 532.371 516.125 L 531.663 516.022 C 533.382 504.266 535.110 488.434 534.767 476.579 L 535.482 476.559 Z"/>
<path fill="none" stroke="#96561c" stroke-width="1" stroke-linecap="butt" stroke-linejoin="round" d="M 535.482 476.559 L 534.767 476.579 "/>
<path fill="#96561c" d="M 532.371 516.125 C 530.795 526.902 529.789 542.035 524.726 551.793 L 524.091 551.463 C 529.094 541.866 530.083 526.831 531.663 516.022 L 532.371 516.125 Z"/>
<path fill="none" stroke="#96561c" stroke-width="1" stroke-linecap="butt" stroke-linejoin="round" d="M 532.371 516.125 L 531.663 516.022 "/>
<path fill="#96561c" d="M 524.726 551.793 C 521.756 557.494 515.822 564.170 510.583 567.888 L 510.169 567.304 C 515.335 563.646 521.176 557.077 524.091 551.463 L 524.726 551.793 Z"/>
<path fill="none" stroke="#96561c" stroke-width="1" stroke-linecap="butt" stroke-linejoin="round" d="M 524.726 551.793 L 524.091 551.463 "/>
<path fill="#96561c" d="M 510.583 567.888 C 505.408 571.522 495.728 571.296 491.516 575.590 L 491.009 575.086 C 495.525 570.610 505.249 570.825 510.169 567.304 L 510.583 567.888 Z"/>
<path fill="none" stroke="#96561c" stroke-width="1" stroke-linecap="butt" stroke-linejoin="round" d="M 510.583 567.888 L 510.169 567.304 "/>
<path fill="#96561c" d="M 491.516 575.590 C 489.353 577.757 487.037 581.766 487.264 584.749 L 486.550 584.798 C 486.351 581.561 488.773 577.338 491.009 575.086 L 491.516 575.590 Z"/>
<path fill="none" stroke="#96561c" stroke-width="1" stroke-linecap="butt" stroke-linejoin="round" d="M 491.516 575.590 L 491.009 575.086 "/>
<path fill="#96561c" d="M 487.264 584.749 C 487.530 588.947 491.552 594.348 495.300 596.313 L 494.966 596.945 C 491.059 594.867 486.877 589.239 486.550 584.798 L 487.264 584.749 Z"/>
<path fill="none" stroke="#96561c" stroke-width="1" stroke-linecap="butt" stroke-linejoin="round" d="M 487.264 584.749 L 486.550 584.798 "/>
<path fill="#96561c" d="M 495.300 596.313 C 502.029 599.905 513.513 597.178 520.914 594.836 L 521.129 595.518 C 513.697 597.869 501.994 600.620 494.966 596.945 L 495.300 596.313 Z"/>
<path fill="none" stroke="#96561c" stroke-width="1" stroke-linecap="butt" stroke-linejoin="round" d="M 495.300 596.313 L 494.966 596.945 "/>
<path fill="#96561c" d="M 520.914 594.836 C 523.814 593.922 527.417 591.802 529.742 589.824 L 530.205 590.369 C 527.823 592.390 524.117 594.570 521.129 595.518 L 520.914 594.836 Z"/>
<path fill="none" stroke="#96561c" stroke-width="1" stroke-linecap="butt" stroke-linejoin="round" d="M 520.914 594.836 L 521.129 595.518 "/>
<path fill="#96561c" d="M 529.742 589.824 C 534.828 585.510 539.562 577.661 543.222 571.999 L 543.823 572.387 C 540.170 578.039 535.385 585.960 530.205 590.369 L 529.742 589.824 Z"/>
<path fill="none" stroke="#96561c" stroke-width="1" stroke-linecap="butt" stroke-linejoin="round" d="M 529.742 589.824 L 530.205 590.369 "/>
<path fill="#96561c" d="M 543.222 571.999 C 548.355 564.058 553.717 552.565 558.208 544.200 L 558.838 544.538 C 554.358 552.883 548.984 564.398 543.823 572.387 L 543.222 571.999 Z"/>
<path fill="none" stroke="#96561c" stroke-width="1" stroke-linecap="butt" stroke-linejoin="round" d="M 543.222 571.999 L 543.823 572.387 "/>
<path fill="#96561c" d="M 558.208 544.200 C 559.900 541.050 562.909 537.230 563.740 533.878 L 564.434 534.053 C 563.540 537.567 560.493 541.451 558.838 544.538 L 558.208 544.200 Z"/>
<path fill="none" stroke="#96561c" stroke-width="1" stroke-linecap="butt" stroke-linejoin="round" d="M 558.208 544.200 L 558.838 544.538 "/>
<path fill="#96561c" d="M 563.740 533.878 C 565.165 528.290 562.639 520.266 563.248 514.331 L 563.959 514.405 C 563.348 520.169 565.878 528.234 564.434 534.053 L 563.740 533.878 Z"/>
<path fill="none" stroke="#96561c" stroke-width="1" stroke-linecap="butt" stroke-linejoin="round" d="M 563.740 533.878 L 564.434 534.053 "/>
<path fill="#96561c" d="M 563.248 514.331 C 563.994 507.219 567.545 498.258 568.817 491.319 L 569.520 491.448 C 568.229 498.465 564.685 507.404 563.959 514.405 L 563.248 514.331 Z"/>
<path fill="none" stroke="#96561c" stroke-width="1" stroke-linecap="butt" stroke-linejoin="round" d="M 563.248 514.331 L 563.959 514.405 "/>
<path fill="#96561c" d="M 568.817 491.319 C 570.747 480.808 571.779 466.538 573.119 455.901 L 573.829 455.991 C 572.491 466.605 571.458 480.893 569.520 491.448 L 568.817 491.319 Z"/>
<path fill="none" stroke="#96561c" stroke-width="1" stroke-linecap="butt" stroke-linejoin="round" d="M 568.817 491.319 L 569.520 491.448 "/>
<path fill="#96561c" d="M 573.119 455.901 C 574.192 447.392 576.395 436.148 576.809 427.625 L 577.523 427.660 C 577.104 436.242 574.898 447.509 573.829 455.991 L 573.119 455.901 Z"/>
<path fill="none" stroke="#96561c" stroke-width="1" stroke-linecap="butt" stroke-linejoin="round" d="M 573.119 455.901 L 573.829 455.991 "/>
<path fill="#96561c" d="M 576.809 427.625 C 577.055 422.625 576.045 415.879 576.399 410.799 L 577.113 410.849 C 576.759 415.839 577.768 422.578 577.523 427.660 L 576.809 427.625 Z"/>
<path fill="none" stroke="#96561c" stroke-width="1" stroke-linecap="butt" stroke-linejoin="round" d="M 576.809 427.625 L 577.523 427.660 "/>
<path fill="#96561c" d="M 576.399 410.799 C 577.050 401.629 582.033 389.921 581.731 380.892 L 582.446 380.869 C 582.731 390.079 577.740 401.815 577.113 410.849 L 576.399 410.799 Z"/>
<path fill="none" stroke="#96561c" stroke-width="1" stroke-linecap="butt" stroke-linejoin="round" d="M 576.399 410.799 L 577.113 410.849 "/>
<path fill="#96561c" d="M 581.731 380.892 C 581.221 365.025 577.215 342.809 568.199 329.702 L 568.199 329.702 C 577.215 342.809 581.930 364.934 582.446 380.869 L 581.731 380.892 Z"/>
<path fill="none" stroke="#96561c" stroke-width="1" stroke-linecap="butt" stroke-linejoin="round" d="M 581.731 380.892 L 582.446 380.869 "/>
<path fill="#96561c" d="M 495.408 323.211 C 495.471 323.411 493.113 350.755 495.967 361.963 L 495.273 362.139 C 492.397 350.758 495.471 323.411 495.408 323.211 L 495.408 323.211 Z"/>
<path fill="none" stroke="#96561c" stroke-width="1" stroke-linecap="butt" stroke-linejoin="round" d="M 495.408 323.211 L 495.408 323.211 "/>
<path fill="#af692b" fill-rule="evenodd" stroke="none" d="M 728.008 349.341 C 724.596 361.468 727.543 378.896 729.756 391.298 C 732.146 404.687 736.347 423.008 743.742 434.422 C 746.028 437.949 750.454 441.598 753.649 444.329 C 762.904 452.237 776.935 460.597 786.866 467.639 C 797.393 475.104 812.429 483.856 821.831 492.697 C 827.799 498.309 835.927 506.215 839.313 513.676 C 843.185 522.209 843.926 535.191 843.975 544.561 C 843.998 548.999 844.480 555.437 842.204 559.246 C 840.007 562.923 834.347 565.509 830.557 567.505 C 827.853 568.928 823.447 569.238 821.028 571.105 C 817.624 573.731 813.390 578.684 812.981 582.963 C 812.668 586.228 814.556 590.946 817.004 593.128 C 822.969 598.443 835.333 598.553 843.263 597.575 C 849.001 596.867 856.924 594.211 861.051 590.163 C 867.916 583.431 870.633 569.695 872.698 560.305 C 875.921 545.646 872.935 525.191 875.028 510.328 C 875.618 506.133 879.209 500.599 878.031 496.529 C 876.768 492.163 870.592 488.969 867.318 485.816 C 861.732 480.438 853.566 474.001 848.326 468.285 C 843.331 462.836 836.262 455.550 833.230 448.807 C 831.151 444.182 828.575 437.166 829.822 432.250 C 831.298 426.429 840.229 422.498 842.970 417.154 C 847.951 407.445 850.500 392.419 850.224 381.510 C 849.936 370.134 845.237 355.232 840.720 344.788 C 836.836 335.810 831.285 322.979 823.439 317.138 C 811.889 308.542 791.178 305.876 776.780 305.906 C 769.892 305.920 761.055 309.232 754.315 310.658 C 754.315 310.658 754.315 310.658 754.315 310.658 C 754.115 310.724 731.809 335.831 728.008 349.341 Z"/>
<path fill="#96561c" d="M 728.008 349.341 C 724.596 361.468 727.896 378.835 730.109 391.236 L 729.404 391.361 C 727.191 378.957 724.596 361.468 728.008 349.341 L 728.008 349.341 Z"/>
<path fill="#96561c" d="M 730.109 391.236 C 732.496 404.615 736.681 422.878 744.042 434.227 L 743.442 434.616 C 736.014 423.137 731.795 404.760 729.404 391.361 L 730.109 391.236 Z"/>
<path fill="none" stroke="#96561c" stroke-width="1" stroke-linecap="butt" stroke-linejoin="round" d="M 730.109 391.236 L 729.404 391.361 "/>
<path fill="#96561c" d="M 744.042 434.227 C 746.289 437.705 750.683 441.324 753.881 444.057 L 753.417 444.601 C 750.224 441.872 745.766 438.194 743.442 434.616 L 744.042 434.227 Z"/>
<path fill="none" stroke="#96561c" stroke-width="1" stroke-linecap="butt" stroke-linejoin="round" d="M 744.042 434.227 L 743.442 434.616 "/>
<path fill="#96561c" d="M 753.881 444.057 C 763.109 451.944 777.129 460.296 787.073 467.347 L 786.659 467.930 C 776.742 460.897 762.699 452.531 753.417 444.601 L 753.881 444.057 Z"/>
<path fill="none" stroke="#96561c" stroke-width="1" stroke-linecap="butt" stroke-linejoin="round" d="M 753.881 444.057 L 753.417 444.601 "/>
<path fill="#96561c" d="M 787.073 467.347 C 797.584 474.802 812.638 483.566 822.076 492.436 L 821.586 492.957 C 812.220 484.146 797.201 475.406 786.659 467.930 L 787.073 467.347 Z"/>
<path fill="none" stroke="#96561c" stroke-width="1" stroke-linecap="butt" stroke-linejoin="round" d="M 787.073 467.347 L 786.659 467.930 "/>
<path fill="#96561c" d="M 822.076 492.436 C 828.047 498.051 836.214 506.001 839.639 513.528 L 838.987 513.823 C 835.641 506.430 827.551 498.567 821.586 492.957 L 822.076 492.436 Z"/>
<path fill="none" stroke="#96561c" stroke-width="1" stroke-linecap="butt" stroke-linejoin="round" d="M 822.076 492.436 L 821.586 492.957 "/>
<path fill="#96561c" d="M 839.639 513.528 C 843.535 522.134 844.284 535.178 844.333 544.560 L 843.617 544.563 C 843.569 535.203 842.836 522.284 838.987 513.823 L 839.639 513.528 Z"/>
<path fill="none" stroke="#96561c" stroke-width="1" stroke-linecap="butt" stroke-linejoin="round" d="M 839.639 513.528 L 838.987 513.823 "/>
<path fill="#96561c" d="M 844.333 544.560 C 844.355 548.982 844.832 555.498 842.511 559.429 L 841.897 559.062 C 844.128 555.375 843.641 549.015 843.617 544.563 L 844.333 544.560 Z"/>
<path fill="none" stroke="#96561c" stroke-width="1" stroke-linecap="butt" stroke-linejoin="round" d="M 844.333 544.560 L 843.617 544.563 "/>
<path fill="#96561c" d="M 842.511 559.429 C 840.230 563.203 834.503 565.831 830.724 567.821 L 830.390 567.188 C 834.191 565.187 839.784 562.643 841.897 559.062 L 842.511 559.429 Z"/>
<path fill="none" stroke="#96561c" stroke-width="1" stroke-linecap="butt" stroke-linejoin="round" d="M 842.511 559.429 L 841.897 559.062 "/>
<path fill="#96561c" d="M 830.724 567.821 C 827.938 569.276 823.556 569.578 821.246 571.388 L 820.809 570.821 C 823.339 568.897 827.768 568.581 830.390 567.188 L 830.724 567.821 Z"/>
<path fill="none" stroke="#96561c" stroke-width="1" stroke-linecap="butt" stroke-linejoin="round" d="M 830.724 567.821 L 830.390 567.188 "/>
<path fill="#96561c" d="M 821.246 571.388 C 817.876 573.985 813.710 578.844 813.337 582.997 L 812.625 582.929 C 813.071 578.523 817.372 573.477 820.809 570.821 L 821.246 571.388 Z"/>
<path fill="none" stroke="#96561c" stroke-width="1" stroke-linecap="butt" stroke-linejoin="round" d="M 821.246 571.388 L 820.809 570.821 "/>
<path fill="#96561c" d="M 813.337 582.997 C 813.019 586.159 814.859 590.756 817.242 592.861 L 816.766 593.395 C 814.253 591.136 812.318 586.297 812.625 582.929 L 813.337 582.997 Z"/>
<path fill="none" stroke="#96561c" stroke-width="1" stroke-linecap="butt" stroke-linejoin="round" d="M 813.337 582.997 L 812.625 582.929 "/>
<path fill="#96561c" d="M 817.242 592.861 C 823.071 598.100 835.318 598.196 843.219 597.220 L 843.307 597.930 C 835.349 598.911 822.868 598.786 816.766 593.395 L 817.242 592.861 Z"/>
<path fill="none" stroke="#96561c" stroke-width="1" stroke-linecap="butt" stroke-linejoin="round" d="M 817.242 592.861 L 816.766 593.395 "/>
<path fill="#96561c" d="M 843.219 597.220 C 848.915 596.520 856.750 593.899 860.801 589.908 L 861.302 590.419 C 857.097 594.524 849.086 597.214 843.307 597.930 L 843.219 597.220 Z"/>
<path fill="none" stroke="#96561c" stroke-width="1" stroke-linecap="butt" stroke-linejoin="round" d="M 843.219 597.220 L 843.307 597.930 "/>
<path fill="#96561c" d="M 860.801 589.908 C 867.592 583.279 870.283 569.623 872.349 560.228 L 873.047 560.381 C 870.983 569.768 868.240 583.583 861.302 590.419 L 860.801 589.908 Z"/>
<path fill="none" stroke="#96561c" stroke-width="1" stroke-linecap="butt" stroke-linejoin="round" d="M 860.801 589.908 L 861.302 590.419 "/>
<path fill="#96561c" d="M 872.349 560.228 C 875.564 545.643 872.578 525.200 874.673 510.278 L 875.382 510.378 C 873.293 525.182 876.279 545.648 873.047 560.381 L 872.349 560.228 Z"/>
<path fill="none" stroke="#96561c" stroke-width="1" stroke-linecap="butt" stroke-linejoin="round" d="M 872.349 560.228 L 873.047 560.381 "/>
<path fill="#96561c" d="M 874.673 510.278 C 875.290 505.992 878.862 500.512 877.687 496.629 L 878.375 496.430 C 879.556 500.686 875.947 506.274 875.382 510.378 L 874.673 510.278 Z"/>
<path fill="none" stroke="#96561c" stroke-width="1" stroke-linecap="butt" stroke-linejoin="round" d="M 874.673 510.278 L 875.382 510.378 "/>
<path fill="#96561c" d="M 877.687 496.629 C 876.513 492.414 870.393 489.265 867.070 486.074 L 867.566 485.558 C 870.792 488.672 877.023 491.912 878.375 496.430 L 877.687 496.629 Z"/>
<path fill="none" stroke="#96561c" stroke-width="1" stroke-linecap="butt" stroke-linejoin="round" d="M 877.687 496.629 L 878.375 496.430 "/>
<path fill="#96561c" d="M 867.070 486.074 C 861.499 480.710 853.326 474.266 848.063 468.527 L 848.590 468.044 C 853.806 473.736 861.965 480.167 867.566 485.558 L 867.070 486.074 Z"/>
<path fill="none" stroke="#96561c" stroke-width="1" stroke-linecap="butt" stroke-linejoin="round" d="M 867.070 486.074 L 867.566 485.558 "/>
<path fill="#96561c" d="M 848.063 468.527 C 843.071 463.082 835.972 455.759 832.904 448.954 L 833.557 448.660 C 836.552 455.341 843.590 462.590 848.590 468.044 L 848.063 468.527 Z"/>
<path fill="none" stroke="#96561c" stroke-width="1" stroke-linecap="butt" stroke-linejoin="round" d="M 848.063 468.527 L 848.590 468.044 "/>
<path fill="#96561c" d="M 832.904 448.954 C 830.819 444.315 828.220 437.205 829.475 432.162 L 830.169 432.338 C 828.931 437.126 831.483 444.049 833.557 448.660 L 832.904 448.954 Z"/>
<path fill="none" stroke="#96561c" stroke-width="1" stroke-linecap="butt" stroke-linejoin="round" d="M 832.904 448.954 L 833.557 448.660 "/>
<path fill="#96561c" d="M 829.475 432.162 C 831.054 426.168 840.006 422.218 842.652 416.991 L 843.288 417.318 C 840.451 422.778 831.543 426.690 830.169 432.338 L 829.475 432.162 Z"/>
<path fill="none" stroke="#96561c" stroke-width="1" stroke-linecap="butt" stroke-linejoin="round" d="M 829.475 432.162 L 830.169 432.338 "/>
<path fill="#96561c" d="M 842.652 416.991 C 847.608 407.340 850.144 392.388 849.866 381.519 L 850.582 381.501 C 850.856 392.450 848.293 407.549 843.288 417.318 L 842.652 416.991 Z"/>
<path fill="none" stroke="#96561c" stroke-width="1" stroke-linecap="butt" stroke-linejoin="round" d="M 842.652 416.991 L 843.288 417.318 "/>
<path fill="#96561c" d="M 849.866 381.519 C 849.585 370.201 844.901 355.354 840.391 344.930 L 841.048 344.646 C 845.574 355.110 850.288 370.067 850.582 381.501 L 849.866 381.519 Z"/>
<path fill="none" stroke="#96561c" stroke-width="1" stroke-linecap="butt" stroke-linejoin="round" d="M 849.866 381.519 L 850.582 381.501 "/>
<path fill="#96561c" d="M 840.391 344.930 C 836.508 335.952 831.285 322.979 823.439 317.138 L 823.439 317.138 C 831.285 322.979 837.164 335.668 841.048 344.646 L 840.391 344.930 Z"/>
<path fill="none" stroke="#96561c" stroke-width="1" stroke-linecap="butt" stroke-linejoin="round" d="M 840.391 344.930 L 841.048 344.646 "/>
<path fill="#2f2621" fill-rule="evenodd" stroke="none" d="M 537.378 415.596 C 537.378 415.596 537.378 415.596 537.378 415.596 C 535.832 412.048 534.794 406.662 532.223 403.769 C 527.260 398.185 516.794 395.658 510.181 392.182 C 510.181 392.182 510.181 392.182 510.181 392.182 C 513.529 401.153 516.647 413.738 521.339 422.085 C 523.308 425.587 527.846 429.081 529.373 432.797 C 532.493 440.388 531.755 451.821 532.051 460.022 C 532.718 478.500 534.738 503.791 529.820 521.615 C 526.107 535.068 517.332 552.344 507.950 562.676 C 502.456 568.726 488.691 570.718 485.634 578.297 C 484.831 580.288 485.465 583.382 486.080 585.438 C 487.391 589.817 490.196 596.029 494.114 598.382 C 501.346 602.724 514.229 601.047 522.232 598.382 C 529.499 595.962 537.756 589.003 542.763 583.207 C 554.624 569.475 567.833 546.857 569.096 528.756 C 569.315 525.612 566.915 521.641 566.864 518.490 C 566.713 509.224 571.967 497.471 573.770 488.380 C 576.712 473.547 581.708 453.764 581.958 438.645 C 582.250 421.020 591.025 385.251 574.073 380.418 C 571.726 379.748 568.008 381.938 566.795 384.057 C 564.647 387.809 569.662 394.052 568.918 398.310 C 567.457 406.672 554.363 422.569 554.361 422.572 C 549.448 417.477 537.987 405.590 537.985 405.589 C 537.803 408.591 537.378 415.595 537.378 415.596 C 537.378 415.596 537.378 415.596 537.378 415.596 Z" clip-path="url(#c3c5fa72-2980-41bf-abd1-5a28f53e24fe)"/>
<path fill="none" stroke="#af692b" stroke-width="1" stroke-opacity="0.000000" stroke-linecap="round" stroke-linejoin="round" d="M 554.361 422.572 C 554.361 422.572 554.361 422.572 554.361 422.572 C 554.363 422.569 567.457 406.672 568.918 398.310 C 569.662 394.052 564.647 387.809 566.795 384.057 C 568.008 381.938 571.726 379.748 574.073 380.418 C 591.025 385.251 582.250 421.020 581.958 438.645 C 581.708 453.764 576.712 473.547 573.770 488.380 C 571.967 497.471 566.713 509.224 566.864 518.490 C 566.915 521.641 569.315 525.612 569.096 528.756 C 567.833 546.857 554.624 569.475 542.763 583.207 C 537.756 589.003 529.499 595.962 522.232 598.382 C 514.229 601.047 501.346 602.724 494.114 598.382 C 490.196 596.029 487.391 589.817 486.080 585.438 C 485.465 583.382 484.831 580.288 485.634 578.297 C 488.691 570.718 502.456 568.726 507.950 562.676 C 517.332 552.344 526.107 535.068 529.820 521.615 C 534.738 503.791 532.718 478.500 532.051 460.022 C 531.755 451.821 532.493 440.388 529.373 432.797 C 527.846 429.081 523.308 425.587 521.339 422.085 C 516.647 413.738 513.529 401.153 510.181 392.182 C 516.794 395.658 527.260 398.185 532.223 403.769 C 534.794 406.662 535.832 412.048 537.378 415.596 C 537.378 415.596 537.378 415.596 537.378 415.596 C 537.378 415.595 537.803 408.591 537.985 405.589 C 537.985 405.589 537.985 405.589 537.985 405.589 C 537.987 405.590 549.448 417.477 554.361 422.572 M 510.181 392.182 C 510.181 392.182 510.181 392.182 510.181 392.182 M 537.378 415.596 C 537.378 415.596 537.378 415.596 537.378 415.596 " clip-path="url(#c3c5fa72-2980-41bf-abd1-5a28f53e24fe)"/>
<path fill="#2f2621" fill-rule="evenodd" stroke="none" d="M 847.138 457.516 C 842.023 450.430 833.304 431.883 833.303 431.880 C 820.936 433.141 799.472 426.089 792.081 436.083 C 787.824 441.839 799.298 454.814 794.211 459.852 C 786.121 467.864 756.082 440.082 757.209 451.412 C 757.398 453.315 760.640 454.266 762.165 455.419 C 769.308 460.820 779.519 467.070 786.711 472.406 C 800.440 482.593 821.021 494.295 831.171 508.051 C 835.573 514.016 839.733 523.385 841.137 530.664 C 842.749 539.026 845.031 552.166 839.987 559.027 C 837.089 562.968 829.211 562.988 825.039 565.543 C 820.720 568.188 814.079 571.653 812.007 576.275 C 810.643 579.317 810.983 584.216 812.007 587.390 C 813.144 590.914 816.098 595.479 819.290 597.355 C 825.251 600.859 835.521 600.316 842.287 598.888 C 851.652 596.912 864.303 591.044 870.266 583.557 C 877.408 574.590 878.647 558.003 880.099 546.632 C 881.243 537.671 880.346 525.550 880.099 516.520 C 879.854 507.598 882.999 494.506 878.471 486.814 C 876.254 483.048 869.971 481.135 866.671 478.269 C 860.215 472.663 852.143 464.448 847.138 457.516 Z" clip-path="url(#c3c5fa72-2980-41bf-abd1-5a28f53e24fe)"/>
<path fill="none" stroke="#af692b" stroke-width="1" stroke-opacity="0.000000" stroke-linecap="round" stroke-linejoin="round" d="M 847.138 457.516 C 842.023 450.430 833.304 431.883 833.303 431.880 C 820.936 433.141 799.472 426.089 792.081 436.083 C 787.824 441.839 799.298 454.814 794.211 459.852 C 786.121 467.864 756.082 440.082 757.209 451.412 C 757.398 453.315 760.640 454.266 762.165 455.419 C 769.308 460.820 779.519 467.070 786.711 472.406 C 800.440 482.593 821.021 494.295 831.171 508.051 C 835.573 514.016 839.733 523.385 841.137 530.664 C 842.749 539.026 845.031 552.166 839.987 559.027 C 837.089 562.968 829.211 562.988 825.039 565.543 C 820.720 568.188 814.079 571.653 812.007 576.275 C 810.643 579.317 810.983 584.216 812.007 587.390 C 813.144 590.914 816.098 595.479 819.290 597.355 C 825.251 600.859 835.521 600.316 842.287 598.888 C 851.652 596.912 864.303 591.044 870.266 583.557 C 877.408 574.590 878.647 558.003 880.099 546.632 C 881.243 537.671 880.346 525.550 880.099 516.520 C 879.854 507.598 882.999 494.506 878.471 486.814 C 876.254 483.048 869.971 481.135 866.671 478.269 C 860.215 472.663 852.143 464.448 847.138 457.516 M 833.303 431.880 C 833.303 431.880 833.303 431.880 833.303 431.880 " clip-path="url(#c3c5fa72-2980-41bf-abd1-5a28f53e24fe)"/>
</g>
</g>
</svg>
