<?xml version="1.0" encoding="UTF-8" standalone="no"?>
<!-- Created with Inkscape (http://www.inkscape.org/) -->

<svg
   width="210mm"
   height="297mm"
   viewBox="0 0 210 297"
   version="1.1"
   id="svg1"
   inkscape:version="1.4 (86a8ad7, 2024-10-11)"
   sodipodi:docname="Fernando_feliz.svg"
   xmlns:inkscape="http://www.inkscape.org/namespaces/inkscape"
   xmlns:sodipodi="http://sodipodi.sourceforge.net/DTD/sodipodi-0.dtd"
   xmlns:xlink="http://www.w3.org/1999/xlink"
   xmlns="http://www.w3.org/2000/svg"
   xmlns:svg="http://www.w3.org/2000/svg">
  <sodipodi:namedview
     id="namedview1"
     pagecolor="#ffffff"
     bordercolor="#000000"
     borderopacity="0.25"
     inkscape:showpageshadow="2"
     inkscape:pageopacity="0.0"
     inkscape:pagecheckerboard="0"
     inkscape:deskcolor="#d1d1d1"
     inkscape:document-units="mm"
     inkscape:zoom="0.71891835"
     inkscape:cx="397.12437"
     inkscape:cy="561.25984"
     inkscape:window-width="1920"
     inkscape:window-height="1009"
     inkscape:window-x="-8"
     inkscape:window-y="-8"
     inkscape:window-maximized="1"
     inkscape:current-layer="layer1" />
  <defs
     id="defs1">
    <radialGradient
       inkscape:collect="always"
       xlink:href="#linearGradient255"
       id="radialGradient250"
       gradientUnits="userSpaceOnUse"
       gradientTransform="matrix(0.61495082,0.08110424,-0.05943963,1.147341,217.17508,-55.632869)"
       cx="37.812092"
       cy="141.53999"
       fx="37.812092"
       fy="141.53999"
       r="1.1901907" />
    <linearGradient
       id="linearGradient255"
       inkscape:collect="always">
      <stop
         style="stop-color:#b5578e;stop-opacity:1;"
         offset="0"
         id="stop253" />
      <stop
         style="stop-color:#d52c79;stop-opacity:0.49803922;"
         offset="0"
         id="stop254" />
      <stop
         style="stop-color:#fde4c4;stop-opacity:1;"
         offset="1"
         id="stop255" />
    </linearGradient>
  </defs>
  <g
     inkscape:label="Camada 1"
     inkscape:groupmode="layer"
     id="layer1">
    <g
       id="Fernando_Happy"
       transform="matrix(2.1955501,0,0,2.1955501,-408.13034,-145.52395)">
      <path
         style="opacity:1;fill:#68563e;fill-opacity:1;stroke:#000000;stroke-width:0.175;stroke-linecap:round;stroke-dasharray:none;paint-order:fill markers stroke"
         d="m 226.63951,165.94926 5.77637,0.0935 c 0,0 0.25725,2.57247 0.1637,2.92326 -0.0935,0.35079 -6.80535,1.37978 -9.42459,0.72497 0,0 -1.52594,-0.0877 0.42095,-1.81238 0,0 1.61363,-1.19269 3.06357,-1.92935 z"
         id="path233" />
      <path
         style="opacity:1;fill:#67553e;fill-opacity:1;stroke:#000000;stroke-width:0.175;stroke-linecap:round;stroke-dasharray:none;paint-order:fill markers stroke"
         d="m 235.93548,166.73269 c 0,0 -1.64872,1.66041 -1.85919,2.25676 0,0 -0.73222,1.64046 0.78343,1.59025 2.88593,-0.0956 7.96722,-0.14012 6.99708,-3.17604 -0.008,-0.0744 -0.3638,-1.10794 -0.3638,-1.10794 l -5.19245,-0.0413 z"
         id="path234"
         sodipodi:nodetypes="ccscccc" />
      <path
         style="opacity:1;fill:#608a97;fill-opacity:1;stroke:#000000;stroke-width:0.175;stroke-linecap:round;stroke-dasharray:none;paint-order:fill markers stroke"
         d="m 226.26534,141.95513 15.43481,0.14031 0.28064,6.68842 c 0,0 0.073,9.2311 -0.15848,17.26782 0,0 -1.9513,1.4056 -6.08541,0.57877 l -0.29352,-0.19843 c 0,0 -1.75701,-16.05691 -1.82315,-21.34857 -0.0744,0 -1.21543,-0.16537 -1.81901,-0.43822 0,0 0.94257,0.30593 1.09967,0.339 l 0.1571,0.0165 c 0,0 -0.0331,17.14834 -0.4961,20.85251 l -0.0759,0.31818 c 0,0 -2.82971,1.08745 -5.98683,-0.14032 l -0.18709,-0.0702 c 0,0 -0.52619,-21.37484 -0.1754,-22.68446 0,0 0.0702,-1.2453 0.12863,-1.32131 z"
         id="path235" />
      <path
         style="opacity:1;fill:#ed9a5e;fill-opacity:1;stroke:#000000;stroke-width:0.175;stroke-linecap:round;stroke-dasharray:none;paint-order:fill markers stroke"
         d="m 226.58815,123.51344 c 0,0 -0.28063,16.9783 -0.46772,18.42823 0,0 1.96443,1.82412 14.59292,0.65482 l 1.05428,-0.22242 -0.0165,-11.01329 -0.8434,-0.0992 c 0,0 -0.42168,-0.1571 -0.38034,-1.03353 0.0413,-0.87644 0.0744,-2.2655 0.0744,-2.2655 0,0 0.0414,-3.09271 0.3688,-3.9346 l -0.17862,0.8092 -0.0827,0.90124 -0.0744,1.33118 -0.0969,3.09721 c 0,0 -0.0234,0.74836 0.16371,0.93545 0.18708,0.18708 0.71327,0.24555 0.87697,0.26894 0.16371,0.0234 3.5313,-0.10524 4.38489,-0.45603 0.8536,-0.35079 0.78344,-0.49111 0.78344,-0.49111 0,0 -0.68989,-5.78806 -1.181,-7.07429 -0.49111,-1.28624 -0.98221,-2.29184 -1.23946,-2.5257 0,0 -3.96449,-2.92393 -6.11423,-3.20505 l -0.6736,-0.21516 -6.22655,0.34494 -3.76516,1.71888 c 0,0 -1.5386,1.07002 -2.28274,1.96299 -0.74414,0.89297 -1.15755,2.53008 -1.15755,2.53008 l -1.3808,5.95312 c 0,0 0.009,0.33479 0.48882,0.47511 0.47941,0.14032 2.40877,0.45603 3.23313,0.49111"
         id="path236" />
      <path
         style="opacity:1;fill:#fde4c4;fill-opacity:1;stroke:#000000;stroke-width:0.293923;stroke-linecap:round;stroke-dasharray:none;paint-order:fill markers stroke"
         d="m 240.59424,107.38684 c 0.21525,-0.0347 0.71519,0.31245 0.71519,0.31245 1.75939,1.93929 -0.82441,4.46576 -2.2983,4.13138 l -0.24997,0.58327 c 0,0 -1.4998,4.6938 -6.49912,4.24942 -4.99932,-0.4444 -5.16596,-5.36039 -5.16596,-5.36039 l 0.0777,-7.6212 4.04579,-2.19829 7.5537,0.74836 0.14032,5.05139 z"
         id="path237"
         sodipodi:nodetypes="cscccc" />
      <g
         id="g239"
         transform="matrix(1.6795613,0,0,1.6795613,139.74686,-79.393277)"
         style="opacity:1;fill:#987048;fill-opacity:1">
        <path
           style="opacity:1;fill:#987048;fill-opacity:1;stroke:#000000;stroke-width:0.175;stroke-linecap:round;stroke-dasharray:none;paint-order:fill markers stroke"
           d="m 59.134374,111.88568 c 0,0 0.380339,-0.71107 0.777214,-0.678 0.396875,0.0331 0.479557,0.0662 0.479557,0.0662 0,0 0.363802,-2.24896 0.330729,-2.49701 -0.03307,-0.24805 -0.198437,-1.00872 -0.363802,-1.20716 -0.165364,-0.19844 -0.380338,-0.39687 -0.479557,-0.46302 -0.09922,-0.0661 -0.28112,-0.13229 -0.28112,-0.13229 0,0 0.446484,-0.11576 0.56224,-0.11576 0.115755,0 0.496093,0.0165 0.496093,0.0165 0,0 -0.148828,-0.34727 -0.396875,-0.41341 -0.248046,-0.0661 -0.644921,-0.0827 -0.760677,-0.0661 -0.115755,0.0165 -0.23151,0.0992 -0.23151,0.0992 0,0 -0.198438,-0.89297 -0.496094,-1.19062 -0.297656,-0.29766 -0.661458,-0.41342 -0.661458,-0.41342 0,0 0.05788,0.48779 0.02894,0.5498 -0.02894,0.062 0.03721,0.48783 0.06615,0.5085 0.02894,0.0207 0.103353,0.23564 0.103353,0.23564 0,0 -0.74414,-0.99632 -1.736328,-1.12861 -0.992187,-0.13229 -1.65778,-0.0703 -1.65778,-0.0703 0,0 -1.298117,0.33075 -1.608175,0.52092 -0.310059,0.19017 -0.334864,0.22737 -0.334864,0.22737 0,0 0.42168,0.0992 0.566374,0.18191 0.144694,0.0827 0.252181,0.16123 0.252181,0.16123 0,0 -0.665592,-0.0992 -1.087272,0.1819 0,0 -1.030141,0.73218 -1.293235,1.05959 -0.263093,0.3274 -0.491107,0.81851 -0.491107,0.81851 0,0 0.368331,-0.0468 0.590498,-0.12862 0.222168,-0.0819 0.315712,-0.15786 0.315712,-0.15786 0,0 -0.537879,0.46188 -0.666503,0.7542 -0.128623,0.29233 -0.163703,0.53788 -0.146163,0.64897 0.01754,0.11108 0.04677,0.23386 0.04677,0.23386 0,0 0.964676,-0.18709 1.297928,-0.36249 0.333252,-0.17539 1.549328,-0.85359 1.672105,-0.94713 0.122777,-0.0935 0.467722,-0.39757 0.467722,-0.39757 0,0 -0.590499,0.53788 -0.619732,0.70159 -0.02923,0.1637 -0.140316,0.40341 -0.105237,0.47941 0.03508,0.076 0.198782,0.12278 0.52034,0.0468 0.321559,-0.076 1.07576,-0.56126 1.07576,-0.56126 0.04093,-0.0176 0.567115,-0.46776 0.654812,-0.60223 0.0877,-0.13447 0.122777,-0.27478 0.122777,-0.27478 0,0 -0.222167,0.78343 -0.245553,0.92375 -0.02339,0.14032 -0.05847,0.27479 -0.03508,0.36248 0.02339,0.0877 0.08185,0.15201 0.08185,0.15201 0,0 0.40341,0 0.678196,-0.19878 0.274787,-0.19878 0.742508,-0.69574 0.783434,-0.78343 0.04093,-0.0877 0.13447,-0.2514 0.13447,-0.2514 0,0 0.05262,-0.0526 0.08185,0.0351 0.02923,0.0877 0.06431,0.52618 0.111084,0.64311 0.04677,0.11693 0.40341,0.80098 0.572959,0.98222 0.169549,0.18124 0.432643,0.32156 0.432643,0.32156 l 0.10524,0.0643 -0.02339,-0.94129 c 0,0 -0.0064,2.14728 0.312531,3.00591 z"
           id="path238" />
        <path
           style="opacity:1;fill:#987048;fill-opacity:1;stroke:#000000;stroke-width:0.175;stroke-linecap:round;stroke-dasharray:none;paint-order:fill markers stroke"
           d="m 52.081575,109.31426 -0.14056,2.52181 c 0,0 -0.595313,-1.64538 -0.413411,-2.42259 l 0.587045,-0.21498 z"
           id="path239" />
      </g>
      <ellipse
         style="opacity:1;fill:#000000;fill-opacity:1;stroke:#000000;stroke-width:0.293923;stroke-linecap:round;stroke-dasharray:none;paint-order:fill markers stroke"
         id="ellipse241"
         cx="229.49158"
         cy="108.80331"
         rx="0.40966645"
         ry="0.83321983" />
      <ellipse
         style="opacity:1;fill:#000000;fill-opacity:1;stroke:#000000;stroke-width:0.293923;stroke-linecap:round;stroke-dasharray:none;paint-order:fill markers stroke"
         id="ellipse242"
         cx="243.87071"
         cy="88.160851"
         rx="0.4374404"
         ry="0.86099392"
         transform="rotate(4.9292307)" />
      <path
         style="opacity:1;fill:none;fill-opacity:1;stroke:#000000;stroke-width:0.293923;stroke-linecap:round;stroke-dasharray:none;paint-order:fill markers stroke"
         d="m 239.76922,110.47833 c 0.0196,-0.0394 0,-1.0998 0.89358,-1.57115"
         id="path243" />
      <path
         style="opacity:1;fill:none;fill-opacity:1;stroke:#000000;stroke-width:0.330648;stroke-linecap:round;stroke-dasharray:none;paint-order:fill markers stroke"
         d="m 234.85093,113.21533 c 0,0 -1.5686,1.70116 -3.3692,0.44187"
         id="path244" />
      <path
         style="opacity:1;fill:#fde4c4;fill-opacity:1;stroke:#000000;stroke-width:0.293923;stroke-linecap:round;stroke-dasharray:none;paint-order:fill markers stroke"
         d="m 227.12157,111.42099 -0.35878,-0.34021 c -1.94418,-2.52743 -0.22219,-3.72172 -0.22219,-3.72172 l 0.48278,0.84112 z"
         id="path245" />
      <path
         style="opacity:1;fill:#fee5c4;fill-opacity:1;stroke:#000000;stroke-width:0.175;stroke-linecap:round;stroke-dasharray:none;paint-order:fill markers stroke"
         d="m 237.30267,114.84963 -0.0496,2.16627 0.44648,0.81029 c 0,0 -3.42305,5.14284 -7.22643,0.69453 l -0.14884,-0.34726 0.79375,-0.54571 v 0.76068 -1.83555 c 0,0 2.03398,0.21498 2.64583,0.0331 0.61185,-0.18191 2.05053,-0.62839 2.57969,-1.05834 0.52917,-0.42995 0.95912,-0.67799 0.95912,-0.67799 z"
         id="path246" />
      <path
         style="opacity:1;fill:#fee5c4;fill-opacity:1;stroke:#000000;stroke-width:0.175;stroke-linecap:round;stroke-dasharray:none;paint-order:fill markers stroke"
         d="m 241.79369,131.61848 0.0936,10.7576 c 0,0 -0.58373,1.03102 -0.64987,2.05628 l -0.13234,2.62104 c 0,0 0.33073,1.05833 1.04179,-0.3142 l 0.1571,-1.07487 c 0,0 -0.17363,2.14974 -0.25631,2.40606 0,0 -0.30593,2.25722 0.87643,0.83509 0,0 0.7276,-1.30638 0.69453,-2.59622 l -0.008,-0.339 c 0,0 -0.16563,2.48047 -0.67826,2.96002 0,0 -0.33073,0.74414 0.35553,0.47956 0,0 1.51309,-0.82682 1.62057,-3.00963 l 0.0413,-0.52917 c 0,0 -0.14878,2.42259 -1.11617,3.18327 0,0 -0.87643,0.94258 0.41342,0.11575 0,0 1.4304,-1.14101 1.56269,-2.97656 0,0 0.0744,-2.78639 -0.25631,-3.48092 l -0.19844,-0.38034 c 0,0 0.84336,-8.1194 0.51263,-10.99675 l -0.0515,-0.23735 c 0,0 -2.71009,0.36138 -4.07435,0.23735 z"
         id="path247" />
      <path
         style="opacity:1;fill:#fee5c4;fill-opacity:1;stroke:#000000;stroke-width:0.175;stroke-linecap:round;stroke-dasharray:none;paint-order:fill markers stroke"
         d="m 223.97331,130.87247 c 0,0 -0.66146,10.15338 -0.59531,11.01328 l 0.0248,0.3142 c 0,0 -1.26505,3.75377 0.62011,5.98619 0,0 1.28984,1.07487 1.20716,0.0827 0,0 -0.16536,-0.89298 -0.38034,-1.25679 0,0 -0.44648,-1.36425 -0.23978,-2.59622 0,0 0.0496,2.25723 0.339,2.43913 0.28939,0.1819 0.7028,0.21497 0.83509,-0.1819 0.13229,-0.39688 0.14056,-1.0666 0.0744,-1.20716 l 0.0496,0.24804 0.0165,0.26459 -0.008,0.26458 -0.0413,0.24805 -0.0827,0.27285 -0.11575,0.14056 -0.1571,0.0744 -0.23151,0.0248 -0.21497,-0.0413 -0.1323,-0.091 -0.13229,-0.0744 0.13229,0.38861 0.0248,0.19844 0.16537,0.48782 0.10749,0.3638 -0.0248,0.29766 c 0,0 0.63665,0.28939 0.85162,0.16536 0.21498,-0.12402 0.39688,-0.28938 0.3142,-0.85162 -0.0827,-0.56224 -0.12403,-0.71934 -0.21498,-0.80202 l -0.10366,-0.12629 c 0,0 0.23386,0.0585 0.35664,-0.1637 l 0.16872,-4.1087 v 0 l 0.0301,-0.15926 0.006,-0.0526 c -0.076,-0.0234 -0.47352,-0.0351 -0.47352,-0.0351 0,0 0.46772,-10.4302 0.46772,-10.9213 l -0.0117,-0.57296 c 0,0 -2.32692,-0.1754 -2.53739,-0.23386 l -0.16371,-0.0234 z"
         id="path248" />
      <path
         style="opacity:0.363636;fill:url(#radialGradient250);stroke:none;stroke-width:0.146243;stroke-linecap:round;stroke-dasharray:none;paint-order:fill markers stroke"
         d="m 231.14702,109.72276 c 0,0 0.0741,0.0614 0.0971,0.14172 0.0229,0.0805 0.0311,0.14083 0.0482,0.21318 0.0171,0.0723 0.0362,0.1314 0.0684,0.1758 0.0321,0.0444 0.0358,0.0567 0.0669,0.0842 0.0314,0.027 0.0558,0.0197 0.0964,0.0675 0.0405,0.0479 0.0243,-0.007 0.0522,0.064 0.0279,0.0711 -0.0218,0.003 0.0395,0.0875 0.0615,0.0847 0.0585,0.0807 0.10669,0.11446 0.0482,0.0338 -0.0563,0.0284 0.0565,0.0373 0.11284,0.009 0.0886,-0.041 0.13838,0.0277 0.0498,0.0686 0.003,0.0783 0.079,0.10895 0.0754,0.0306 0.11631,-0.0354 0.11631,-0.0354 0,0 0.0107,-0.0668 0.0512,-0.0764 0.0408,-0.009 -0.005,-0.0475 0.0626,-0.0117 0.0675,0.036 0.0339,0.0223 0.0675,0.036 0.0335,0.0137 0.01,0.0294 0.0751,0.0218 0.0655,-0.008 0.0419,0.017 0.0734,-0.0129 0.0315,-0.0298 0,0 0.0679,-0.0776 0.0679,-0.0776 0.042,-0.0399 0.0856,-0.10223 0.0439,-0.0617 0.0809,0.0299 0.0893,-0.14605 0.009,-0.17599 -0.0318,-0.15715 0.0111,-0.23756 0.11201,-0.20984 0.0105,-0.19703 0.003,-0.3548 -0.003,-0.0551 -0.0321,-0.22378 -0.0408,-0.29279 -0.009,-0.069 -0.009,-0.0777 -0.0132,-0.10787 -0.004,-0.0302 0.0344,0.0311 -0.0254,-0.0757 -0.0599,-0.10657 -0.002,-0.0434 -0.0687,-0.11875 -0.0665,-0.0754 -0.0577,-0.0633 -0.10163,-0.12383 -0.0439,-0.0605 0.0719,0.0747 -0.0687,-0.11876 -0.14047,-0.19369 -0.12957,-0.19492 -0.15466,-0.20527 -0.0251,-0.0102 -0.046,-0.0472 -0.0653,-0.0494 -0.0193,-0.002 0.009,0.003 -0.0557,-0.0197 -0.11059,-0.0502 -0.16061,0.1001 -0.27895,0.13741 -0.0462,0.01 -0.0306,-0.01 -0.0949,0.0242 -0.0643,0.0338 -0.0592,0.0244 -0.0874,0.067 -0.0283,0.0424 -0.009,0.036 -0.0483,0.0802 -0.0392,0.0438 -0.0494,0.0623 -0.0929,0.0677 -0.0437,0.005 -0.0462,0.01 -0.0974,0.0289 -0.0513,0.019 -0.0445,-0.0123 -0.0668,0.0384 -0.0225,0.0507 -0.0221,0.0594 -0.0393,0.10086 -0.0174,0.0413 -0.0189,0.0635 -0.0451,0.0926 -0.0262,0.0292 -0.058,0.0505 -0.0707,0.0739 -0.0127,0.0232 -0.0337,0.0433 -0.0376,0.0786 -0.003,0.0354 -0.006,0.0401 -0.008,0.0709 -8.6e-4,0.0308 0.003,0.0609 0.003,0.0609 z"
         id="path249"
         sodipodi:nodetypes="cccscccsscsscccsscssssssssssscscsscssscccscscc" />
      <path
         style="opacity:1;fill:none;fill-opacity:1;stroke:#000000;stroke-width:0.1;stroke-linecap:round;stroke-dasharray:none;stroke-opacity:1;paint-order:fill markers stroke"
         d="m 235.56285,110.06094 c 0.005,0.006 0.87416,-0.36442 0.92545,-0.82742"
         id="path250"
         sodipodi:nodetypes="cc" />
      <path
         style="fill:none;fill-opacity:1;stroke:#000000;stroke-width:0.294321;stroke-linecap:round;stroke-dasharray:none;paint-order:fill markers stroke"
         d="m 228.5709,107.10187 c 0,0 0.9423,-0.74073 1.68303,-0.005"
         id="path6-9" />
      <path
         style="fill:none;fill-opacity:1;stroke:#000000;stroke-width:0.294321;stroke-linecap:round;stroke-dasharray:none;paint-order:fill markers stroke"
         d="m 234.64193,107.16645 c 0,0 0.9423,-0.74073 1.68303,-0.005"
         id="path252" />
      <path
         style="opacity:1;fill:none;fill-opacity:1;stroke:#000000;stroke-width:0.293923;stroke-linecap:round;stroke-dasharray:none;paint-order:fill markers stroke"
         d="m 231.85932,108.10897 c 0,0 -0.0694,0.29163 -0.12498,0.38883 -0.0555,0.0973 -0.76379,1.73589 -0.80545,1.9164 -0.0416,0.18054 -0.0555,1.01377 0.5416,1.22207 0.59714,0.2083 1.54145,-0.0277 1.54145,-0.0277"
         id="path242" />
      <path
         style="opacity:1;fill:#e1e1e1;fill-opacity:1;stroke:none;stroke-width:0.156225;stroke-linecap:round;stroke-dasharray:none;stroke-opacity:1;paint-order:fill markers stroke"
         d="m 231.65301,109.04306 c 0,0 0.23681,0.0108 0.3014,0.1507 0.0646,0.13994 0.7535,1.39397 0.7535,1.39397 0,0 -0.16147,0.17223 -0.22605,0.2099 -0.0646,0.0377 -0.78579,-1.31323 -0.78579,-1.31323 0,0 -0.0484,-0.0969 -0.18299,-0.0969"
         id="path256" />
      <path
         style="opacity:1;fill:#e1e1e1;fill-opacity:1;stroke:none;stroke-width:0.178311;stroke-linecap:round;stroke-dasharray:none;stroke-opacity:1;paint-order:fill markers stroke"
         d="m 232.08892,109.61811 0.49644,-0.62348 c 0,0 0.20886,0.14129 0.215,0.19657 l -1.28389,1.5849 c 0,0 -0.1558,-0.21093 -0.22952,-0.21093 z"
         id="path257"
         sodipodi:nodetypes="cccccc" />
    </g>
  </g>
</svg>
