<?xml version="1.0" encoding="UTF-8" standalone="no"?>
<!-- Created with Inkscape (http://www.inkscape.org/) -->

<svg
   width="63.486595mm"
   height="185.98058mm"
   viewBox="0 0 63.486595 185.98058"
   version="1.1"
   id="svg1"
   inkscape:version="1.4.2 (ebf0e940d0, 2025-05-08)"
   sodipodi:docname="Medico_triste.svg"
   xmlns:inkscape="http://www.inkscape.org/namespaces/inkscape"
   xmlns:sodipodi="http://sodipodi.sourceforge.net/DTD/sodipodi-0.dtd"
   xmlns="http://www.w3.org/2000/svg"
   xmlns:svg="http://www.w3.org/2000/svg">
  <sodipodi:namedview
     id="namedview1"
     pagecolor="#ffffff"
     bordercolor="#000000"
     borderopacity="0.25"
     inkscape:showpageshadow="2"
     inkscape:pageopacity="0.0"
     inkscape:pagecheckerboard="0"
     inkscape:deskcolor="#d1d1d1"
     inkscape:document-units="mm"
     inkscape:zoom="0.50835204"
     inkscape:cx="80.65277"
     inkscape:cy="412.11598"
     inkscape:window-width="1850"
     inkscape:window-height="1016"
     inkscape:window-x="70"
     inkscape:window-y="27"
     inkscape:window-maximized="1"
     inkscape:current-layer="layer1" />
  <defs
     id="defs1">
    <inkscape:path-effect
       effect="powerstroke"
       message=""
       id="path-effect138"
       is_visible="true"
       lpeversion="1.3"
       scale_width="1"
       interpolator_type="CentripetalCatmullRom"
       interpolator_beta="0.2"
       start_linecap_type="zerowidth"
       end_linecap_type="zerowidth"
       offset_points="0.20215334,0.22279203 | 0.5,0.2375005 | 0.98758793,0.0979418"
       linejoin_type="round"
       miter_limit="4"
       not_jump="false"
       sort_points="true" />
  </defs>
  <g
     inkscape:label="Camada 1"
     inkscape:groupmode="layer"
     id="layer1"
     transform="translate(-74.283301,-52.676997)">
    <g
       id="g127"
       transform="matrix(1.7942797,0,0,1.7942797,-100.76656,-101.06939)">
      <path
         style="opacity:1;fill:#fefaf3;fill-opacity:1;stroke:#000000;stroke-width:0.475001;stroke-linecap:round;stroke-dasharray:none;stroke-opacity:1;paint-order:fill markers stroke"
         d="m 127.98721,150.75734 0.0976,3.51319 -0.0122,0.2399 c 0,0 -0.0285,0.061 -0.0407,0.0813 -0.0122,0.0203 -0.061,0.0935 -0.0854,0.10572 -0.0244,0.0122 -0.0366,0.0244 -0.0651,0.0407 -0.0285,0.0163 -0.13419,0.0569 -0.13419,0.0569 l -0.15044,0.0569 c 0,0 -2.64429,0.59096 -3.63337,0.61396 -0.98908,0.023 -3.98507,0.20702 -4.75564,0.21277 -0.77056,0.006 -2.84073,0.0115 -2.84073,0.0115 l -1.56987,0.0518 c 0,0 -4.48976,0.09 -7.36863,-0.154 -2.87886,-0.24397 -4.70052,-0.81324 -4.70052,-0.81324 l -0.1692,-0.0448 -0.0704,-0.0359 -0.023,-0.0388 -0.0144,-0.0532 -0.004,-0.0431 -10e-4,-0.0747 c 0,0 1.12686,-40.00148 1.68406,-42.44974 l 5.97793,-2.80293 c 0,0 1.017,-0.77721 1.31465,-1.10794 0.29766,-0.33073 0.48783,-0.59531 0.48783,-0.59531 l 0.21497,-0.0496 0.14056,0.008 0.0174,-0.50992 7.64725,0.93544 c 0,0 0.46302,0.34368 0.55397,0.59173 0.0909,0.24805 0.42168,0.53744 0.59531,0.66146 0.17364,0.12402 1.16582,0.60358 1.16582,0.60358 0,0 3.57188,1.57096 3.93568,1.7694 0.3638,0.19844 1.12448,0.59531 1.12448,0.59531 0,0 2.19108,1.48828 2.95176,5.52318 l 1.00872,7.42487 1.43867,17.08216 c 0.008,0.0331 -0.26458,0.90951 -0.57877,1.00873 -0.31419,0.0992 -3.86953,0.23977 -4.02663,0.17363 l -0.30158,0.006 z"
         id="path57"
         sodipodi:nodetypes="cccsssccscccscccccccccsccccccscsccccsccc" />
      <path
         style="opacity:1;fill:none;fill-opacity:1;stroke:#000000;stroke-width:0.475001;stroke-linecap:round;stroke-dasharray:none;stroke-opacity:1;paint-order:fill markers stroke"
         d="m 127.77872,143.57944 -0.044,-24.40721"
         id="path61"
         sodipodi:nodetypes="cc" />
      <path
         style="opacity:1;fill:none;fill-opacity:1;stroke:#000000;stroke-width:0.475001;stroke-linecap:round;stroke-dasharray:none;stroke-opacity:1;paint-order:fill markers stroke"
         d="m 122.87048,138.42223 c 0,0 3.0285,-0.0468 4.876,-0.57296"
         id="path62" />
      <path
         style="opacity:1;fill:none;fill-opacity:1;stroke:#000000;stroke-width:0.475001;stroke-linecap:round;stroke-dasharray:none;stroke-opacity:1;paint-order:fill markers stroke"
         d="m 116.36915,155.65777 0.22528,-32.73401 c 0,0 2.86494,-5.91178 3.47679,-9.05371 0.61185,-3.14193 0.33073,-5.34128 0.33073,-5.34128"
         id="path63" />
      <path
         style="opacity:1;fill:#53371f;fill-opacity:1;stroke:none;stroke-width:0.475001;stroke-linecap:round;stroke-dasharray:none;paint-order:fill markers stroke"
         d="m 112.40512,106.69022 -0.0813,0.84576 4.2451,2.81381 3.44813,-2.45598 -0.21144,-0.65059 -7.25409,-0.553"
         id="path66" />
      <path
         style="opacity:1;fill:none;fill-opacity:1;stroke:#000000;stroke-width:0.475001;stroke-linecap:round;stroke-dasharray:none;stroke-opacity:1;paint-order:fill markers stroke"
         d="m 112.18084,107.50636 c 0,0 2.29856,2.06705 4.38216,2.77812 0,0 2.64583,-1.33945 3.57187,-2.28203"
         id="path67" />
      <path
         style="opacity:1;fill:none;fill-opacity:1;stroke:#000000;stroke-width:0.475001;stroke-linecap:round;stroke-dasharray:none;stroke-opacity:1;paint-order:fill markers stroke"
         d="m 111.62177,108.11386 c 0,0 0.0468,1.77734 0.3508,2.73618 0.30402,0.95882 3.97563,8.79316 5.26187,10.47696"
         id="path68" />
      <path
         style="opacity:1;fill:none;fill-opacity:1;stroke:#000000;stroke-width:0.475001;stroke-linecap:round;stroke-dasharray:none;stroke-opacity:1;paint-order:fill markers stroke"
         d="m 117.16428,122.98741 5.77636,-6.73519 c 0,0 -0.79513,-0.74835 -0.91206,-1.05237 -0.11693,-0.30402 -0.21047,-0.42095 -0.21047,-0.42095 0,0 1.96443,-0.5145 2.12813,-0.63143"
         id="path83" />
      <path
         style="opacity:1;fill:none;fill-opacity:1;stroke:#000000;stroke-width:0.475001;stroke-linecap:round;stroke-dasharray:none;stroke-opacity:1;paint-order:fill markers stroke"
         d="m 121.17627,109.12048 c 1.54925,1.32995 2.1449,3.30772 2.77114,5.05722 l 0.39639,6.28402"
         id="path84"
         sodipodi:nodetypes="ccc" />
      <path
         style="opacity:1;fill:none;fill-opacity:1;stroke:#000000;stroke-width:0.475001;stroke-linecap:round;stroke-dasharray:none;stroke-opacity:1;paint-order:fill markers stroke"
         d="m 112.10413,107.26394 c -0.73773,-0.44851 -4.25839,7.43995 -3.00805,12.58974"
         id="path85"
         sodipodi:nodetypes="cc" />
      <path
         style="opacity:1;fill:none;fill-opacity:1;stroke:#000000;stroke-width:0.475001;stroke-linecap:round;stroke-dasharray:none;stroke-opacity:1;paint-order:fill markers stroke"
         d="m 107.20456,129.68409 c 0,0 1.72232,0.72359 2.79808,-0.9836 1.07575,-1.70718 1.57511,-4.26314 1.57511,-4.26314 0,0 0.17886,-2.60823 -0.21873,-3.19289 -0.39756,-0.58465 -1.11702,-1.08676 -1.72506,-1.08676 -0.60804,0 -1.49808,-0.0826 -2.05935,1.27384 -0.56127,1.3564 -0.56677,3.14888 -0.28614,4.10771 0.28063,0.95882 1.20783,2.61374 2.16666,3.12824 0.95883,0.51449 2.16664,1.28073 2.68114,1.00008"
         id="path86"
         sodipodi:nodetypes="cscsssssc" />
      <path
         style="opacity:1;fill:none;fill-opacity:1;stroke:#000000;stroke-width:0.475001;stroke-linecap:round;stroke-dasharray:none;stroke-opacity:1;paint-order:fill markers stroke"
         d="m 109.07448,114.3 2.64583,0.34726 -1.2237,2.21589 5.37435,5.07669"
         id="path92" />
      <path
         style="opacity:1;fill:none;fill-opacity:1;stroke:#000000;stroke-width:0.52656;stroke-linecap:round;stroke-dasharray:none;stroke-opacity:1;paint-order:fill markers stroke"
         d="m 103.39762,138.43527 c 0,0 5.76755,0.56236 9.28712,0.41437"
         id="path99" />
      <path
         style="opacity:1;fill:none;fill-opacity:1;stroke:#000000;stroke-width:0.475001;stroke-linecap:round;stroke-dasharray:none;stroke-opacity:1;paint-order:fill markers stroke"
         d="m 112.31562,111.62109 c 0,0 1.57097,1.60404 2.4474,2.05052 l 1.75287,-3.03444 2.12493,2.53835 c 0,0 1.4304,-1.70325 1.62057,-2.15801 0.19017,-0.45475 0.23151,-0.67799 0.23151,-0.67799"
         id="path103" />
      <path
         style="opacity:1;fill:#4b6e9d;fill-opacity:1;stroke:#000000;stroke-width:0.475001;stroke-linecap:round;stroke-dasharray:none;stroke-opacity:1;paint-order:fill markers stroke"
         d="m 115.81958,112.17135 0.12862,1.88258 1.75396,-0.0585 0.15201,-1.63702 -1.29793,-1.69549 z"
         id="path115" />
      <path
         style="opacity:1;fill:#4a6b98;fill-opacity:1;stroke:#000000;stroke-width:0.475001;stroke-linecap:round;stroke-dasharray:none;stroke-opacity:1;paint-order:fill markers stroke"
         d="m 115.84296,118.75453 c 0.0234,-0.24555 0.0351,-4.31473 0.14032,-4.58367 0.10524,-0.26894 1.64872,-0.19878 1.64872,-0.19878 0,0 0.8302,3.91717 0.76005,4.44335 l -1.07576,2.94665 z"
         id="path116" />
      <ellipse
         style="opacity:1;fill:none;fill-opacity:1;stroke:#000000;stroke-width:0.475001;stroke-linecap:round;stroke-dasharray:none;stroke-opacity:1;paint-order:fill markers stroke"
         id="ellipse116"
         cx="118.16953"
         cy="125.3877"
         rx="0.55397135"
         ry="0.58704424" />
      <ellipse
         style="opacity:1;fill:none;fill-opacity:1;stroke:#000000;stroke-width:0.475001;stroke-linecap:round;stroke-dasharray:none;stroke-opacity:1;paint-order:fill markers stroke"
         id="ellipse117"
         cx="118.18157"
         cy="133.10774"
         rx="0.60803819"
         ry="0.64896381" />
      <ellipse
         style="opacity:1;fill:none;fill-opacity:1;stroke:#000000;stroke-width:0.475001;stroke-linecap:round;stroke-dasharray:none;stroke-opacity:1;paint-order:fill markers stroke"
         id="ellipse118"
         cx="124.32042"
         cy="122.18643"
         rx="1.6487188"
         ry="1.7130306" />
      <ellipse
         style="opacity:1;fill:none;fill-opacity:1;stroke:#000000;stroke-width:0.475001;stroke-linecap:round;stroke-dasharray:none;stroke-opacity:1;paint-order:fill markers stroke"
         id="ellipse119"
         cx="124.21518"
         cy="122.26244"
         rx="0.67819637"
         ry="0.71327555" />
      <ellipse
         style="opacity:1;fill:#000000;fill-opacity:1;stroke:#000000;stroke-width:0.475001;stroke-linecap:round;stroke-dasharray:none;stroke-opacity:1;paint-order:fill markers stroke"
         id="ellipse120"
         cx="112.24942"
         cy="129.55202"
         rx="0.43848905"
         ry="0.549573" />
      <ellipse
         style="opacity:1;fill:#000000;fill-opacity:1;stroke:#000000;stroke-width:0.475001;stroke-linecap:round;stroke-dasharray:none;stroke-opacity:1;paint-order:fill markers stroke"
         id="ellipse121"
         cx="107.08298"
         cy="129.90747"
         rx="0.44863403"
         ry="0.640194" />
      <path
         style="opacity:1;fill:#585850;fill-opacity:1;stroke:#000000;stroke-width:0.475001;stroke-linecap:round;stroke-dasharray:none;stroke-opacity:1;paint-order:fill markers stroke"
         d="m 105.75187,155.47068 c 0,0 -0.37418,19.31691 -0.46772,21.18779 -0.0935,1.87089 -0.35205,4.78782 -0.3934,4.88704 -0.0413,0.0992 -0.0496,0.23151 -0.0496,0.23151 l 0.008,0.13229 0.0744,0.0909 0.0744,0.0661 c 0,0 2.81946,0.76068 4.67155,0.72761 1.85208,-0.0331 3.70416,-0.56224 3.70416,-0.56224 0,0 0.79375,-13.59297 0.82683,-14.2875 0.0331,-0.69453 0.42994,-7.37526 0.42994,-7.37526 l 0.1822,-4.7128 2.36471,-0.0992 -0.0331,3.43958 c 0,0 0.2539,19.56672 0.16036,20.59571 -0.0935,1.02899 -0.0935,2.33861 -0.0935,2.33861 l 0.0779,0.0844 c 0,0 0.0496,0.0372 0.0785,0.0455 0.0289,0.008 0.0827,0.0289 0.0827,0.0289 l 0.0413,0.0165 c 0,0 4.5806,0.28939 5.70507,0.0579 1.12448,-0.23151 2.19372,-0.56649 2.19372,-0.56649 0,0 0.0643,-0.0234 0.0877,-0.0351 0.0234,-0.0117 0.0585,-0.0468 0.0585,-0.0468 0,0 0.0409,-0.0351 0.0468,-0.0585 0.006,-0.0234 0.0292,-0.0994 0.0292,-0.0994 l 0.0234,-0.22801 c 0,0 0.18124,-18.56271 0.36833,-19.5917 0.18709,-1.02898 0.21047,-6.40778 0.21047,-6.40778 l 0.0117,-0.14019 c 0,0 -6.17393,0.5028 -9.09719,0.54957 0,0 -6.11752,0.37088 -11.37733,-0.26894 z"
         id="path121" />
      <path
         style="opacity:1;fill:#44463e;fill-opacity:1;stroke:#000000;stroke-width:0.475001;stroke-linecap:round;stroke-dasharray:none;stroke-opacity:1;paint-order:fill markers stroke"
         d="m 105.93255,182.44674 c 0,0 -1.12448,2.18281 -1.4056,3.10886 -0.28112,0.92604 -0.39687,1.70325 -0.39687,1.70325 0,0 0.0827,0.74414 0.47955,1.09141 0.39688,0.34726 2.23243,0.69453 2.23243,0.69453 0,0 1.98437,0.0992 2.8608,0.0331 0.87644,-0.0661 2.59623,-0.26458 2.97657,-0.47956 0.38033,-0.21497 0.66145,-1.15755 0.67799,-1.81901 0.0165,-0.66145 -0.59531,-3.48919 -0.84336,-4.21679 -0.0661,-0.0496 -3.07578,0.52913 -6.58151,-0.11579 z"
         id="path122" />
      <path
         style="opacity:1;fill:none;fill-opacity:1;stroke:#000000;stroke-width:0.475001;stroke-linecap:round;stroke-dasharray:none;stroke-opacity:1;paint-order:fill markers stroke"
         d="m 105.08919,187.72187 c 0,0 6.1681,0.1819 7.9375,0.0661"
         id="path123" />
      <path
         style="opacity:1;fill:#43453d;fill-opacity:1;stroke:#000000;stroke-width:0.475001;stroke-linecap:round;stroke-dasharray:none;stroke-opacity:1;paint-order:fill markers stroke"
         d="m 118.07031,182.43021 c 0,0 -0.51263,2.91041 -0.39687,3.95221 0.11575,1.0418 0.64905,1.02939 0.64905,1.02939 0,0 1.25264,0.48783 3.20394,0.34314 0,0 0.53139,-0.0465 0.69509,-0.12255 0,0 -0.0175,-0.38587 0.0175,-0.52619 0,0 1.36228,0.57296 1.89431,0.66066 0,0 4.06918,0.53788 6.057,0.0234 0,0 3.42425,-0.4322 0.61306,-3.09457 0,0 -3.75378,-2.11666 -5.67201,-2.76159 z"
         id="path124" />
      <path
         style="opacity:1;fill:none;fill-opacity:1;stroke:#000000;stroke-width:0.475001;stroke-linecap:round;stroke-dasharray:none;stroke-opacity:1;paint-order:fill markers stroke"
         d="M 130.27218,187.76686 Z"
         id="path125" />
      <path
         style="opacity:1;fill:#624225;fill-opacity:1;stroke:#000000;stroke-width:0.475001;stroke-linecap:round;stroke-dasharray:none;stroke-opacity:1;paint-order:fill markers stroke"
         d="m 128.10794,149.90299 c 0,0 1.10794,-0.24804 1.42214,-1.17409 0.31419,-0.92604 0.13229,-2.82773 0.13229,-2.82773 0,0 0.62838,3.98529 -0.0496,4.64674 -0.678,0.66146 -1.24024,0.3142 -1.24024,0.3142 0,0 -0.13229,0.85989 0.74415,1.17409 0.87643,0.31419 2.38125,-1.85209 2.38125,-1.85209 0,0 1.17408,-4.28294 0.57877,-6.84609 -0.44649,0.0496 -4.11759,0.0744 -4.11759,0.0744 z"
         id="path126"
         sodipodi:nodetypes="cscscscccc" />
      <ellipse
         style="opacity:1;fill:none;fill-opacity:1;stroke:#000000;stroke-width:0.49018;stroke-linecap:round;stroke-dasharray:none;stroke-opacity:1;paint-order:fill markers stroke"
         id="ellipse126"
         cx="118.11141"
         cy="140.97717"
         rx="0.60044849"
         ry="0.69983935" />
      <path
         style="opacity:1;fill:#43453d;fill-opacity:1;stroke:#000000;stroke-width:0.475001;stroke-linecap:round;stroke-dasharray:none;stroke-opacity:1;paint-order:fill markers stroke"
         d="m 119.7901,107.32988 0.3142,0.678"
         id="path127" />
      <path
         style="opacity:1;fill:#624225;fill-opacity:1;stroke:#000000;stroke-width:0.475001;stroke-linecap:round;stroke-dasharray:none;stroke-opacity:1;paint-order:fill markers stroke"
         d="m 102.30377,149.43608 c 0,0 -1.10794,-0.24804 -1.42214,-1.17409 -0.31419,-0.92604 -0.13229,-2.82773 -0.13229,-2.82773 0,0 -0.62838,3.98529 0.0496,4.64674 0.678,0.66146 1.24024,0.3142 1.24024,0.3142 0,0 0.13229,0.85989 -0.74415,1.17409 -0.87643,0.31419 -2.381251,-1.85209 -2.381251,-1.85209 0,0 -1.17408,-4.28294 -0.57877,-6.84609 0.44649,0.0496 4.117591,0.0744 4.117591,0.0744 z"
         id="path138"
         sodipodi:nodetypes="cscscscccc" />
    </g>
    <g
       id="g136"
       transform="matrix(1.7942797,0,0,1.7942797,-122.40904,-92.665646)">
      <path
         style="opacity:1;fill:#624225;fill-opacity:1;stroke:#000000;stroke-width:0.475;stroke-linecap:square;stroke-dasharray:none;paint-order:fill markers stroke"
         d="m 121.53883,97.587071 c 0,0 0.57898,2.110118 1.17713,2.926849 2.25957,3.04774 6.8264,3.24107 8.4434,2.43258 1.00015,-0.51874 1.71968,-1.38296 2.34044,-2.30019 0,0 1.1789,-2.067889 1.38221,-3.637439 0.20331,-1.56955 0.19517,-1.85419 0.19517,-1.85419 0,0 0.14639,-2.992716 0.0895,-3.952337 -0.0569,-0.959622 -0.0976,-1.626477 -0.0976,-1.626477 0,0 -0.13015,-2.195744 -0.5449,-3.155366 -0.41475,-0.959621 -0.83763,-1.284917 -0.83763,-1.284917 l -11.38866,-0.22254 -0.89707,7.774629 c 0,0 -0.46004,-0.598049 -1.11559,-0.678555 -0.65555,-0.08051 -1.2536,0.356529 -1.35711,0.506041 -0.10351,0.149512 -0.52904,0.793564 -0.39103,1.955158 0.13801,1.161594 0.31052,1.874654 1.00058,2.553204 0.69005,0.67856 2.00116,0.56355 2.00116,0.56355 z"
         id="path128"
         sodipodi:nodetypes="csscscscscccssssc" />
      <path
         style="opacity:1;fill:none;fill-opacity:1;stroke:#000000;stroke-width:0.475;stroke-linecap:round;stroke-dasharray:none;paint-order:fill markers stroke"
         d="m 119.79069,93.797511 c 0,0 0.0748,0.0057 0.10926,0.01725 0.3893,0.130631 0.53996,0.499961 0.73036,0.828056 l 0.046,0.08626 0.046,0.08051 c 0.0138,0.06737 0.0774,0.09282 0.115,0.13801"
         id="path129"
         sodipodi:nodetypes="cccccc" />
      <ellipse
         style="opacity:1;fill:none;fill-opacity:1;stroke:#000000;stroke-width:0.475001;stroke-linecap:round;stroke-dasharray:none;paint-order:fill markers stroke"
         id="ellipse129"
         cx="140.47131"
         cy="79.93634"
         rx="0.23380607"
         ry="0.80307299"
         transform="rotate(5.3741535)" />
      <ellipse
         style="opacity:1;fill:none;fill-opacity:1;stroke:#000000;stroke-width:0.475001;stroke-linecap:round;stroke-dasharray:none;paint-order:fill markers stroke"
         id="ellipse130"
         cx="131.21066"
         cy="85.12822"
         rx="0.23380607"
         ry="0.80307299"
         transform="rotate(3.3601474)" />
      <path
         style="opacity:1;fill:none;fill-opacity:1;stroke:#000000;stroke-width:0.475001;stroke-linecap:round;stroke-dasharray:none;paint-order:fill markers stroke"
         d="m 124.24488,89.703156 c -0.056,-0.121362 2.02576,0.246539 3.04355,-0.806507"
         id="path130"
         sodipodi:nodetypes="cc" />
      <path
         style="opacity:1;fill:none;fill-opacity:1;stroke:#000000;stroke-width:0.504875;stroke-linecap:round;stroke-dasharray:none;paint-order:fill markers stroke"
         d="m 131.60921,89.013906 c 0,0 1.12291,1.256677 2.3321,0.559875"
         id="path131" />
      <path
         style="opacity:1;fill:none;fill-opacity:1;stroke:#000000;stroke-width:0.475001;stroke-linecap:round;stroke-dasharray:none;paint-order:fill markers stroke"
         d="m 129.28804,92.367536 c 0,0 0.43944,1.596909 0.61196,2.160456 0.17251,0.563541 0.5079,1.126807 0.5079,1.126807 0.30002,1.364772 -1.14157,1.607118 -1.72941,1.531622"
         id="path132"
         sodipodi:nodetypes="cscc" />
      <path
         style="opacity:1;fill:#000000;fill-opacity:1;fill-rule:nonzero;stroke:none;stroke-width:0.475001;stroke-linecap:round;stroke-dasharray:none;paint-order:fill markers stroke"
         d="m 114.74478,104.14091 0,0 c -0.0184,0.0368 -0.0194,0.19086 0.24955,0.34885 0.0476,0.028 0.10219,0.0554 0.1635,0.0823 0.27599,0.1208 0.73673,0.24694 1.31813,0.3215 0.42803,0.0549 1.07754,0.10761 1.802,-0.0252 0.91019,-0.16685 1.62258,-0.59742 1.80208,-0.82926 0.0541,-0.0698 0.032,-0.12091 0.0376,-0.14385 -0.0246,-0.003 -0.0624,-0.0402 -0.14564,-0.0196 -0.21921,0.0543 -0.9769,0.44724 -1.76544,0.56429 -0.66737,0.0991 -1.26328,0.05 -1.66167,-0.0164 -0.51374,-0.0857 -0.97951,-0.24433 -1.22476,-0.31017 -0.0601,-0.0161 -0.11494,-0.0294 -0.16543,-0.0393 -0.28086,-0.0549 -0.38837,0.0238 -0.40996,0.0669 z"
         id="path133"
         sodipodi:nodetypes="cc"
         inkscape:path-effect="#path-effect138"
         inkscape:original-d="m 114.74478,104.14091 c 0,0 2.91747,1.46221 5.3729,-0.2457"
         transform="matrix(1,0,0,-1,11.353739,204.19487)" />
      <path
         style="opacity:1;fill:#000000;fill-opacity:1;stroke:#000000;stroke-width:0.475001;stroke-linecap:round;stroke-dasharray:none;paint-order:fill markers stroke"
         d="m 121.40082,92.618665 c 0,0 0.36803,-2.162173 1.11559,-3.34677 0.74756,-1.184595 0.95458,-2.047164 0.95458,-2.047164 0,0 0.25302,-1.035083 0.17826,-1.454867 -0.0748,-0.419784 -0.10926,-0.626801 -0.10926,-0.626801 0,0 1.7769,0.672804 2.65672,0.874071 0.87982,0.201266 1.53537,0.293273 1.53537,0.293273 0,0 0.93158,0.103509 1.08684,0.09776 0.15526,-0.0058 0.25302,-0.01725 0.25302,-0.01725 0,0 -0.89707,-0.638302 -0.97183,-0.885572 -0.0748,-0.24727 -0.12651,-0.316275 -0.12651,-0.316275 0,0 2.64521,0.644052 3.46753,0.753311 0.82232,0.109259 1.15009,0.09776 1.15009,0.09776 0,0 2.20133,-0.140112 3.06336,-0.424746 0.86204,-0.284633 0.87017,-0.479811 0.87017,-0.479811 0,0 -1.29981,-1.154115 -1.64484,-1.326629 -0.34503,-0.172514 -1.2766,-0.678555 -1.2766,-0.678555 0,0 0.59804,-0.368029 0.75906,-0.529042 0.16101,-0.161013 0.20701,-0.264522 0.20701,-0.264522 0,0 -3.04774,-1.058085 -5.15241,-1.092588 0,0 -3.59979,-0.09201 -5.18692,0.678555 -1.58713,0.770562 -1.67914,0.885571 -1.97816,1.219098 -0.29903,0.333527 -0.51754,0.667054 -0.54055,0.770563 -0.023,0.103508 -0.023,0.207016 -0.023,0.207016 0,0 0.21852,-0.736059 -0.57504,-0.184015 -0.79357,0.552045 -1.1731,1.058086 -1.1731,1.058086 0,0 -0.96514,1.792908 -0.85129,3.126619 0.11386,1.333711 0.19518,2.407186 0.39036,3.090306 0.19518,0.68312 0.22771,0.910827 0.22771,0.910827 0.77404,-0.106461 1.22154,0.21157 1.69384,0.497362 z"
         id="path134"
         sodipodi:nodetypes="cscccscccccscscscsccssscscsscc" />
      <path
         style="opacity:1;fill:#000000;fill-opacity:1;stroke:#000000;stroke-width:0.475001;stroke-linecap:round;stroke-dasharray:none;paint-order:fill markers stroke"
         d="m 135.30489,91.991184 c 0,0 0.553,-1.4313 0.69938,-3.025248 0.14639,-1.593948 -0.0163,-2.390921 -0.0976,-2.602362 -0.0813,-0.211442 -0.35782,-0.650592 -0.35782,-0.650592 l -1.41503,0.227708 c 0,0 0.66685,1.154798 0.71565,1.528887 0.0488,0.374092 0.39035,2.537304 0.37408,3.090307 -0.0163,0.553003 0.0813,1.4313 0.0813,1.4313 z"
         id="path135" />
      <path
         style="opacity:1;fill:#543920;fill-opacity:1;stroke:#000000;stroke-width:0.475001;stroke-linecap:round;stroke-dasharray:none;paint-order:fill markers stroke"
         d="m 135.47567,91.999318 c 0,0 0.62951,0.547744 0.73191,1.219856 0.21991,1.443375 0.0186,2.847882 -1.25286,3.618917 l 0.11433,-0.82138 0.0407,-0.87829 0.0244,-0.878302 0.0325,-1.114137 0.0488,-1.195459 z"
         id="path136"
         sodipodi:nodetypes="csccccccc" />
    </g>
    <path
       style="fill:#fefaf3;fill-opacity:1;stroke:#000000;stroke-width:0.886583;stroke-linecap:square;stroke-dasharray:none;paint-order:fill markers stroke"
       d="m 85.978019,112.72446 c 0.452919,16.34686 -1.566666,26.34761 -2.506191,42.69448 l -7.605462,-0.0917 c 0,0 -1.256666,-0.25129 -1.130975,-3.09975 0.125643,-2.84841 0.879643,-10.59775 0.879643,-10.59775 l 1.466103,-18.84976 2.010668,-14.15827 c 0,0 2.597081,-8.3777 5.613032,-9.718115 3.015952,-1.340462 5.864362,-2.305975 5.864362,-2.305975 l 6.7624,-1.784716"
       id="path139"
       sodipodi:nodetypes="cccscccscc" />
  </g>
</svg>
