<?xml version="1.0" encoding="UTF-8" standalone="no"?>
<!-- Created with Inkscape (http://www.inkscape.org/) -->

<svg
   width="210mm"
   height="297mm"
   viewBox="0 0 210 297"
   version="1.1"
   id="svg1"
   inkscape:version="1.4 (86a8ad7, 2024-10-11)"
   sodipodi:docname="Medico_falando.svg"
   xmlns:inkscape="http://www.inkscape.org/namespaces/inkscape"
   xmlns:sodipodi="http://sodipodi.sourceforge.net/DTD/sodipodi-0.dtd"
   xmlns="http://www.w3.org/2000/svg"
   xmlns:svg="http://www.w3.org/2000/svg">
  <sodipodi:namedview
     id="namedview1"
     pagecolor="#ffffff"
     bordercolor="#000000"
     borderopacity="0.25"
     inkscape:showpageshadow="2"
     inkscape:pageopacity="0.0"
     inkscape:pagecheckerboard="0"
     inkscape:deskcolor="#d1d1d1"
     inkscape:document-units="mm"
     inkscape:zoom="0.71891835"
     inkscape:cx="397.12437"
     inkscape:cy="561.25984"
     inkscape:window-width="1141"
     inkscape:window-height="993"
     inkscape:window-x="322"
     inkscape:window-y="29"
     inkscape:window-maximized="0"
     inkscape:current-layer="layer1" />
  <defs
     id="defs1" />
  <g
     inkscape:label="Camada 1"
     inkscape:groupmode="layer"
     id="layer1">
    <g
       id="Doctor_speaking_2"
       transform="matrix(5.6525797,0,0,5.6525797,-673.97085,-688.49564)">
      <g
         id="g93"
         transform="matrix(0.35416767,0,0,0.35416767,95.738928,98.784249)">
        <path
           style="opacity:1;fill:#fefaf3;fill-opacity:1;stroke:#000000;stroke-width:0.475001;stroke-linecap:round;stroke-dasharray:none;stroke-opacity:1;paint-order:fill markers stroke"
           d="m 128.08481,154.27053 -0.0122,0.2399 c 0,0 -0.0285,0.061 -0.0407,0.0813 -0.0122,0.0203 -0.061,0.0935 -0.0854,0.10572 -0.0244,0.0122 -0.0366,0.0244 -0.0651,0.0407 -0.0285,0.0163 -0.13419,0.0569 -0.13419,0.0569 l -0.15044,0.0569 c 0,0 -2.64429,0.59096 -3.63337,0.61396 -0.98908,0.023 -3.98507,0.20702 -4.75564,0.21277 -0.77056,0.006 -2.84073,0.0115 -2.84073,0.0115 l -1.56987,0.0518 c 0,0 -4.48976,0.09 -7.36863,-0.154 -2.87886,-0.24397 -4.70052,-0.81324 -4.70052,-0.81324 l -0.1692,-0.0448 -0.0704,-0.0359 -0.023,-0.0388 -0.0144,-0.0532 -0.004,-0.0431 -10e-4,-0.0747 c -1.40095,-31.0505 2.38866,-41.14651 7.66199,-45.25267 0,0 1.017,-0.77721 1.31465,-1.10794 0.29766,-0.33073 0.48783,-0.59531 0.48783,-0.59531 l 0.21497,-0.0496 0.14056,0.008 0.0174,-0.50992 7.64725,0.93544 c 0,0 0.46302,0.34368 0.55397,0.59173 0.0909,0.24805 0.42168,0.53744 0.59531,0.66146 0.17364,0.12402 1.16582,0.60358 1.16582,0.60358 10.11317,5.42348 4.68311,29.0005 5.83904,44.50152 z"
           id="path64"
           sodipodi:nodetypes="ccsssccscccsccccccccsccccccscc" />
        <path
           style="opacity:1;fill:none;fill-opacity:1;stroke:#000000;stroke-width:0.475001;stroke-linecap:round;stroke-dasharray:none;stroke-opacity:1;paint-order:fill markers stroke"
           d="m 104.185,126.3667 1.90597,-7.49524"
           id="path65" />
        <path
           style="opacity:1;fill:none;fill-opacity:1;stroke:#000000;stroke-width:0.475001;stroke-linecap:round;stroke-dasharray:none;stroke-opacity:1;paint-order:fill markers stroke"
           d="m 123.59682,138.68635 c 0.0908,0.0279 3.59214,-0.22384 4.51283,-1.03517"
           id="path69"
           sodipodi:nodetypes="cc" />
        <path
           style="opacity:1;fill:none;fill-opacity:1;stroke:#000000;stroke-width:0.475001;stroke-linecap:round;stroke-dasharray:none;stroke-opacity:1;paint-order:fill markers stroke"
           d="m 116.36915,155.65777 0.22528,-32.73401 c 0,0 2.86494,-5.91178 3.47679,-9.05371 0.61185,-3.14193 0.33073,-5.34128 0.33073,-5.34128"
           id="path70" />
        <path
           style="opacity:1;fill:#53371f;fill-opacity:1;stroke:none;stroke-width:0.475001;stroke-linecap:round;stroke-dasharray:none;paint-order:fill markers stroke"
           d="m 112.40512,106.69022 -0.0813,0.84576 4.2451,2.81381 3.44813,-2.45598 -0.21144,-0.65059 -7.25409,-0.553"
           id="path71" />
        <path
           style="opacity:1;fill:none;fill-opacity:1;stroke:#000000;stroke-width:0.475001;stroke-linecap:round;stroke-dasharray:none;stroke-opacity:1;paint-order:fill markers stroke"
           d="m 112.18084,107.50636 c 0,0 2.29856,2.06705 4.38216,2.77812 0,0 2.64583,-1.33945 3.57187,-2.28203"
           id="path72" />
        <path
           style="opacity:1;fill:none;fill-opacity:1;stroke:#000000;stroke-width:0.475001;stroke-linecap:round;stroke-dasharray:none;stroke-opacity:1;paint-order:fill markers stroke"
           d="m 111.62177,108.11386 c 0,0 0.0468,1.77734 0.3508,2.73618 0.30402,0.95882 3.97563,8.79316 5.26187,10.47696"
           id="path73" />
        <path
           style="opacity:1;fill:none;fill-opacity:1;stroke:#000000;stroke-width:0.475001;stroke-linecap:round;stroke-dasharray:none;stroke-opacity:1;paint-order:fill markers stroke"
           d="m 117.16428,122.98741 5.77636,-6.73519 c 0,0 -0.79513,-0.74835 -0.91206,-1.05237 -0.11693,-0.30402 -0.21047,-0.42095 -0.21047,-0.42095 0,0 1.96443,-0.5145 2.12813,-0.63143"
           id="path74" />
        <path
           style="opacity:1;fill:none;fill-opacity:1;stroke:#000000;stroke-width:0.475001;stroke-linecap:round;stroke-dasharray:none;stroke-opacity:1;paint-order:fill markers stroke"
           d="m 121.91165,109.70412 2.03576,4.47358 0.39639,6.28402"
           id="path75"
           sodipodi:nodetypes="ccc" />
        <path
           style="opacity:1;fill:none;fill-opacity:1;stroke:#000000;stroke-width:0.475001;stroke-linecap:round;stroke-dasharray:none;stroke-opacity:1;paint-order:fill markers stroke"
           d="m 107.43567,130.93868 c 0,0 2.15152,-0.23386 3.22728,-1.94105 1.07575,-1.70718 1.14591,-4.56028 1.14591,-4.56028 0,0 0.0468,-2.24506 -0.35079,-2.82972 -0.39756,-0.58465 -1.21607,-1.44993 -1.82411,-1.44993 -0.60804,0 -1.89427,-0.28064 -2.45554,1.07575 -0.56127,1.3564 -0.46772,3.57808 -0.18709,4.53691 0.28063,0.95882 1.63703,3.83531 2.59586,4.34981 0.95883,0.51449 2.03458,0.25725 2.54908,-0.0234"
           id="path77" />
        <path
           style="opacity:1;fill:none;fill-opacity:1;stroke:#000000;stroke-width:0.475001;stroke-linecap:round;stroke-dasharray:none;stroke-opacity:1;paint-order:fill markers stroke"
           d="m 103.8671,138.31042 c 0,0 3.83709,1.22266 6.40024,1.0573"
           id="path79"
           sodipodi:nodetypes="cc" />
        <path
           style="opacity:1;fill:none;fill-opacity:1;stroke:#000000;stroke-width:0.475001;stroke-linecap:round;stroke-dasharray:none;stroke-opacity:1;paint-order:fill markers stroke"
           d="m 112.31562,111.62109 c 0,0 1.57097,1.60404 2.4474,2.05052 l 1.75287,-3.03444 2.12493,2.53835 c 0,0 1.4304,-1.70325 1.62057,-2.15801 0.19017,-0.45475 0.23151,-0.67799 0.23151,-0.67799"
           id="path80" />
        <path
           style="opacity:1;fill:#6f8fbb;fill-opacity:1;stroke:#000000;stroke-width:0.475001;stroke-linecap:round;stroke-dasharray:none;stroke-opacity:1;paint-order:fill markers stroke"
           d="m 115.81958,112.17135 0.12862,1.88258 1.75396,-0.0585 0.15201,-1.63702 -1.29793,-1.69549 z"
           id="path81" />
        <path
           style="opacity:1;fill:#6b8cb8;fill-opacity:1;stroke:#000000;stroke-width:0.475001;stroke-linecap:round;stroke-dasharray:none;stroke-opacity:1;paint-order:fill markers stroke"
           d="m 115.84296,118.75453 c 0.0234,-0.24555 0.0351,-4.31473 0.14032,-4.58367 0.10524,-0.26894 1.64872,-0.19878 1.64872,-0.19878 0,0 0.8302,3.91717 0.76005,4.44335 l -1.07576,2.94665 z"
           id="path82" />
        <ellipse
           style="opacity:1;fill:none;fill-opacity:1;stroke:#000000;stroke-width:0.475001;stroke-linecap:round;stroke-dasharray:none;stroke-opacity:1;paint-order:fill markers stroke"
           id="ellipse82"
           cx="118.16953"
           cy="125.3877"
           rx="0.55397135"
           ry="0.58704424" />
        <ellipse
           style="opacity:1;fill:none;fill-opacity:1;stroke:#000000;stroke-width:0.475001;stroke-linecap:round;stroke-dasharray:none;stroke-opacity:1;paint-order:fill markers stroke"
           id="ellipse83"
           cx="118.18157"
           cy="133.10774"
           rx="0.60803819"
           ry="0.64896381" />
        <ellipse
           style="opacity:1;fill:none;fill-opacity:1;stroke:#000000;stroke-width:0.475001;stroke-linecap:round;stroke-dasharray:none;stroke-opacity:1;paint-order:fill markers stroke"
           id="ellipse84"
           cx="124.32042"
           cy="122.18643"
           rx="1.6487188"
           ry="1.7130306" />
        <ellipse
           style="opacity:1;fill:none;fill-opacity:1;stroke:#000000;stroke-width:0.475001;stroke-linecap:round;stroke-dasharray:none;stroke-opacity:1;paint-order:fill markers stroke"
           id="ellipse85"
           cx="124.21518"
           cy="122.26244"
           rx="0.67819637"
           ry="0.71327555" />
        <ellipse
           style="opacity:1;fill:#000000;fill-opacity:1;stroke:#000000;stroke-width:0.475001;stroke-linecap:round;stroke-dasharray:none;stroke-opacity:1;paint-order:fill markers stroke"
           id="ellipse86"
           cx="112.28243"
           cy="130.37741"
           rx="0.43848905"
           ry="0.549573" />
        <ellipse
           style="opacity:1;fill:#000000;fill-opacity:1;stroke:#000000;stroke-width:0.475001;stroke-linecap:round;stroke-dasharray:none;stroke-opacity:1;paint-order:fill markers stroke"
           id="ellipse87"
           cx="107.38013"
           cy="130.66682"
           rx="0.28355625"
           ry="0.640194" />
        <path
           style="opacity:1;fill:#585850;fill-opacity:1;stroke:#000000;stroke-width:0.475001;stroke-linecap:round;stroke-dasharray:none;stroke-opacity:1;paint-order:fill markers stroke"
           d="m 105.75187,155.47068 c 0,0 -0.37418,19.31691 -0.46772,21.18779 -0.0935,1.87089 -0.35205,4.78782 -0.3934,4.88704 -0.0413,0.0992 -0.0496,0.23151 -0.0496,0.23151 l 0.008,0.13229 0.0744,0.0909 0.0744,0.0661 c 0,0 2.81946,0.76068 4.67155,0.72761 1.85208,-0.0331 3.70416,-0.56224 3.70416,-0.56224 0,0 0.79375,-13.59297 0.82683,-14.2875 0.0331,-0.69453 0.42994,-7.37526 0.42994,-7.37526 l 0.1822,-4.7128 2.36471,-0.0992 -0.0331,3.43958 c 0,0 0.2539,19.56672 0.16036,20.59571 -0.0935,1.02899 -0.0935,2.33861 -0.0935,2.33861 l 0.0779,0.0844 c 0,0 0.0496,0.0372 0.0785,0.0455 0.0289,0.008 0.0827,0.0289 0.0827,0.0289 l 0.0413,0.0165 c 0,0 4.5806,0.28939 5.70507,0.0579 1.12448,-0.23151 2.19372,-0.56649 2.19372,-0.56649 0,0 0.0643,-0.0234 0.0877,-0.0351 0.0234,-0.0117 0.0585,-0.0468 0.0585,-0.0468 0,0 0.0409,-0.0351 0.0468,-0.0585 0.006,-0.0234 0.0292,-0.0994 0.0292,-0.0994 l 0.0234,-0.22801 c 0,0 0.18124,-18.56271 0.36833,-19.5917 0.18709,-1.02898 0.21047,-6.40778 0.21047,-6.40778 l 0.0117,-0.14019 c 0,0 -6.17393,0.5028 -9.09719,0.54957 0,0 -6.11752,0.37088 -11.37733,-0.26894 z"
           id="path87" />
        <path
           style="opacity:1;fill:#44463e;fill-opacity:1;stroke:#000000;stroke-width:0.475001;stroke-linecap:round;stroke-dasharray:none;stroke-opacity:1;paint-order:fill markers stroke"
           d="m 105.93255,182.44674 c 0,0 -1.12448,2.18281 -1.4056,3.10886 -0.28112,0.92604 -0.39687,1.70325 -0.39687,1.70325 0,0 0.0827,0.74414 0.47955,1.09141 0.39688,0.34726 2.23243,0.69453 2.23243,0.69453 0,0 1.98437,0.0992 2.8608,0.0331 0.87644,-0.0661 2.59623,-0.26458 2.97657,-0.47956 0.38033,-0.21497 0.66145,-1.15755 0.67799,-1.81901 0.0165,-0.66145 -0.59531,-3.48919 -0.84336,-4.21679 -0.0661,-0.0496 -3.07578,0.52913 -6.58151,-0.11579 z"
           id="path88" />
        <path
           style="opacity:1;fill:none;fill-opacity:1;stroke:#000000;stroke-width:0.475001;stroke-linecap:round;stroke-dasharray:none;stroke-opacity:1;paint-order:fill markers stroke"
           d="m 105.08919,187.72187 c 0,0 6.1681,0.1819 7.9375,0.0661"
           id="path89" />
        <path
           style="opacity:1;fill:#43453d;fill-opacity:1;stroke:#000000;stroke-width:0.475001;stroke-linecap:round;stroke-dasharray:none;stroke-opacity:1;paint-order:fill markers stroke"
           d="m 118.07031,182.43021 c 0,0 -0.51263,2.91041 -0.39687,3.95221 0.11575,1.0418 0.64905,1.02939 0.64905,1.02939 0,0 1.25264,0.48783 3.20394,0.34314 0,0 0.53139,-0.0465 0.69509,-0.12255 0,0 -0.0175,-0.38587 0.0175,-0.52619 0,0 1.36228,0.57296 1.89431,0.66066 0,0 4.06918,0.53788 6.057,0.0234 0,0 3.42425,-0.4322 0.61306,-3.09457 0,0 -3.75378,-2.11666 -5.67201,-2.76159 z"
           id="path90" />
        <path
           style="opacity:1;fill:none;fill-opacity:1;stroke:#000000;stroke-width:0.475001;stroke-linecap:round;stroke-dasharray:none;stroke-opacity:1;paint-order:fill markers stroke"
           d="M 130.27218,187.76686 Z"
           id="path91" />
        <ellipse
           style="opacity:1;fill:none;fill-opacity:1;stroke:#000000;stroke-width:0.49018;stroke-linecap:round;stroke-dasharray:none;stroke-opacity:1;paint-order:fill markers stroke"
           id="ellipse92"
           cx="118.11141"
           cy="140.97717"
           rx="0.60044849"
           ry="0.69983935" />
        <path
           style="opacity:1;fill:#43453d;fill-opacity:1;stroke:#000000;stroke-width:0.475001;stroke-linecap:round;stroke-dasharray:none;stroke-opacity:1;paint-order:fill markers stroke"
           d="m 119.7901,107.32988 0.3142,0.678"
           id="path93" />
        <path
           style="opacity:1;fill:none;fill-opacity:1;stroke:#000000;stroke-width:0.475001;stroke-linecap:round;stroke-dasharray:none;stroke-opacity:1;paint-order:fill markers stroke"
           d="m 110.42909,109.37671 c 0,0 -2.50232,5.3788 -1.33301,10.47697"
           id="path76" />
        <path
           style="opacity:1;fill:none;fill-opacity:1;stroke:#000000;stroke-width:0.475001;stroke-linecap:round;stroke-dasharray:none;stroke-opacity:1;paint-order:fill markers stroke"
           d="m 109.07448,114.3 2.64583,0.34726 -1.2237,2.21589 5.37435,5.07669"
           id="path78" />
      </g>
      <g
         id="g102"
         transform="matrix(0.35416767,0,0,0.35416767,91.466983,100.44304)">
        <path
           style="opacity:1;fill:#624225;fill-opacity:1;stroke:#000000;stroke-width:0.475;stroke-linecap:square;stroke-dasharray:none;paint-order:fill markers stroke"
           d="m 121.53883,97.587071 c 0,0 0.57898,2.110118 1.17713,2.926849 2.25957,3.04774 6.8264,3.24107 8.4434,2.43258 1.00015,-0.51874 1.71968,-1.38296 2.34044,-2.30019 0,0 1.1789,-2.067889 1.38221,-3.637439 0.20331,-1.56955 0.19517,-1.85419 0.19517,-1.85419 0,0 0.14639,-2.992716 0.0895,-3.952337 -0.0569,-0.959622 -0.0976,-1.626477 -0.0976,-1.626477 0,0 -0.13015,-2.195744 -0.5449,-3.155366 -0.41475,-0.959621 -0.83763,-1.284917 -0.83763,-1.284917 l -11.38866,-0.22254 -0.89707,7.774629 c 0,0 -0.46004,-0.598049 -1.11559,-0.678555 -0.65555,-0.08051 -1.2536,0.356529 -1.35711,0.506041 -0.10351,0.149512 -0.52904,0.793564 -0.39103,1.955158 0.13801,1.161594 0.31052,1.874654 1.00058,2.553204 0.69005,0.67856 2.00116,0.56355 2.00116,0.56355 z"
           id="path94"
           sodipodi:nodetypes="csscscscscccssssc" />
        <path
           style="opacity:1;fill:none;fill-opacity:1;stroke:#000000;stroke-width:0.475;stroke-linecap:round;stroke-dasharray:none;paint-order:fill markers stroke"
           d="m 119.79069,93.797511 c 0,0 0.0748,0.0057 0.10926,0.01725 0.3893,0.130631 0.53996,0.499961 0.73036,0.828056 l 0.046,0.08626 0.046,0.08051 c 0.0138,0.06737 0.0774,0.09282 0.115,0.13801"
           id="path95"
           sodipodi:nodetypes="cccccc" />
        <ellipse
           style="opacity:1;fill:none;fill-opacity:1;stroke:#000000;stroke-width:0.475001;stroke-linecap:round;stroke-dasharray:none;paint-order:fill markers stroke"
           id="ellipse95"
           cx="140.47131"
           cy="79.93634"
           rx="0.23380607"
           ry="0.80307299"
           transform="rotate(5.3741535)" />
        <path
           style="opacity:1;fill:none;fill-opacity:1;stroke:#000000;stroke-width:0.475001;stroke-linecap:round;stroke-dasharray:none;paint-order:fill markers stroke"
           id="ellipse96"
           transform="rotate(3.3601474)"
           sodipodi:arc-type="arc"
           sodipodi:type="arc"
           sodipodi:cx="131.21066"
           sodipodi:cy="85.12822"
           sodipodi:rx="0.23380607"
           sodipodi:ry="0.76743072"
           sodipodi:start="0"
           sodipodi:end="6.271205"
           d="m 131.44447,85.12822 a 0.23380607,0.76743072 0 0 1 -0.23311,0.767427 0.23380607,0.76743072 0 0 1 -0.2345,-0.76283 0.23380607,0.76743072 0 0 1 0.2317,-0.771997 0.23380607,0.76743072 0 0 1 0.23589,0.758206"
           sodipodi:open="true" />
        <path
           style="opacity:1;fill:none;fill-opacity:1;stroke:#000000;stroke-width:0.475001;stroke-linecap:round;stroke-dasharray:none;paint-order:fill markers stroke"
           d="m 124.53858,90.109947 c -0.0992,0.03051 0.8895,-1.001228 2.71622,-0.0081"
           id="path96"
           sodipodi:nodetypes="cc" />
        <path
           style="opacity:1;fill:none;fill-opacity:1;stroke:#000000;stroke-width:0.475001;stroke-linecap:round;stroke-dasharray:none;paint-order:fill markers stroke"
           d="m 131.86489,89.234305 c 0,0 1.47666,-1.128016 2.25737,-0.03015"
           id="path97"
           sodipodi:nodetypes="cc" />
        <path
           style="opacity:1;fill:none;fill-opacity:1;stroke:#000000;stroke-width:0.475001;stroke-linecap:round;stroke-dasharray:none;paint-order:fill markers stroke"
           d="m 130.23353,92.239136 c 0,0 0.27602,1.713637 0.44854,2.277184 0.17251,0.563541 0.47288,1.18517 0.47288,1.18517 0.30002,1.364772 -0.94313,1.432027 -1.53097,1.356531"
           id="path98"
           sodipodi:nodetypes="cscc" />
        <path
           style="opacity:1;fill:#000000;fill-opacity:1;stroke:#000000;stroke-width:0.475001;stroke-linecap:round;stroke-dasharray:none;paint-order:fill markers stroke"
           d="m 121.40082,92.618665 c 0,0 0.22796,-2.220537 0.97552,-3.405134 0.74756,-1.184595 1.09465,-1.9888 1.09465,-1.9888 0,0 0.25302,-1.035083 0.17826,-1.454867 -0.0748,-0.419784 -0.10926,-0.626801 -0.10926,-0.626801 0,0 1.53761,0.847895 2.41743,1.049162 0.87982,0.201266 1.61124,0.252419 1.61124,0.252419 0,0 0.91991,-0.112437 1.07517,-0.118186 0.15526,-0.0058 0.539,-0.204015 0.539,-0.204015 0,0 -1.00796,-0.369828 -1.08272,-0.617098 -0.0748,-0.24727 -0.12651,-0.316275 -0.12651,-0.316275 0,0 2.64521,0.644052 3.46753,0.753311 0.82232,0.109259 1.15009,0.09776 1.15009,0.09776 0,0 1.82165,0.272582 2.68368,-0.01205 0.86204,-0.284633 1.20033,-0.677904 1.20033,-0.677904 0,0 -1.25029,-1.368716 -1.59532,-1.54123 -0.34503,-0.172514 -1.2766,-0.678555 -1.2766,-0.678555 0,0 0.86216,0.127204 1.02318,-0.03381 0.16101,-0.161013 0.45463,-0.561662 0.45463,-0.561662 0,0 -3.55948,-1.256178 -5.66415,-1.290681 0,0 -3.59979,-0.09201 -5.18692,0.678555 -1.58713,0.770562 -1.67914,0.885571 -1.97816,1.219098 -0.29903,0.333527 -0.51754,0.667054 -0.54055,0.770563 -0.023,0.103508 -0.023,0.207016 -0.023,0.207016 0,0 0.21852,-0.736059 -0.57504,-0.184015 -0.79357,0.552045 -1.1731,1.058086 -1.1731,1.058086 0,0 -0.96514,1.792908 -0.85129,3.126619 0.11386,1.333711 0.19518,2.407186 0.39036,3.090306 0.19518,0.68312 0.22771,0.910827 0.22771,0.910827 0.77404,-0.106461 1.22154,0.21157 1.69384,0.497361 z"
           id="path100"
           sodipodi:nodetypes="cscccscccccscscscsccssscscsscc" />
        <path
           style="opacity:1;fill:#000000;fill-opacity:1;stroke:#000000;stroke-width:0.475001;stroke-linecap:round;stroke-dasharray:none;paint-order:fill markers stroke"
           d="m 135.30489,91.991184 c 0,0 0.553,-1.4313 0.69938,-3.025248 0.14639,-1.593948 -0.0163,-2.390921 -0.0976,-2.602362 -0.0813,-0.211442 -0.35782,-0.650592 -0.35782,-0.650592 l -1.41503,0.227708 c 0,0 0.66685,1.154798 0.71565,1.528887 0.0488,0.374092 0.39035,2.537304 0.37408,3.090307 -0.0163,0.553003 0.0813,1.4313 0.0813,1.4313 z"
           id="path101" />
        <path
           style="opacity:1;fill:#543920;fill-opacity:1;stroke:#000000;stroke-width:0.475001;stroke-linecap:round;stroke-dasharray:none;paint-order:fill markers stroke"
           d="m 135.47567,91.999318 c 0,0 0.62951,0.547744 0.73191,1.219856 0.21991,1.443375 0.0186,2.847882 -1.25286,3.618917 l 0.11433,-0.82138 0.0407,-0.87829 0.0244,-0.878302 0.0325,-1.114137 0.0488,-1.195459 z"
           id="path102"
           sodipodi:nodetypes="csccccccc" />
      </g>
      <path
         style="opacity:1;fill:#fefaf3;fill-opacity:1;stroke:#000000;stroke-width:0.175;stroke-linecap:round;stroke-dasharray:none;stroke-opacity:1;paint-order:fill markers stroke"
         d="m 139.88543,138.3907 c 0,0 1.04179,0.26459 1.45521,0.62839 0.41341,0.3638 0.77721,0.9095 0.87643,1.42213 0.0992,0.51264 0.57877,1.88516 0.57877,1.88516 l 0.34727,1.30638 0.71107,-0.52917 c 0,0 0.19843,-0.28938 0.33073,-0.33899 0.13229,-0.0496 0.12402,-0.0744 0.25631,-0.0661 0.13229,0.008 0.20671,0.0165 0.20671,0.0165 0,0 -0.1571,0.14056 -0.13229,0.3638 0.0248,0.22324 0.0744,0.47129 0.11575,0.5457 0.0413,0.0744 0.33073,0.5209 0.47956,0.62839 0.14883,0.10749 0.57051,0.0661 0.57051,0.0661 0,0 0.0248,0.19017 -0.0661,0.33073 -0.091,0.14056 -0.32246,0.25632 -0.32246,0.25632 0,0 -0.64998,0.71793 -1.01246,0.91672 -0.36249,0.19878 -0.77174,0.58465 -1.1693,0.70158 -0.39757,0.11693 -1.05238,0.0702 -1.25116,-0.23386 0,0 -0.49807,-0.47483 -0.56421,-0.61539"
         id="path104" />
      <path
         style="opacity:1;fill:#fefaf3;fill-opacity:1;stroke:#000000;stroke-width:0.175;stroke-linecap:round;stroke-dasharray:none;stroke-opacity:1;paint-order:fill markers stroke"
         d="m 141.22271,146.03439 c 0,0 0.21632,-5.2034 0.14616,-5.62435"
         id="path105"
         sodipodi:nodetypes="cc" />
      <path
         style="opacity:1;fill:#624225;fill-opacity:1;stroke:#000000;stroke-width:0.175;stroke-linecap:round;stroke-dasharray:none;stroke-opacity:1;paint-order:fill markers stroke"
         d="m 144.6699,142.81679 0.38034,-0.95084 c 0,0 0.27285,-0.47956 0.5457,-0.59532 0.27286,-0.11575 0.62839,-0.56224 0.7028,-0.61185 0.0744,-0.0496 0.3142,-0.28112 0.3142,-0.28112 0,0 0.1819,-0.11575 0.26458,0.008 0.0827,0.12402 0.10109,0.38659 0.028,0.50937 -0.0731,0.12278 -0.45602,0.6285 -0.45602,0.6285 0,0 -0.19586,0.21047 0.19293,0.1754 0.38879,-0.0351 0.91498,-0.11693 0.91498,-0.11693 0,0 0.94423,-0.18389 1.0787,-0.17805 0.13447,0.006 0.38587,-0.0234 0.43264,0.0935 0.0468,0.11693 0.0292,0.21632 0.0292,0.21632 l -1.05822,0.36248 c 0,0 -0.4151,0.076 -0.49111,0.0409 l 0.14746,0.0299 0.2067,-0.0331 1.16582,-0.39687 c 0,0 0.22738,-0.0413 0.28526,0.0413 0.0579,0.0827 0.0785,0.29766 0.0372,0.3638 -0.0413,0.0661 -0.21084,0.0909 -0.21084,0.0909 0,0 -1.51722,0.34326 -1.65364,0.43835 l 0.58291,-0.1695 c 0,0 0.35553,-0.10335 0.3886,-0.11576 0.0331,-0.0124 0.51263,-0.11575 0.51263,-0.11575 l 0.23565,-0.0372 c 0,0 0.0372,0.25218 -0.0248,0.34727 -0.062,0.0951 -0.22737,0.21497 -0.401,0.24391 -0.17364,0.0289 -0.66146,0.13229 -0.72347,0.1695 -0.062,0.0372 -0.74828,0.1571 -0.79789,0.17777 l 1.55028,-0.35968 c 0,0 0.14056,0.12402 0.0951,0.23978 -0.0455,0.11575 -0.31006,0.31419 -0.31006,0.31419 0,0 -0.99633,0.49609 -1.13689,0.55397 -0.14056,0.0579 -0.81856,0.15296 -0.99632,0.17363 -0.17777,0.0207 -0.60358,0.0372 -0.64079,0.0372 l -0.13599,0.0674 c 0,0 -0.12278,0.10231 -0.15786,0.114 -0.0351,0.0117 -0.16955,0.0468 -0.16955,0.0468 0,0 -0.22801,-0.0848 -0.26017,-0.1257 -0.0322,-0.0409 -0.21924,-0.23094 -0.21924,-0.23094 l -0.16078,-0.22217 -0.13447,-0.24848 -0.0789,-0.34494 0.0351,-0.20171 z"
         id="path106" />
      <path
         style="opacity:1;fill:#624225;fill-opacity:1;stroke:#000000;stroke-width:0.175;stroke-linecap:round;stroke-dasharray:none;stroke-opacity:1;paint-order:fill markers stroke"
         d="m 147.58789,141.94896 c 0,0 -0.004,0.0248 0,0.17363 0.004,0.14883 0.008,0.26872 -0.0207,0.339 -0.0289,0.0703 -0.0868,0.11575 -0.11161,0.24804 -0.0248,0.1323 -0.0744,0.25218 -0.091,0.31006 -0.0165,0.0579 -0.0372,0.16123 -0.0372,0.16123"
         id="path107" />
      <path
         style="opacity:1;fill:#624225;fill-opacity:1;stroke:#000000;stroke-width:0.175;stroke-linecap:round;stroke-dasharray:none;stroke-opacity:1;paint-order:fill markers stroke"
         d="m 145.65312,143.13958 c 0,0 0.69453,-0.29765 0.99219,-0.0909"
         id="path108" />
      <g
         id="right_arm"
         transform="translate(3.9356771,1.2567708)">
        <path
           style="opacity:1;fill:#624225;fill-opacity:1;stroke:#000000;stroke-width:0.175;stroke-linecap:round;stroke-dasharray:none;stroke-opacity:1;paint-order:fill markers stroke"
           d="m 129.4745,140.11868 c 0,0 -0.28112,1.27331 -0.34726,1.62057 -0.0662,0.34727 -0.0992,0.52917 -0.0992,0.52917"
           id="path109" />
        <path
           style="opacity:1;fill:#fefcf5;fill-opacity:1;stroke:#000000;stroke-width:0.175;stroke-linecap:round;stroke-dasharray:none;stroke-opacity:1;paint-order:fill markers stroke"
           d="m 129.23242,142.20532 0.21498,-0.091 0.16891,-0.0144 0.0585,0.27479 0.0526,0.35664 0.12278,0.39756 0.13447,0.30987 0.26894,0.33909 0.30402,0.18125 0.009,0.1066 c 0,0 -0.0175,0.11104 -0.0994,0.18124 -0.0819,0.0702 -1.84165,0.74251 -2.53739,0.83021 0,0 -1.02313,0.11109 -1.409,-0.63142 -0.38587,-0.74251 -0.14616,-1.79488 -0.14616,-1.79488 0,0 0.78343,-4.02826 1.37978,-4.74153 0.59634,-0.71328 0.0234,-0.40926 1.81242,-1.20438 0,0 0.80097,-0.3742 1.10499,-0.4268 l 0.24831,-0.1183 -0.33909,1.01729 -0.21048,0.74836 -0.0351,0.0906 0.16957,0.009 -0.12278,-0.0148 -0.0292,0.003 -0.0234,-1.1e-4"
           id="path111" />
        <path
           style="opacity:1;fill:#624225;fill-opacity:1;stroke:#000000;stroke-width:0.175;stroke-linecap:round;stroke-dasharray:none;stroke-opacity:1;paint-order:fill markers stroke"
           d="m 127.34957,142.78105 c 0,0 2.00918,-0.73587 2.27376,-0.68626 0,0 0.27387,-0.43491 0.35864,-0.58984 0.0848,-0.15493 0.19586,-0.39756 0.20463,-0.5028 0.009,-0.10524 -0.006,-0.21632 -0.006,-0.21632 l -0.0198,-0.22066 -0.008,-0.091 0.003,-0.0611 0.0438,-0.0906 c 0,0 0.1184,-0.11255 0.22509,-0.12424 0.1067,-0.0117 0.2441,-0.0205 0.32449,0.0482 0.0804,0.0687 0.14177,0.17247 0.15347,0.22509 0,0 0.10246,0.41662 0.0557,0.61248 -0.0468,0.19586 -0.10231,0.39756 -0.10231,0.39756 0,0 -0.0702,0.36541 0.34786,0.53496 0.41803,0.16955 0.95883,0.11693 0.95883,0.11693 0,0 0.44957,-0.0924 0.56532,-0.0635 0.11576,0.0289 0.30593,0.11575 0.3266,0.25631 0.0207,0.14056 -0.0661,0.28112 -0.0992,0.30592 -0.0331,0.0248 -0.42995,0.1571 -0.56224,0.1571 -0.13229,0 -0.80202,0.0207 -0.80202,0.0207 l 1.64536,-0.14055 c 0,0 0.27818,-0.0434 0.32641,0.0238 0.0482,0.0672 0.10232,0.12717 0.0892,0.20463 -0.0131,0.0775 -0.0395,0.12863 -0.0965,0.16078 -0.0307,0.019 -1.12984,0.38151 -1.82558,0.2295 l 0.52619,0.0643 0.23386,-0.0409 c 0,0 0.35664,-0.0585 0.38587,-0.0643 0.0292,-0.006 0.35664,-0.0819 0.35664,-0.0819 0,0 0.24263,-0.076 0.29817,-0.0584 0.0555,0.0175 0.17539,0.0468 0.17832,0.10231 0.003,0.0555 0.009,0.16663 -0.0439,0.22217 -0.0526,0.0555 -0.15201,0.13154 -0.19001,0.14324 -0.038,0.0117 -0.32741,0.0848 -0.37418,0.0994 -0.0468,0.0146 -0.71328,0.14908 -1.21315,0.0994 0.0731,-0.009 1.26582,-0.0176 1.48506,-0.12868 0,0 0.13155,0.0965 0.0555,0.19585 -0.076,0.0994 -0.2397,0.17248 -0.33032,0.19586 0,0 -1.25891,0.43128 -2.57356,-0.14749 -0.0455,-0.0165 -0.14056,-0.0455 -0.14056,-0.0455 l 0.17777,0.20257 c 0,0 -0.95399,-0.58256 -0.90137,-1.88633"
           id="path110" />
        <path
           style="opacity:1;fill:#fefcf5;fill-opacity:1;stroke:#000000;stroke-width:0.175;stroke-linecap:round;stroke-dasharray:none;stroke-opacity:1;paint-order:fill markers stroke"
           d="m 129.078,142.25629 c 0,0 0.1754,1.61364 0.86529,2.10475"
           id="path112" />
        <path
           style="opacity:1;fill:#fefcf5;fill-opacity:1;stroke:#000000;stroke-width:0.175;stroke-linecap:round;stroke-dasharray:none;stroke-opacity:1;paint-order:fill markers stroke"
           d="m 129.18281,142.04818 c 0.0863,-1.07957 0.26325,-2.06856 0.0872,-3.41053"
           id="path113"
           sodipodi:nodetypes="cc" />
      </g>
      <path
         style="opacity:1;fill:none;fill-opacity:1;stroke:#000000;stroke-width:0.175;stroke-linecap:round;stroke-dasharray:none;stroke-opacity:1;paint-order:fill markers stroke"
         d="m 136.36035,135.48687 c 0,0 1.14515,0.0413 1.31465,0.0331 0.1695,-0.008 0.33486,0.0124 0.35967,0.10748 0.0248,0.0951 -0.10749,0.27699 -0.26459,0.339 -0.15709,0.062 -0.88883,0.10335 -0.99218,0.0579 -0.10336,-0.0455 -0.42168,-0.12403 -0.49197,-0.23151 -0.0703,-0.10749 -0.11575,-0.28526 0.0744,-0.30593 z"
         id="path114" />
    </g>
  </g>
</svg>
